<svg width="24" height="24" viewBox="0 0 24 24" fill="none" xmlns="http://www.w3.org/2000/svg">
<path fill="currentColor" d="M15.6464 15.1464C15.9614 15.4614 16.5 15.2383 16.5 14.7929V9.20711C16.5 8.76165 15.9614 8.53857 15.6464 8.85355L12.8536 11.6464C12.6583 11.8417 12.6583 12.1583 12.8536 12.3536L15.6464 15.1464ZM5 21C4.45 21 3.97917 20.8042 3.5875 20.4125C3.19583 20.0208 3 19.55 3 19V5C3 4.45 3.19583 3.97917 3.5875 3.5875C3.97917 3.19583 4.45 3 5 3H19C19.55 3 20.0208 3.19583 20.4125 3.5875C20.8042 3.97917 21 4.45 21 5V19C21 19.55 20.8042 20.0208 20.4125 20.4125C20.0208 20.8042 19.55 21 19 21H5ZM7.5 19C7.77614 19 8 18.7761 8 18.5V5.5C8 5.22386 7.77614 5 7.5 5H5.5C5.22386 5 5 5.22386 5 5.5V18.5C5 18.7761 5.22386 19 5.5 19H7.5ZM10 18.5C10 18.7761 10.2239 19 10.5 19H18.5C18.7761 19 19 18.7761 19 18.5V5.5C19 5.22386 18.7761 5 18.5 5H10.5C10.2239 5 10 5.22386 10 5.5V18.5Z"/>
</svg>
