<svg width="3508" height="2480" viewBox="0 0 3508 2480" fill="none" xmlns="http://www.w3.org/2000/svg">
<g clip-path="url(#clip0_257_1406)">
<rect width="3508" height="2480" fill="white"/>
<path d="M1792 2330.12C1791.17 2330.12 1790.48 2329.85 1789.94 2329.3C1789.4 2328.76 1789.12 2328.07 1789.12 2327.24C1789.12 2326.39 1789.4 2325.7 1789.94 2325.18C1790.48 2324.63 1791.17 2324.36 1792 2324.36C1792.85 2324.36 1793.54 2324.63 1794.07 2325.18C1794.61 2325.7 1794.88 2326.39 1794.88 2327.24C1794.88 2328.07 1794.61 2328.76 1794.07 2329.3C1793.54 2329.85 1792.85 2330.12 1792 2330.12ZM1813.36 2329.04V2327.12H1821.04V2329.04H1813.36ZM1827.75 2329.04V2327.12H1835.43V2329.04H1827.75ZM1842.14 2329.04V2327.12H1849.82V2329.04H1842.14ZM1856.53 2329.04V2327.12H1864.21V2329.04H1856.53ZM1870.92 2329.04V2327.12H1878.6V2329.04H1870.92ZM1885.31 2329.04V2327.12H1892.99V2329.04H1885.31ZM1899.7 2329.04V2327.12H1907.38V2329.04H1899.7ZM1914.09 2329.04V2327.12H1921.77V2329.04H1914.09ZM1928.49 2329.04V2327.12H1936.17V2329.04H1928.49ZM1942.88 2329.04V2327.12H1950.56V2329.04H1942.88ZM1957.27 2329.04V2327.12H1964.95V2329.04H1957.27ZM1971.66 2329.04V2327.12H1979.34V2329.04H1971.66ZM1986.05 2329.04V2327.12H1993.73V2329.04H1986.05ZM2000.44 2329.04V2327.12H2008.12V2329.04H2000.44ZM2014.83 2329.04V2327.12H2022.51V2329.04H2014.83ZM2029.22 2329.04V2327.12H2036.9V2329.04H2029.22ZM2043.61 2329.04V2327.12H2051.29V2329.04H2043.61ZM2058 2329.04V2327.12H2065.68V2329.04H2058ZM2072.39 2329.04V2327.12H2080.07V2329.04H2072.39ZM2086.78 2329.04V2327.12H2094.46V2329.04H2086.78ZM2101.17 2329.04V2327.12H2108.85V2329.04H2101.17ZM2115.56 2329.04V2327.12H2123.24V2329.04H2115.56ZM2129.95 2329.04V2327.12H2137.63V2329.04H2129.95ZM2144.34 2329.04V2327.12H2152.02V2329.04H2144.34ZM2158.74 2329.04V2327.12H2166.42V2329.04H2158.74ZM2173.13 2329.04V2327.12H2180.81V2329.04H2173.13ZM2187.52 2329.04V2327.12H2195.2V2329.04H2187.52ZM2201.91 2329.04V2327.12H2209.59V2329.04H2201.91ZM2216.3 2329.04V2327.12H2223.98V2329.04H2216.3ZM2230.69 2329.04V2327.12H2238.37V2329.04H2230.69ZM2245.08 2329.04V2327.12H2252.76V2329.04H2245.08ZM2259.47 2329.04V2327.12H2267.15V2329.04H2259.47ZM2273.86 2329.04V2327.12H2281.54V2329.04H2273.86ZM2288.25 2329.04V2327.12H2295.93V2329.04H2288.25ZM2302.64 2329.04V2327.12H2310.32V2329.04H2302.64ZM2317.03 2329.04V2327.12H2324.71V2329.04H2317.03ZM2331.42 2329.04V2327.12H2339.1V2329.04H2331.42ZM2345.81 2329.04V2327.12H2353.49V2329.04H2345.81ZM2360.2 2329.04V2327.12H2367.88V2329.04H2360.2ZM2374.59 2329.04V2327.12H2382.27V2329.04H2374.59ZM2388.99 2329.04V2327.12H2396.67V2329.04H2388.99ZM2403.38 2329.04V2327.12H2411.06V2329.04H2403.38ZM2417.77 2329.04V2327.12H2425.45V2329.04H2417.77ZM2432.16 2329.04V2327.12H2439.84V2329.04H2432.16ZM2446.55 2329.04V2327.12H2454.23V2329.04H2446.55ZM2460.94 2329.04V2327.12H2468.62V2329.04H2460.94ZM2475.33 2329.04V2327.12H2483.01V2329.04H2475.33ZM2489.72 2329.04V2327.12H2497.4V2329.04H2489.72ZM2504.11 2329.04V2327.12H2511.79V2329.04H2504.11ZM2518.5 2329.04V2327.12H2526.18V2329.04H2518.5ZM2532.89 2329.04V2327.12H2540.57V2329.04H2532.89ZM2547.28 2329.04V2327.12H2554.96V2329.04H2547.28ZM2561.67 2329.04V2327.12H2569.35V2329.04H2561.67ZM2576.06 2329.04V2327.12H2583.74V2329.04H2576.06ZM2590.45 2329.04V2327.12H2598.13V2329.04H2590.45ZM2604.84 2329.04V2327.12H2612.52V2329.04H2604.84ZM2619.24 2329.04V2327.12H2626.92V2329.04H2619.24ZM2633.63 2329.04V2327.12H2641.31V2329.04H2633.63Z" fill="black"/>
<path d="M118.005 2330.12C117.173 2330.12 116.485 2329.85 115.941 2329.3C115.397 2328.76 115.125 2328.07 115.125 2327.24C115.125 2326.39 115.397 2325.7 115.941 2325.18C116.485 2324.63 117.173 2324.36 118.005 2324.36C118.853 2324.36 119.541 2324.63 120.069 2325.18C120.613 2325.7 120.885 2326.39 120.885 2327.24C120.885 2328.07 120.613 2328.76 120.069 2329.3C119.541 2329.85 118.853 2330.12 118.005 2330.12ZM139.36 2329.04V2327.12H147.04V2329.04H139.36ZM153.751 2329.04V2327.12H161.431V2329.04H153.751ZM168.141 2329.04V2327.12H175.821V2329.04H168.141ZM182.532 2329.04V2327.12H190.212V2329.04H182.532ZM196.923 2329.04V2327.12H204.603V2329.04H196.923ZM211.313 2329.04V2327.12H218.993V2329.04H211.313ZM225.704 2329.04V2327.12H233.384V2329.04H225.704ZM240.094 2329.04V2327.12H247.774V2329.04H240.094ZM254.485 2329.04V2327.12H262.165V2329.04H254.485ZM268.876 2329.04V2327.12H276.556V2329.04H268.876ZM283.266 2329.04V2327.12H290.946V2329.04H283.266ZM297.657 2329.04V2327.12H305.337V2329.04H297.657ZM312.048 2329.04V2327.12H319.728V2329.04H312.048ZM326.438 2329.04V2327.12H334.118V2329.04H326.438ZM340.829 2329.04V2327.12H348.509V2329.04H340.829ZM355.219 2329.04V2327.12H362.899V2329.04H355.219ZM369.61 2329.04V2327.12H377.29V2329.04H369.61ZM384.001 2329.04V2327.12H391.681V2329.04H384.001ZM398.391 2329.04V2327.12H406.071V2329.04H398.391ZM412.782 2329.04V2327.12H420.462V2329.04H412.782ZM427.173 2329.04V2327.12H434.853V2329.04H427.173ZM441.563 2329.04V2327.12H449.243V2329.04H441.563ZM455.954 2329.04V2327.12H463.634V2329.04H455.954ZM470.344 2329.04V2327.12H478.024V2329.04H470.344ZM484.735 2329.04V2327.12H492.415V2329.04H484.735ZM499.126 2329.04V2327.12H506.806V2329.04H499.126ZM513.516 2329.04V2327.12H521.196V2329.04H513.516ZM527.907 2329.04V2327.12H535.587V2329.04H527.907ZM542.298 2329.04V2327.12H549.978V2329.04H542.298ZM556.688 2329.04V2327.12H564.368V2329.04H556.688ZM571.079 2329.04V2327.12H578.759V2329.04H571.079ZM585.469 2329.04V2327.12H593.149V2329.04H585.469ZM599.86 2329.04V2327.12H607.54V2329.04H599.86ZM614.251 2329.04V2327.12H621.931V2329.04H614.251ZM628.641 2329.04V2327.12H636.321V2329.04H628.641ZM643.032 2329.04V2327.12H650.712V2329.04H643.032ZM657.423 2329.04V2327.12H665.103V2329.04H657.423ZM671.813 2329.04V2327.12H679.493V2329.04H671.813ZM686.204 2329.04V2327.12H693.884V2329.04H686.204ZM700.594 2329.04V2327.12H708.274V2329.04H700.594ZM714.985 2329.04V2327.12H722.665V2329.04H714.985ZM729.376 2329.04V2327.12H737.056V2329.04H729.376ZM743.766 2329.04V2327.12H751.446V2329.04H743.766ZM758.157 2329.04V2327.12H765.837V2329.04H758.157ZM772.548 2329.04V2327.12H780.228V2329.04H772.548ZM786.938 2329.04V2327.12H794.618V2329.04H786.938ZM801.329 2329.04V2327.12H809.009V2329.04H801.329ZM815.719 2329.04V2327.12H823.399V2329.04H815.719ZM830.11 2329.04V2327.12H837.79V2329.04H830.11ZM844.501 2329.04V2327.12H852.181V2329.04H844.501ZM858.891 2329.04V2327.12H866.571V2329.04H858.891ZM873.282 2329.04V2327.12H880.962V2329.04H873.282ZM887.673 2329.04V2327.12H895.353V2329.04H887.673ZM902.063 2329.04V2327.12H909.743V2329.04H902.063ZM916.454 2329.04V2327.12H924.134V2329.04H916.454ZM930.844 2329.04V2327.12H938.524V2329.04H930.844ZM945.235 2329.04V2327.12H952.915V2329.04H945.235ZM959.626 2329.04V2327.12H967.306V2329.04H959.626ZM974.016 2329.04V2327.12H981.696V2329.04H974.016ZM988.407 2329.04V2327.12H996.087V2329.04H988.407ZM1002.8 2329.04V2327.12H1010.48V2329.04H1002.8ZM1017.19 2329.04V2327.12H1024.87V2329.04H1017.19ZM1031.58 2329.04V2327.12H1039.26V2329.04H1031.58ZM1045.97 2329.04V2327.12H1053.65V2329.04H1045.97ZM1060.36 2329.04V2327.12H1068.04V2329.04H1060.36ZM1074.75 2329.04V2327.12H1082.43V2329.04H1074.75ZM1089.14 2329.04V2327.12H1096.82V2329.04H1089.14ZM1103.53 2329.04V2327.12H1111.21V2329.04H1103.53ZM1117.92 2329.04V2327.12H1125.6V2329.04H1117.92Z" fill="black"/>
<rect width="307" height="49" transform="translate(1754 2248)" fill="black"/>
<path d="M1765.67 2285V2263.55H1781.73V2285H1778.22V2266.75H1769.18V2285H1765.67ZM1795.21 2292.02V2263.55H1798.72V2267.64H1799.42L1798.72 2268.46C1798.72 2266.83 1799.26 2265.54 1800.32 2264.6C1801.41 2263.64 1802.84 2263.16 1804.61 2263.16C1806.77 2263.16 1808.49 2263.88 1809.76 2265.31C1811.06 2266.71 1811.71 2268.65 1811.71 2271.12V2277.39C1811.71 2279.03 1811.41 2280.45 1810.81 2281.65C1810.24 2282.84 1809.42 2283.76 1808.36 2284.41C1807.32 2285.07 1806.07 2285.39 1804.61 2285.39C1802.87 2285.39 1801.45 2284.91 1800.36 2283.95C1799.27 2282.98 1798.72 2281.7 1798.72 2280.09L1799.42 2280.9H1798.64L1798.72 2285.78V2292.02H1795.21ZM1803.44 2282.35C1804.92 2282.35 1806.08 2281.91 1806.91 2281.02C1807.77 2280.14 1808.2 2278.86 1808.2 2277.2V2271.35C1808.2 2269.69 1807.77 2268.41 1806.91 2267.53C1806.08 2266.64 1804.92 2266.2 1803.44 2266.2C1802.01 2266.2 1800.87 2266.66 1800.01 2267.57C1799.15 2268.48 1798.72 2269.74 1798.72 2271.35V2277.2C1798.72 2278.81 1799.15 2280.07 1800.01 2280.98C1800.87 2281.89 1802.01 2282.35 1803.44 2282.35ZM1824.92 2285V2263.55H1828.27V2275.25C1828.27 2276 1828.24 2276.8 1828.19 2277.63C1828.17 2278.46 1828.11 2279.25 1828.04 2280.01C1827.98 2280.74 1827.92 2281.36 1827.84 2281.88L1836.5 2263.55H1840.98V2285H1837.63V2273.3C1837.63 2272.55 1837.64 2271.75 1837.67 2270.92C1837.72 2270.09 1837.79 2269.3 1837.86 2268.54C1837.94 2267.76 1838.01 2267.12 1838.06 2266.63L1829.4 2285H1824.92ZM1853.84 2285V2263.55H1858.6L1861.4 2271.78C1861.69 2272.61 1861.95 2273.44 1862.18 2274.27C1862.42 2275.08 1862.59 2275.7 1862.69 2276.15C1862.8 2275.7 1862.95 2275.08 1863.16 2274.27C1863.39 2273.44 1863.64 2272.6 1863.9 2271.74L1866.55 2263.55H1871.31V2285H1867.92V2281.68C1867.92 2280.51 1867.93 2279.24 1867.96 2277.86C1867.98 2276.48 1868.01 2275.09 1868.03 2273.69C1868.09 2272.29 1868.14 2270.96 1868.19 2269.71C1868.24 2268.44 1868.28 2267.32 1868.31 2266.36L1864.49 2278.56H1860.78L1856.92 2266.44C1856.97 2267.61 1857.01 2269.06 1857.04 2270.8C1857.09 2272.55 1857.13 2274.37 1857.15 2276.26C1857.21 2278.16 1857.23 2279.97 1857.23 2281.68V2285H1853.84ZM1892.2 2285.39C1890.51 2285.39 1889.03 2285.05 1887.75 2284.38C1886.51 2283.7 1885.53 2282.75 1884.83 2281.53C1884.15 2280.28 1883.81 2278.84 1883.81 2277.2V2271.35C1883.81 2269.69 1884.15 2268.24 1884.83 2267.02C1885.53 2265.8 1886.51 2264.85 1887.75 2264.17C1889.03 2263.5 1890.51 2263.16 1892.2 2263.16C1893.89 2263.16 1895.36 2263.5 1896.61 2264.17C1897.88 2264.85 1898.86 2265.8 1899.53 2267.02C1900.23 2268.24 1900.58 2269.69 1900.58 2271.35V2275.13H1887.25V2277.2C1887.25 2278.89 1887.68 2280.19 1888.53 2281.1C1889.39 2281.98 1890.61 2282.43 1892.2 2282.43C1893.55 2282.43 1894.64 2282.19 1895.48 2281.72C1896.31 2281.23 1896.81 2280.5 1897 2279.54H1900.51C1900.27 2281.33 1899.39 2282.76 1897.85 2283.83C1896.35 2284.87 1894.46 2285.39 1892.2 2285.39ZM1897.15 2272.79V2271.35C1897.15 2269.66 1896.72 2268.36 1895.87 2267.45C1895.03 2266.54 1893.81 2266.08 1892.2 2266.08C1890.61 2266.08 1889.39 2266.54 1888.53 2267.45C1887.68 2268.36 1887.25 2269.66 1887.25 2271.35V2272.48H1897.43L1897.15 2272.79ZM1926.11 2285V2277.2C1925.7 2277.3 1925.06 2277.41 1924.2 2277.51C1923.37 2277.59 1922.49 2277.63 1921.55 2277.63C1918.9 2277.65 1916.83 2277.02 1915.35 2275.72C1913.89 2274.39 1913.17 2272.55 1913.17 2270.18V2263.55H1916.68V2270.18C1916.68 2271.51 1917.12 2272.56 1918 2273.34C1918.91 2274.09 1920.16 2274.47 1921.75 2274.47C1922.84 2274.47 1923.76 2274.43 1924.51 2274.35C1925.29 2274.25 1925.83 2274.16 1926.11 2274.08V2263.55H1929.62V2285H1926.11ZM1949.58 2285.39C1947.31 2285.39 1945.53 2284.82 1944.23 2283.67C1942.93 2282.5 1942.28 2280.93 1942.28 2278.95C1942.28 2276.95 1942.93 2275.38 1944.23 2274.24C1945.53 2273.09 1947.29 2272.52 1949.5 2272.52H1956.13V2270.37C1956.13 2269.05 1955.73 2268.03 1954.92 2267.33C1954.14 2266.6 1953.02 2266.24 1951.57 2266.24C1950.29 2266.24 1949.23 2266.51 1948.37 2267.06C1947.51 2267.58 1947.02 2268.29 1946.89 2269.2H1943.38C1943.61 2267.36 1944.48 2265.89 1945.99 2264.8C1947.5 2263.71 1949.38 2263.16 1951.64 2263.16C1954.11 2263.16 1956.06 2263.8 1957.49 2265.07C1958.92 2266.34 1959.64 2268.07 1959.64 2270.26V2285H1956.21V2280.9H1955.62L1956.21 2280.32C1956.21 2281.88 1955.6 2283.11 1954.37 2284.02C1953.18 2284.94 1951.58 2285.39 1949.58 2285.39ZM1950.43 2282.62C1952.1 2282.62 1953.46 2282.2 1954.53 2281.37C1955.6 2280.54 1956.13 2279.47 1956.13 2278.17V2275.13H1949.58C1948.41 2275.13 1947.48 2275.46 1946.81 2276.11C1946.13 2276.76 1945.79 2277.64 1945.79 2278.76C1945.79 2279.96 1946.2 2280.9 1947 2281.61C1947.83 2282.28 1948.98 2282.62 1950.43 2282.62ZM1973.04 2285V2263.55H1976.55V2272.48H1985.6V2263.55H1989.11V2285H1985.6V2275.68H1976.55V2285H1973.04ZM2002.66 2285V2263.55H2006.02V2275.25C2006.02 2276 2005.99 2276.8 2005.94 2277.63C2005.91 2278.46 2005.86 2279.25 2005.78 2280.01C2005.73 2280.74 2005.67 2281.36 2005.59 2281.88L2014.25 2263.55H2018.73V2285H2015.38V2273.3C2015.38 2272.55 2015.39 2271.75 2015.42 2270.92C2015.47 2270.09 2015.53 2269.3 2015.61 2268.54C2015.69 2267.76 2015.76 2267.12 2015.81 2266.63L2007.15 2285H2002.66ZM2040.32 2285.39C2038.63 2285.39 2037.15 2285.05 2035.88 2284.38C2034.63 2283.7 2033.65 2282.75 2032.95 2281.53C2032.28 2280.28 2031.94 2278.84 2031.94 2277.2V2271.35C2031.94 2269.69 2032.28 2268.24 2032.95 2267.02C2033.65 2265.8 2034.63 2264.85 2035.88 2264.17C2037.15 2263.5 2038.63 2263.16 2040.32 2263.16C2042.01 2263.16 2043.48 2263.5 2044.73 2264.17C2046 2264.85 2046.98 2265.8 2047.65 2267.02C2048.36 2268.24 2048.71 2269.69 2048.71 2271.35V2275.13H2035.37V2277.2C2035.37 2278.89 2035.8 2280.19 2036.66 2281.1C2037.51 2281.98 2038.74 2282.43 2040.32 2282.43C2041.67 2282.43 2042.77 2282.19 2043.6 2281.72C2044.43 2281.23 2044.94 2280.5 2045.12 2279.54H2048.63C2048.4 2281.33 2047.51 2282.76 2045.98 2283.83C2044.47 2284.87 2042.58 2285.39 2040.32 2285.39ZM2045.28 2272.79V2271.35C2045.28 2269.66 2044.85 2268.36 2043.99 2267.45C2043.16 2266.54 2041.93 2266.08 2040.32 2266.08C2038.74 2266.08 2037.51 2266.54 2036.66 2267.45C2035.8 2268.36 2035.37 2269.66 2035.37 2271.35V2272.48H2045.55L2045.28 2272.79Z" fill="white"/>
<rect width="307" height="49" transform="translate(79 2248)" fill="black"/>
<path d="M90.666 2285V2263.55H106.734V2285H103.224V2266.75H94.176V2285H90.666ZM120.213 2292.02V2263.55H123.723V2267.64H124.425L123.723 2268.46C123.723 2266.83 124.256 2265.54 125.322 2264.6C126.414 2263.64 127.844 2263.16 129.612 2263.16C131.77 2263.16 133.486 2263.88 134.76 2265.31C136.06 2266.71 136.71 2268.65 136.71 2271.12V2277.39C136.71 2279.03 136.411 2280.45 135.813 2281.65C135.241 2282.84 134.422 2283.76 133.356 2284.41C132.316 2285.07 131.068 2285.39 129.612 2285.39C127.87 2285.39 126.453 2284.91 125.361 2283.95C124.269 2282.98 123.723 2281.7 123.723 2280.09L124.425 2280.9H123.645L123.723 2285.78V2292.02H120.213ZM128.442 2282.35C129.924 2282.35 131.081 2281.91 131.913 2281.02C132.771 2280.14 133.2 2278.86 133.2 2277.2V2271.35C133.2 2269.69 132.771 2268.41 131.913 2267.53C131.081 2266.64 129.924 2266.2 128.442 2266.2C127.012 2266.2 125.868 2266.66 125.01 2267.57C124.152 2268.48 123.723 2269.74 123.723 2271.35V2277.2C123.723 2278.81 124.152 2280.07 125.01 2280.98C125.868 2281.89 127.012 2282.35 128.442 2282.35ZM149.916 2285V2263.55H153.27V2275.25C153.27 2276 153.244 2276.8 153.192 2277.63C153.166 2278.46 153.114 2279.25 153.036 2280.01C152.984 2280.74 152.919 2281.36 152.841 2281.88L161.499 2263.55H165.984V2285H162.63V2273.3C162.63 2272.55 162.643 2271.75 162.669 2270.92C162.721 2270.09 162.786 2269.3 162.864 2268.54C162.942 2267.76 163.007 2267.12 163.059 2266.63L154.401 2285H149.916ZM178.838 2285V2263.55H183.596L186.404 2271.78C186.69 2272.61 186.95 2273.44 187.184 2274.27C187.418 2275.08 187.587 2275.7 187.691 2276.15C187.795 2275.7 187.951 2275.08 188.159 2274.27C188.393 2273.44 188.64 2272.6 188.9 2271.74L191.552 2263.55H196.31V2285H192.917V2281.68C192.917 2280.51 192.93 2279.24 192.956 2277.86C192.982 2276.48 193.008 2275.09 193.034 2273.69C193.086 2272.29 193.138 2270.96 193.19 2269.71C193.242 2268.44 193.281 2267.32 193.307 2266.36L189.485 2278.56H185.78L181.919 2266.44C181.971 2267.61 182.01 2269.06 182.036 2270.8C182.088 2272.55 182.127 2274.37 182.153 2276.26C182.205 2278.16 182.231 2279.97 182.231 2281.68V2285H178.838ZM217.199 2285.39C215.509 2285.39 214.027 2285.05 212.753 2284.38C211.505 2283.7 210.53 2282.75 209.828 2281.53C209.152 2280.28 208.814 2278.84 208.814 2277.2V2271.35C208.814 2269.69 209.152 2268.24 209.828 2267.02C210.53 2265.8 211.505 2264.85 212.753 2264.17C214.027 2263.5 215.509 2263.16 217.199 2263.16C218.889 2263.16 220.358 2263.5 221.606 2264.17C222.88 2264.85 223.855 2265.8 224.531 2267.02C225.233 2268.24 225.584 2269.69 225.584 2271.35V2275.13H212.246V2277.2C212.246 2278.89 212.675 2280.19 213.533 2281.1C214.391 2281.98 215.613 2282.43 217.199 2282.43C218.551 2282.43 219.643 2282.19 220.475 2281.72C221.307 2281.23 221.814 2280.5 221.996 2279.54H225.506C225.272 2281.33 224.388 2282.76 222.854 2283.83C221.346 2284.87 219.461 2285.39 217.199 2285.39ZM222.152 2272.79V2271.35C222.152 2269.66 221.723 2268.36 220.865 2267.45C220.033 2266.54 218.811 2266.08 217.199 2266.08C215.613 2266.08 214.391 2266.54 213.533 2267.45C212.675 2268.36 212.246 2269.66 212.246 2271.35V2272.48H222.425L222.152 2272.79ZM251.114 2285V2277.2C250.698 2277.3 250.061 2277.41 249.203 2277.51C248.371 2277.59 247.487 2277.63 246.551 2277.63C243.899 2277.65 241.832 2277.02 240.35 2275.72C238.894 2274.39 238.166 2272.55 238.166 2270.18V2263.55H241.676V2270.18C241.676 2271.51 242.118 2272.56 243.002 2273.34C243.912 2274.09 245.16 2274.47 246.746 2274.47C247.838 2274.47 248.761 2274.43 249.515 2274.35C250.295 2274.25 250.828 2274.16 251.114 2274.08V2263.55H254.624V2285H251.114ZM274.577 2285.39C272.315 2285.39 270.534 2284.82 269.234 2283.67C267.934 2282.5 267.284 2280.93 267.284 2278.95C267.284 2276.95 267.934 2275.38 269.234 2274.24C270.534 2273.09 272.289 2272.52 274.499 2272.52H281.129V2270.37C281.129 2269.05 280.726 2268.03 279.92 2267.33C279.14 2266.6 278.022 2266.24 276.566 2266.24C275.292 2266.24 274.226 2266.51 273.368 2267.06C272.51 2267.58 272.016 2268.29 271.886 2269.2H268.376C268.61 2267.36 269.481 2265.89 270.989 2264.8C272.497 2263.71 274.382 2263.16 276.644 2263.16C279.114 2263.16 281.064 2263.8 282.494 2265.07C283.924 2266.34 284.639 2268.07 284.639 2270.26V2285H281.207V2280.9H280.622L281.207 2280.32C281.207 2281.88 280.596 2283.11 279.374 2284.02C278.178 2284.94 276.579 2285.39 274.577 2285.39ZM275.435 2282.62C277.099 2282.62 278.464 2282.2 279.53 2281.37C280.596 2280.54 281.129 2279.47 281.129 2278.17V2275.13H274.577C273.407 2275.13 272.484 2275.46 271.808 2276.11C271.132 2276.76 270.794 2277.64 270.794 2278.76C270.794 2279.96 271.197 2280.9 272.003 2281.61C272.835 2282.28 273.979 2282.62 275.435 2282.62ZM298.039 2285V2263.55H301.549V2272.48H310.597V2263.55H314.107V2285H310.597V2275.68H301.549V2285H298.039ZM327.664 2285V2263.55H331.018V2275.25C331.018 2276 330.992 2276.8 330.94 2277.63C330.914 2278.46 330.862 2279.25 330.784 2280.01C330.732 2280.74 330.667 2281.36 330.589 2281.88L339.247 2263.55H343.732V2285H340.378V2273.3C340.378 2272.55 340.391 2271.75 340.417 2270.92C340.469 2270.09 340.534 2269.3 340.612 2268.54C340.69 2267.76 340.755 2267.12 340.807 2266.63L332.149 2285H327.664ZM365.323 2285.39C363.633 2285.39 362.151 2285.05 360.877 2284.38C359.629 2283.7 358.654 2282.75 357.952 2281.53C357.276 2280.28 356.938 2278.84 356.938 2277.2V2271.35C356.938 2269.69 357.276 2268.24 357.952 2267.02C358.654 2265.8 359.629 2264.85 360.877 2264.17C362.151 2263.5 363.633 2263.16 365.323 2263.16C367.013 2263.16 368.482 2263.5 369.73 2264.17C371.004 2264.85 371.979 2265.8 372.655 2267.02C373.357 2268.24 373.708 2269.69 373.708 2271.35V2275.13H360.37V2277.2C360.37 2278.89 360.799 2280.19 361.657 2281.1C362.515 2281.98 363.737 2282.43 365.323 2282.43C366.675 2282.43 367.767 2282.19 368.599 2281.72C369.431 2281.23 369.938 2280.5 370.12 2279.54H373.63C373.396 2281.33 372.512 2282.76 370.978 2283.83C369.47 2284.87 367.585 2285.39 365.323 2285.39ZM370.276 2272.79V2271.35C370.276 2269.66 369.847 2268.36 368.989 2267.45C368.157 2266.54 366.935 2266.08 365.323 2266.08C363.737 2266.08 362.515 2266.54 361.657 2267.45C360.799 2268.36 360.37 2269.66 360.37 2271.35V2272.48H370.549L370.276 2272.79Z" fill="white"/>
<path d="M1887.24 207V183.054H1879.79V178.53H1899.61V183.054H1892.16V207H1887.24ZM1913.12 207.39C1911.3 207.39 1909.72 207.039 1908.37 206.337C1907.01 205.635 1905.96 204.66 1905.21 203.412C1904.48 202.138 1904.11 200.656 1904.11 198.966V193.584C1904.11 191.894 1904.48 190.425 1905.21 189.177C1905.96 187.903 1907.01 186.915 1908.37 186.213C1909.72 185.511 1911.3 185.16 1913.12 185.16C1914.92 185.16 1916.48 185.511 1917.8 186.213C1919.16 186.915 1920.2 187.903 1920.92 189.177C1921.68 190.425 1922.05 191.894 1922.05 193.584V197.445H1908.83V198.966C1908.83 200.474 1909.2 201.618 1909.93 202.398C1910.65 203.152 1911.73 203.529 1913.16 203.529C1914.25 203.529 1915.14 203.347 1915.81 202.983C1916.49 202.593 1916.92 202.034 1917.1 201.306H1921.9C1921.53 203.152 1920.55 204.634 1918.93 205.752C1917.35 206.844 1915.41 207.39 1913.12 207.39ZM1917.34 194.715V193.545C1917.34 192.063 1916.98 190.932 1916.28 190.152C1915.58 189.346 1914.53 188.943 1913.12 188.943C1911.72 188.943 1910.65 189.346 1909.93 190.152C1909.2 190.958 1908.83 192.102 1908.83 193.584V194.403L1917.69 194.325L1917.34 194.715ZM1926.95 207V185.55H1932.8L1935.46 193.623C1935.74 194.507 1935.98 195.339 1936.16 196.119C1936.37 196.899 1936.5 197.484 1936.55 197.874C1936.63 197.484 1936.74 196.899 1936.9 196.119C1937.08 195.339 1937.31 194.507 1937.6 193.623L1940.14 185.55H1945.99V207H1941.46V203.334C1941.46 202.346 1941.47 201.254 1941.5 200.058C1941.53 198.862 1941.57 197.64 1941.62 196.392C1941.67 195.118 1941.72 193.909 1941.77 192.765C1941.85 191.595 1941.92 190.568 1941.97 189.684L1938.73 200.799H1934.29L1930.93 189.723C1931.01 190.815 1931.09 192.167 1931.17 193.779C1931.27 195.365 1931.35 197.003 1931.4 198.693C1931.45 200.357 1931.48 201.904 1931.48 203.334V207H1926.95ZM1957.48 207.39C1955.27 207.39 1953.52 206.805 1952.25 205.635C1950.98 204.465 1950.34 202.892 1950.34 200.916C1950.34 198.81 1951.04 197.185 1952.44 196.041C1953.85 194.897 1955.84 194.325 1958.41 194.325H1963.75V192.492C1963.75 191.452 1963.42 190.646 1962.74 190.074C1962.06 189.476 1961.14 189.177 1959.97 189.177C1958.91 189.177 1958.02 189.411 1957.32 189.879C1956.62 190.347 1956.2 190.984 1956.07 191.79H1951.31C1951.55 189.762 1952.46 188.15 1954.04 186.954C1955.63 185.758 1957.66 185.16 1960.13 185.16C1962.75 185.16 1964.82 185.823 1966.33 187.149C1967.86 188.449 1968.63 190.217 1968.63 192.453V207H1963.91V203.256H1963.13L1963.91 202.203C1963.91 203.789 1963.33 205.05 1962.16 205.986C1960.99 206.922 1959.43 207.39 1957.48 207.39ZM1959.07 203.724C1960.45 203.724 1961.57 203.373 1962.43 202.671C1963.31 201.969 1963.75 201.059 1963.75 199.941V197.328H1958.49C1957.5 197.328 1956.71 197.614 1956.11 198.186C1955.51 198.758 1955.21 199.512 1955.21 200.448C1955.21 201.462 1955.55 202.268 1956.23 202.866C1956.93 203.438 1957.88 203.724 1959.07 203.724ZM1998.2 207V202.71H2005.61V182.859L1998.16 188.397V183.249L2004.71 178.53H2010.48V202.71H2016.45V207H1998.2Z" fill="black"/>
<path d="M212.243 207V183.054H204.794V178.53H224.606V183.054H217.157V207H212.243ZM238.124 207.39C236.304 207.39 234.718 207.039 233.366 206.337C232.014 205.635 230.961 204.66 230.207 203.412C229.479 202.138 229.115 200.656 229.115 198.966V193.584C229.115 191.894 229.479 190.425 230.207 189.177C230.961 187.903 232.014 186.915 233.366 186.213C234.718 185.511 236.304 185.16 238.124 185.16C239.918 185.16 241.478 185.511 242.804 186.213C244.156 186.915 245.196 187.903 245.924 189.177C246.678 190.425 247.055 191.894 247.055 193.584V197.445H233.834V198.966C233.834 200.474 234.198 201.618 234.926 202.398C235.654 203.152 236.733 203.529 238.163 203.529C239.255 203.529 240.139 203.347 240.815 202.983C241.491 202.593 241.92 202.034 242.102 201.306H246.899C246.535 203.152 245.547 204.634 243.935 205.752C242.349 206.844 240.412 207.39 238.124 207.39ZM242.336 194.715V193.545C242.336 192.063 241.985 190.932 241.283 190.152C240.581 189.346 239.528 188.943 238.124 188.943C236.72 188.943 235.654 189.346 234.926 190.152C234.198 190.958 233.834 192.102 233.834 193.584V194.403L242.687 194.325L242.336 194.715ZM251.954 207V185.55H257.804L260.456 193.623C260.742 194.507 260.976 195.339 261.158 196.119C261.366 196.899 261.496 197.484 261.548 197.874C261.626 197.484 261.743 196.899 261.899 196.119C262.081 195.339 262.315 194.507 262.601 193.623L265.136 185.55H270.986V207H266.462V203.334C266.462 202.346 266.475 201.254 266.501 200.058C266.527 198.862 266.566 197.64 266.618 196.392C266.67 195.118 266.722 193.909 266.774 192.765C266.852 191.595 266.917 190.568 266.969 189.684L263.732 200.799H259.286L255.932 189.723C256.01 190.815 256.088 192.167 256.166 193.779C256.27 195.365 256.348 197.003 256.4 198.693C256.452 200.357 256.478 201.904 256.478 203.334V207H251.954ZM282.475 207.39C280.265 207.39 278.523 206.805 277.249 205.635C275.975 204.465 275.338 202.892 275.338 200.916C275.338 198.81 276.04 197.185 277.444 196.041C278.848 194.897 280.837 194.325 283.411 194.325H288.754V192.492C288.754 191.452 288.416 190.646 287.74 190.074C287.064 189.476 286.141 189.177 284.971 189.177C283.905 189.177 283.021 189.411 282.319 189.879C281.617 190.347 281.201 190.984 281.071 191.79H276.313C276.547 189.762 277.457 188.15 279.043 186.954C280.629 185.758 282.657 185.16 285.127 185.16C287.753 185.16 289.82 185.823 291.328 187.149C292.862 188.449 293.629 190.217 293.629 192.453V207H288.91V203.256H288.13L288.91 202.203C288.91 203.789 288.325 205.05 287.155 205.986C285.985 206.922 284.425 207.39 282.475 207.39ZM284.074 203.724C285.452 203.724 286.57 203.373 287.428 202.671C288.312 201.969 288.754 201.059 288.754 199.941V197.328H283.489C282.501 197.328 281.708 197.614 281.11 198.186C280.512 198.758 280.213 199.512 280.213 200.448C280.213 201.462 280.551 202.268 281.227 202.866C281.929 203.438 282.878 203.724 284.074 203.724ZM323.2 207V202.71H330.61V182.859L323.161 188.397V183.249L329.713 178.53H335.485V202.71H341.452V207H323.2Z" fill="black"/>
<circle cx="1820" cy="193" r="24" stroke="black" stroke-width="4"/>
<path d="M1812.69 205V201.48H1818.77V185.192L1812.66 189.736V185.512L1818.03 181.64H1822.77V201.48H1827.66V205H1812.69Z" fill="black"/>
<circle cx="145" cy="193" r="24" stroke="black" stroke-width="4"/>
<path d="M137.688 205V201.48H143.768V185.192L137.656 189.736V185.512L143.032 181.64H147.768V201.48H152.664V205H137.688Z" fill="black"/>
<path d="M2402.14 125.63C2398.94 125.63 2396.15 125.105 2393.76 124.055C2391.36 123.005 2389.47 121.514 2388.09 119.582C2386.7 117.65 2385.92 115.361 2385.76 112.715H2395.21C2395.37 114.185 2396.07 115.34 2397.28 116.18C2398.54 117.02 2400.16 117.44 2402.14 117.44C2404.19 117.44 2405.85 116.894 2407.11 115.802C2408.41 114.668 2409.07 113.261 2409.07 111.581C2409.07 109.817 2408.46 108.41 2407.24 107.36C2406.02 106.31 2404.32 105.785 2402.14 105.785H2395.52V97.28H2402.14C2404.24 97.28 2405.87 96.734 2407.05 95.642C2408.23 94.508 2408.81 93.164 2408.81 91.61C2408.81 90.014 2408.2 88.775 2406.99 87.893C2405.81 87.011 2404.19 86.57 2402.14 86.57C2400.41 86.57 2398.96 86.99 2397.79 87.83C2396.61 88.67 2395.88 89.825 2395.58 91.295H2386.13C2386.39 88.649 2387.23 86.36 2388.65 84.428C2390.08 82.496 2391.97 81.005 2394.32 79.955C2396.72 78.905 2399.45 78.38 2402.51 78.38C2407.13 78.38 2410.81 79.367 2413.54 81.341C2416.31 83.315 2417.7 86.024 2417.7 89.468C2417.7 91.694 2417.19 93.668 2416.18 95.39C2415.22 97.07 2413.81 98.393 2411.96 99.359C2410.12 100.283 2407.89 100.745 2405.29 100.745V99.8C2407.93 99.758 2410.24 100.22 2412.22 101.186C2414.23 102.152 2415.79 103.538 2416.88 105.344C2417.97 107.108 2418.52 109.166 2418.52 111.518C2418.52 114.332 2417.84 116.81 2416.5 118.952C2415.16 121.052 2413.24 122.69 2410.77 123.866C2408.33 125.042 2405.45 125.63 2402.14 125.63ZM2422.59 125L2433.86 79.01H2445.83L2457.24 125H2447.6L2445.39 114.605H2434.43L2432.22 125H2422.59ZM2436 107.045H2443.75L2441.55 95.957C2441.25 94.361 2440.94 92.786 2440.6 91.232C2440.31 89.636 2440.08 88.397 2439.91 87.515C2439.74 88.397 2439.51 89.615 2439.22 91.169C2438.97 92.723 2438.67 94.298 2438.34 95.894L2436 107.045ZM2464.77 125V79.01H2492.81V87.83H2474.22V125H2464.77ZM2515.46 125.63C2512.4 125.63 2509.73 125.063 2507.46 123.929C2505.19 122.753 2503.43 121.136 2502.17 119.078C2500.95 116.978 2500.34 114.542 2500.34 111.77V92.24C2500.34 89.468 2500.95 87.053 2502.17 84.995C2503.43 82.895 2505.19 81.278 2507.46 80.144C2509.73 78.968 2512.4 78.38 2515.46 78.38C2518.57 78.38 2521.24 78.968 2523.46 80.144C2525.73 81.278 2527.47 82.895 2528.69 84.995C2529.95 87.053 2530.58 89.468 2530.58 92.24V111.77C2530.58 114.542 2529.95 116.978 2528.69 119.078C2527.47 121.136 2525.73 122.753 2523.46 123.929C2521.24 125.063 2518.57 125.63 2515.46 125.63ZM2515.46 117.44C2517.35 117.44 2518.76 116.957 2519.68 115.991C2520.65 114.983 2521.13 113.576 2521.13 111.77V92.24C2521.13 90.392 2520.67 88.985 2519.75 88.019C2518.82 87.053 2517.39 86.57 2515.46 86.57C2513.53 86.57 2512.1 87.053 2511.18 88.019C2510.25 88.985 2509.79 90.392 2509.79 92.24V111.77C2509.79 113.576 2510.25 114.983 2511.18 115.991C2512.14 116.957 2513.57 117.44 2515.46 117.44ZM2535.28 125.315V116.81H2537.17C2538.26 116.81 2539.17 116.222 2539.88 115.046C2540.59 113.87 2540.97 112.358 2541.01 110.51L2541.52 79.01H2567.98V125H2558.53V87.83H2550.78L2550.4 110.51C2550.36 115.046 2549.18 118.658 2546.87 121.346C2544.61 123.992 2541.58 125.315 2537.8 125.315H2535.28ZM2591.01 125.63C2587.95 125.63 2585.28 125.063 2583.01 123.929C2580.74 122.753 2578.98 121.136 2577.72 119.078C2576.5 116.978 2575.89 114.542 2575.89 111.77V92.24C2575.89 89.468 2576.5 87.053 2577.72 84.995C2578.98 82.895 2580.74 81.278 2583.01 80.144C2585.28 78.968 2587.95 78.38 2591.01 78.38C2594.12 78.38 2596.79 78.968 2599.01 80.144C2601.28 81.278 2603.02 82.895 2604.24 84.995C2605.5 87.053 2606.13 89.468 2606.13 92.24V111.77C2606.13 114.542 2605.5 116.978 2604.24 119.078C2603.02 121.136 2601.28 122.753 2599.01 123.929C2596.79 125.063 2594.12 125.63 2591.01 125.63ZM2591.01 117.44C2592.9 117.44 2594.31 116.957 2595.23 115.991C2596.2 114.983 2596.68 113.576 2596.68 111.77V92.24C2596.68 90.392 2596.22 88.985 2595.3 88.019C2594.37 87.053 2592.94 86.57 2591.01 86.57C2589.08 86.57 2587.65 87.053 2586.73 88.019C2585.8 88.985 2585.34 90.392 2585.34 92.24V111.77C2585.34 113.576 2585.8 114.983 2586.73 115.991C2587.69 116.957 2589.12 117.44 2591.01 117.44ZM2614.05 125V79.01H2628.85C2633.51 79.01 2637.23 80.081 2640 82.223C2642.77 84.323 2644.16 87.179 2644.16 90.791C2644.16 92.807 2643.68 94.571 2642.71 96.083C2641.79 97.595 2640.53 98.771 2638.93 99.611C2637.38 100.451 2635.68 100.871 2633.83 100.871V101.06C2635.89 101.018 2637.75 101.396 2639.43 102.194C2641.16 102.992 2642.54 104.189 2643.59 105.785C2644.64 107.381 2645.17 109.355 2645.17 111.707C2645.17 114.395 2644.52 116.747 2643.21 118.763C2641.95 120.737 2640.15 122.27 2637.8 123.362C2635.44 124.454 2632.65 125 2629.42 125H2614.05ZM2623.18 117.377H2629.04C2631.1 117.377 2632.71 116.831 2633.89 115.739C2635.07 114.647 2635.65 113.135 2635.65 111.203C2635.65 109.271 2635.07 107.759 2633.89 106.667C2632.71 105.533 2631.1 104.966 2629.04 104.966H2623.18V117.377ZM2623.18 97.532H2628.72C2630.57 97.532 2632.02 97.049 2633.07 96.083C2634.12 95.075 2634.65 93.731 2634.65 92.051C2634.65 90.329 2634.12 89.006 2633.07 88.082C2632.02 87.116 2630.57 86.633 2628.72 86.633H2623.18V97.532ZM2666.56 125.63C2663.5 125.63 2660.83 125.063 2658.56 123.929C2656.29 122.753 2654.53 121.136 2653.27 119.078C2652.05 116.978 2651.44 114.542 2651.44 111.77V92.24C2651.44 89.468 2652.05 87.053 2653.27 84.995C2654.53 82.895 2656.29 81.278 2658.56 80.144C2660.83 78.968 2663.5 78.38 2666.56 78.38C2669.67 78.38 2672.34 78.968 2674.56 80.144C2676.83 81.278 2678.58 82.895 2679.79 84.995C2681.05 87.053 2681.68 89.468 2681.68 92.24V111.77C2681.68 114.542 2681.05 116.978 2679.79 119.078C2678.58 121.136 2676.83 122.753 2674.56 123.929C2672.34 125.063 2669.67 125.63 2666.56 125.63ZM2666.56 117.44C2668.45 117.44 2669.86 116.957 2670.78 115.991C2671.75 114.983 2672.23 113.576 2672.23 111.77V92.24C2672.23 90.392 2671.77 88.985 2670.85 88.019C2669.92 87.053 2668.5 86.57 2666.56 86.57C2664.63 86.57 2663.2 87.053 2662.28 88.019C2661.36 88.985 2660.89 90.392 2660.89 92.24V111.77C2660.89 113.576 2661.36 114.983 2662.28 115.991C2663.25 116.957 2664.67 117.44 2666.56 117.44ZM2689.53 125V79.01H2698.98V96.839H2703.46L2711.02 79.01H2721.29L2711.84 100.997L2721.66 125H2711.27L2703.46 105.533H2698.98V125H2689.53ZM2765.4 125V116.117L2780.02 102.005C2781.74 100.325 2783.02 98.771 2783.86 97.343C2784.74 95.915 2785.18 94.361 2785.18 92.681C2785.18 90.833 2784.68 89.405 2783.67 88.397C2782.7 87.389 2781.36 86.885 2779.64 86.885C2777.75 86.885 2776.26 87.452 2775.16 88.586C2774.11 89.678 2773.59 91.211 2773.59 93.185H2764.14C2764.14 90.161 2764.77 87.557 2766.03 85.373C2767.33 83.147 2769.16 81.425 2771.51 80.207C2773.86 78.989 2776.63 78.38 2779.83 78.38C2782.81 78.38 2785.39 78.947 2787.58 80.081C2789.8 81.173 2791.52 82.706 2792.74 84.68C2794 86.654 2794.63 88.985 2794.63 91.673C2794.63 94.655 2793.9 97.511 2792.43 100.241C2790.96 102.971 2788.6 105.827 2785.37 108.809L2777.05 116.495H2795.14V125H2765.4Z" fill="black"/>
<path d="M727.635 125.63C724.443 125.63 721.65 125.105 719.256 124.055C716.862 123.005 714.972 121.514 713.586 119.582C712.2 117.65 711.423 115.361 711.255 112.715H720.705C720.873 114.185 721.566 115.34 722.784 116.18C724.044 117.02 725.661 117.44 727.635 117.44C729.693 117.44 731.352 116.894 732.612 115.802C733.914 114.668 734.565 113.261 734.565 111.581C734.565 109.817 733.956 108.41 732.738 107.36C731.52 106.31 729.819 105.785 727.635 105.785H721.02V97.28H727.635C729.735 97.28 731.373 96.734 732.549 95.642C733.725 94.508 734.313 93.164 734.313 91.61C734.313 90.014 733.704 88.775 732.486 87.893C731.31 87.011 729.693 86.57 727.635 86.57C725.913 86.57 724.464 86.99 723.288 87.83C722.112 88.67 721.377 89.825 721.083 91.295H711.633C711.885 88.649 712.725 86.36 714.153 84.428C715.581 82.496 717.471 81.005 719.823 79.955C722.217 78.905 724.947 78.38 728.013 78.38C732.633 78.38 736.308 79.367 739.038 81.341C741.81 83.315 743.196 86.024 743.196 89.468C743.196 91.694 742.692 93.668 741.684 95.39C740.718 97.07 739.311 98.393 737.463 99.359C735.615 100.283 733.389 100.745 730.785 100.745V99.8C733.431 99.758 735.741 100.22 737.715 101.186C739.731 102.152 741.285 103.538 742.377 105.344C743.469 107.108 744.015 109.166 744.015 111.518C744.015 114.332 743.343 116.81 741.999 118.952C740.655 121.052 738.744 122.69 736.266 123.866C733.83 125.042 730.953 125.63 727.635 125.63ZM748.086 125L759.363 79.01H771.333L782.736 125H773.097L770.892 114.605H759.93L757.725 125H748.086ZM761.505 107.045H769.254L767.049 95.957C766.755 94.361 766.44 92.786 766.104 91.232C765.81 89.636 765.579 88.397 765.411 87.515C765.243 88.397 765.012 89.615 764.718 91.169C764.466 92.723 764.172 94.298 763.836 95.894L761.505 107.045ZM790.271 125V79.01H818.306V87.83H799.721V125H790.271ZM840.962 125.63C837.896 125.63 835.229 125.063 832.961 123.929C830.693 122.753 828.929 121.136 827.669 119.078C826.451 116.978 825.842 114.542 825.842 111.77V92.24C825.842 89.468 826.451 87.053 827.669 84.995C828.929 82.895 830.693 81.278 832.961 80.144C835.229 78.968 837.896 78.38 840.962 78.38C844.07 78.38 846.737 78.968 848.963 80.144C851.231 81.278 852.974 82.895 854.192 84.995C855.452 87.053 856.082 89.468 856.082 92.24V111.77C856.082 114.542 855.452 116.978 854.192 119.078C852.974 121.136 851.231 122.753 848.963 123.929C846.737 125.063 844.07 125.63 840.962 125.63ZM840.962 117.44C842.852 117.44 844.259 116.957 845.183 115.991C846.149 114.983 846.632 113.576 846.632 111.77V92.24C846.632 90.392 846.17 88.985 845.246 88.019C844.322 87.053 842.894 86.57 840.962 86.57C839.03 86.57 837.602 87.053 836.678 88.019C835.754 88.985 835.292 90.392 835.292 92.24V111.77C835.292 113.576 835.754 114.983 836.678 115.991C837.644 116.957 839.072 117.44 840.962 117.44ZM860.782 125.315V116.81H862.672C863.764 116.81 864.667 116.222 865.381 115.046C866.095 113.87 866.473 112.358 866.515 110.51L867.019 79.01H893.479V125H884.029V87.83H876.28L875.902 110.51C875.86 115.046 874.684 118.658 872.374 121.346C870.106 123.992 867.082 125.315 863.302 125.315H860.782ZM916.512 125.63C913.446 125.63 910.779 125.063 908.511 123.929C906.243 122.753 904.479 121.136 903.219 119.078C902.001 116.978 901.392 114.542 901.392 111.77V92.24C901.392 89.468 902.001 87.053 903.219 84.995C904.479 82.895 906.243 81.278 908.511 80.144C910.779 78.968 913.446 78.38 916.512 78.38C919.62 78.38 922.287 78.968 924.513 80.144C926.781 81.278 928.524 82.895 929.742 84.995C931.002 87.053 931.632 89.468 931.632 92.24V111.77C931.632 114.542 931.002 116.978 929.742 119.078C928.524 121.136 926.781 122.753 924.513 123.929C922.287 125.063 919.62 125.63 916.512 125.63ZM916.512 117.44C918.402 117.44 919.809 116.957 920.733 115.991C921.699 114.983 922.182 113.576 922.182 111.77V92.24C922.182 90.392 921.72 88.985 920.796 88.019C919.872 87.053 918.444 86.57 916.512 86.57C914.58 86.57 913.152 87.053 912.228 88.019C911.304 88.985 910.842 90.392 910.842 92.24V111.77C910.842 113.576 911.304 114.983 912.228 115.991C913.194 116.957 914.622 117.44 916.512 117.44ZM939.546 125V79.01H954.351C959.013 79.01 962.73 80.081 965.502 82.223C968.274 84.323 969.66 87.179 969.66 90.791C969.66 92.807 969.177 94.571 968.211 96.083C967.287 97.595 966.027 98.771 964.431 99.611C962.877 100.451 961.176 100.871 959.328 100.871V101.06C961.386 101.018 963.255 101.396 964.935 102.194C966.657 102.992 968.043 104.189 969.093 105.785C970.143 107.381 970.668 109.355 970.668 111.707C970.668 114.395 970.017 116.747 968.715 118.763C967.455 120.737 965.649 122.27 963.297 123.362C960.945 124.454 958.152 125 954.918 125H939.546ZM948.681 117.377H954.54C956.598 117.377 958.215 116.831 959.391 115.739C960.567 114.647 961.155 113.135 961.155 111.203C961.155 109.271 960.567 107.759 959.391 106.667C958.215 105.533 956.598 104.966 954.54 104.966H948.681V117.377ZM948.681 97.532H954.225C956.073 97.532 957.522 97.049 958.572 96.083C959.622 95.075 960.147 93.731 960.147 92.051C960.147 90.329 959.622 89.006 958.572 88.082C957.522 87.116 956.073 86.633 954.225 86.633H948.681V97.532ZM992.063 125.63C988.997 125.63 986.33 125.063 984.062 123.929C981.794 122.753 980.03 121.136 978.77 119.078C977.552 116.978 976.943 114.542 976.943 111.77V92.24C976.943 89.468 977.552 87.053 978.77 84.995C980.03 82.895 981.794 81.278 984.062 80.144C986.33 78.968 988.997 78.38 992.063 78.38C995.171 78.38 997.838 78.968 1000.06 80.144C1002.33 81.278 1004.08 82.895 1005.29 84.995C1006.55 87.053 1007.18 89.468 1007.18 92.24V111.77C1007.18 114.542 1006.55 116.978 1005.29 119.078C1004.08 121.136 1002.33 122.753 1000.06 123.929C997.838 125.063 995.171 125.63 992.063 125.63ZM992.063 117.44C993.953 117.44 995.36 116.957 996.284 115.991C997.25 114.983 997.733 113.576 997.733 111.77V92.24C997.733 90.392 997.271 88.985 996.347 88.019C995.423 87.053 993.995 86.57 992.063 86.57C990.131 86.57 988.703 87.053 987.779 88.019C986.855 88.985 986.393 90.392 986.393 92.24V111.77C986.393 113.576 986.855 114.983 987.779 115.991C988.745 116.957 990.173 117.44 992.063 117.44ZM1015.03 125V79.01H1024.48V96.839H1028.96L1036.52 79.01H1046.79L1037.34 100.997L1047.16 125H1036.77L1028.96 105.533H1024.48V125H1015.03ZM1091.53 125V116.81H1103.12V87.641L1091.4 96.335V86.57L1102.18 79.01H1112.57V116.81H1121.77V125H1091.53Z" fill="black"/>
<rect width="151" height="47" transform="translate(79 79)" fill="black"/>
<path d="M86.964 117V88.53H91.839V100.035H95.232L100.575 88.53H105.879L99.522 102.18L106.191 117H100.77L95.154 104.481H91.839V117H86.964ZM134.046 117V112.71H141.456V92.859L134.007 98.397V93.249L140.559 88.53H146.331V112.71H152.298V117H134.046ZM165.854 117.39C164.008 117.39 162.409 117.039 161.057 116.337C159.705 115.635 158.652 114.647 157.898 113.373C157.17 112.099 156.806 110.604 156.806 108.888V96.642C156.806 94.926 157.17 93.431 157.898 92.157C158.652 90.883 159.705 89.895 161.057 89.193C162.409 88.491 164.008 88.14 165.854 88.14C167.726 88.14 169.325 88.491 170.651 89.193C172.003 89.895 173.043 90.883 173.771 92.157C174.525 93.431 174.902 94.926 174.902 96.642V108.888C174.902 110.604 174.525 112.099 173.771 113.373C173.043 114.647 172.003 115.635 170.651 116.337C169.299 117.039 167.7 117.39 165.854 117.39ZM165.854 113.178C167.206 113.178 168.285 112.788 169.091 112.008C169.897 111.228 170.3 110.188 170.3 108.888V96.642C170.3 95.342 169.897 94.302 169.091 93.522C168.285 92.742 167.206 92.352 165.854 92.352C164.502 92.352 163.423 92.742 162.617 93.522C161.811 94.302 161.408 95.342 161.408 96.642V108.888C161.408 110.188 161.811 111.228 162.617 112.008C163.423 112.788 164.502 113.178 165.854 113.178ZM165.854 105.3C165.1 105.3 164.476 105.053 163.982 104.559C163.514 104.065 163.28 103.428 163.28 102.648C163.28 101.868 163.514 101.244 163.982 100.776C164.45 100.308 165.074 100.074 165.854 100.074C166.634 100.074 167.258 100.308 167.726 100.776C168.194 101.244 168.428 101.868 168.428 102.648C168.428 103.428 168.194 104.065 167.726 104.559C167.258 105.053 166.634 105.3 165.854 105.3ZM179.879 121.29L193.529 84.63H198.599L184.949 121.29H179.879ZM212.585 117.39C209.959 117.39 207.853 116.74 206.267 115.44C204.681 114.114 203.81 112.32 203.654 110.058H208.529C208.633 111.046 209.023 111.813 209.699 112.359C210.401 112.879 211.363 113.139 212.585 113.139C213.937 113.139 214.964 112.788 215.666 112.086C216.368 111.358 216.719 110.357 216.719 109.083V106.314C216.719 105.014 216.368 104.026 215.666 103.35C214.964 102.648 213.937 102.297 212.585 102.297C211.753 102.297 211.038 102.466 210.44 102.804C209.842 103.142 209.387 103.61 209.075 104.208H204.317L204.512 88.53H220.541V92.937H209.114L209.036 101.205H210.167L208.997 102.18C208.997 100.984 209.465 100.048 210.401 99.372C211.363 98.67 212.65 98.319 214.262 98.319C216.576 98.293 218.37 98.995 219.644 100.425C220.944 101.829 221.594 103.792 221.594 106.314V109.083C221.594 111.657 220.788 113.685 219.176 115.167C217.59 116.649 215.393 117.39 212.585 117.39Z" fill="white"/>
<path d="M1754 4.3716e-08L1754 2480M0 2248H3508M0 126H3508M0 79H3508M79 2480L79.0001 0" stroke="black" stroke-width="2"/>
</g>
<defs>
<clipPath id="clip0_257_1406">
<rect width="3508" height="2480" fill="white"/>
</clipPath>
</defs>
</svg>
