<svg width="11" height="19" viewBox="0 0 11 19" fill="none" xmlns="http://www.w3.org/2000/svg">
<path d="M8.7 18.575L0.275 10.175C0.175 10.075 0.104167 9.96667 0.0625 9.85C0.0208333 9.73333 0 9.60833 0 9.475C0 9.34167 0.0208333 9.21667 0.0625 9.1C0.104167 8.98333 0.175 8.875 0.275 8.775L8.7 0.35C8.93333 0.116667 9.225 0 9.575 0C9.925 0 10.225 0.125 10.475 0.375C10.725 0.625 10.85 0.916667 10.85 1.25C10.85 1.58333 10.725 1.875 10.475 2.125L3.125 9.475L10.475 16.825C10.7083 17.0583 10.825 17.3458 10.825 17.6875C10.825 18.0292 10.7 18.325 10.45 18.575C10.2 18.825 9.90833 18.95 9.575 18.95C9.24167 18.95 8.95 18.825 8.7 18.575Z" fill="#CAD3F5"/>
</svg>
