<svg width="24" height="24" viewBox="0 0 24 24" fill="none" xmlns="http://www.w3.org/2000/svg">
<path fill="currentColor" d="M8.44727 17.1538L3.84727 12.5538C3.74727 12.4538 3.67643 12.3455 3.63477 12.2288C3.5931 12.1121 3.57227 11.9871 3.57227 11.8538C3.57227 11.7205 3.5931 11.5955 3.63477 11.4788C3.67643 11.3621 3.74727 11.2538 3.84727 11.1538L8.47227 6.52881C8.6556 6.34548 8.8806 6.25381 9.14727 6.25381C9.41393 6.25381 9.64727 6.35381 9.84727 6.55381C10.0306 6.73715 10.1223 6.97048 10.1223 7.25381C10.1223 7.53715 10.0306 7.77048 9.84727 7.95381L6.94727 10.8538H20.1473C20.4306 10.8538 20.6681 10.9496 20.8598 11.1413C21.0514 11.333 21.1473 11.5705 21.1473 11.8538C21.1473 12.1371 21.0514 12.3746 20.8598 12.5663C20.6681 12.758 20.4306 12.8538 20.1473 12.8538H6.94727L9.87227 15.7788C10.0556 15.9621 10.1473 16.1871 10.1473 16.4538C10.1473 16.7205 10.0473 16.9538 9.84727 17.1538C9.66393 17.3371 9.4306 17.4288 9.14727 17.4288C8.86393 17.4288 8.6306 17.3371 8.44727 17.1538Z"/>
</svg>
