<svg fill="currentColor" viewBox="0 0 776.8 294.7" xmlns="http://www.w3.org/2000/svg">
	<path d="M427.1,186.6c1.5,2.6,5.4,3.7,8.1,3.7c3,0.1,5.6-1.1,7.9-2.8c0.9,1.4,3.5,1.7,4.9,1.6c3.6-0.1,7.3-1.5,10.5-3.1   c4.9-2.6,9.3-6.1,13.5-9.7c0.8-0.7-1.2-1.4-1.6-1.4c-1-0.2-2.3-0.4-3.1,0.3c-5.7,4.8-12.1,10.2-19.6,11.6c0-0.2,0-0.3,0.1-0.5   c0.4-1.5,1.5-2.8,2.4-3.9c0.6-0.7,1.2-1.5,1.9-2.2c0.4-0.4,1.4-1.1,1.4-1.7c0-0.7-1.2-1.1-1.7-1.2c-1.9-0.4-3.1,0.1-4.6,1.2   c-1.1,0.8-2,1.7-3,2.7c-2.1,1.9-4.1,4-6.5,5.5c-1,0.6-2.1,1.1-3.3,1.3c-0.1,0-0.2,0-0.5,0c-0.4-0.1-0.9-0.4-1.3-0.7   c-1-0.7-1.3-1.7-0.9-3c0.1-0.4,0.3-0.8,0.5-1.1c1.5-0.5,3-1.1,4.4-1.8c3-1.3,6.3-2.9,8.6-5.3c1.7-1.8-1.3-2.5-2.8-2.5   c-1.7,0-3.3,0.7-4.9,1.4c-3.4,1.5-7.3,3.7-9.7,6.8c-0.2,0.1-0.3,0.1-0.5,0.2c-0.8,0.3-1,0.8-0.4,1.2   C426.7,184.3,426.5,185.5,427.1,186.6z M446.7,187.1C446.7,187.1,446.8,187.1,446.7,187.1C446.8,187.1,446.8,187.1,446.7,187.1   C446.8,187.1,446.7,187.1,446.7,187.1z M447.9,187.4C447.9,187.4,447.9,187.5,447.9,187.4C447.9,187.5,447.9,187.4,447.9,187.4   C447.9,187.4,447.9,187.4,447.9,187.4C448,187.4,448,187.4,447.9,187.4z M444,175.8C444.3,175.8,444.2,175.8,444,175.8L444,175.8z" />
	<path d="M577.6,153.4c0.2,0,0.4,0,0.7,0C578.6,153.4,578.6,153.4,577.6,153.4z" />
	<path d="M705.2,202.9c-3.3-2.3-7-3.9-10.7-5.1c-7.5-2.4-15.3-3.7-23-4.7c-7.7-1-15.5-1.4-23.3-1.8c-7.8-0.3-15.5-0.4-23.3-0.2   c-15.6,0.8-31.1,3-46.2,6.4c-7.6,1.6-15.1,3.6-22.6,5.7c-7.4,2.2-14.8,4.5-22.1,7.3c7.6-1.6,15.1-3.2,22.7-4.6   c7.6-1.5,15.1-2.8,22.7-4.1c1.9-0.3,3.8-0.6,5.7-0.9l5.7-0.9c3.8-0.5,7.6-1.1,11.4-1.4c7.6-0.9,15.2-1.5,22.8-1.8   c7.6-0.3,15.3-0.2,23-0.1c3.8,0,7.7,0.1,11.5,0.2c3.8,0.2,7.7,0.3,11.5,0.6c3.8,0.2,7.6,0.6,11.4,1c3.8,0.4,7.6,1,11.2,1.9   c1.9,0.4,3.7,0.9,5.5,1.5c1.8,0.6,3.5,1.4,5.1,2.2c1.6,0.9,3.1,2,4.3,3.5c1.2,1.4,1.9,3.2,2.1,5.2c0.2-1.9-0.4-4-1.4-5.7   C708.3,205.5,706.8,204.1,705.2,202.9z" />
	<path d="M696.3,230.5c-6.5,4.2-13.7,7.4-21,10.1c-7.3,2.8-14.8,5-22.3,7c-3.8,1-7.6,1.9-11.4,2.8c-3.8,0.9-7.6,1.7-11.5,2.5   c-15.4,3-30.9,5.6-46.4,7.4c-15.6,1.9-31.2,3.4-46.9,4.5c-15.7,1.1-31.3,1.7-47,1.9l-22.3,0.3c3.1-1.9,6.1-4,8.9-6.4   c2.3-2,4.6-4.1,6.6-6.5c2-2.4,3.8-5.2,4.9-8.4c0.6-1.6,0.9-3.4,0.9-5.3c0-1.8-0.4-3.7-1.1-5.4c-1.5-3.4-4.1-5.8-6.8-7.5   c-2.7-1.7-5.5-2.9-8.4-3.8c-2.8-0.9-5.6-1.6-8.4-2.1l2.1-1.9c4.3-4,8.4-8.3,12.2-12.8c3.9-4.6,7.6-9.5,11-14.5   c0.1,0,0.2-0.1,0.2-0.1c2.7-1.5,5.5-3,8.2-4.6c1.7-1,3.4-2,5.1-3c-0.2,1.7,0.9,3.3,2.3,4.3c2.7,1.8,6.3,1.6,9.3,1.2   c2-0.3,3.9-0.8,5.8-1.5c2.8-1,5.4-2.3,8-3.6c14.2-7.1,27.7-15.6,41-24.1c3.1-2,6.3-4,9.4-6c4.1-0.3,8.3-0.9,12.4-1.5   c11-1.7,21.9-4.3,32.4-8.2c0.8-0.3,1.7-0.6,2.5-1c-7.5,6.2-15,12.4-22.3,18.9c-3.3,2.9-6.5,5.8-9.6,8.8c-0.7,0.7,2.1,0.6,2.2,0.6   c1.5-0.1,3-0.4,4.3-1c-0.8,0.4-0.4,0.2,0,0c0.4-0.2,0.9-0.4,1.3-0.6c1.7-0.7,3.4-1.4,5.1-2.1c2.5-1,5-1.9,7.5-2.8   c3.1-1.1,5.7-2,9-3c1.6-0.5,3.3-1,5-1.4c0.4-0.1,0.8-0.2,1.3-0.3c0.2,0,0.3-0.1,0.5-0.1c0.1,0,0.2-0.1,0.3-0.1   c1-0.2,1.9-0.5,2.9-0.7c0.9-0.2,1.7-0.4,2.6-0.6c0.4-0.1,0.9-0.2,1.3-0.3c0,0,0.2,0,0.2,0c0.2,0,0.4-0.1,0.6-0.1   c0.9-0.2,1.8-0.3,2.6-0.4c0.4-0.1,0.9-0.1,1.3-0.2c0.2,0,0.4-0.1,0.7-0.1c0.1,0,0.1,0,0.1,0c0,0,0.1,0,0.1,0   c3.6-0.4,6.3-0.6,9.7-0.4c3.2,0.2,6.7,0.4,9.5,2c6.1,3.5,5,11.6,0.9,16.2c-0.7,0.8,2.4,0.6,2.6,0.6c1.2-0.1,3.3-0.2,4.2-1.2   c3.8-4.3,5.4-11.5,0.8-15.8c-2.7-2.5-6.6-3.1-10.1-3.5c-4-0.5-8-0.4-11.9-0.2c-14.8,0.9-29.5,5.2-43.3,10.5   c4.7-4.4,9.6-8.5,14.5-12.6c6.1-5.2,12.3-10.3,18.5-15.3c1.3-1,2.6-2.1,3.8-3.1c0.7-0.6-2.2-0.6-2.2-0.6c-1.4,0.1-3.1,0.2-4.3,1   c-6.9,4.3-14.4,7.6-22.1,10c-1.9,0.6-3.8,1.2-5.7,1.7c-0.8,0.2-1.7,0.5-2.5,0.7c-0.1,0-0.2,0-0.2,0.1c-0.2,0.1-0.4,0.1-0.6,0.2   c-0.5,0.1-1.1,0.3-1.6,0.4c-1.7,0.4-3.5,0.8-5.2,1.1c-0.8,0.2-1.6,0.3-2.4,0.5c0,0-0.2,0-0.3,0.1c-0.1,0-0.2,0-0.3,0   c-0.4,0.1-0.9,0.2-1.3,0.2c-2.8,0.5-5.6,0.9-8.4,1.2c-0.1,0-0.2,0-0.2,0c-0.2,0-0.5,0.1-0.7,0.1c-0.5,0.1-1,0.1-1.6,0.2   c-0.8,0.1-1.7,0.2-2.5,0.2c-0.5,0-1.1,0.1-1.6,0.1c-0.4,0-1.4,0.1-1.6,0.2c-1,0.1-2.1,0.4-3,0.9c0,0-0.1,0-0.1,0.1   c-0.2,0.1-0.4,0.3-0.6,0.4c-7.1,4.6-14.3,9.1-21.5,13.6c-9.9,6.1-19.9,12.2-30.4,17.3c-1.7,0.8-3.3,1.6-5.3,2.4   c-0.4,0.1-0.7,0.3-1.1,0.4c0,0,0,0,0,0c-0.1,0-0.2,0-0.2,0.1c-0.8-0.2-1.6-0.4-2.3-0.8c-1.2-0.7-2.2-1.9-2.3-3.4   c-0.1-1.4,0.8-2.5,1.8-3.4c1.1-0.9,2.4-1.6,3.7-2.2c0.7-0.3,1.4-0.6,2-0.8c0.3-0.1,0.6-0.2,0.9-0.3c0.1-0.1,0.3-0.1,0.4-0.2   c0,0,0,0,0,0c0.6-0.2,1.1-0.4,1.7-0.5c0.5-0.1,2.5-0.8,1.1-1.3c-1.4-0.5-3.5,0.1-4.8,0.4c-2.2,0.6-4.5,1.4-6.6,2.4   c-4.8,1.8-9.5,3.7-14.2,5.7c-0.6,0.2-1.2,0.5-1.7,0.7c1-1.6,1.9-3.2,2.8-4.9c0.4-0.4,0.7-0.7,1.1-1.1c0.7-0.7,1.3-1.3,1.9-2.1   c0.7-0.9-1.6-3.5-2.2-2.8c-1.5,1.7-3.1,3.3-4.8,4.8c-3,2.5-6.5,5.1-10.5,5.6c-1.7,0.3-3.4,0-4.9-0.8c-0.1-0.1-0.1-0.1,0,0   c0,0,0,0,0,0c0,0,0,0,0-0.1c0-0.1-0.1-0.1-0.1-0.1c-0.1-0.3-0.2-0.6-0.3-0.8c-0.5-2.3,1-4.7,2.3-6.5c2.9-3.9,7-7,10.8-10   c8.5-6.6,17.3-12.8,26.2-18.9c2.2-1.5,4.3-3,6.5-4.5c0,0,0.1-0.1,0.1-0.1c7.6-3.2,14.9-7.3,21.9-11.5c7.9-4.8,15.7-9.9,22.8-15.8   c3-2.4,5.6-5.3,7.7-8.5c3.4-5.2,5.6-11.8,3.9-18c-1.8-6.7-8-10.5-14.4-12c-5-1.2-10.2-1.3-15.3-0.9c-7.3,0.5-14.5,2.1-21.5,4   c-16.9,4.7-33.2,11.6-48.1,20.8c-12.5,7.7-24,16.9-34.4,27.2c-8.8,8.7-16.7,18.3-23.9,28.4c-5.3,7.5-10.2,15.3-14.5,23.5   c-1.8,3.3-3.5,6.7-5,10.1c-4.8,0-9.6,0-14.4,0c-1.5,0-3.3,0.9-4.5,1.7c-0.3,0.2-1.2,0.8-1.3,1.2c-0.8-0.7-1.6-1.2-2.5-1.8   c-0.2-0.1-0.4-0.3-0.5-0.4c0-0.5,0-0.9,0.1-1.4c0.2-1.1,0.8-2.3,1.6-3.1c0.5-0.6-1.6-3.2-1.8-3.1c-0.7,0.8-1.3,1.9-1.6,3   c-0.6,2.4,0.7,4.9,2.2,6.7c1,1.1,2.3,1.8,3.4,2.7c0.5,0.4,0.9,0.8,1.3,1.2c0.1,0.2,0.1,0.4,0.1,0.6c0.3,2.9-2.4,5.1-4.5,6.5   c-0.5,0.3,1.4,3.3,1.8,3.1c2.1-1.5,4.5-3.5,4.6-6.3c0.1-2.5-1.6-5.1-3.3-6.8c-0.2-0.2-0.4-0.4-0.6-0.5c0.1,0,0.2,0,0.3,0   c6.3,0,12.7,0,19,0c1.1,0,2.4-0.6,3.4-1.1c0.7-0.3,2.2-0.9,2.5-1.7c1.1-2.8,2.4-5.5,3.8-8.1c3.5-7,7.5-13.9,11.7-20.5   c6.1-9.4,12.8-18.3,20.2-26.6c8.9-10,18.7-19.1,29.5-27c2.8-2.1,5.8-4.2,8.7-6c1.6-1,3.2-2,4.8-2.9c0.8-0.5,1.5-0.9,2.3-1.3   c0.9-0.5,1.5-0.8,2.2-1.2c1.7-0.9,3.4-1.8,5.1-2.7c0.8-0.4,1.6-0.8,2.5-1.2c0,0,0,0,0,0c0,0,0.1,0,0.1,0c0.2-0.1,0.3-0.2,0.5-0.2   c0.6-0.3,1.1-0.5,1.7-0.8c1.7-0.8,3.5-1.6,5.3-2.3c0,0,0,0,0,0c0,0,0.1,0,0.1-0.1c0.2-0.1,0.5-0.2,0.7-0.3c0.4-0.2,0.9-0.3,1.3-0.5   c1.2-0.5,2.4-0.9,3.7-1.4c7.5-2.8,15.2-5.1,23-6.6c5.7-1.1,11.6-1.8,17.4-1.4c7,0.4,14.9,2.4,19,8.7c3.3,5,2.9,11.3,0.6,16.7   c-1.3,3.1-3.2,6.1-5.3,8.5c-1.2,1.4-2.6,2.7-4,3.9c-0.1,0-0.2,0.2-0.3,0.3c-0.1,0.1-0.4,0.3-0.4,0.3c-1,0.8-2,1.5-3,2.2   c-2,1.5-3.9,2.9-5.9,4.3c-3.6,2.5-7.3,4.9-11.1,7.2c-3.2,1.9-6.2,3.6-9.1,5.2c-1.4,0.7-2.7,1.4-4.1,2.1c-0.6,0.3-1.2,0.6-1.8,0.9   c-0.2,0.1-0.5,0.2-0.7,0.4c0,0,0,0-0.1,0c-0.1,0-0.2,0.1-0.2,0.1c-1.1,0.5-2.2,1-3.3,1.5c-0.9-1-2.5-2.1-3.4-1.5   c-5,3.4-10,6.8-14.9,10.3c-5.3,0.1-10.7-0.2-15.5-1.5c-3.9-1-7.7-2.5-10.9-5.3c-4.8-4.1-6.4-10.4-4.8-16.4c1.5-6,5.8-11.3,11-14.4   c0.7-0.4,1.3-0.7,2-1.1c0.9-0.4,1.3-0.6,2.1-0.8c0.7-0.2,1.5-0.4,2.2-0.6c0.1,0,0.2,0,0.3-0.1c0.2,0,0.3-0.1,0.5-0.1   c0.2,0,0.4-0.1,0.6-0.1c0.1,0,0.5,0,0.5,0c0.5,0,1.1,0,1.2,0c0.2,0,0.5,0,0.7,0.1c0,0,0.3,0.1,0.5,0.1c0,0,0.4,0.1,0.5,0.1   c0.4,0.1,0.1,0,0.3,0.1c0.5,0.2,0.6,0.3,1,0.6c1.2,0.9,1.8,2.4,2,3.8c0.5,4-1.4,8.3-3.4,11.6c-2.2,3.7-5.3,7.3-9.1,9.4   c-0.8,0.5-1.5,0.7-2.3,1c-0.9,0.2-0.9,0.9-0.1,1.3c1,0.5,2.4,0.6,3.5,0.3c4.5-1.2,8.1-4.7,10.9-8.2c2.7-3.6,5.2-8.1,5.6-12.7   c0.9-10.7-13.2-10.3-20.2-7.6c-6.4,2.5-11.7,7.8-14.3,14.1c-2.5,6.1-1.9,13.2,2.7,18.3c7.3,8.1,19.8,9.6,30,9.8   c-0.3,0.2-0.7,0.5-1,0.7c-4.8,3.4-9.5,6.9-14.2,10.5c-4,3.1-8.4,6.3-11.3,10.6c-1.5,2.1-2.6,4.8-1.8,7.4c0.4,1.5,1.5,2.8,2.8,3.7   c0.2,0.1,0.5,0.4,0.9,0.6c5.9,4.5,12.8,0.8,18-3.6c-1,1.3-1.9,2.6-2.9,3.9c-1.6,0.7-3.1,1.3-4.7,2l-8.6,3.8   c-11.4,5-22.4,11-33.7,16.3l-17,8c-1.9,0.9-3.9,1.9-5.8,2.9c-1.7,0-3.5,0-5.2,0c-8.5,0.2-17.1,1-25.5,2.7   c-8.4,1.7-16.8,4.3-24.3,8.5c-3.8,2.1-7.3,4.7-10.2,8c-1.4,1.7-2.7,3.5-3.5,5.5c-0.4,1-0.7,2.1-0.8,3.2c-0.1,1.1,0,2.2,0.4,3.2   c-0.5-2.1,0.2-4.2,1.1-6c1-1.8,2.3-3.5,3.8-4.9c3-2.9,6.5-5.1,10.3-7c3.7-1.8,7.6-3.4,11.6-4.6c4-1.2,8.1-2.3,12.2-3.1   c4.1-0.8,8.3-1.5,12.5-2c4.2-0.6,8.4-0.9,12.6-1.3c0.3,0,0.6,0,0.9-0.1c-2.3,1.2-4.5,2.4-6.7,3.7c-5.4,3.2-10.7,6.7-15.5,10.9   c-2.4,2.1-4.7,4.3-6.6,6.9c-0.9,1.3-1.8,2.7-2.4,4.1c-0.6,1.5-1.1,3.1-0.7,4.8l0.5-0.2c-0.1-0.7,0-1.4,0.2-2.2   c0.2-0.7,0.5-1.4,0.8-2.1c0.7-1.4,1.6-2.6,2.6-3.8c2-2.3,4.3-4.4,6.7-6.3c4.9-3.8,10.3-6.9,15.8-9.8c4.5-2.4,9.2-4.6,13.9-6.6   c1.6-0.1,3.1-0.1,4.7-0.2c5,0.5,10.1,1.1,15,1.9c3.7,0.6,7.5,1.2,11.1,2.1c-2,1.8-4,3.5-6.1,5.3c-8.9,7.4-18.6,13.9-29.3,18.6   c-5.3,2.2-10.8,4.2-16.6,5.1c-5.7,1-11.6,1.3-17.3-0.2l-0.1,0.3c5.7,1.7,11.7,1.5,17.5,0.7c5.9-0.7,11.5-2.6,17-4.7   c10.9-4.5,20.9-10.9,30.2-18.1c2.3-1.9,4.6-3.7,6.8-5.6l0.8-0.7c0.8,0.2,1.7,0.4,2.5,0.7c2.7,0.8,5.3,1.6,7.9,2.7   c2.5,1.1,4.9,2.3,6.9,3.8c2,1.5,3.6,3.3,4.3,5.3c0.7,1.9,0.5,4-0.3,6.1c-0.9,2.1-2.4,4.2-4.1,6.1c-1.8,1.9-3.7,3.7-5.9,5.3   c-4.3,3.3-9,6.1-14,8.6c-2.8,1.4-5.6,2.6-8.5,3.8l-6.8,0.1c-7.9,0-15.7-0.1-23.6-0.3c-7.8-0.2-15.7-0.6-23.5-1.3   c-7.8-0.7-15.6-1.8-23.1-3.8c-3.7-1-7.4-2.3-10.8-4.2c-3.4-1.8-6.5-4.4-8.5-7.8c1.6,3.7,4.6,6.6,7.9,8.9c3.3,2.3,7,3.9,10.8,5.3   c3.8,1.4,7.6,2.5,11.5,3.4c3.9,0.9,7.8,1.7,11.7,2.3c11.6,1.8,23.4,2.9,35.1,3.5c-1.2,0.3-2.4,0.6-3.7,0.8L418,276l-8.4,1.6   c-2.8,0.6-5.6,1-8.4,1.5c-2.8,0.5-5.6,1-8.4,1.4c-11.3,1.9-22.6,3.4-33.9,5.1c-22.7,3.1-45.4,6-68.2,9c23,0.5,46-0.5,68.9-2.4   c22.9-1.9,45.8-4.8,68.5-9.7c8.7-1.8,17.4-4.5,25.6-8.1l0.6,0l11.9,0.2l23.7,0.2c7.9,0.1,15.9-0.1,23.8-0.3   c7.9-0.3,15.9-0.7,23.8-1.2c7.9-0.6,15.8-1.2,23.7-2.1c7.9-0.9,15.8-1.8,23.6-2.9c7.9-1.2,15.7-2.5,23.5-3.9   c7.8-1.4,15.6-3.1,23.3-5c15.4-3.8,30.7-8.5,45.4-15c3.6-1.7,7.2-3.5,10.7-5.4c3.5-2,6.9-4.1,10-6.6c3.1-2.5,6.1-5.2,8.5-8.5   c2.4-3.2,4.2-7,4.6-10.9c-0.9,3.9-2.9,7.3-5.6,10.1C702.7,226,699.5,228.3,696.3,230.5z M605,149.1   C604.9,149.1,604.9,149.1,605,149.1L605,149.1z M514.7,188.6C514.9,188.6,514.8,188.7,514.7,188.6L514.7,188.6z M514.1,188.7   C513.7,188.8,513.8,188.7,514.1,188.7L514.1,188.7z M490.3,110.3C490.6,110.3,490.4,110.3,490.3,110.3L490.3,110.3z M440.4,219.8   c-3.4-0.4-6.9-0.6-10.3-0.8l16.8-7c11.5-4.9,23.2-9.5,34.4-15.2c1.2-0.6,2.5-1.3,3.7-2c-2.9,3.5-5.8,7-8.8,10.3   c-1.9,2.2-3.9,4.3-5.9,6.4c-2,2.1-4,4.2-6.1,6.2l-3.5,3.4c-4.7-0.7-9.5-1.1-14.2-1.2C444.4,219.8,442.4,219.8,440.4,219.8z" />
	<path d="M235.3,177.2c7.6-2.6,15.2-5.4,22.7-8.1c3.8-1.3,7.5-2.9,11.3-4.3c3.7-1.5,7.5-2.9,11.2-4.5c15.8-6.5,31.5-13.6,46.9-21   c-1.5,1-3.1,2.1-4.6,3.2c-2.6,1.7-5.1,3.4-7.7,5.2c-5.4,3.8-10.9,7.6-16.2,11.5c-10.8,7.7-21.5,15.6-32,23.7   c-5.2,4.1-10.4,8.2-15.5,12.5c-2.5,2.1-5,4.3-7.5,6.6c-1.2,1.2-2.4,2.4-3.4,3.8c-0.5,0.7-0.9,1.5-1.1,2.4c-0.1,0.5,0,1,0.4,1.4   c0.4,0.4,0.8,0.6,1.3,0.6l0-0.6c-0.3-0.1-0.7-0.2-0.9-0.5c-0.2-0.2-0.2-0.6-0.1-0.9c0.2-0.7,0.6-1.4,1.1-2c1-1.3,2.2-2.4,3.4-3.4   c2.5-2.1,5.1-4.1,7.8-6.1c5.3-4,10.6-7.8,16.1-11.6c10.8-7.6,21.8-15,32.8-22.2l8.3-5.3l8.4-5.2c2.8-1.8,5.6-3.5,8.4-5.3l8.3-5.4   c5.5-3.7,11-7.4,16.4-11.2c1.9-1.3,3.8-2.7,5.6-4c4.1-2.4,8.2-4.6,12.6-6.5c1-0.4-1.6-4.6-3.1-3.9c-8.7,3.8-16.9,8.9-24.9,14.1   c-1,0.6-1.9,1.3-2.9,1.9c-19.5,9-39.3,17.6-59.2,25.7c-29.7,12.1-59.9,22.9-90.5,32.5c-15.3,4.8-30.8,9.1-46.4,12.9   c-7.8,1.9-15.7,3.5-23.5,5.1c-7.9,1.6-15.8,3-23.6,4.4c-12.3,2.2-24.6,4.3-37,6.1c0-0.1,0-0.2,0-0.2c0-0.2,0-0.5,0-0.7   c0.1-1.3,0.3-2.5,0.5-3.8c2.2-13.3,9.9-25.1,19.1-34.7c16.3-17.1,37.7-29,59-38.8c12.3-5.6,24.9-10.6,37.4-15.6   c11.8-4.8,23.6-9.5,35.5-14.2c24.4-9.7,48.9-19.2,73.5-28.6c23.6-9.1,47.3-18.1,71-27c20.4-7.7,40.8-15.3,61.3-22.9   c15-5.6,30.1-11.1,45.1-16.7c7.2-2.7,14.5-5.3,21.7-7.9c0.3-0.1,0.6-0.2,0.9-0.3c0.2-0.1,0-3.2,0-3.5c0-0.3-0.2-3.5,0-3.5   c-5.2,1.9-10.3,3.8-15.5,5.7c-13.8,5-27.5,10.1-41.3,15.2c-20,7.4-40,14.9-60,22.4c-23.7,8.9-47.3,17.8-70.9,26.9   c-24.9,9.5-49.9,19.2-74.7,29c-24,9.4-48,18.9-71.8,28.8c-23.7,9.9-47.7,22-66.7,39.7c-10.4,9.8-19.6,21.8-22.9,36   c-1.2,4.9-1.4,9.9-1.4,15c-3.4,0.5-6.8,1-10.3,1.5c-7.9,1.1-15.9,2.2-23.9,3l-12,1.2c-4,0.4-8,0.7-12,1l0,0.3   c16.1-0.1,32.1-1.5,48.1-3.3c3.3-0.4,6.7-0.8,10-1.3c0,0.7,0,1.4,0.1,2.1c0.1,4.3,0.8,8.5,2,12.6c1.4,4.7,3.5,9.9,6.7,13.8   c0.2,0.2,0.3,0.4,0.5,0.6c-0.4-0.4,0-2.9,0-3.5c0-0.7,0.4-3,0-3.5c-2.2-2.7-3.9-6-5.3-9.3c-1.4-3.4-2.5-7-3.1-10.6   c-0.1-0.7-0.2-1.5-0.3-2.2c12.4-1.7,24.8-3.7,37.2-6.2c7.9-1.6,15.7-3.3,23.5-5.2c3.9-0.9,7.8-1.9,11.7-2.8l5.9-1.4l5.8-1.5   c3.9-1,7.8-1.9,11.7-2.9c3.9-1,7.8-2,11.7-3c3.9-1.1,7.7-2.1,11.6-3.1c3.9-1,7.7-2.1,11.6-3.2l5.8-1.6l5.8-1.7   c3.9-1.1,7.7-2.3,11.5-3.5C220,182.3,227.7,179.9,235.3,177.2z" />
	<path d="M316.2,201.6c2.5-1.4,5-2.8,7.5-4.2c-0.9,0.8-1.8,1.6-2.6,2.5c-0.2,0.3-0.5,0.7-0.7,1.2c-0.1,0.2-0.2,0.6,0,1   c0.1,0.4,0.5,0.7,0.8,0.8c0.6,0.2,1,0.2,1.4,0.2c0.4,0,0.8,0,1.2-0.1c1.5-0.2,3-0.6,4.4-1c2.9-0.9,5.6-1.9,8.4-3l16.4-6.3   c2.7-1,5.4-2,8.2-2.7c1.2-0.3,2.3-0.5,3.5-0.7c-1.2,0.4-2.4,0.9-3.4,1.7c-0.8,0.6-1.6,1.4-1.8,2.4c-0.1,0.6,0.1,1.2,0.4,1.8   c0.6,1.1,1.5,2,2.5,2.7c2.1,1.5,4.6,2,7.2,2.2c0.3,0,0.3-0.5,0.2-0.6c-0.1-0.4-0.6-0.9-0.9-1.3c-0.7-0.7-1.6-1.6-2.6-1.7   c-0.3,0-0.4,0-0.7-0.1c-0.3,0-0.5-0.1-0.8-0.1c-0.4-0.1-0.9-0.2-1.3-0.3c0.6-1.3,2-2.2,3.2-2.7c0.8-0.4,1.7-0.7,2.7-0.8   c0.5-0.1,0.9-0.1,1.4-0.2c0.2,0,0.5,0,0.7,0c0.1,0,0.2,0,0.3,0c0.1,0,0.5,0.1,0.1,0c0.3,0,0.6,0.1,0.6-0.3c0-0.3-0.4-0.9-0.5-1.1   c-0.4-0.5-0.9-1-1.4-1.4c-0.3-0.2-0.7-0.6-1.1-0.7c-1.3-0.6-2.7-0.9-4.1-1c-1.5-0.1-3-0.1-4.6,0.1c-3,0.4-5.9,1.1-8.8,2   c-5.7,1.8-11,4.5-16.3,6.9c-2.7,1.2-5.4,2.4-8.1,3.3c-1.4,0.5-2.7,0.9-4.1,1.1c-0.3,0.1-0.7,0.1-1,0.1c-0.3,0-0.6,0-0.7,0   c0,0,0,0,0,0c0-0.2,0.2-0.5,0.4-0.8c0.8-1.1,1.8-2.1,2.9-3.1c1.1-1,2.2-1.9,3.3-2.9c0.3-0.2,0.6-0.5,0.9-0.7c0.1,0,0.1-0.1,0.2-0.1   c4.4-2.6,8.8-5.3,13-8.2l-0.2-0.4c-4.8,1.8-9.5,3.8-14.2,5.9c-4.7,2.1-9.3,4.3-13.9,6.5c-4.6,2.2-9.1,4.6-13.6,7.1l-13.4,7.4   l-7.3,3.9c3-2,6-3.9,9.1-5.9c4.4-2.9,8.9-5.8,13.2-8.8c4.4-3,8.7-6,13.1-9.1c4.4-3,8.7-6.1,13.1-8.9c2.2-1.5,4.4-2.9,6.7-4.3   l1.7-1.1l0.4-0.3l0.1-0.1c-0.1,0,0.1-0.1,0.3-0.3c0.1-0.2,0.2-0.5,0.1-0.8c-0.1-0.2-0.2-0.5-0.5-0.6c-0.3-0.2-0.7,0-0.7,0l-0.1,0   l-0.9,0.3l-3.8,1.3c-10,3.4-20.3,6-30.4,9.2c-5,1.6-10.1,3.3-15,5.2l-7.4,2.8l-7.4,2.9c-2.5,1-4.9,2-7.4,3l-3.7,1.6l-3.6,1.6   c-2.4,1.1-4.8,2.1-7.2,3.1c-1.2,0.5-2.4,1-3.7,1.4c-1.2,0.4-2.5,0.9-3.7,1.1l0,0.6c2.8,0,5.4-0.6,8-1.2c2.6-0.6,5.2-1.4,7.7-2.2   l7.6-2.4c2.5-0.8,5-1.6,7.6-2.4l7.5-2.5l7.5-2.6c5-1.7,10-3.5,14.9-5.5c9-3.5,17.8-7.5,26.8-11c-0.8,0.5-1.5,0.9-2.3,1.4   c-4.5,2.7-9.2,5.3-13.8,7.9c-4.6,2.6-9.3,5.2-13.8,7.8c-4.6,2.6-9.1,5.4-13.7,8.1c-9.1,5.4-18.1,10.9-27.1,16.6   c-4.5,2.9-8.9,5.7-13.3,8.7l-6.6,4.4l-6.6,4.5c-8.7,6-17.4,12.1-25.9,18.5l0.3,0.5c9.5-4.8,18.7-10,27.9-15.2l6.9-4l6.8-4   c2.3-1.4,4.7-2.8,7-4.2c1.9-0.9,3.7-1.8,5.6-2.7l27.5-13.5l13.8-6.7C307.2,206.4,311.7,204,316.2,201.6z M362.6,195.9   C362.6,195.9,362.6,195.9,362.6,195.9C362.6,195.9,362.6,195.9,362.6,195.9C362.6,195.9,362.6,195.9,362.6,195.9z M363.4,197   C363.4,197,363.4,197,363.4,197C363.4,196.9,363.4,196.9,363.4,197c0,0,0,0.1,0.1,0.2C363.5,197.1,363.4,197,363.4,197z    M337.1,177.7L337.1,177.7C337.1,177.7,337.1,177.7,337.1,177.7z" />
	<path d="M388,168.6c0,0.1-0.1,0.3-0.2,0.4c-0.1,0.2-0.3,0.4-0.4,0.6c0,0,0,0,0,0c0,0,0,0,0,0c-0.1,0.1-0.2,0.2-0.3,0.3   c-0.1,0.1-0.2,0.2-0.4,0.3c-0.3,0.2-0.6,0.5-0.7,0.8c-0.1,0.3-0.1,0.6,0.1,0.8c0.6,0.5,1.7,0.2,2.3-0.2c0.5-0.3,1-0.7,1.4-1.2   c0.3-0.3,0.6-0.7,0.8-1c0.4,0.1,0.9,0.2,1.3,0.2c1.6,0.1,3.4-0.2,4.4-1.5c0.3-0.3,0.4-0.7,0.5-1.1c0.1-0.4,0-0.7-0.1-1.1   c-0.1-0.3-0.5-0.4-0.8-0.4c-0.4-0.1-0.9,0.1-1.3,0.2c-0.4,0.2-0.8,0.4-1,0.8c-0.2,0.3-0.3,0.5-0.2,0.9c-0.4,0-0.9-0.1-1.3-0.2   c0.1,0,0.1,0,0.2,0c-0.4-0.1-0.7-0.1-1.1,0c-0.1-0.6-0.4-1-0.8-1.4c-0.2-0.2-0.7-0.3-1-0.2c-0.4,0-0.9,0.2-1.3,0.4   c-0.5,0.3-1.2,1-0.7,1.6c0.1,0.1,0.1,0.1,0.1,0.2c0.1,0.2,0.2,0.4,0.3,0.6C388.1,168.3,388,168.4,388,168.6z M394.3,167.2   C394.3,167.2,394.3,167.2,394.3,167.2C394.3,167.2,394.3,167.2,394.3,167.2C394.6,167,394.5,167.1,394.3,167.2z" />
	<path d="M516.3,225.4l-0.1,0.3c3.3,2.6,7.3,4.2,11.5,5c4.2,0.8,8.6,0.3,12.6-0.6c4-0.9,8-1.9,11.9-3c4-1.1,7.9-2.1,11.8-3.3   l-0.1-0.3l-12.1,2.2c-4,0.7-8,1.5-12.1,2.1c-2,0.3-3.9,0.5-5.9,0.4c-2,0-3.9-0.2-5.9-0.4C524.2,227.5,520.3,226.6,516.3,225.4z" />
	<path d="M776.7,144.4c-0.9-0.3-1.8-0.4-2.8-0.5l-1.4-0.1c-0.5,0-0.9,0-1.4,0c-0.9,0-1.8,0.1-2.7,0.2c-0.9,0.1-1.8,0.3-2.7,0.5   c-1.8,0.4-3.5,1.1-5.1,1.9c-1.6,0.9-3.1,1.8-4.6,2.8c-1.6,0.9-3,1.9-4.5,2.9l-2.1,1.6l-2.1,1.7c-2.7,2.3-5.3,4.7-7.6,7.4l0.4,0.4   c2.8-2,5.8-3.8,8.8-5.5l2.3-1.2l2.3-1.1c1.5-0.7,3.1-1.5,4.6-2.1c3.1-1.3,6.5-1.9,9.5-3.4c3-1.5,6.1-2.8,9.2-5L776.7,144.4z" />
</svg>
