<svg class="icon" width="24" height="24" viewBox="0 0 24 24" fill="none" xmlns="http://www.w3.org/2000/svg">
<path fill="currentColor" d="M3 4.9375C3 4.21152 3.58652 3.625 4.3125 3.625H20.0625C20.7885 3.625 21.375 4.21152 21.375 4.9375C21.375 5.66348 20.7885 6.25 20.0625 6.25H4.3125C3.58652 6.25 3 5.66348 3 4.9375ZM3 11.5C3 10.774 3.58652 10.1875 4.3125 10.1875H20.0625C20.7885 10.1875 21.375 10.774 21.375 11.5C21.375 12.226 20.7885 12.8125 20.0625 12.8125H4.3125C3.58652 12.8125 3 12.226 3 11.5ZM21.375 18.0625C21.375 18.7885 20.7885 19.375 20.0625 19.375H4.3125C3.58652 19.375 3 18.7885 3 18.0625C3 17.3365 3.58652 16.75 4.3125 16.75H20.0625C20.7885 16.75 21.375 17.3365 21.375 18.0625Z"/>
</svg>
