<svg class="preview__icon--logo" width="80" height="70" viewBox="0 0 80 70" fill="none" xmlns="http://www.w3.org/2000/svg">
<rect fill="#242424" width="80" height="70" rx="10"/>
<path fill="#F4F5F6" d="M39.5266 49.4935C38.2772 49.4935 37.3402 49.1318 36.7155 48.4085C36.0908 47.6852 35.8771 46.7153 36.0744 45.4988C36.2717 44.2166 36.7977 43.1974 37.6525 42.4412C38.5403 41.685 39.6088 41.3069 40.8581 41.3069C42.1075 41.3069 43.0281 41.685 43.6199 42.4412C44.2446 43.1974 44.4583 44.2166 44.261 45.4988C44.0637 46.7153 43.5377 47.6852 42.6829 48.4085C41.828 49.1318 40.7759 49.4935 39.5266 49.4935Z"/>
<path fill="#F4F5F6" d="M12.8269 57.8774L13.468 53.8334H19.0408C20.4217 53.8334 21.4902 53.521 22.2464 52.8964C23.0026 52.2717 23.4793 51.3018 23.6766 49.9867L27.0302 28.6325H19.1395L19.7806 24.5885H27.6713L28.2631 20.8897C28.5261 19.2458 29.085 17.8485 29.9399 16.6978C30.7947 15.5142 31.9125 14.61 33.2934 13.9854C34.6743 13.3278 36.2524 12.999 38.0278 12.999H46.609L45.9678 17.043H37.3374C35.9565 17.043 34.888 17.3553 34.1318 17.98C33.3756 18.6047 32.8989 19.5746 32.7016 20.8897L32.1098 24.5885H43.2061L42.565 28.6325H31.4687L28.1151 49.9867C27.7535 52.4196 26.7014 54.343 24.9589 55.7567C23.2163 57.1705 21.0135 57.8774 18.3504 57.8774H12.8269Z"/>
<path fill="#F4F5F6" d="M56.601 49.0003C54.2009 49.0003 52.3926 48.3099 51.1762 46.929C49.9926 45.5153 49.5816 43.6577 49.9432 41.3562L53.79 17.043H45.6527L46.2938 12.999H58.8696L54.3818 41.3562C54.2174 42.4741 54.3818 43.3618 54.8749 44.0193C55.401 44.644 56.19 44.9563 57.2421 44.9563H66.3658L65.7246 49.0003H56.601Z"/>
</svg>
