<svg class="preview__icon--arrow" width="564" height="193" viewBox="0 0 564 193" fill="none" xmlns="http://www.w3.org/2000/svg">
<path d="M4.28115 184.001C2.07262 183.949 0.240154 185.697 0.188221 187.906C0.136287 190.115 1.88455 191.947 4.09308 191.999L4.28115 184.001ZM148 167L146.489 163.296L148 167ZM283.187 77L284.231 80.8613L283.187 77ZM436.187 77L437.28 80.8479L436.187 77ZM563.187 2.70009e-05L517.475 6.61197L546.057 42.894L563.187 2.70009e-05ZM4.18711 188C4.09308 191.999 4.09396 191.999 4.09517 191.999C4.09602 191.999 4.09756 191.999 4.09926 191.999C4.10264 191.999 4.10736 191.999 4.11339 191.999C4.12546 192 4.14281 192 4.16538 192.001C4.21052 192.001 4.27655 192.003 4.36303 192.004C4.53598 192.008 4.7907 192.012 5.1236 192.017C5.78938 192.027 6.76793 192.038 8.03039 192.043C10.5551 192.054 14.2164 192.044 18.7831 191.96C27.914 191.791 40.6779 191.324 55.2236 190.131C84.2216 187.754 120.669 182.466 149.511 170.704L146.489 163.296C118.806 174.586 83.347 179.799 54.5698 182.158C40.2279 183.334 27.637 183.795 18.6351 183.961C14.1353 184.044 10.5356 184.054 8.06595 184.043C6.83123 184.038 5.87925 184.027 5.2388 184.018C4.91858 184.013 4.67626 184.009 4.51545 184.006C4.43504 184.004 4.37502 184.003 4.33581 184.002C4.31621 184.002 4.30182 184.002 4.29269 184.001C4.28813 184.001 4.28488 184.001 4.28295 184.001C4.28199 184.001 4.28154 184.001 4.28105 184.001C4.28094 184.001 4.28115 184.001 4.18711 188ZM149.511 170.704C176.793 159.577 197.308 140.273 217.399 122.491C237.665 104.554 257.582 88.0676 284.231 80.8613L282.143 73.1387C253.499 80.8845 232.341 98.5828 212.097 116.5C191.677 134.573 172.245 152.792 146.489 163.296L149.511 170.704ZM284.231 80.8613C312.132 73.3166 335.212 77.221 359.103 81.2166C382.948 85.2048 407.588 89.279 437.28 80.8479L435.094 73.1521C407.308 81.0421 384.288 77.3177 360.422 73.3262C336.602 69.3423 311.921 65.0862 282.143 73.1387L284.231 80.8613ZM437.28 80.8479C471.678 71.0802 511.421 44.6572 537.292 25.4893L532.53 19.0614C506.68 38.2137 467.96 63.8198 435.094 73.1521L437.28 80.8479Z" fill="#242424"/>
</svg>
