<svg class="icon" width="19" height="19" viewBox="0 0 19 19" fill="none" xmlns="http://www.w3.org/2000/svg">
<path fill="currentColor" d="M8.23669 2.49986C7.42544 2.49986 6.62214 2.65505 5.87265 2.95658C5.12316 3.25811 4.44216 3.70006 3.86852 4.25722C3.29489 4.81437 2.83986 5.4758 2.52941 6.20376C2.21896 6.93171 2.05917 7.71192 2.05917 8.49986C2.05917 9.28779 2.21896 10.068 2.52941 10.796C2.83986 11.5239 3.29489 12.1853 3.86852 12.7425C4.44216 13.2996 5.12316 13.7416 5.87265 14.0431C6.62214 14.3447 7.42544 14.4999 8.23669 14.4999C9.87507 14.4999 11.4463 13.8677 12.6048 12.7425C13.7634 11.6173 14.4142 10.0912 14.4142 8.49986C14.4142 6.90856 13.7634 5.38243 12.6048 4.25722C11.4463 3.132 9.87507 2.49986 8.23669 2.49986ZM5.08783e-08 8.49986C2.38533e-05 7.22667 0.312914 5.97188 0.912665 4.83978C1.51242 3.70767 2.38171 2.73094 3.44828 1.99078C4.51486 1.25061 5.74792 0.768384 7.04498 0.584177C8.34204 0.399969 9.66563 0.519101 10.9057 0.93167C12.1459 1.34424 13.2667 2.03833 14.1751 2.95625C15.0835 3.87418 15.7531 4.98942 16.1285 6.20929C16.5038 7.42917 16.574 8.71843 16.3331 9.96994C16.0923 11.2214 15.5474 12.399 14.7437 13.4049L18.2309 16.7929C18.4184 16.9815 18.5222 17.2341 18.5199 17.4963C18.5175 17.7585 18.4092 18.0093 18.2183 18.1947C18.0274 18.3801 17.7692 18.4853 17.4993 18.4875C17.2293 18.4898 16.9692 18.389 16.775 18.2069L13.2878 14.8199C12.0703 15.738 10.612 16.3058 9.07865 16.4588C7.54533 16.6119 5.99856 16.344 4.61424 15.6855C3.22992 15.0271 2.06359 14.0046 1.24788 12.7343C0.432178 11.4641 -0.000171241 9.99696 5.08783e-08 8.49986Z"/>
</svg>
