<svg class="svg svg--100p" width="512" height="512" viewBox="0 0 512 512" fill="none" xmlns="http://www.w3.org/2000/svg">
  <g>
    <path fill="#dd9366" d="M502 431H10V81h492z" opacity="1" data-original="#dd9366" class=""></path>
    <path fill="#ffffff"
      d="M256 431c0-22.091 17.909-40 40-40h166V61H296c-22.091 0-40 17.909-40 40zM256 431c0-22.091-17.909-40-40-40H50V61h166c22.091 0 40 17.909 40 40z"
      opacity="1" data-original="#ffffff"></path>
    <path fill="#a0e5a5" d="M314 391h40v60h-40z" opacity="1" data-original="#a0e5a5"></path>
    <circle cx="502" cy="314" r="10" fill="#000000" opacity="1" data-original="#000000" class=""></circle>
    <path
      d="M509.07 73.93A10.076 10.076 0 0 0 502 71h-30V61c0-5.523-4.477-10-10-10H296c-16.339 0-30.87 7.878-40 20.035C246.87 58.878 232.339 51 216 51H50c-5.523 0-10 4.477-10 10v10H10c-2.63 0-5.21 1.07-7.07 2.93S0 78.37 0 81v350c0 2.63 1.07 5.21 2.93 7.07S7.37 441 10 441h294v10c0 5.52 4.48 10 10 10h40c5.52 0 10-4.48 10-10v-10h138c2.63 0 5.21-1.07 7.07-2.93S512 433.63 512 431v-72c0-5.51-4.49-10-10-10s-10 4.49-10 10v62H364v-20h98c5.523 0 10-4.478 10-10V91h20v178c0 5.51 4.49 10 10 10s10-4.49 10-10V81c0-2.63-1.07-5.21-2.93-7.07zM60 71h156c16.542 0 30 13.458 30 30v290.023A49.75 49.75 0 0 0 216 381H60zM20 91h20v300c0 5.522 4.477 10 10 10h166c13.036 0 24.152 8.361 28.28 20H20zm247.72 330c4.128-11.639 15.243-20 28.28-20h8v20zM344 441h-20v-40h20zm108-60H296a49.75 49.75 0 0 0-30 10.023V101c0-16.542 13.458-30 30-30h156z"
      fill="#000000" opacity="1" data-original="#000000" class=""></path>
    <path
      d="M153 331h-45c-5.523 0-10 4.477-10 10s4.477 10 10 10h45c5.523 0 10-4.477 10-10s-4.477-10-10-10zM198 291h-90c-5.523 0-10 4.477-10 10s4.477 10 10 10h90c5.523 0 10-4.477 10-10s-4.477-10-10-10zM198 251h-90c-5.523 0-10 4.477-10 10s4.477 10 10 10h90c5.523 0 10-4.477 10-10s-4.477-10-10-10zM198 211h-90c-5.523 0-10 4.477-10 10s4.477 10 10 10h90c5.523 0 10-4.477 10-10s-4.477-10-10-10zM198 171h-90c-5.523 0-10 4.477-10 10s4.477 10 10 10h90c5.523 0 10-4.477 10-10s-4.477-10-10-10zM198 131h-90c-5.523 0-10 4.477-10 10s4.477 10 10 10h90c5.523 0 10-4.477 10-10s-4.477-10-10-10zM198 91h-90c-5.523 0-10 4.477-10 10s4.477 10 10 10h90c5.523 0 10-4.477 10-10s-4.477-10-10-10zM292.441 314.686c8.024 6.971 20.691 3.987 33.376-2.45a9.96 9.96 0 0 0-1.995 7.768c.804 4.901 5.045 8.381 9.855 8.381.538 0 7.814-1.149 7.814-1.149l-5.064 8.166c-2.897 4.672-1.777 10.968 2.828 13.971a9.996 9.996 0 0 0 13.966-3.103l14.471-23.334 40.687-6.679c5.434-.892 9.398-5.909 8.605-11.358-.808-5.551-6.007-9.336-11.516-8.432l-23.782 3.904 47.639-76.82c2.648-4.271 1.975-9.957-1.871-13.192a10.002 10.002 0 0 0-14.155 1.262l-41.696 50.349c-6.973 2.093-18.457 5.991-23.343 10.214-19.318 16.696-33.496 23.904-40.396 25.93 1.005-2.925 3.174-7.702 7.848-14.955 13.351-20.718 24.165-27.037 30.224-28.254 2.935-.59 5.487-2.362 6.928-4.986l.133-.242c4.035-7.33-2.24-16.017-10.476-14.54-11.07 1.985-26.477 10.586-43.62 37.188-4.904 7.607-19.82 30.754-6.46 42.361zm68.842-27.323c.983-.728 3.562-1.877 6.874-3.125l-12.672 20.435-22.751 3.735c11.327-6.761 21.981-15.371 28.549-21.045z"
      fill="#000000" opacity="1" data-original="#000000" class=""></path>
  </g>
</svg>
