<svg class="svg svg--100p" width="100" height="100" viewBox="0 0 100 100" fill="none" xmlns="http://www.w3.org/2000/svg">
<g clip-path="url(#clip0_594_353)">
<path d="M83.3333 8.33332V85C83.3333 86.7681 82.631 88.4638 81.3807 89.714C80.1305 90.9643 78.4348 91.6667 76.6667 91.6667H16.6667C14.8986 91.6667 13.2029 90.9643 11.9526 89.714C10.7024 88.4638 10 86.7681 10 85V23.3333H25C26.7681 23.3333 28.4638 22.6309 29.714 21.3807C30.9643 20.1305 31.6667 18.4348 31.6667 16.6667V1.66666H76.6667C78.4348 1.66666 80.1305 2.36904 81.3807 3.61928C82.631 4.86952 83.3333 6.56521 83.3333 8.33332Z" fill="#00BCD4"/>
<path d="M76.6666 1.66666H71.6666C73.4347 1.66666 75.1304 2.36904 76.3807 3.61928C77.6309 4.86952 78.3333 6.56521 78.3333 8.33332V85C78.3333 86.7681 77.6309 88.4638 76.3807 89.714C75.1304 90.9643 73.4347 91.6667 71.6666 91.6667H76.6666C78.4347 91.6667 80.1304 90.9643 81.3807 89.714C82.6309 88.4638 83.3333 86.7681 83.3333 85V8.33332C83.3333 6.56521 82.6309 4.86952 81.3807 3.61928C80.1304 2.36904 78.4347 1.66666 76.6666 1.66666Z" fill="#00838F"/>
<path d="M90 15V91.6666C90 93.4348 89.2976 95.1304 88.0473 96.3807C86.7971 97.6309 85.1014 98.3333 83.3333 98.3333H23.3333C21.5652 98.3333 19.8695 97.6309 18.6192 96.3807C17.369 95.1304 16.6666 93.4348 16.6666 91.6666H76.6666C78.4347 91.6666 80.1304 90.9643 81.3807 89.714C82.6309 88.4638 83.3333 86.7681 83.3333 85V8.33331C85.1014 8.33331 86.7971 9.03569 88.0473 10.2859C89.2976 11.5362 90 13.2319 90 15Z" fill="#3F51B5"/>
<path d="M73.3333 43.3334V53.3334C73.3333 55.1015 72.631 56.7972 71.3807 58.0474C70.1305 59.2976 68.4348 60 66.6667 60H58.3333V68.3334C58.3333 70.1015 57.631 71.7972 56.3807 73.0474C55.1305 74.2976 53.4348 75 51.6667 75H41.6667C39.8986 75 38.2029 74.2976 36.9526 73.0474C35.7024 71.7972 35 70.1015 35 68.3334V55C35 53.2319 35.7024 51.5362 36.9526 50.286C38.2029 49.0357 39.8986 48.3334 41.6667 48.3334H51.6667C53.4348 48.3334 55.1305 47.631 56.3807 46.3807C57.631 45.1305 58.3333 43.4348 58.3333 41.6667V36.6667H66.6667C68.4348 36.6667 70.1305 37.3691 71.3807 38.6193C72.631 39.8696 73.3333 41.5652 73.3333 43.3334Z" fill="#FFDC00"/>
<path d="M53.3333 68.3334C53.3333 70.1015 52.6309 71.7972 51.3807 73.0474C50.1304 74.2976 48.4347 75 46.6666 75H51.6666C53.4347 75 55.1304 74.2976 56.3807 73.0474C57.6309 71.7972 58.3333 70.1015 58.3333 68.3334V60H53.3333V68.3334ZM66.6666 36.6667H61.6666C63.4347 36.6667 65.1304 37.3691 66.3807 38.6193C67.6309 39.8696 68.3333 41.5652 68.3333 43.3334V53.3334C68.3333 55.1015 67.6309 56.7972 66.3807 58.0474C65.1304 59.2976 63.4347 60 61.6666 60H66.6666C68.4347 60 70.1304 59.2976 71.3807 58.0474C72.6309 56.7972 73.3333 55.1015 73.3333 53.3334V43.3334C73.3333 41.5652 72.6309 39.8696 71.3807 38.6193C70.1304 37.3691 68.4347 36.6667 66.6666 36.6667Z" fill="#FEC108"/>
<path d="M58.3333 28.3334V41.6667C58.3333 43.4348 57.631 45.1305 56.3807 46.3807C55.1305 47.631 53.4348 48.3334 51.6667 48.3334H41.6667C39.8986 48.3334 38.2029 49.0357 36.9526 50.286C35.7024 51.5362 35 53.2319 35 55V60H26.6667C24.8986 60 23.2029 59.2976 21.9526 58.0474C20.7024 56.7972 20 55.1015 20 53.3334V43.3334C20 41.5652 20.7024 39.8696 21.9526 38.6193C23.2029 37.3691 24.8986 36.6667 26.6667 36.6667H35V28.3334C35 26.5652 35.7024 24.8696 36.9526 23.6193C38.2029 22.3691 39.8986 21.6667 41.6667 21.6667H51.6667C53.4348 21.6667 55.1305 22.3691 56.3807 23.6193C57.631 24.8696 58.3333 26.5652 58.3333 28.3334Z" fill="#3F51B5"/>
<path d="M51.6667 21.6667H46.6667C48.4348 21.6667 50.1305 22.3691 51.3807 23.6193C52.631 24.8696 53.3333 26.5652 53.3333 28.3334V41.6667C53.3333 43.4348 52.631 45.1305 51.3807 46.3807C50.1305 47.631 48.4348 48.3334 46.6667 48.3334H51.6667C53.4348 48.3334 55.1305 47.631 56.3807 46.3807C57.631 45.1305 58.3333 43.4348 58.3333 41.6667V28.3334C58.3333 26.5652 57.631 24.8696 56.3807 23.6193C55.1305 22.3691 53.4348 21.6667 51.6667 21.6667ZM30 55V60H35V55C35 53.2319 35.7024 51.5362 36.9526 50.286C38.2029 49.0357 39.8986 48.3334 41.6667 48.3334H36.6667C34.8986 48.3334 33.2029 49.0357 31.9526 50.286C30.7024 51.5362 30 53.2319 30 55Z" fill="#283593"/>
<path d="M31.6667 1.66666V16.6667C31.6667 18.4348 30.9643 20.1305 29.714 21.3807C28.4638 22.6309 26.7681 23.3333 25 23.3333H10L31.6667 1.66666Z" fill="#00695C"/>
<path d="M66.6667 9.99999H56.6667C56.2246 9.99999 55.8007 9.82439 55.4882 9.51183C55.1756 9.19927 55 8.77535 55 8.33332C55 7.8913 55.1756 7.46737 55.4882 7.15481C55.8007 6.84225 56.2246 6.66666 56.6667 6.66666H66.6667C67.1087 6.66666 67.5326 6.84225 67.8452 7.15481C68.1577 7.46737 68.3333 7.8913 68.3333 8.33332C68.3333 8.77535 68.1577 9.19927 67.8452 9.51183C67.5326 9.82439 67.1087 9.99999 66.6667 9.99999ZM76.6667 9.99999H73.3333C72.8913 9.99999 72.4674 9.82439 72.1548 9.51183C71.8423 9.19927 71.6667 8.77535 71.6667 8.33332C71.6667 7.8913 71.8423 7.46737 72.1548 7.15481C72.4674 6.84225 72.8913 6.66666 73.3333 6.66666H76.6667C77.1087 6.66666 77.5326 6.84225 77.8452 7.15481C78.1577 7.46737 78.3333 7.8913 78.3333 8.33332C78.3333 8.77535 78.1577 9.19927 77.8452 9.51183C77.5326 9.82439 77.1087 9.99999 76.6667 9.99999Z" fill="#F5F5F5"/>
<path d="M23.3333 100H83.3333C85.5426 99.9974 87.6607 99.1185 89.2229 97.5563C90.7852 95.9941 91.664 93.876 91.6667 91.6667V15C91.6632 13.0549 90.9795 11.1723 89.7339 9.67836C88.4883 8.18441 86.7594 7.17322 84.8467 6.82C84.4934 4.90726 83.4822 3.17833 81.9883 1.93276C80.4943 0.687188 78.6117 0.00344819 76.6666 0L31.6666 0C31.2247 9.43957e-05 30.8008 0.175751 30.4883 0.488333L8.82165 22.155C8.50906 22.4675 8.33341 22.8913 8.33331 23.3333V85C8.33676 86.9451 9.0205 88.8277 10.2661 90.3216C11.5116 91.8156 13.2406 92.8268 15.1533 93.18C15.5065 95.0927 16.5177 96.8217 18.0117 98.0672C19.5056 99.3128 21.3882 99.9965 23.3333 100ZM88.3333 15V91.6667C88.3333 92.9927 87.8065 94.2645 86.8688 95.2022C85.9312 96.1399 84.6594 96.6667 83.3333 96.6667H23.3333C22.3029 96.6624 21.2989 96.3399 20.4588 95.7432C19.6187 95.1465 18.9835 94.3048 18.64 93.3333H76.6666C78.876 93.3307 80.9941 92.4519 82.5563 90.8896C84.1185 89.3274 84.9973 87.2093 85 85V10.3067C85.9715 10.6501 86.8132 11.2854 87.4098 12.1255C88.0065 12.9656 88.329 13.9696 88.3333 15ZM30 5.69V16.6667C30 17.9927 29.4732 19.2645 28.5355 20.2022C27.5978 21.1399 26.3261 21.6667 25 21.6667H14.0233L30 5.69ZM11.6666 85V25H25C27.2093 24.9974 29.3274 24.1185 30.8896 22.5563C32.4518 20.9941 33.3307 18.876 33.3333 16.6667V3.33333H76.6666C77.9927 3.33333 79.2645 3.86012 80.2022 4.7978C81.1399 5.73548 81.6666 7.00725 81.6666 8.33333V85C81.6666 86.3261 81.1399 87.5978 80.2022 88.5355C79.2645 89.4732 77.9927 90 76.6666 90H16.6666C15.3406 90 14.0688 89.4732 13.1311 88.5355C12.1934 87.5978 11.6666 86.3261 11.6666 85Z" fill="black"/>
<path d="M18.3333 85H20C20.442 85 20.8659 84.8244 21.1785 84.5118C21.491 84.1993 21.6666 83.7754 21.6666 83.3333C21.6666 82.8913 21.491 82.4674 21.1785 82.1548C20.8659 81.8423 20.442 81.6667 20 81.6667H18.3333C17.8913 81.6667 17.4673 81.8423 17.1548 82.1548C16.8422 82.4674 16.6666 82.8913 16.6666 83.3333C16.6666 83.7754 16.8422 84.1993 17.1548 84.5118C17.4673 84.8244 17.8913 85 18.3333 85ZM60 81.6667C59.5579 81.6667 59.134 81.8423 58.8214 82.1548C58.5089 82.4674 58.3333 82.8913 58.3333 83.3333C58.3333 83.7754 58.5089 84.1993 58.8214 84.5118C59.134 84.8244 59.5579 85 60 85H75C75.442 85 75.8659 84.8244 76.1785 84.5118C76.491 84.1993 76.6666 83.7754 76.6666 83.3333C76.6666 82.8913 76.491 82.4674 76.1785 82.1548C75.8659 81.8423 75.442 81.6667 75 81.6667H60ZM51.6666 81.6667H26.6666C26.2246 81.6667 25.8007 81.8423 25.4881 82.1548C25.1756 82.4674 25 82.8913 25 83.3333C25 83.7754 25.1756 84.1993 25.4881 84.5118C25.8007 84.8244 26.2246 85 26.6666 85H51.6666C52.1087 85 52.5326 84.8244 52.8451 84.5118C53.1577 84.1993 53.3333 83.7754 53.3333 83.3333C53.3333 82.8913 53.1577 82.4674 52.8451 82.1548C52.5326 81.8423 52.1087 81.6667 51.6666 81.6667ZM26.6666 61.6667H33.3333V68.3333C33.3359 70.5427 34.2148 72.6607 35.777 74.223C37.3392 75.7852 39.4573 76.664 41.6666 76.6667H51.6666C53.876 76.664 55.994 75.7852 57.5563 74.223C59.1185 72.6607 59.9973 70.5427 60 68.3333V61.6667H66.6666C68.876 61.664 70.994 60.7852 72.5563 59.223C74.1185 57.6607 74.9973 55.5427 75 53.3333V43.3333C74.9973 41.124 74.1185 39.0059 72.5563 37.4437C70.994 35.8815 68.876 35.0026 66.6666 35H60V28.3333C59.9973 26.124 59.1185 24.0059 57.5563 22.4437C55.994 20.8815 53.876 20.0026 51.6666 20H41.6666C39.4573 20.0026 37.3392 20.8815 35.777 22.4437C34.2148 24.0059 33.3359 26.124 33.3333 28.3333V35H26.6666C24.4573 35.0026 22.3392 35.8815 20.777 37.4437C19.2148 39.0059 18.3359 41.124 18.3333 43.3333V53.3333C18.3359 55.5427 19.2148 57.6607 20.777 59.223C22.3392 60.7852 24.4573 61.664 26.6666 61.6667ZM66.6666 38.3333C67.9927 38.3333 69.2645 38.8601 70.2022 39.7978C71.1398 40.7355 71.6666 42.0073 71.6666 43.3333V53.3333C71.6666 54.6594 71.1398 55.9312 70.2022 56.8689C69.2645 57.8065 67.9927 58.3333 66.6666 58.3333H46.6666C46.2246 58.3333 45.8007 58.5089 45.4881 58.8215C45.1756 59.134 45 59.558 45 60C45 60.442 45.1756 60.866 45.4881 61.1785C45.8007 61.4911 46.2246 61.6667 46.6666 61.6667H56.6666V68.3333C56.6666 69.6594 56.1398 70.9312 55.2022 71.8689C54.2645 72.8065 52.9927 73.3333 51.6666 73.3333H41.6666C40.3405 73.3333 39.0688 72.8065 38.1311 71.8689C37.1934 70.9312 36.6666 69.6594 36.6666 68.3333V55C36.6666 53.6739 37.1934 52.4021 38.1311 51.4645C39.0688 50.5268 40.3405 50 41.6666 50H51.6666C53.876 49.9974 55.994 49.1185 57.5563 47.5563C59.1185 45.9941 59.9973 43.876 60 41.6667V38.3333H66.6666ZM21.6666 43.3333C21.6666 42.0073 22.1934 40.7355 23.1311 39.7978C24.0688 38.8601 25.3405 38.3333 26.6666 38.3333H46.6666C47.1087 38.3333 47.5326 38.1577 47.8451 37.8452C48.1577 37.5326 48.3333 37.1087 48.3333 36.6667C48.3333 36.2246 48.1577 35.8007 47.8451 35.4882C47.5326 35.1756 47.1087 35 46.6666 35H36.6666V28.3333C36.6666 27.0073 37.1934 25.7355 38.1311 24.7978C39.0688 23.8601 40.3405 23.3333 41.6666 23.3333H51.6666C52.9927 23.3333 54.2645 23.8601 55.2022 24.7978C56.1398 25.7355 56.6666 27.0073 56.6666 28.3333V41.6667C56.6666 42.9927 56.1398 44.2645 55.2022 45.2022C54.2645 46.1399 52.9927 46.6667 51.6666 46.6667H41.6666C39.4573 46.6693 37.3392 47.5481 35.777 49.1104C34.2148 50.6726 33.3359 52.7907 33.3333 55V58.3333H26.6666C25.3405 58.3333 24.0688 57.8065 23.1311 56.8689C22.1934 55.9312 21.6666 54.6594 21.6666 53.3333V43.3333Z" fill="black"/>
<path d="M43.3333 31.6666C44.2538 31.6666 45 30.9205 45 30C45 29.0795 44.2538 28.3333 43.3333 28.3333C42.4128 28.3333 41.6666 29.0795 41.6666 30C41.6666 30.9205 42.4128 31.6666 43.3333 31.6666Z" fill="black"/>
<path d="M50 68.3333C50.9205 68.3333 51.6666 67.5871 51.6666 66.6667C51.6666 65.7462 50.9205 65 50 65C49.0795 65 48.3333 65.7462 48.3333 66.6667C48.3333 67.5871 49.0795 68.3333 50 68.3333Z" fill="black"/>
</g>
<defs>
<clipPath id="clip0_594_353">
<rect width="100" height="100" fill="white"/>
</clipPath>
</defs>
</svg>
