<svg class="svg svg--100p" width="100" height="100" viewBox="0 0 100 100" fill="none" xmlns="http://www.w3.org/2000/svg">
<g clip-path="url(#clip0_539_2381)">
<path d="M80.8898 57.3553C85.7639 57.3553 89.7152 53.404 89.7152 48.5298C89.7152 43.6556 85.7639 39.7043 80.8898 39.7043C76.0156 39.7043 72.0643 43.6556 72.0643 48.5298C72.0643 53.404 76.0156 57.3553 80.8898 57.3553Z" fill="#FFDDCF"/>
<path d="M19.111 57.3553C23.9852 57.3553 27.9365 53.404 27.9365 48.5298C27.9365 43.6556 23.9852 39.7043 19.111 39.7043C14.2369 39.7043 10.2856 43.6556 10.2856 48.5298C10.2856 53.404 14.2369 57.3553 19.111 57.3553Z" fill="#FFDDCF"/>
<path d="M73.5483 98.5403H60.43L58.8125 97.0614L56.4623 98.5403H26.6391C20.5303 98.5403 16.2481 92.451 18.3814 86.727C22.1615 76.5939 30.6224 68.8187 41.0467 65.9332C58.0271 61.2329 75.707 70.3444 81.8041 86.727C83.9374 92.451 79.6571 98.5403 73.5483 98.5403Z" fill="#858586"/>
<path d="M50.795 98.5403H43.5375L41.1737 97.0692L39.7026 98.5403H26.6391C20.5303 98.5403 16.2481 92.451 18.3814 86.727C22.1615 76.5939 30.6224 68.8187 41.0467 65.9332C41.2381 70.7859 42.5002 88.8955 50.795 98.5403Z" fill="#767678"/>
<path d="M66.8808 69.1625L57.5837 97.835L56.4624 98.5403H43.5375L41.1737 97.0692L40.8494 97.3935L32.9042 69.3969C43.5864 63.0849 56.6186 63.2861 66.8808 69.1625Z" fill="#C1CFF2"/>
<path d="M50.795 98.5403H43.5375L41.1737 97.0692L40.8494 97.3935L32.9042 69.3969C35.4263 67.9063 38.1593 66.7322 41.0467 65.9332C41.2382 70.7859 42.5002 88.8955 50.795 98.5403Z" fill="#ADC0ED"/>
<path d="M80.8898 48.5288C80.8898 65.1244 67.8849 78.4126 51.8793 79.366C50.166 79.4695 48.4195 79.4304 46.6495 79.239C31.1655 77.5687 19.11 64.4563 19.11 48.5288C19.11 41.031 21.7864 34.1486 26.2386 28.7919C31.9001 21.9818 40.4372 17.639 49.9999 17.639C67.0605 17.639 80.8898 31.4683 80.8898 48.5288Z" fill="#FFDDCF"/>
<path d="M51.8793 79.366C50.166 79.4695 48.4195 79.4305 46.6495 79.239C31.1655 77.5687 19.11 64.4563 19.11 48.5289C19.11 41.0311 21.7864 34.1486 26.2386 28.7919C24.4589 46.7765 27.8034 69.266 51.8793 79.366Z" fill="#FFCBBE"/>
<path d="M34.4589 54.1835C37.6261 54.1835 40.1936 52.1388 40.1936 49.6166C40.1936 47.0944 37.6261 45.0497 34.4589 45.0497C31.2917 45.0497 28.7242 47.0944 28.7242 49.6166C28.7242 52.1388 31.2917 54.1835 34.4589 54.1835Z" fill="#FFA1AC"/>
<path d="M65.5428 54.1835C68.7099 54.1835 71.2775 52.1388 71.2775 49.6166C71.2775 47.0944 68.7099 45.0497 65.5428 45.0497C62.3756 45.0497 59.808 47.0944 59.808 49.6166C59.808 52.1388 62.3756 54.1835 65.5428 54.1835Z" fill="#FFA1AC"/>
<path d="M27.0715 59.3464C26.7163 59.1567 26.4657 58.7664 26.4657 58.2752C26.4657 57.1213 26.1156 56.0593 25.5285 55.2165C24.7617 54.1157 24.4941 52.6925 24.8307 51.3463C25.1142 50.2117 25.0362 48.9522 24.5529 47.834C24.0258 46.615 23.9645 45.191 24.5133 43.9841C25.9218 40.8873 24.1077 37.1694 21.084 36.7942C17.5837 36.3597 15.1099 40.4227 16.6113 43.8952C16.8814 44.5167 17.0207 45.1871 17.0207 45.8647C17.0206 46.5423 16.8812 47.2127 16.6111 47.8342C15.8976 49.4846 16.0373 51.5251 17.1063 53.0598C17.8572 54.138 18.1733 55.5395 17.8244 56.8517C17.1751 59.2927 18.2835 61.8677 20.3469 62.8513C20.4944 62.9216 20.5819 63.0732 20.5819 63.2365C20.5797 65.7672 22.7101 67.803 25.2765 67.6436C27.5024 67.5053 29.3017 65.6728 29.4028 63.4448C29.4831 61.6729 28.5175 60.119 27.0715 59.3464Z" fill="#666667"/>
<path d="M72.9294 59.3464C73.2845 59.1567 73.5352 58.7664 73.5352 58.2752C73.5352 57.1213 73.8853 56.0593 74.4723 55.2165C75.2391 54.1157 75.5067 52.6925 75.1701 51.3463C74.8867 50.2117 74.9646 48.9522 75.4479 47.834C75.975 46.615 76.0364 45.191 75.4876 43.9841C74.0791 40.8873 75.8932 37.1694 78.9169 36.7942C82.4171 36.3597 84.8909 40.4227 83.3896 43.8952C83.1195 44.5167 82.9801 45.1871 82.9802 45.8647C82.9802 46.5423 83.1196 47.2127 83.3898 47.8342C84.1032 49.4846 83.9636 51.5251 82.8946 53.0598C82.1436 54.138 81.8275 55.5395 82.1764 56.8517C82.8258 59.2927 81.7173 61.8677 79.654 62.8513C79.5065 62.9216 79.4188 63.0732 79.419 63.2365C79.4211 65.7672 77.2907 67.803 74.7243 67.6436C72.4984 67.5053 70.6992 65.6728 70.598 63.4448C70.5175 61.6729 71.4832 60.119 72.9294 59.3464Z" fill="#767678"/>
<path d="M89.7144 32.3501C89.7144 38.162 84.8989 42.8486 79.0401 42.6376C73.0954 42.4247 68.4049 37.0934 69.2117 30.9944C69.3895 29.6523 68.7839 28.3434 67.6723 27.5717C67.4789 27.4389 67.2914 27.2982 67.1077 27.1517C66.2599 26.4738 65.0174 26.5539 64.3297 27.3939C63.823 28.0112 63.2137 28.5366 62.5285 28.947C60.9501 29.8945 59.1645 28.0601 60.1452 26.5051C60.825 25.4247 61.2157 24.2878 60.7723 23.4751C59.7396 23.3762 58.7279 23.1213 57.7716 22.719C55.7829 21.881 53.6105 21.6407 51.4752 21.9474C50.9751 22.0197 50.4867 22.0529 49.9847 22.0529C49.3849 22.0529 48.9786 22.6819 49.2443 23.2191C50.1996 25.1669 50.2972 27.3002 49.2657 29.4452C47.6404 32.8249 43.7078 34.3643 40.3536 33.2332C38.5348 32.6334 38.7653 29.9785 40.6583 29.6933C41.9574 29.496 43.1081 29.0408 43.4617 28.1558C44.4988 25.5654 42.2681 23.0629 39.66 23.4243C37.7631 23.688 36.548 23.3481 36.505 23.3774C36.169 23.308 35.7976 23.4717 35.6279 23.8052C34.8131 25.3923 33.6009 26.7412 32.1095 27.7202C31.0956 28.3863 30.574 29.578 30.7576 30.7775C31.7617 37.3005 26.4519 43.1143 19.7903 42.6162C14.7207 42.237 10.6436 38.121 10.3076 33.0495C10.0009 28.3863 12.7984 24.3366 16.8365 22.7581C13.9354 15.106 20.7495 7.20963 28.806 9.08506C31.2282 3.58321 37.8196 1.33348 43.0729 4.13861C47.0055 0.559672 53.0068 0.571393 56.9277 4.13861C62.1691 1.3411 68.7663 3.56622 71.1946 9.08506C79.2785 7.20377 86.0554 15.1314 83.1641 22.7581C86.999 24.2565 89.7144 27.9839 89.7144 32.3501Z" fill="#858586"/>
<path d="M36.1456 23.3891C35.9268 23.4458 35.7353 23.5942 35.6279 23.8052C34.8131 25.3923 33.6009 26.7412 32.1095 27.7202C31.0956 28.3864 30.574 29.578 30.7576 30.7775C31.7617 37.3005 26.4519 43.1143 19.7903 42.6162C14.7207 42.237 10.6436 38.121 10.3076 33.0495C10.0009 28.3864 12.7984 24.3366 16.8365 22.7581C13.9354 15.106 20.7495 7.20964 28.806 9.08507C30.3532 5.5706 33.5981 3.38455 37.1106 2.99384C35.6435 8.12587 34.5241 15.3619 36.1456 23.3891Z" fill="#767678"/>
<path d="M43.5379 98.5411H39.5702C33.3539 90.9417 25.8483 84.657 21.8826 82.6724C20.18 81.8208 19.6631 79.5178 20.8374 77.9797C23.0528 75.0826 26.6923 72.7891 28.9271 71.5564C30.0778 70.9207 31.5264 71.1551 32.4416 72.201C35.4071 75.5885 41.725 84.1803 43.5907 97.6619C43.6336 97.9784 43.6121 98.2754 43.5379 98.5411Z" fill="#FFF1CF"/>
<path d="M78.1181 82.6724C74.1523 84.6572 66.6467 90.9419 60.4305 98.5411H56.4628C56.3885 98.2754 56.367 97.9784 56.41 97.662C58.2757 84.1804 64.5935 75.5886 67.559 72.2011C68.4665 71.1659 69.9023 70.9146 71.0735 71.5564C73.3084 72.7891 76.9479 75.0826 79.1632 77.9797C80.335 79.5158 79.8236 81.8164 78.1181 82.6724Z" fill="#FFF8E6"/>
<path d="M87.638 40.7525C88.7592 39.6573 89.65 38.349 90.2583 36.9046C90.8665 35.4601 91.1798 33.9086 91.1798 32.3414C91.1798 27.9509 88.8027 24.01 84.9479 21.9595C85.9009 18.2059 84.9354 14.2503 82.327 11.3012C79.7153 8.34877 75.8812 6.91895 72.0124 7.43802C69.0722 2.21182 62.6532 0.0361287 57.1432 2.4021C52.9567 -0.800586 47.0432 -0.800977 42.8579 2.4021C37.35 0.0365194 30.9301 2.2126 27.9892 7.43802C25.3447 7.08071 22.7511 7.61052 20.4692 8.9786C20.3041 9.07749 20.1601 9.20792 20.0455 9.36245C19.9309 9.51698 19.8478 9.69258 19.8011 9.87923C19.7543 10.0659 19.7448 10.2599 19.773 10.4502C19.8013 10.6405 19.8668 10.8234 19.9657 10.9884C20.0646 11.1535 20.1951 11.2974 20.3496 11.412C20.5041 11.5266 20.6797 11.6097 20.8664 11.6564C21.053 11.7032 21.247 11.7127 21.4373 11.6845C21.6276 11.6562 21.8105 11.5908 21.9755 11.4919C23.751 10.4278 25.7815 10.0427 27.8484 10.3795C28.3579 10.4624 28.8807 10.383 29.3427 10.1526C29.8047 9.92223 30.1826 9.55248 30.423 9.09562C32.6073 4.94936 37.6508 3.23178 41.9047 5.18477C42.7553 5.57587 43.7366 5.45416 44.4637 4.86712C47.6715 2.27863 52.329 2.27883 55.5379 4.86692C56.2652 5.45397 57.2459 5.57587 58.0969 5.18496C62.3529 3.23139 67.3959 4.94936 69.5786 9.09484C69.8185 9.55229 70.1964 9.92257 70.6587 10.1531C71.1209 10.3837 71.644 10.4628 72.1538 10.3793C75.1336 9.89424 78.1169 10.9642 80.1326 13.2429C82.1637 15.5391 82.8715 18.6408 82.0258 21.5401C81.6941 22.6776 82.229 23.8832 83.2978 24.4065C86.3526 25.9024 88.2501 28.9429 88.2501 32.3414C88.25 33.7772 87.8999 35.1914 87.23 36.4615C86.5601 37.7315 85.5906 38.8191 84.4056 39.6299C84.0248 39.8916 83.6237 40.1226 83.2061 40.3207C81.9172 40.933 80.5335 41.2178 79.0927 41.1647C77.8951 41.1235 76.719 40.8341 75.639 40.3149C72.161 38.6506 70.1621 34.9785 70.6646 31.178C70.9131 29.3016 70.0871 27.4553 68.502 26.3548C68.3382 26.2419 68.1786 26.123 68.0234 25.9985C66.54 24.8129 64.3745 25.018 63.1982 26.4551C62.7978 26.9427 62.3165 27.3577 61.7753 27.6821C61.7137 27.719 61.586 27.7952 61.4275 27.6335C61.2656 27.4678 61.3494 27.3349 61.3859 27.2769C62.0214 26.2673 62.3694 25.3253 62.4203 24.4763C62.4948 23.2291 61.6073 22.1371 60.3562 21.9364C59.664 21.8254 58.9876 21.6318 58.3415 21.3599C56.1554 20.4388 53.709 20.1376 51.267 20.4887C50.8426 20.5496 50.4143 20.5798 49.9855 20.5789C49.5956 20.5777 49.2121 20.6767 48.8715 20.8663C48.5309 21.0559 48.2447 21.3298 48.0403 21.6618C47.6234 22.3332 47.5828 23.1551 47.9297 23.8556C48.7319 25.4916 48.7377 27.1556 47.9463 28.8011C46.6847 31.4244 43.5563 32.7583 40.8133 31.8328C40.7416 31.8092 40.5505 31.7463 40.5745 31.4632C40.5989 31.1751 40.8084 31.1436 40.8791 31.1331C42.9757 30.8146 44.3027 29.993 44.823 28.6917C45.4825 27.0444 45.2318 25.2374 44.1523 23.8576C43.0446 22.442 41.2462 21.7165 39.4592 21.9644C38.1619 22.1453 37.248 21.9974 36.904 21.9415C36.8381 21.931 36.7578 21.9181 36.6664 21.9103C35.7189 21.7755 34.7711 22.2623 34.3249 23.1285C33.6256 24.49 32.5855 25.6471 31.306 26.4869C29.824 27.4604 29.0406 29.2282 29.3104 30.9916C29.9094 34.883 27.9226 38.6328 24.365 40.3238C22.9934 40.9781 21.4493 41.2629 19.9001 41.1465C18.823 41.0668 17.7705 40.7857 16.7972 40.3176C16.3813 40.1196 15.9815 39.8894 15.6014 39.629C13.3451 38.0759 11.949 35.6396 11.7709 32.945C11.5339 29.3411 13.4719 25.9889 16.7079 24.4056C17.2239 24.155 17.6344 23.7296 17.8666 23.2051C18.0988 22.6806 18.1376 22.0907 17.9762 21.5403C17.3684 19.458 17.538 17.3225 18.4667 15.365C18.5492 15.1912 18.5966 15.0028 18.6063 14.8106C18.6159 14.6184 18.5877 14.4262 18.523 14.245C18.4584 14.0638 18.3587 13.897 18.2297 13.7543C18.1006 13.6116 17.9447 13.4957 17.7709 13.4132C17.597 13.3307 17.4086 13.2833 17.2165 13.2737C17.0243 13.264 16.8321 13.2923 16.6509 13.3569C16.4696 13.4215 16.3029 13.5212 16.1602 13.6503C16.0174 13.7793 15.9015 13.9352 15.8191 14.1091C14.657 16.5571 14.3864 19.3341 15.0539 21.9605C10.9662 24.1377 8.54045 28.4799 8.84697 33.1378C9.03959 36.053 10.2971 38.7381 12.3657 40.7511C10.143 42.6851 8.82216 45.5143 8.82216 48.5212C8.82216 53.1637 11.8461 57.1201 16.1813 58.3899C16.2268 60.6256 17.3473 62.7258 19.1511 63.8544C19.3023 65.252 19.9472 66.5498 20.9699 67.5144C22.0726 68.5512 23.4878 69.1097 24.9811 69.1097C25.0009 69.1097 25.021 69.108 25.0411 69.1078C25.5925 69.776 26.1703 70.4219 26.7731 71.0442C24.3796 72.4224 21.5936 74.3551 19.6987 76.7074C18.8604 77.7476 18.5511 79.095 18.85 80.4041C18.931 80.7571 19.0547 81.0989 19.2185 81.4219C18.3638 82.9598 17.6257 84.5596 17.0102 86.2078C15.829 89.3765 16.2617 92.7921 18.1971 95.5791C20.1189 98.3459 23.2753 99.9978 26.6407 99.9978H41.5947C41.6111 99.998 41.6273 100.001 41.6437 100.001C41.6605 100.001 41.6775 99.9982 41.6943 99.9978H58.3085C58.3253 99.998 58.3423 100.001 58.3591 100.001C58.3757 100.001 58.3919 99.998 58.4081 99.9978H73.5496C75.2088 99.9971 76.8431 99.595 78.3131 98.8257C79.7831 98.0564 81.0451 96.9428 81.9914 95.58C83.9268 92.7931 84.3595 89.3771 83.1782 86.2078C83.1111 86.0275 83.009 85.8622 82.878 85.7213C82.7469 85.5804 82.5894 85.4667 82.4144 85.3868C82.2394 85.3068 82.0504 85.2621 81.8581 85.2552C81.6658 85.2483 81.4741 85.2794 81.2938 85.3466C81.1135 85.4138 80.9482 85.5158 80.8073 85.6469C80.6665 85.7779 80.5528 85.9355 80.4729 86.1105C80.3929 86.2855 80.3482 86.4745 80.3413 86.6668C80.3344 86.859 80.3654 87.0508 80.4327 87.2311C81.2737 89.4878 80.9646 91.9216 79.5846 93.9084C78.1903 95.916 75.9908 97.0675 73.5496 97.0675H62.4457C68.243 90.5875 75.0879 85.1425 78.7489 83.4036C79.9741 82.8214 80.8505 81.7282 81.1529 80.4041C81.4518 79.095 81.1426 77.7476 80.3045 76.7074C78.4093 74.3551 75.6234 72.4224 73.2296 71.0442C73.8326 70.4219 74.4104 69.7759 74.9619 69.1076C74.9795 69.1078 74.9974 69.1093 75.015 69.1093C76.5163 69.1091 77.9309 68.5506 79.0329 67.5144C80.0555 66.5499 80.7004 65.2523 80.8519 63.8548C82.6703 62.7194 83.7809 60.6177 83.8244 58.3891C88.1582 57.1183 91.1806 53.1625 91.1806 48.5214C91.1798 45.5159 89.8598 42.6873 87.638 40.7525ZM32.2062 30.5468C32.1079 29.9047 32.3793 29.2873 32.9138 28.9361C34.4845 27.9045 35.7862 26.5127 36.7106 24.8766C37.2986 24.9606 38.401 25.0696 39.8617 24.8666C40.6167 24.7625 41.3776 25.0668 41.8436 25.6629C42.0993 25.9897 42.4726 26.6762 42.1012 27.6032C42.0671 27.6887 41.6847 28.0466 40.4401 28.2355C38.9052 28.4668 37.7854 29.6644 37.6539 31.2159C37.5227 32.7641 38.4233 34.1304 39.8855 34.6126C43.9952 35.9984 48.6951 34.0037 50.5862 30.0711C51.6243 27.912 51.745 25.6502 50.9472 23.4714C51.1935 23.4518 51.4391 23.4243 51.6837 23.3889C53.5994 23.1135 55.5072 23.3461 57.2035 24.0606C57.9102 24.3578 58.6444 24.585 59.3954 24.739C59.3142 24.9756 59.1678 25.2987 58.9061 25.7147C58.0959 26.9991 58.267 28.5936 59.3321 29.6826C60.3951 30.7689 61.9825 30.9746 63.283 30.1946C64.1124 29.6972 64.85 29.0608 65.4636 28.3133C65.6299 28.1103 65.9573 28.0984 66.1939 28.2879C66.4024 28.455 66.6169 28.6145 66.837 28.7661C67.5096 29.2334 67.8632 30.01 67.7594 30.7934C67.1288 35.562 69.4516 40.1758 73.5889 42.5451C73.6705 43.2484 73.8612 43.9347 74.1543 44.5793C74.5073 45.358 74.4881 46.3539 74.1027 47.2446C73.5045 48.63 73.3789 50.2099 73.7489 51.6927C73.9777 52.6095 73.7985 53.6109 73.2718 54.3691C72.5094 55.4607 72.0956 56.7616 72.0712 58.1387C70.1809 59.2299 69.034 61.3148 69.1355 63.5018C69.2227 65.4507 70.3042 67.1831 71.8774 68.1894C71.384 68.738 70.8704 69.2679 70.3376 69.7782C68.9361 69.5796 67.4828 70.0644 66.483 71.1479C65.7598 71.9313 64.7758 73.0792 63.6808 74.575C59.4912 76.7793 54.769 77.9455 50.0007 77.9455C45.2324 77.9455 40.5101 76.7793 36.3206 74.575C35.2257 73.0792 34.2416 71.9313 33.5184 71.1479C32.5186 70.0646 31.0657 69.5801 29.6642 69.7786C29.1338 69.2707 28.6224 68.7432 28.1311 68.1974C29.7138 67.1927 30.7781 65.4583 30.8659 63.5045C30.9674 61.3154 29.8209 59.2309 27.9302 58.1391C27.906 56.7618 27.4922 55.4611 26.7315 54.3718C26.2029 53.6111 26.0237 52.6097 26.2525 51.6929C26.6227 50.2101 26.4971 48.6302 25.8981 47.2438C25.5133 46.3543 25.4943 45.3586 25.8458 44.5832C26.1384 43.9417 26.3291 43.2585 26.4109 42.5582C30.6473 40.1492 32.9579 35.4317 32.2062 30.5468ZM54.9595 97.0669H45.0418C45.0873 96.7438 45.0867 96.4158 45.04 96.0928C44.0087 89.0168 41.6269 83.2942 39.1963 79.0227C42.6492 80.2421 46.3131 80.8757 50.0005 80.8757C53.6879 80.8757 57.3518 80.2421 60.8047 79.0227C58.3741 83.2942 55.9925 89.0168 54.961 96.0928C54.9145 96.4158 54.914 96.7438 54.9595 97.0669ZM11.7515 48.5206C11.7515 46.167 12.8846 43.9675 14.755 42.5906C14.835 43.2375 15.0074 43.8696 15.2668 44.4676C15.6534 45.3629 15.6534 46.3489 15.2676 47.2428C14.3238 49.4214 14.5676 51.9677 15.9037 53.8877C16.2158 54.3366 16.4127 54.8554 16.477 55.3984C13.6674 54.336 11.7515 51.6464 11.7515 48.5206ZM22.0469 63.2271C22.0469 62.5012 21.6282 61.8313 20.9784 61.5203C19.6174 60.8703 18.8588 59.1844 19.1743 57.5143C19.1932 57.4148 19.2156 57.316 19.2415 57.2181C19.6817 55.5566 19.3332 53.6861 18.3091 52.2141C17.5597 51.1373 17.4214 49.6432 17.9572 48.4062C18.5892 46.9424 18.6572 45.3467 18.1635 43.8524C18.6623 43.9569 19.1687 44.0302 19.6813 44.0683C19.9792 44.0903 20.2771 44.1017 20.5744 44.1017C21.3893 44.1017 22.1983 44.0147 22.9883 43.8506C22.4911 45.2846 22.5638 46.9164 23.2083 48.4058C23.5482 49.1931 23.6214 50.1323 23.4093 50.9827C22.9725 52.7333 23.3063 54.5779 24.3271 56.0466C24.7615 56.6688 25.0007 57.4575 25.0007 58.267C25.0007 59.271 25.5301 60.1764 26.3814 60.6301C27.395 61.1712 27.9914 62.2205 27.9382 63.3703C27.8761 64.7544 26.8362 65.919 25.4539 66.1424L25.4465 66.1436C25.3634 66.1573 25.2814 66.1665 25.1847 66.1719C24.3595 66.2229 23.5751 65.9418 22.9762 65.3788C22.3764 64.8148 22.0465 64.0509 22.0469 63.2271ZM21.9797 78.5453C24.07 75.9503 27.6561 73.8499 29.6074 72.8287C29.8934 72.68 30.2205 72.6294 30.5381 72.6848C30.8557 72.7402 31.1464 72.8985 31.3652 73.1353C33.9957 75.9851 40.3116 83.968 42.1401 96.5156C42.1831 96.8092 42.0112 96.952 41.8592 97.0202C41.8104 97.0421 41.7537 97.0595 41.6935 97.0669H41.5779C41.4808 97.0532 41.3796 97.0044 41.2852 96.8921V96.8923C34.7222 89.0862 26.7135 82.7523 22.5106 80.7559C22.3293 80.6693 22.1677 80.5465 22.0357 80.3949C22.0283 80.3867 22.0211 80.3783 22.0134 80.3703C21.8632 80.1912 21.7578 79.9789 21.7058 79.751C21.6483 79.499 21.6073 79.0071 21.9797 78.5453ZM20.6032 93.9068C19.2234 91.92 18.9143 89.4866 19.7549 87.2309C20.2333 85.9497 20.7927 84.7003 21.4297 83.4902C25.1302 85.3152 31.8495 90.6879 37.5561 97.0667H26.6397C24.1981 97.0669 21.998 95.9153 20.6032 93.9068ZM78.0218 78.5453C78.3937 79.0071 78.3527 79.4992 78.2951 79.7512C78.2462 79.9689 78.1483 80.1725 78.0089 80.3467C77.8695 80.5209 77.6923 80.661 77.4906 80.7563C73.2873 82.7527 65.2786 89.0866 58.7158 96.8924C58.6214 97.0048 58.52 97.0536 58.4229 97.0673H58.3079C58.2505 97.0599 58.1946 97.0441 58.1418 97.0206C57.99 96.9524 57.8181 96.8096 57.8609 96.516C59.6894 83.9684 66.0053 75.9855 68.6358 73.1356C68.7736 72.9865 68.9409 72.8674 69.127 72.7861C69.3131 72.7047 69.514 72.6628 69.7171 72.6629C69.9476 72.6629 70.1797 72.7172 70.3934 72.8289C72.3451 73.8497 75.9312 75.9502 78.0218 78.5453ZM79.0206 61.5211C78.3728 61.8315 77.9542 62.5014 77.9542 63.2283C77.9547 64.0509 77.6248 64.8148 77.0247 65.3788C76.4259 65.942 75.6419 66.2237 74.8157 66.1719C73.3381 66.0797 72.1288 64.8494 72.0626 63.3682C72.0094 62.2203 72.6059 61.171 73.6184 60.6304C74.4707 60.1764 75.0002 59.2708 75.0002 58.2668C75.0002 57.4571 75.2395 56.6684 75.6757 56.0438C76.6947 54.5777 77.0286 52.7331 76.5915 50.9825C76.3794 50.1321 76.4526 49.1931 76.792 48.4067C77.4369 46.9164 77.5097 45.2846 77.0123 43.8502C77.659 43.9856 78.3179 44.069 78.987 44.0927C79.945 44.1278 80.9042 44.0434 81.8386 43.8479C81.3434 45.3424 81.4108 46.9404 82.0443 48.4073C82.5794 49.6428 82.4411 51.1371 81.6917 52.2139C80.6677 53.6857 80.3191 55.5562 80.7597 57.2201C81.2205 58.9467 80.4575 60.8354 79.0206 61.5211ZM83.5246 55.3984C83.5884 54.8555 83.7852 54.3368 84.0974 53.8881C85.4334 51.9679 85.6772 49.4218 84.7342 47.2444C84.3476 46.3491 84.3476 45.3631 84.7338 44.4684C84.993 43.8701 85.1654 43.2379 85.2461 42.591C87.1162 43.969 88.2497 46.1685 88.2497 48.5208C88.2495 51.6462 86.334 54.3358 83.5246 55.3984Z" fill="black"/>
<path d="M37.8012 46.6767C38.6106 46.6767 39.2664 46.0209 39.2664 45.2115V42.8672C39.2664 42.0579 38.6106 41.4021 37.8012 41.4021C36.9919 41.4021 36.336 42.0579 36.336 42.8672V45.2115C36.336 45.6001 36.4904 45.9728 36.7652 46.2476C37.04 46.5223 37.4126 46.6767 37.8012 46.6767ZM62.2009 46.6767C63.0103 46.6767 63.6661 46.0209 63.6661 45.2115V42.8672C63.6661 42.0579 63.0103 41.4021 62.2009 41.4021C61.3916 41.4021 60.7358 42.0579 60.7358 42.8672V45.2115C60.7358 45.6001 60.8901 45.9728 61.1649 46.2476C61.4397 46.5223 61.8123 46.6767 62.2009 46.6767ZM50.0011 48.0721C50.0013 48.0721 50.0013 48.0721 50.0011 48.0721C50.8201 48.0719 51.6295 47.8962 52.3749 47.5568C53.1202 47.2174 53.7842 46.7222 54.322 46.1045C54.5773 45.8115 54.7057 45.4291 54.6791 45.0414C54.6525 44.6538 54.4729 44.2925 54.18 44.0372C53.887 43.7819 53.5046 43.6535 53.1169 43.6801C52.7292 43.7067 52.368 43.8863 52.1127 44.1793C51.5716 44.8001 50.8218 45.142 50.0011 45.142C49.6007 45.1418 49.205 45.0557 48.8407 44.8897C48.4763 44.7236 48.1519 44.4813 47.8891 44.1793C47.632 43.8926 47.2725 43.7186 46.8881 43.695C46.5038 43.6713 46.1257 43.7999 45.8354 44.0528C45.5451 44.3058 45.3661 44.6628 45.3369 45.0468C45.3078 45.4307 45.431 45.8106 45.6798 46.1045C46.2177 46.7222 46.8817 47.2174 47.6271 47.5568C48.3725 47.8962 49.182 48.0719 50.0011 48.0721ZM50.0005 83.8225C49.8059 83.8202 49.6128 83.8566 49.4324 83.9296C49.2519 84.0025 49.0878 84.1105 48.9494 84.2473C48.811 84.3841 48.7011 84.547 48.6261 84.7266C48.5511 84.9062 48.5125 85.0988 48.5125 85.2934C48.5125 85.488 48.5511 85.6807 48.6261 85.8603C48.7011 86.0399 48.811 86.2028 48.9494 86.3396C49.0878 86.4764 49.2519 86.5844 49.4324 86.6573C49.6128 86.7302 49.8059 86.7666 50.0005 86.7644C50.3877 86.7599 50.7575 86.603 51.0297 86.3276C51.3019 86.0522 51.4546 85.6806 51.4546 85.2934C51.4546 84.9062 51.3019 84.5346 51.0297 84.2593C50.7575 83.9839 50.3877 83.827 50.0005 83.8225ZM50.0005 89.7063C49.8059 89.704 49.6128 89.7404 49.4324 89.8133C49.2519 89.8862 49.0878 89.9942 48.9494 90.131C48.811 90.2678 48.7011 90.4308 48.6261 90.6103C48.5511 90.7899 48.5125 90.9826 48.5125 91.1772C48.5125 91.3718 48.5511 91.5645 48.6261 91.744C48.7011 91.9236 48.811 92.0865 48.9494 92.2234C49.0878 92.3602 49.2519 92.4682 49.4324 92.5411C49.6128 92.614 49.8059 92.6504 50.0005 92.6481C50.3877 92.6437 50.7575 92.4867 51.0297 92.2114C51.3019 91.936 51.4546 91.5644 51.4546 91.1772C51.4546 90.79 51.3019 90.4184 51.0297 90.143C50.7575 89.8677 50.3877 89.7107 50.0005 89.7063ZM18.6117 32.9198C18.4333 32.8477 18.2424 32.8114 18.0499 32.813C17.8575 32.8147 17.6673 32.8542 17.4901 32.9294C17.313 33.0046 17.1524 33.114 17.0175 33.2513C16.8827 33.3886 16.7762 33.5511 16.7042 33.7296C16.6321 33.908 16.5959 34.0989 16.5975 34.2913C16.5992 34.4837 16.6387 34.6739 16.7139 34.851C16.7891 35.0281 16.8984 35.1887 17.0357 35.3236C17.1729 35.4585 17.3354 35.565 17.5138 35.6371C18.2109 35.9196 18.956 36.0649 19.7082 36.0651C22.0343 36.0649 24.2419 34.6747 25.1657 32.3889C25.7539 30.9331 25.7397 29.3354 25.1264 27.8904C24.5128 26.4451 23.3731 25.3253 21.9175 24.7371C21.5582 24.5965 21.1579 24.6032 20.8035 24.756C20.4491 24.9087 20.1693 25.195 20.0247 25.5528C19.8802 25.9106 19.8826 26.311 20.0315 26.667C20.1803 27.023 20.4636 27.3059 20.8198 27.4543C21.1792 27.5984 21.5065 27.8124 21.7828 28.0838C22.059 28.3552 22.2786 28.6787 22.429 29.0356C22.5812 29.3916 22.6613 29.7743 22.6647 30.1615C22.6681 30.5487 22.5946 30.9327 22.4487 31.2913C21.8398 32.7977 20.1187 33.5292 18.6117 32.9198ZM35.9131 16.0605C35.5399 16.1638 35.1499 16.192 34.7656 16.1436C34.3814 16.0951 34.0106 15.971 33.6747 15.7784C33.3377 15.5876 33.042 15.3317 32.8046 15.0258C32.5671 14.7198 32.3928 14.3698 32.2916 13.996C32.1888 13.6213 31.9415 13.3027 31.604 13.1102C31.2665 12.9178 30.8663 12.8673 30.4915 12.9698C30.306 13.0206 30.1322 13.1074 29.9802 13.2254C29.8282 13.3433 29.7009 13.4901 29.6056 13.6572C29.5103 13.8244 29.4489 14.0087 29.4248 14.1996C29.4007 14.3905 29.4145 14.5842 29.4653 14.7698C29.8799 16.2842 30.8596 17.5466 32.2234 18.3239C33.1226 18.8365 34.1176 19.0981 35.1252 19.0981C35.6528 19.0978 36.178 19.0267 36.6867 18.8868C39.8126 18.0311 41.6595 14.7915 40.8037 11.6654C40.7529 11.4798 40.6661 11.306 40.5481 11.154C40.4302 11.002 40.2834 10.8747 40.1163 10.7794C39.9491 10.6841 39.7648 10.6226 39.5739 10.5986C39.383 10.5745 39.1892 10.5883 39.0036 10.6392C38.6289 10.7418 38.3102 10.9891 38.1178 11.3267C37.9253 11.6642 37.8748 12.0644 37.9774 12.4392C38.0806 12.8124 38.1088 13.2024 38.0604 13.5866C38.0119 13.9707 37.8878 14.3415 37.6951 14.6774C37.5043 15.0143 37.2486 15.3101 36.9427 15.5475C36.6368 15.7849 36.2868 15.9593 35.9131 16.0605ZM63.9353 11.6738C64.0974 11.5701 64.2375 11.4356 64.3476 11.2778C64.4578 11.12 64.5357 10.942 64.577 10.7541C64.6183 10.5662 64.6222 10.372 64.5885 10.1825C64.5547 9.9931 64.484 9.81217 64.3803 9.65008C64.2767 9.48795 64.1421 9.34784 63.9843 9.23774C63.8265 9.12764 63.6486 9.04971 63.4606 9.0084C63.2727 8.96709 63.0785 8.96321 62.889 8.99699C62.6996 9.03076 62.5187 9.10153 62.3566 9.20525C61.0339 10.0509 60.12 11.3614 59.7826 12.895C59.4454 14.4285 59.7258 16.0013 60.5717 17.3241C61.6922 19.0763 63.593 20.0335 65.5327 20.0335C66.6521 20.0341 67.748 19.7133 68.6903 19.1091C69.0176 18.8997 69.2484 18.5689 69.3318 18.1893C69.4152 17.8098 69.3445 17.4127 69.1351 17.0854C69.0315 16.9232 68.897 16.7831 68.7392 16.673C68.5814 16.5629 68.4034 16.4849 68.2155 16.4436C68.0275 16.4023 67.8333 16.3984 67.6438 16.4322C67.4544 16.466 67.2735 16.5368 67.1114 16.6405C66.7858 16.8501 66.4219 16.993 66.0407 17.0609C65.6594 17.1288 65.2685 17.1204 64.8906 17.0361C64.1215 16.8672 63.4645 16.4087 63.0402 15.7454C62.6159 15.0822 62.4754 14.2933 62.6446 13.5244C62.7267 13.1459 62.8831 12.7875 63.1046 12.4698C63.3262 12.1522 63.6085 11.8816 63.9353 11.6738ZM76.2287 27.8339C76.0508 27.7606 75.8603 27.7231 75.6679 27.7235C75.4754 27.7239 75.285 27.7621 75.1074 27.8361C74.9298 27.9101 74.7685 28.0184 74.6327 28.1548C74.497 28.2911 74.3894 28.4529 74.3162 28.6308C73.0821 31.6278 74.5164 35.0697 77.5134 36.304C78.2207 36.5961 78.9784 36.7465 79.7436 36.7467C82.0557 36.7467 84.253 35.3737 85.1865 33.1066C85.2598 32.9287 85.2973 32.7381 85.2969 32.5457C85.2965 32.3533 85.2582 32.1629 85.1842 31.9853C85.1102 31.8076 85.002 31.6464 84.8656 31.5106C84.7293 31.3749 84.5675 31.2673 84.3896 31.1941C84.2117 31.1208 84.0211 31.0832 83.8287 31.0836C83.6363 31.084 83.4458 31.1223 83.2682 31.1963C83.0906 31.2703 82.9294 31.3785 82.7936 31.5149C82.6578 31.6512 82.5503 31.813 82.4771 31.9909C81.858 33.4936 80.1324 34.2127 78.6291 33.5944C78.2706 33.4479 77.9447 33.2318 77.6703 32.9585C77.3959 32.6853 77.1785 32.3603 77.0305 32.0024C76.8805 31.6454 76.8028 31.2622 76.802 30.8749C76.8011 30.4877 76.8771 30.1041 77.0256 29.7465C77.0989 29.5686 77.1364 29.378 77.136 29.1856C77.1357 28.9932 77.0974 28.8027 77.0234 28.6251C76.9494 28.4475 76.8411 28.2862 76.7048 28.1505C76.5684 28.0147 76.4067 27.9071 76.2287 27.8339Z" fill="black"/>
</g>
<defs>
<clipPath id="clip0_539_2381">
<rect width="100" height="100" fill="white"/>
</clipPath>
</defs>
</svg>
