<svg class="svg svg--100p" width="135" height="135" viewBox="0 0 135 135" fill="none" xmlns="http://www.w3.org/2000/svg">
<g clip-path="url(#clip0_543_1734)">
<path d="M119.758 126.29V130.645C119.758 131.848 118.784 132.823 117.58 132.823H4.35467C3.15164 132.823 2.17725 131.848 2.17725 130.645V126.29C2.17725 125.087 3.15164 124.113 4.35467 124.113H117.58C118.784 124.113 119.758 125.087 119.758 126.29ZM32.6611 23.9516V32.6613H4.35467C3.15164 32.6613 2.17725 31.6869 2.17725 30.4839V26.129C2.17725 24.926 3.15164 23.9516 4.35467 23.9516H32.6611Z" fill="#AAB2BD"/>
<path d="M115.403 58.7903V124.113H67.5V115.403H41.3709V124.113H32.6613V115.403H15.2419V124.113H6.53223V32.6613H32.6613V52.2581C32.6613 55.8644 35.5872 58.7903 39.1935 58.7903H65.3225L70.9838 66.3378C71.256 66.7053 71.6098 66.9938 72.0072 67.1925C72.4046 67.3912 72.851 67.5 73.3055 67.5C74.9086 67.5 76.2096 66.199 76.2096 64.5959V58.7903H115.403Z" fill="#E6E9ED"/>
<path d="M41.3707 115.403H67.4998V124.113H41.3707V115.403ZM15.2417 115.403H32.6611V124.113H15.2417V115.403Z" fill="#FCD770"/>
<path d="M87.0968 71.8549C97.9185 71.8549 106.694 80.6299 106.694 91.4516C106.694 96.8625 104.5 101.762 100.953 105.308L87.0968 91.4516H67.5C67.5 80.6299 76.275 71.8549 87.0968 71.8549Z" fill="#B4DD7F"/>
<path d="M87.0968 91.4516L100.953 105.308C97.4069 108.855 92.5077 111.048 87.0968 111.048C76.275 111.048 67.5 102.273 67.5 91.4516H87.0968Z" fill="#FF826E"/>
<path d="M132.822 8.70969V52.2581C132.822 55.8644 129.897 58.7903 126.29 58.7903H76.2095V64.5959C76.2095 66.199 74.9085 67.5 73.3054 67.5C72.8508 67.5 72.4045 67.3911 72.0071 67.1924C71.6097 66.9938 71.2559 66.7052 70.9837 66.3378L65.3224 58.7903H39.1934C35.587 58.7903 32.6611 55.8644 32.6611 52.2581V8.70969C32.6611 5.10334 35.587 2.17743 39.1934 2.17743H126.29C129.897 2.17743 132.822 5.10334 132.822 8.70969Z" fill="#FFEAA7"/>
<path d="M126.29 0H39.1936C34.391 0 30.4839 3.90711 30.4839 8.70968V21.7742H4.35484C1.95369 21.7742 0 23.7279 0 26.129V30.4839C0 32.885 1.95369 34.8387 4.35484 34.8387V121.935C1.95369 121.935 0 123.889 0 126.29V130.645C0 133.046 1.95369 135 4.35484 135H117.581C119.982 135 121.935 133.046 121.935 130.645V126.29C121.935 123.889 119.982 121.935 117.581 121.935V60.9677H126.29C131.093 60.9677 135 57.0606 135 52.2581V8.70968C135 3.90711 131.093 0 126.29 0ZM4.35484 26.129H30.4839V30.4839H4.35484V26.129ZM117.583 130.645H4.35484V126.29H117.581L117.583 130.645ZM30.4839 121.935H17.4194V117.581H30.4839V121.935ZM65.3226 121.935H43.5484V117.581H65.3226V121.935ZM113.226 121.935H69.6774V113.226H39.1936V121.935H34.8387V113.226H13.0645V121.935H8.70968V34.8387H30.4839V52.2581C30.4839 57.0606 34.391 60.9677 39.1936 60.9677H64.2339L69.2419 67.6453C69.7165 68.2749 70.3304 68.786 71.0356 69.1386C71.7407 69.4911 72.518 69.6756 73.3064 69.6774C76.1079 69.6774 78.3871 67.3982 78.3871 64.5967V60.9677H113.226V121.935ZM130.645 52.2581C130.645 54.6592 128.691 56.6129 126.29 56.6129H74.0323V64.5967C74.032 64.7891 73.9555 64.9736 73.8194 65.1097C73.6833 65.2458 73.4988 65.3224 73.3064 65.3226C73.1938 65.3223 73.0828 65.296 72.982 65.2456C72.8813 65.1953 72.7936 65.1223 72.7258 65.0324L66.4113 56.6129H39.1936C36.7924 56.6129 34.8387 54.6592 34.8387 52.2581V8.70968C34.8387 6.30853 36.7924 4.35484 39.1936 4.35484H126.29C128.691 4.35484 130.645 6.30853 130.645 8.70968V52.2581Z" fill="black"/>
<path d="M60.9676 17.4193C60.9676 12.6168 57.0604 8.70966 52.2579 8.70966C47.4553 8.70966 43.5482 12.6168 43.5482 17.4193V26.129H39.1934V30.4838H43.5482V39.1935C43.5482 41.5947 41.5945 43.5484 39.1934 43.5484V47.9032C43.9959 47.9032 47.903 43.9961 47.903 39.1935V30.4838H52.2579V26.129H47.903V17.4193C47.903 15.0182 49.8567 13.0645 52.2579 13.0645C54.659 13.0645 56.6127 15.0182 56.6127 17.4193H60.9676ZM60.9676 36.6424C60.9676 33.2524 62.2876 30.0655 64.6844 27.6687L61.6053 24.5893C58.386 27.8086 56.6127 32.0891 56.6127 36.6424V37.3895C56.6127 41.9428 58.3859 46.2233 61.6055 49.4429L64.6847 46.3635C62.2876 43.9667 60.9676 40.7798 60.9676 37.3898V36.6424ZM74.67 27.6687C77.0671 30.0655 78.3869 33.2524 78.3869 36.6424V37.3895C78.3869 40.7795 77.0668 43.9664 74.67 46.3632L77.7492 49.4426C80.9685 46.2236 82.7417 41.9431 82.7417 37.3898V36.6427C82.7417 32.0894 80.9685 27.8089 77.7489 24.5893L74.67 27.6687Z" fill="black"/>
<path d="M72.2943 37.0161L75.8438 31.6918L72.2206 29.2762L69.6774 33.0908L67.1341 29.2762L63.5109 31.6918L67.0604 37.0161L63.5109 42.3407L67.1341 44.7563L69.6774 40.9415L72.2206 44.7563L75.8438 42.3407L72.2943 37.0161ZM113.226 8.70966H117.581V19.5968H113.226V8.70966ZM104.516 23.9516H126.29V28.3064H104.516V23.9516ZM121.935 39.1935C121.935 35.5915 119.005 32.6613 115.403 32.6613C111.801 32.6613 108.871 35.5915 108.871 39.1935H113.226C113.226 37.993 114.203 37.0161 115.403 37.0161C116.604 37.0161 117.581 37.993 117.581 39.1935C117.58 39.5314 117.501 39.8645 117.35 40.1667C117.198 40.469 116.979 40.7321 116.71 40.9355L108.871 46.8145V52.258H121.935V47.9032H114.677L119.322 44.4193C120.959 43.1924 121.935 41.2389 121.935 39.1935ZM87.0967 23.9516H100.161V28.3064H87.0967V23.9516ZM87.0967 32.6613H100.161V37.0161H87.0967V32.6613ZM65.3225 91.4516C65.3225 103.458 75.0904 113.226 87.0967 113.226C99.103 113.226 108.871 103.458 108.871 91.4516C108.871 79.4453 99.103 69.6774 87.0967 69.6774C75.0904 69.6774 65.3225 79.4453 65.3225 91.4516ZM69.8183 93.629H86.195L97.7696 105.204C94.8187 107.499 91.116 108.871 87.0967 108.871C78.2294 108.871 70.8937 102.209 69.8183 93.629ZM87.0967 74.0322C96.7018 74.0322 104.516 81.8465 104.516 91.4516C104.516 95.4708 103.144 99.1735 100.849 102.124L87.9984 89.2742H69.8181C70.8937 80.6938 78.2294 74.0322 87.0967 74.0322ZM23.4722 95.2779L21.0708 89.2742H13.0645V93.629H18.1226L24.4309 109.4L34.3612 69.6774H60.9677V65.3226H30.9612L23.4722 95.2779Z" fill="black"/>
<path d="M56.9441 72.8782L47.9035 87.3431L38.8628 72.8782L35.1699 75.1863L45.3357 91.4516L35.1699 107.717L38.8628 110.025L47.9035 95.5601L56.9441 110.025L60.637 107.717L50.4712 91.4516L60.637 75.1863L56.9441 72.8782Z" fill="black"/>
</g>
<defs>
<clipPath id="clip0_543_1734">
<rect width="135" height="135" fill="white"/>
</clipPath>
</defs>
</svg>
