<svg class="svg svg--100p" width="135" height="135" viewBox="0 0 135 135" fill="none" xmlns="http://www.w3.org/2000/svg">
<g clip-path="url(#clip0_543_1417)">
<path d="M76.8351 27.4076H57.9845C57.7429 27.4076 57.5113 27.3117 57.3405 27.1409C57.1697 26.9701 57.0737 26.7385 57.0737 26.4969V21.1178C57.0737 20.8762 57.1697 20.6446 57.3405 20.4738C57.5113 20.303 57.7429 20.207 57.9845 20.207H76.8351V27.4076Z" fill="#E1EFFB"/>
<path d="M70.2417 17.9877H85.4674V36.1618H70.2417V17.9877Z" fill="#3C6A7C"/>
<path d="M77.5298 17.9877H85.4689V36.1618H77.5298V17.9877Z" fill="#2C5871"/>
<path d="M52.7397 50.4291V126.451C52.7397 130.084 55.6842 133.028 59.3163 133.028H95.7425C99.3746 133.028 102.319 130.084 102.319 126.451V50.4291C102.319 39.9212 93.8006 31.4028 83.2927 31.4028H71.766C61.2582 31.4028 52.7397 39.921 52.7397 50.4291Z" fill="#FF4C4C"/>
<path d="M83.2925 31.4028H71.7661C71.5164 31.4028 71.2688 31.412 71.0215 31.4215C81.1839 31.8133 89.3032 40.1709 89.3032 50.4291V126.451C89.3032 130.084 86.3587 133.028 82.7267 133.028H95.7423C99.3744 133.028 102.319 130.084 102.319 126.451V50.4291C102.319 39.921 93.8004 31.4028 83.2925 31.4028Z" fill="#F33939"/>
<path d="M68.8101 21.5402H105.1C105.1 18.4808 102.62 16.0004 99.56 16.0004H68.8101V21.5402Z" fill="#E1EFFB"/>
<path d="M76.9813 97.6917H102.319V63.0901H76.9813C76.2982 63.0901 75.6431 63.3614 75.1601 63.8445C74.6771 64.3275 74.4058 64.9826 74.4058 65.6656V95.1162C74.4058 95.7993 74.6771 96.4544 75.1601 96.9374C75.6431 97.4204 76.2982 97.6917 76.9813 97.6917Z" fill="#CCDFED"/>
<path d="M52.7397 122.952V126.452C52.7397 130.084 55.6842 133.028 59.3163 133.028H95.7425C99.3746 133.028 102.319 130.084 102.319 126.452V122.952H52.7397Z" fill="#F33939"/>
<path d="M102.319 126.452V122.952H89.3033V126.452C89.3033 130.083 86.3594 133.027 82.7275 133.028H95.7426C97.2695 133.031 98.7492 132.499 99.9258 131.526C101.387 130.32 102.319 128.494 102.319 126.452Z" fill="#DD172F"/>
<path d="M43.593 122.952H32.7339C31.0161 122.952 29.6932 121.436 29.9261 119.734L33.8648 90.947H42.4623L46.4011 119.734C46.6336 121.436 45.3108 122.952 43.593 122.952Z" fill="#3C6A7C"/>
<path d="M96.5348 2.01288L70.4664 4.68203C66.713 5.06647 63.7399 7.71162 62.7543 11.1275C62.4557 12.0117 62.3171 12.9421 62.3448 13.875C62.4587 17.7019 65.3686 20.9503 69.1623 21.4669C73.6107 22.0725 77.6393 18.8705 78.0873 14.4408C78.2614 12.7462 77.88 11.0409 77.0007 9.58185L95.8055 7.65625C96.6735 7.5674 97.5334 7.86033 98.1786 8.44753C98.4947 8.7352 98.8679 8.953 99.2739 9.08671C99.6799 9.22041 100.11 9.26703 100.535 9.22352C103.242 8.94614 104.301 5.55822 102.232 3.7903C100.711 2.49171 98.6817 1.79298 96.5348 2.01288Z" fill="#CCDFED"/>
<path d="M70.2418 17.1614C72.1899 17.1614 73.7692 15.5821 73.7692 13.634C73.7692 11.6858 72.1899 10.1066 70.2418 10.1066C68.2936 10.1066 66.7144 11.6858 66.7144 13.634C66.7144 15.5821 68.2936 17.1614 70.2418 17.1614Z" fill="#E1EFFB"/>
<path d="M39.6778 83.3836H36.649C35.1118 83.3836 33.8657 84.6297 33.8657 86.1669V92.5894H42.4609V86.1669C42.4612 84.6295 41.215 83.3836 39.6778 83.3836Z" fill="#2C5871"/>
<path d="M89.3027 63.0914H102.318V97.6931H89.3027V63.0914Z" fill="#BDD6E5"/>
<path d="M42.4622 90.947H38.1636V122.953H43.5931C45.3109 122.953 46.6338 121.436 46.4009 119.734L42.4622 90.947Z" fill="#2C5871"/>
<path d="M59.3161 135C54.6024 135 50.7676 131.165 50.7676 126.451V67.6991C50.7676 66.6117 51.6522 65.7271 52.7396 65.7271C53.827 65.7271 54.7116 66.6117 54.7116 67.6991V126.451C54.7116 128.99 56.7772 131.056 59.3161 131.056H95.7421C98.281 131.056 100.347 128.99 100.347 126.451V122.618C100.347 121.531 101.231 120.646 102.319 120.646C103.406 120.646 104.291 121.531 104.291 122.618V126.451C104.291 131.165 100.455 135 95.7421 135H59.3161Z" fill="black"/>
<path d="M32.7338 124.924C31.3453 124.924 30.0254 124.324 29.1125 123.278C28.1997 122.232 27.7839 120.843 27.9722 119.467L31.8943 90.8012L31.8937 86.1667C31.8937 83.7311 33.7832 81.6623 36.2043 81.4361V31.9299C36.2043 26.3638 40.7326 21.8355 46.2987 21.8355H55.1016V21.1177C55.1016 19.5281 56.3949 18.2348 57.9846 18.2348H61.5284C60.817 16.9022 60.4183 15.4169 60.3745 13.9332C60.3404 12.7815 60.5089 11.6327 60.8723 10.5392C62.1279 6.24586 65.8157 3.17619 70.2662 2.7203L96.3346 0.0508887C96.6657 0.0171257 96.9983 0.000141087 97.331 0C99.6197 0 101.757 0.792334 103.512 2.29078C105.08 3.62944 105.672 5.68397 105.058 7.65229C104.443 9.62165 102.787 10.9751 100.736 11.1852C100.035 11.2577 99.3263 11.1812 98.6569 10.9608C97.9874 10.7403 97.3722 10.3808 96.8514 9.90589C96.6496 9.71931 96.3854 9.61475 96.1105 9.61269C96.0757 9.61269 96.0409 9.61453 96.0063 9.61796L79.8153 11.2759C80.0369 12.1758 80.1297 13.1025 80.0909 14.0284H99.5601C103.702 14.0284 107.072 17.3981 107.072 21.5404C107.072 22.6278 106.188 23.5124 105.1 23.5124H87.4399V29.8448C97.2066 31.8094 104.291 40.4591 104.291 50.4291V107.906C104.291 108.993 103.407 109.878 102.319 109.878C101.232 109.878 100.347 108.993 100.347 107.906V99.664H76.9814C74.4739 99.664 72.4338 97.624 72.4338 95.1165V65.6656C72.4338 63.1581 74.4739 61.1181 76.9814 61.1181H100.347V50.4288C100.347 41.754 93.8506 34.4711 85.2367 33.4882C84.5912 33.414 83.9421 33.3759 83.2924 33.3743H71.7659C71.5305 33.3743 71.2969 33.3824 71.0635 33.3919C70.8529 33.402 70.6327 33.4154 70.398 33.4341C61.5988 34.1402 54.7116 41.6048 54.7116 50.4291V52.9867C54.7116 54.0741 53.827 54.9587 52.7396 54.9587C51.6523 54.9587 50.7676 54.0741 50.7676 52.9867V50.4291C50.7701 45.4278 52.5592 40.5919 55.8125 36.7933C59.02 33.0481 63.4426 30.5395 68.2697 29.7272V29.3799H57.9843C56.3947 29.3799 55.1014 28.0866 55.1014 26.4969V25.7797H46.2984C42.9071 25.7797 40.148 28.5388 40.148 31.9301V81.4377C42.5545 81.6758 44.4329 83.7438 44.4329 86.1667V90.8083L48.3545 119.467C48.4475 120.147 48.3939 120.839 48.1972 121.496C48.0005 122.153 47.6653 122.761 47.2142 123.278C46.763 123.795 46.2064 124.21 45.5817 124.493C44.957 124.777 44.2788 124.924 43.5926 124.924H32.7338ZM31.8795 120.002C31.8334 120.339 31.9879 120.575 32.0841 120.685C32.1804 120.795 32.3926 120.98 32.7338 120.98H43.5929C43.9338 120.98 44.1463 120.795 44.2426 120.685C44.3388 120.575 44.4933 120.339 44.4472 120.002L40.7418 92.919H35.5849L31.8795 120.002ZM76.9814 65.0621C76.8214 65.0622 76.6679 65.1259 76.5548 65.239C76.4416 65.3522 76.378 65.5056 76.3778 65.6656V95.1162C76.378 95.2762 76.4416 95.4297 76.5548 95.5428C76.6679 95.656 76.8214 95.7196 76.9814 95.7197H100.347V65.0621H76.9814ZM40.4889 88.975V86.1667C40.4886 85.9516 40.4031 85.7454 40.251 85.5934C40.0989 85.4413 39.8927 85.3558 39.6776 85.3556H36.6488C36.4337 85.3558 36.2275 85.4413 36.0754 85.5934C35.9233 85.7454 35.8378 85.9516 35.8375 86.1667V88.975H40.4889ZM83.2924 29.4305C83.3596 29.4305 83.4276 29.4308 83.4954 29.4318V23.5124H72.2134V29.4308L83.2924 29.4305ZM68.2697 25.4356V23.4349C68.0704 23.3791 67.8813 23.292 67.7094 23.1768L67.6753 23.1707C67.637 23.1609 67.5987 23.1505 67.5606 23.1396C67.4652 23.1121 67.3701 23.0831 67.2756 23.0526L67.1691 23.0193C66.5184 22.8048 65.8918 22.5231 65.2994 22.1788H59.0456V25.4356H68.2697ZM102.532 19.5684C101.866 18.5672 100.762 17.9727 99.5599 17.9727H79.1071C78.9072 18.3826 78.6786 18.778 78.4231 19.1558C78.3299 19.2956 78.2333 19.4332 78.1334 19.5684H102.532ZM67.4628 18.8697C67.7607 19.0302 68.072 19.1648 68.3931 19.2718C68.5494 19.3235 68.7074 19.3678 68.8735 19.4073L68.9315 19.4205C69.125 19.4635 69.2814 19.4919 69.4274 19.512C69.6577 19.5418 69.8895 19.5582 70.1217 19.5613C70.2016 19.5631 70.2691 19.5645 70.3363 19.5645C70.3811 19.5645 70.4257 19.5637 70.47 19.5621L70.5193 19.5602C70.6817 19.5528 70.8437 19.5388 71.005 19.5183L71.0488 19.5639L71.0416 19.513C71.2053 19.4911 71.3681 19.4624 71.5294 19.4271C71.6822 19.3926 71.8335 19.3521 71.9829 19.3055L72.0512 19.2852C72.2324 19.226 72.4106 19.1584 72.5854 19.0825C72.77 19.0027 72.9502 18.9132 73.1252 18.8143L73.1882 18.7779C73.436 18.6347 73.6733 18.474 73.8983 18.297C74.2982 17.9818 74.6564 17.6171 74.9645 17.2117C75.0389 17.1126 75.1106 17.0113 75.1792 16.9072L75.2398 16.8138C75.3276 16.6746 75.4036 16.5436 75.4721 16.413L75.4842 16.3898C75.6466 16.0769 75.7811 15.7503 75.8861 15.4137C76.0076 15.0235 76.0859 14.6343 76.1258 14.2412C76.2555 12.9579 75.9739 11.6981 75.3118 10.598C74.9617 10.0164 74.9337 9.30656 75.2372 8.69933C75.5407 8.09209 76.125 7.68841 76.8002 7.61906L95.605 5.69347C95.7721 5.67652 95.9399 5.66798 96.1079 5.66789C97.3658 5.66847 98.5781 6.13959 99.5063 6.98862C99.6174 7.08971 99.7486 7.16621 99.8912 7.2131C100.034 7.25999 100.185 7.27622 100.334 7.26073C101 7.19271 101.226 6.68988 101.293 6.47657C101.359 6.26379 101.459 5.72221 100.951 5.28873C99.9206 4.40859 98.6655 3.94348 97.3215 3.94348C97.1277 3.94348 96.9305 3.9535 96.7362 3.97354L70.6678 6.64295C67.809 6.93563 65.4468 8.91 64.6494 11.673C64.6415 11.7001 64.6331 11.727 64.6241 11.7537C64.4 12.4171 64.2958 13.1151 64.3162 13.8151C64.3731 15.7312 65.3774 17.5178 67.0032 18.5939C67.143 18.6856 67.2806 18.7682 67.4249 18.8478L67.4386 18.9137L67.4628 18.8697Z" fill="black"/>
</g>
<defs>
<clipPath id="clip0_543_1417">
<rect width="135" height="135" fill="white"/>
</clipPath>
</defs>
</svg>
