<svg class="theme-button--dark" width="24" height="24" viewBox="0 0 24 24" fill="none" xmlns="http://www.w3.org/2000/svg">
<mask id="mask0_817_461" style="mask-type:alpha" maskUnits="userSpaceOnUse" x="0" y="0" width="24" height="24">
<rect width="24" height="24" fill="#D9D9D9"/>
</mask>
<g mask="url(#mask0_817_461)">
<path fill="white" d="M13.1 23H10.5L11 22.6875C11.3333 22.4792 11.6958 22.2458 12.0875 21.9875C12.4792 21.7292 12.8417 21.4958 13.175 21.2875L13.675 20.975C15.025 20.875 16.2708 20.4667 17.4125 19.75C18.5542 19.0333 19.4583 18.075 20.125 16.875C18.6917 16.7417 17.3333 16.3792 16.05 15.7875C14.7667 15.1958 13.6167 14.3917 12.6 13.375C11.5833 12.3583 10.775 11.2083 10.175 9.925C9.575 8.64167 9.21667 7.28333 9.1 5.85C7.81667 6.56667 6.8125 7.55417 6.0875 8.8125C5.3625 10.0708 5 11.4333 5 12.9V13.2L4.7 13.3375C4.5 13.4292 4.27917 13.525 4.0375 13.625C3.79583 13.725 3.575 13.8208 3.375 13.9125L3.075 14.05C3.04167 13.8667 3.02083 13.675 3.0125 13.475C3.00417 13.275 3 13.0833 3 12.9C3 10.8 3.63333 8.84167 4.9 7.025C6.16667 5.20833 7.825 4 9.875 3.4C10.0583 3.35 10.225 3.34167 10.375 3.375C10.525 3.40833 10.6667 3.475 10.8 3.575C10.9333 3.675 11.0292 3.79583 11.0875 3.9375C11.1458 4.07917 11.1667 4.24167 11.15 4.425C11.05 5.84167 11.2542 7.20417 11.7625 8.5125C12.2708 9.82083 13.025 10.975 14.025 11.975C15.0417 12.9917 16.1875 13.7417 17.4625 14.225C18.7375 14.7083 20.0833 14.9083 21.5 14.825C21.6833 14.8083 21.8542 14.8375 22.0125 14.9125C22.1708 14.9875 22.2917 15.0917 22.375 15.225C22.4583 15.3583 22.5167 15.5 22.55 15.65C22.5833 15.8 22.5667 15.9667 22.5 16.15C21.7833 18.2333 20.6 19.8958 18.95 21.1375C17.3 22.3792 15.35 23 13.1 23ZM6 21H10.5C10.9167 21 11.2708 20.8542 11.5625 20.5625C11.8542 20.2708 12 19.9167 12 19.5C12 19.0833 11.8583 18.7292 11.575 18.4375C11.2917 18.1458 10.95 18 10.55 18H9.25L8.75 16.8C8.51667 16.25 8.15 15.8125 7.65 15.4875C7.15 15.1625 6.6 15 6 15C5.16667 15 4.45833 15.2875 3.875 15.8625C3.29167 16.4375 3 17.15 3 18C3 18.8333 3.29167 19.5417 3.875 20.125C4.45833 20.7083 5.16667 21 6 21ZM6 23C4.61667 23 3.4375 22.5125 2.4625 21.5375C1.4875 20.5625 1 19.3833 1 18C1 16.6167 1.4875 15.4375 2.4625 14.4625C3.4375 13.4875 4.61667 13 6 13C7 13 7.9125 13.2708 8.7375 13.8125C9.5625 14.3542 10.175 15.0833 10.575 16C11.525 16.0333 12.3333 16.3875 13 17.0625C13.6667 17.7375 14 18.55 14 19.5C14 20.4667 13.6583 21.2917 12.975 21.975C12.2917 22.6583 11.4667 23 10.5 23H6Z" />
</g>
</svg>
