<svg width="101" height="83" viewBox="0 0 101 83" fill="none" xmlns="http://www.w3.org/2000/svg">
<rect width="100.244" height="82.6669" fill="white"/>
<path d="M1.46592 41.9442C1.48168 41.8969 1.49744 41.8339 1.5132 41.7551C1.52897 41.6763 1.56837 41.5029 1.63142 41.2349C1.69447 40.9669 1.77329 40.7226 1.86786 40.5019C1.96244 40.2813 2.08066 40.0212 2.22252 39.7217C2.36438 39.4222 2.52201 39.1858 2.69539 39.0124C2.86878 38.839 3.0737 38.6656 3.31013 38.4922C3.54657 38.3188 3.80665 38.2479 4.09038 38.2794C5.27257 38.2794 6.02917 38.7838 6.36019 39.7926L6.59662 39.5798C7.5739 38.7129 8.50389 38.2794 9.38659 38.2794C10.4112 38.2794 11.2151 38.6499 11.7983 39.3907C12.3815 40.1315 12.6731 41.03 12.6731 42.0861C12.6731 43.7884 12.0741 45.3568 10.8762 46.7912C9.6782 48.2256 8.32262 48.9507 6.80942 48.9664C6.46264 48.9664 6.15527 48.9191 5.88731 48.8246C5.71392 48.7458 5.53265 48.6275 5.3435 48.4699C5.15435 48.3123 5.00461 48.1783 4.89427 48.068L4.72876 47.8788C4.713 47.8946 4.53961 48.5803 4.2086 49.9358C3.87759 51.2914 3.71208 51.9771 3.71208 51.9928C3.71208 52.0874 3.77513 52.1426 3.90123 52.1584C4.02733 52.1741 4.31894 52.1978 4.77605 52.2293H5.36715C5.46172 52.3396 5.50901 52.4105 5.50901 52.4421C5.50901 52.4736 5.48537 52.6155 5.43808 52.8677C5.39079 53.0568 5.3435 53.175 5.29621 53.2223C5.24893 53.2696 5.14647 53.3011 4.98885 53.3169C4.95732 53.3169 4.87063 53.3169 4.72876 53.3169C4.5869 53.3169 4.31894 53.309 3.92487 53.2933C3.53081 53.2775 3.04217 53.2696 2.45896 53.2696C1.35558 53.2696 0.654146 53.2854 0.354657 53.3169H0.165507C0.0551689 53.2066 0 53.1199 0 53.0568C0.0315251 52.6312 0.133982 52.3554 0.30737 52.2293H0.780246C1.31617 52.2135 1.62354 52.1189 1.70235 51.9456C1.74964 51.851 2.2304 49.9674 3.14463 46.2947C4.05886 42.622 4.53961 40.6753 4.5869 40.4547C4.60266 40.3758 4.61054 40.2655 4.61054 40.1236C4.61054 39.4774 4.41351 39.1543 4.01945 39.1543C3.67267 39.1543 3.38107 39.3749 3.14463 39.8163C2.90819 40.2576 2.72692 40.7384 2.60082 41.2586C2.47472 41.7787 2.38014 42.0624 2.31709 42.1097C2.28557 42.1413 2.15947 42.157 1.93879 42.157H1.60778C1.5132 42.0624 1.46592 41.9915 1.46592 41.9442ZM5.13071 46.3183C5.47748 47.5163 6.0607 48.1153 6.88035 48.1153C7.35323 48.1153 7.81034 47.934 8.25169 47.5714C8.69304 47.2089 9.05558 46.7518 9.33931 46.2001C9.62303 45.6642 9.90676 44.813 10.1905 43.6466C10.4742 42.4801 10.624 41.6132 10.6397 41.0458V40.9039C10.6397 39.7375 10.159 39.1543 9.19744 39.1543C9.02406 39.1543 8.85067 39.1779 8.67728 39.2252C8.50389 39.2725 8.3305 39.3434 8.15712 39.438C7.98373 39.5326 7.8261 39.635 7.68424 39.7453C7.54238 39.8557 7.4084 39.9739 7.2823 40.1C7.1562 40.2261 7.03798 40.3443 6.92764 40.4547C6.8173 40.565 6.73061 40.6753 6.66756 40.7857C6.60451 40.896 6.54146 40.9748 6.47841 41.0221L6.40747 41.1167C6.40747 41.1325 6.38383 41.2428 6.33654 41.4477C6.28925 41.6526 6.20256 41.9994 6.07646 42.488C5.95036 42.9767 5.84002 43.3865 5.74545 43.7175C5.33562 45.3883 5.13071 46.2553 5.13071 46.3183Z" fill="black"/>
<path d="M20.7073 40.5256C20.7073 40.3207 20.8176 40.1631 21.0383 40.0527H36.0994C36.3358 40.1788 36.454 40.3364 36.454 40.5256C36.454 40.699 36.3437 40.8487 36.123 40.9748L28.6043 40.9985H21.0856C20.8334 40.9197 20.7073 40.762 20.7073 40.5256ZM20.7073 45.1125C20.7073 44.8761 20.8334 44.7184 21.0856 44.6396H36.123C36.3437 44.7972 36.454 44.9549 36.454 45.1125C36.454 45.3174 36.3358 45.475 36.0994 45.5854H21.0383C20.8176 45.475 20.7073 45.3174 20.7073 45.1125Z" fill="black"/>
<path d="M52.1252 22.6036C51.6996 22.6036 51.3607 22.4617 51.1085 22.178C50.8563 21.8943 50.7302 21.5475 50.7302 21.1377C50.7302 20.0185 51.1479 19.0491 51.9833 18.2295C52.8187 17.4098 53.859 17 55.1043 17C56.5387 17 57.7366 17.4414 58.6981 18.3241C59.6597 19.2068 60.1483 20.3495 60.1641 21.7524C60.1641 22.4302 60.0064 23.0765 59.6912 23.6912C59.3759 24.3059 58.9976 24.8419 58.5563 25.299C58.1149 25.7561 57.4844 26.3393 56.6648 27.0486C56.0973 27.5373 55.3092 28.2623 54.3004 29.2239L52.9054 30.5479L54.7023 30.5715C57.1771 30.5715 58.4932 30.5321 58.6508 30.4533C58.7612 30.4218 58.9503 29.7204 59.2183 28.349V28.2781H60.1641V28.349C60.1483 28.3963 60.0458 29.1135 59.8567 30.5006C59.6675 31.8877 59.5493 32.6128 59.502 32.6758V32.7468H50.7302V32.0138C50.7302 31.9035 50.7775 31.7853 50.872 31.6592C50.9666 31.5331 51.203 31.2572 51.5813 30.8316C52.0385 30.3272 52.4325 29.8859 52.7635 29.5076C52.9054 29.35 53.1734 29.0583 53.5674 28.6328C53.9615 28.2072 54.2295 27.9156 54.3713 27.7579C54.5132 27.6003 54.7417 27.3402 55.057 26.9777C55.3722 26.6152 55.5929 26.3472 55.719 26.1738C55.8451 26.0004 56.0264 25.764 56.2628 25.4645C56.4993 25.165 56.6648 24.9128 56.7593 24.7079C56.8539 24.503 56.9721 24.2744 57.114 24.0222C57.2559 23.77 57.3583 23.5178 57.4214 23.2656C57.4844 23.0134 57.5396 22.777 57.5869 22.5563C57.6342 22.3356 57.6578 22.0755 57.6578 21.7761C57.6578 20.783 57.3898 19.924 56.8539 19.1989C56.318 18.4738 55.5535 18.1113 54.5605 18.1113C54.0403 18.1113 53.5832 18.2452 53.1891 18.5132C52.7951 18.7812 52.5192 19.0412 52.3616 19.2934C52.204 19.5457 52.1252 19.6954 52.1252 19.7427C52.1252 19.7584 52.1646 19.7663 52.2434 19.7663C52.5271 19.7663 52.8187 19.8767 53.1182 20.0973C53.4177 20.318 53.5674 20.6806 53.5674 21.185C53.5674 21.579 53.4413 21.91 53.1891 22.178C52.9369 22.446 52.5823 22.5878 52.1252 22.6036Z" fill="black"/>
<path d="M52.5507 54.0026C52.1252 54.0026 51.7941 53.8686 51.5577 53.6006C51.3213 53.3327 51.1952 52.9859 51.1794 52.5603C51.1794 51.6934 51.5577 50.921 52.3143 50.2432C53.0709 49.5654 53.9851 49.2265 55.057 49.2265C55.6087 49.2265 55.9555 49.2344 56.0973 49.2502C57.2637 49.4393 58.1543 49.857 58.7691 50.5033C59.3838 51.1495 59.6991 51.851 59.7148 52.6076C59.7148 53.4272 59.4469 54.2232 58.9109 54.9956C58.375 55.768 57.6342 56.3275 56.6884 56.6743L56.6175 56.7216C56.6175 56.7374 56.6884 56.761 56.8303 56.7925C56.9721 56.8241 57.2007 56.895 57.5159 57.0053C57.8312 57.1157 58.1307 57.2812 58.4144 57.5019C59.7069 58.3373 60.3532 59.4406 60.3532 60.812C60.3532 62.0572 59.8646 63.1448 58.8873 64.0748C57.91 65.0048 56.6727 65.4698 55.1752 65.4698C53.9142 65.4698 52.8266 65.1309 51.9124 64.4531C50.9981 63.7753 50.541 62.9163 50.541 61.876C50.541 61.4346 50.6829 61.0799 50.9666 60.812C51.2503 60.544 51.605 60.4022 52.0306 60.3864C52.4719 60.3864 52.8345 60.5283 53.1182 60.812C53.4019 61.0957 53.5438 61.4504 53.5438 61.876C53.5438 62.0493 53.5201 62.207 53.4729 62.3488C53.4256 62.4907 53.3704 62.6168 53.3073 62.7271C53.2443 62.8375 53.1576 62.932 53.0473 63.0109C52.9369 63.0897 52.8424 63.1527 52.7635 63.2C52.6847 63.2473 52.6059 63.2788 52.5271 63.2946C52.4483 63.3103 52.3852 63.334 52.338 63.3655L52.2434 63.3892C53.0473 64.0985 54.0245 64.4531 55.1752 64.4531C56.0421 64.4531 56.6963 64.0354 57.1376 63.2C57.4056 62.6798 57.5396 61.8838 57.5396 60.812V60.3391C57.5396 58.8417 57.0352 57.8407 56.0264 57.3363C55.7899 57.2418 55.3092 57.1866 54.5841 57.1708L53.5911 57.1472L53.5201 57.0999C53.4886 57.0526 53.4729 56.9265 53.4729 56.7216C53.4729 56.4379 53.5359 56.296 53.662 56.296C54.1034 56.296 54.5605 56.2566 55.0333 56.1778C55.5693 56.099 56.0579 55.768 56.4993 55.1848C56.9406 54.6015 57.1613 53.7188 57.1613 52.5366V52.3475C57.1613 51.449 56.8854 50.8264 56.3338 50.4796C55.987 50.259 55.6166 50.1486 55.2225 50.1486C54.7181 50.1486 54.2531 50.2353 53.8275 50.4087C53.4019 50.5821 53.1024 50.7634 52.929 50.9525C52.7557 51.1417 52.669 51.2362 52.669 51.2362H52.7399C52.7872 51.252 52.8502 51.2678 52.929 51.2835C53.0079 51.2993 53.0867 51.3387 53.1655 51.4017C53.2443 51.4648 53.3389 51.52 53.4492 51.5673C53.5595 51.6145 53.6384 51.7012 53.6856 51.8273C53.7329 51.9534 53.796 52.0717 53.8748 52.182C53.9536 52.2923 53.9773 52.45 53.9457 52.6549C53.9457 53.0016 53.8354 53.309 53.6147 53.577C53.394 53.8449 53.0394 53.9868 52.5507 54.0026Z" fill="black"/>
<path d="M63.7343 43.5284H47.1836V42.1097H63.7343V43.5284Z" fill="black"/>
<path d="M67.068 41.9442C67.0838 41.8496 67.1075 41.7235 67.139 41.5659C67.1705 41.4083 67.2651 41.1088 67.4227 40.6675C67.5803 40.2261 67.738 39.8557 67.8956 39.5562C68.0532 39.2567 68.3133 38.9651 68.6758 38.6814C69.0384 38.3977 69.4009 38.2637 69.7634 38.2794C70.3309 38.2794 70.8038 38.4213 71.1821 38.705C71.5604 38.9887 71.7968 39.2567 71.8914 39.5089C71.986 39.7611 72.0332 39.9266 72.0332 40.0054C72.0332 40.037 72.0411 40.0527 72.0569 40.0527L72.317 39.7926C73.2785 38.7838 74.374 38.2794 75.6035 38.2794C76.4546 38.2794 77.1403 38.4922 77.6605 38.9178C78.1806 39.3434 78.4486 39.966 78.4644 40.7857C78.4801 41.6053 78.1806 42.8427 77.5659 44.4978C76.9512 46.1528 76.6517 47.1537 76.6674 47.5005C76.6674 47.9103 76.8014 48.1153 77.0694 48.1153C77.164 48.1153 77.2349 48.1074 77.2822 48.0916C77.7393 48.0128 78.1491 47.7133 78.5117 47.1931C78.8742 46.673 79.15 46.0425 79.3392 45.3016C79.3707 45.1755 79.5283 45.1125 79.8121 45.1125C80.1273 45.1125 80.2849 45.1755 80.2849 45.3016C80.2849 45.3174 80.2534 45.4356 80.1904 45.6563C80.0643 46.1134 79.8909 46.5626 79.6702 47.004C79.4495 47.4454 79.087 47.8867 78.5826 48.3281C78.0782 48.7694 77.5344 48.9822 76.9512 48.9664C76.2103 48.9664 75.6744 48.7536 75.3434 48.3281C75.0124 47.9025 74.8469 47.4611 74.8469 47.004C74.8469 46.7045 75.1306 45.7588 75.698 44.1667C76.2655 42.5747 76.5571 41.3768 76.5729 40.5729C76.5729 39.6429 76.2261 39.1779 75.5325 39.1779H75.4143C74.0587 39.1779 72.916 39.9739 71.986 41.5659L71.8204 41.8496L71.0402 45.0179C70.52 47.0828 70.2206 48.1941 70.1417 48.3517C69.9368 48.7773 69.5979 48.9901 69.1251 48.9901C68.9201 48.9901 68.7546 48.9428 68.6285 48.8482C68.5024 48.7536 68.4157 48.6591 68.3685 48.5645C68.3212 48.4699 68.3054 48.3911 68.3212 48.3281C68.3212 48.1231 68.6207 46.8385 69.2196 44.4741C69.8186 42.1097 70.1339 40.8251 70.1654 40.6202C70.1812 40.5414 70.189 40.3601 70.189 40.0764C70.189 39.4616 69.9999 39.1543 69.6216 39.1543C69.0226 39.1543 68.5261 39.9424 68.132 41.5186C68.0374 41.8339 67.9902 41.9994 67.9902 42.0152C67.9586 42.1097 67.8089 42.157 67.5409 42.157H67.2099C67.1153 42.0624 67.068 41.9915 67.068 41.9442Z" fill="black"/>
<path d="M92.3906 43.6939C92.0753 43.6939 91.9177 43.5914 91.9177 43.3865C91.9177 43.3234 91.9571 43.1343 92.0359 42.819C92.1147 42.5038 92.1541 42.228 92.1541 41.9915C92.1541 41.5029 91.9886 41.2034 91.6576 41.093C91.3266 40.9827 90.5621 40.9275 89.3642 40.9275H88.1347C88.1189 40.9591 87.8431 42.0467 87.3072 44.1904C86.7712 46.3341 86.5033 47.4375 86.5033 47.5005C86.5033 47.5636 86.59 47.5951 86.7633 47.5951C86.9367 47.5951 87.5672 47.6109 88.6549 47.6424C90.1365 47.6424 91.1138 47.6266 91.5867 47.5951C92.0596 47.5636 92.5324 47.4611 93.0053 47.2877C93.7777 47.0355 94.4161 46.5942 94.9205 45.9637C95.4249 45.3332 95.9844 44.3007 96.5992 42.8663C96.7568 42.5196 96.8593 42.3304 96.9065 42.2989C97.0169 42.2674 97.1351 42.2516 97.2612 42.2516C97.5765 42.2516 97.7341 42.354 97.7341 42.559C96.079 46.5626 95.2121 48.6039 95.1333 48.6827C95.086 48.7142 92.8319 48.73 88.3711 48.73H83.9025C82.2947 48.73 81.4908 48.6433 81.4908 48.4699C81.4908 48.4384 81.5144 48.3281 81.5617 48.1389C81.6248 47.8867 81.6878 47.7448 81.7509 47.7133C81.8139 47.6818 81.9952 47.6581 82.2947 47.6424C82.7203 47.6424 83.1931 47.6187 83.7133 47.5715C83.934 47.5242 84.0837 47.4296 84.1625 47.2877C84.1941 47.2089 84.7536 44.9943 85.8412 40.6438C86.9289 36.2934 87.4805 34.0866 87.4963 34.0235C87.4963 33.9132 87.4648 33.858 87.4017 33.858C87.2756 33.8108 86.8579 33.7713 86.1486 33.7398H85.4156C85.3211 33.6452 85.2738 33.5822 85.2738 33.5507C85.2738 33.5191 85.2896 33.3852 85.3211 33.1487C85.3841 32.8808 85.4629 32.7153 85.5575 32.6522H98.6562C98.7665 32.7153 98.8217 32.8019 98.8217 32.9123C98.8217 32.9911 98.7192 33.8738 98.5143 35.5604C98.3094 37.247 98.1991 38.1139 98.1833 38.1612C98.1518 38.2716 97.9942 38.3267 97.7104 38.3267H97.4267C97.3164 38.2479 97.2612 38.1455 97.2612 38.0194L97.3321 37.4755C97.3794 37.0972 97.4031 36.6874 97.4031 36.2461C97.4031 35.7732 97.3479 35.3791 97.2376 35.0639C97.1272 34.7486 96.9775 34.5043 96.7883 34.3309C96.5992 34.1575 96.3233 34.0314 95.9608 33.9526C95.5983 33.8738 95.2278 33.8186 94.8495 33.7871C94.4712 33.7556 93.9668 33.7398 93.3363 33.7398H92.2251C90.838 33.7556 90.105 33.7792 90.0262 33.8108C89.9631 33.8423 89.9159 33.9132 89.8843 34.0235C89.8686 34.0708 89.6242 35.0402 89.1514 36.9317C88.6785 38.8232 88.4342 39.7848 88.4184 39.8163C88.7809 39.832 89.1593 39.8399 89.5533 39.8399H90.1681C91.2084 39.8399 91.9256 39.7217 92.3196 39.4853C92.7137 39.2488 93.0684 38.6104 93.3836 37.5701C93.4467 37.3179 93.494 37.1761 93.5255 37.1445C93.557 37.113 93.691 37.0894 93.9274 37.0736C94.0062 37.0736 94.0693 37.0736 94.1166 37.0736C94.1639 37.0736 94.2033 37.0815 94.2348 37.0972C94.2663 37.113 94.2821 37.1209 94.2821 37.1209C94.2821 37.1209 94.2978 37.1524 94.3294 37.2155C94.3609 37.2785 94.3845 37.31 94.4003 37.31L93.6201 40.431C93.0999 42.5274 92.8162 43.5914 92.7689 43.6229C92.7216 43.6702 92.5955 43.6939 92.3906 43.6939Z" fill="black"/>
<path d="M85 30.5V29.1567H99.5V30.5H85Z" fill="black"/>
<path d="M1.46592 41.9442C1.48168 41.8969 1.49744 41.8339 1.5132 41.7551C1.52897 41.6763 1.56837 41.5029 1.63142 41.2349C1.69447 40.9669 1.77329 40.7226 1.86786 40.5019C1.96244 40.2813 2.08066 40.0212 2.22252 39.7217C2.36438 39.4222 2.52201 39.1858 2.69539 39.0124C2.86878 38.839 3.0737 38.6656 3.31013 38.4922C3.54657 38.3188 3.80665 38.2479 4.09038 38.2794C5.27257 38.2794 6.02917 38.7838 6.36019 39.7926L6.59662 39.5798C7.5739 38.7129 8.50389 38.2794 9.38659 38.2794C10.4112 38.2794 11.2151 38.6499 11.7983 39.3907C12.3815 40.1315 12.6731 41.03 12.6731 42.0861C12.6731 43.7884 12.0741 45.3568 10.8762 46.7912C9.6782 48.2256 8.32262 48.9507 6.80942 48.9664C6.46264 48.9664 6.15527 48.9191 5.88731 48.8246C5.71392 48.7458 5.53265 48.6275 5.3435 48.4699C5.15435 48.3123 5.00461 48.1783 4.89427 48.068L4.72876 47.8788C4.713 47.8946 4.53961 48.5803 4.2086 49.9358C3.87759 51.2914 3.71208 51.9771 3.71208 51.9928C3.71208 52.0874 3.77513 52.1426 3.90123 52.1584C4.02733 52.1741 4.31894 52.1978 4.77605 52.2293H5.36715C5.46172 52.3396 5.50901 52.4105 5.50901 52.4421C5.50901 52.4736 5.48537 52.6155 5.43808 52.8677C5.39079 53.0568 5.3435 53.175 5.29621 53.2223C5.24893 53.2696 5.14647 53.3011 4.98885 53.3169C4.95732 53.3169 4.87063 53.3169 4.72876 53.3169C4.5869 53.3169 4.31894 53.309 3.92487 53.2933C3.53081 53.2775 3.04217 53.2696 2.45896 53.2696C1.35558 53.2696 0.654146 53.2854 0.354657 53.3169H0.165507C0.0551689 53.2066 0 53.1199 0 53.0568C0.0315251 52.6312 0.133982 52.3554 0.30737 52.2293H0.780246C1.31617 52.2135 1.62354 52.1189 1.70235 51.9456C1.74964 51.851 2.2304 49.9674 3.14463 46.2947C4.05886 42.622 4.53961 40.6753 4.5869 40.4547C4.60266 40.3758 4.61054 40.2655 4.61054 40.1236C4.61054 39.4774 4.41351 39.1543 4.01945 39.1543C3.67267 39.1543 3.38107 39.3749 3.14463 39.8163C2.90819 40.2576 2.72692 40.7384 2.60082 41.2586C2.47472 41.7787 2.38014 42.0624 2.31709 42.1097C2.28557 42.1413 2.15947 42.157 1.93879 42.157H1.60778C1.5132 42.0624 1.46592 41.9915 1.46592 41.9442ZM5.13071 46.3183C5.47748 47.5163 6.0607 48.1153 6.88035 48.1153C7.35323 48.1153 7.81034 47.934 8.25169 47.5714C8.69304 47.2089 9.05558 46.7518 9.33931 46.2001C9.62303 45.6642 9.90676 44.813 10.1905 43.6466C10.4742 42.4801 10.624 41.6132 10.6397 41.0458V40.9039C10.6397 39.7375 10.159 39.1543 9.19744 39.1543C9.02406 39.1543 8.85067 39.1779 8.67728 39.2252C8.50389 39.2725 8.3305 39.3434 8.15712 39.438C7.98373 39.5326 7.8261 39.635 7.68424 39.7453C7.54238 39.8557 7.4084 39.9739 7.2823 40.1C7.1562 40.2261 7.03798 40.3443 6.92764 40.4547C6.8173 40.565 6.73061 40.6753 6.66756 40.7857C6.60451 40.896 6.54146 40.9748 6.47841 41.0221L6.40747 41.1167C6.40747 41.1325 6.38383 41.2428 6.33654 41.4477C6.28925 41.6526 6.20256 41.9994 6.07646 42.488C5.95036 42.9767 5.84002 43.3865 5.74545 43.7175C5.33562 45.3883 5.13071 46.2553 5.13071 46.3183Z" stroke="black"/>
<path d="M20.7073 40.5256C20.7073 40.3207 20.8176 40.1631 21.0383 40.0527H36.0994C36.3358 40.1788 36.454 40.3364 36.454 40.5256C36.454 40.699 36.3437 40.8487 36.123 40.9748L28.6043 40.9985H21.0856C20.8334 40.9197 20.7073 40.762 20.7073 40.5256ZM20.7073 45.1125C20.7073 44.8761 20.8334 44.7184 21.0856 44.6396H36.123C36.3437 44.7972 36.454 44.9549 36.454 45.1125C36.454 45.3174 36.3358 45.475 36.0994 45.5854H21.0383C20.8176 45.475 20.7073 45.3174 20.7073 45.1125Z" stroke="black"/>
<path d="M52.1252 22.6036C51.6996 22.6036 51.3607 22.4617 51.1085 22.178C50.8563 21.8943 50.7302 21.5475 50.7302 21.1377C50.7302 20.0185 51.1479 19.0491 51.9833 18.2295C52.8187 17.4098 53.859 17 55.1043 17C56.5387 17 57.7366 17.4414 58.6981 18.3241C59.6597 19.2068 60.1483 20.3495 60.1641 21.7524C60.1641 22.4302 60.0064 23.0765 59.6912 23.6912C59.3759 24.3059 58.9976 24.8419 58.5563 25.299C58.1149 25.7561 57.4844 26.3393 56.6648 27.0486C56.0973 27.5373 55.3092 28.2623 54.3004 29.2239L52.9054 30.5479L54.7023 30.5715C57.1771 30.5715 58.4932 30.5321 58.6508 30.4533C58.7612 30.4218 58.9503 29.7204 59.2183 28.349V28.2781H60.1641V28.349C60.1483 28.3963 60.0458 29.1135 59.8567 30.5006C59.6675 31.8877 59.5493 32.6128 59.502 32.6758V32.7468H50.7302V32.0138C50.7302 31.9035 50.7775 31.7853 50.872 31.6592C50.9666 31.5331 51.203 31.2572 51.5813 30.8316C52.0385 30.3272 52.4325 29.8859 52.7635 29.5076C52.9054 29.35 53.1734 29.0583 53.5674 28.6328C53.9615 28.2072 54.2295 27.9156 54.3713 27.7579C54.5132 27.6003 54.7417 27.3402 55.057 26.9777C55.3722 26.6152 55.5929 26.3472 55.719 26.1738C55.8451 26.0004 56.0264 25.764 56.2628 25.4645C56.4993 25.165 56.6648 24.9128 56.7593 24.7079C56.8539 24.503 56.9721 24.2744 57.114 24.0222C57.2559 23.77 57.3583 23.5178 57.4214 23.2656C57.4844 23.0134 57.5396 22.777 57.5869 22.5563C57.6342 22.3356 57.6578 22.0755 57.6578 21.7761C57.6578 20.783 57.3898 19.924 56.8539 19.1989C56.318 18.4738 55.5535 18.1113 54.5605 18.1113C54.0403 18.1113 53.5832 18.2452 53.1891 18.5132C52.7951 18.7812 52.5192 19.0412 52.3616 19.2934C52.204 19.5457 52.1252 19.6954 52.1252 19.7427C52.1252 19.7584 52.1646 19.7663 52.2434 19.7663C52.5271 19.7663 52.8187 19.8767 53.1182 20.0973C53.4177 20.318 53.5674 20.6806 53.5674 21.185C53.5674 21.579 53.4413 21.91 53.1891 22.178C52.9369 22.446 52.5823 22.5878 52.1252 22.6036Z" stroke="black"/>
<path d="M52.5507 54.0026C52.1252 54.0026 51.7941 53.8686 51.5577 53.6006C51.3213 53.3327 51.1952 52.9859 51.1794 52.5603C51.1794 51.6934 51.5577 50.921 52.3143 50.2432C53.0709 49.5654 53.9851 49.2265 55.057 49.2265C55.6087 49.2265 55.9555 49.2344 56.0973 49.2502C57.2637 49.4393 58.1543 49.857 58.7691 50.5033C59.3838 51.1495 59.6991 51.851 59.7148 52.6076C59.7148 53.4272 59.4469 54.2232 58.9109 54.9956C58.375 55.768 57.6342 56.3275 56.6884 56.6743L56.6175 56.7216C56.6175 56.7374 56.6884 56.761 56.8303 56.7925C56.9721 56.8241 57.2007 56.895 57.5159 57.0053C57.8312 57.1157 58.1307 57.2812 58.4144 57.5019C59.7069 58.3373 60.3532 59.4406 60.3532 60.812C60.3532 62.0572 59.8646 63.1448 58.8873 64.0748C57.91 65.0048 56.6727 65.4698 55.1752 65.4698C53.9142 65.4698 52.8266 65.1309 51.9124 64.4531C50.9981 63.7753 50.541 62.9163 50.541 61.876C50.541 61.4346 50.6829 61.0799 50.9666 60.812C51.2503 60.544 51.605 60.4022 52.0306 60.3864C52.4719 60.3864 52.8345 60.5283 53.1182 60.812C53.4019 61.0957 53.5438 61.4504 53.5438 61.876C53.5438 62.0493 53.5201 62.207 53.4729 62.3488C53.4256 62.4907 53.3704 62.6168 53.3073 62.7271C53.2443 62.8375 53.1576 62.932 53.0473 63.0109C52.9369 63.0897 52.8424 63.1527 52.7635 63.2C52.6847 63.2473 52.6059 63.2788 52.5271 63.2946C52.4483 63.3103 52.3852 63.334 52.338 63.3655L52.2434 63.3892C53.0473 64.0985 54.0245 64.4531 55.1752 64.4531C56.0421 64.4531 56.6963 64.0354 57.1376 63.2C57.4056 62.6798 57.5396 61.8838 57.5396 60.812V60.3391C57.5396 58.8417 57.0352 57.8407 56.0264 57.3363C55.7899 57.2418 55.3092 57.1866 54.5841 57.1708L53.5911 57.1472L53.5201 57.0999C53.4886 57.0526 53.4729 56.9265 53.4729 56.7216C53.4729 56.4379 53.5359 56.296 53.662 56.296C54.1034 56.296 54.5605 56.2566 55.0333 56.1778C55.5693 56.099 56.0579 55.768 56.4993 55.1848C56.9406 54.6015 57.1613 53.7188 57.1613 52.5366V52.3475C57.1613 51.449 56.8854 50.8264 56.3338 50.4796C55.987 50.259 55.6166 50.1486 55.2225 50.1486C54.7181 50.1486 54.2531 50.2353 53.8275 50.4087C53.4019 50.5821 53.1024 50.7634 52.929 50.9525C52.7557 51.1417 52.669 51.2362 52.669 51.2362H52.7399C52.7872 51.252 52.8502 51.2678 52.929 51.2835C53.0079 51.2993 53.0867 51.3387 53.1655 51.4017C53.2443 51.4648 53.3389 51.52 53.4492 51.5673C53.5595 51.6145 53.6384 51.7012 53.6856 51.8273C53.7329 51.9534 53.796 52.0717 53.8748 52.182C53.9536 52.2923 53.9773 52.45 53.9457 52.6549C53.9457 53.0016 53.8354 53.309 53.6147 53.577C53.394 53.8449 53.0394 53.9868 52.5507 54.0026Z" stroke="black"/>
<path d="M63.7343 43.5284H47.1836V42.1097H63.7343V43.5284Z" stroke="black"/>
<path d="M67.068 41.9442C67.0838 41.8496 67.1075 41.7235 67.139 41.5659C67.1705 41.4083 67.2651 41.1088 67.4227 40.6675C67.5803 40.2261 67.738 39.8557 67.8956 39.5562C68.0532 39.2567 68.3133 38.9651 68.6758 38.6814C69.0384 38.3977 69.4009 38.2637 69.7634 38.2794C70.3309 38.2794 70.8038 38.4213 71.1821 38.705C71.5604 38.9887 71.7968 39.2567 71.8914 39.5089C71.986 39.7611 72.0332 39.9266 72.0332 40.0054C72.0332 40.037 72.0411 40.0527 72.0569 40.0527L72.317 39.7926C73.2785 38.7838 74.374 38.2794 75.6035 38.2794C76.4546 38.2794 77.1403 38.4922 77.6605 38.9178C78.1806 39.3434 78.4486 39.966 78.4644 40.7857C78.4801 41.6053 78.1806 42.8427 77.5659 44.4978C76.9512 46.1528 76.6517 47.1537 76.6674 47.5005C76.6674 47.9103 76.8014 48.1153 77.0694 48.1153C77.164 48.1153 77.2349 48.1074 77.2822 48.0916C77.7393 48.0128 78.1491 47.7133 78.5117 47.1931C78.8742 46.673 79.15 46.0425 79.3392 45.3016C79.3707 45.1755 79.5283 45.1125 79.8121 45.1125C80.1273 45.1125 80.2849 45.1755 80.2849 45.3016C80.2849 45.3174 80.2534 45.4356 80.1904 45.6563C80.0643 46.1134 79.8909 46.5626 79.6702 47.004C79.4495 47.4454 79.087 47.8867 78.5826 48.3281C78.0782 48.7694 77.5344 48.9822 76.9512 48.9664C76.2103 48.9664 75.6744 48.7536 75.3434 48.3281C75.0124 47.9025 74.8469 47.4611 74.8469 47.004C74.8469 46.7045 75.1306 45.7588 75.698 44.1667C76.2655 42.5747 76.5571 41.3768 76.5729 40.5729C76.5729 39.6429 76.2261 39.1779 75.5325 39.1779H75.4143C74.0587 39.1779 72.916 39.9739 71.986 41.5659L71.8204 41.8496L71.0402 45.0179C70.52 47.0828 70.2206 48.1941 70.1417 48.3517C69.9368 48.7773 69.5979 48.9901 69.1251 48.9901C68.9201 48.9901 68.7546 48.9428 68.6285 48.8482C68.5024 48.7536 68.4157 48.6591 68.3685 48.5645C68.3212 48.4699 68.3054 48.3911 68.3212 48.3281C68.3212 48.1231 68.6207 46.8385 69.2196 44.4741C69.8186 42.1097 70.1339 40.8251 70.1654 40.6202C70.1812 40.5414 70.189 40.3601 70.189 40.0764C70.189 39.4616 69.9999 39.1543 69.6216 39.1543C69.0226 39.1543 68.5261 39.9424 68.132 41.5186C68.0374 41.8339 67.9902 41.9994 67.9902 42.0152C67.9586 42.1097 67.8089 42.157 67.5409 42.157H67.2099C67.1153 42.0624 67.068 41.9915 67.068 41.9442Z" stroke="black"/>
<path d="M92.3906 43.6939C92.0753 43.6939 91.9177 43.5914 91.9177 43.3865C91.9177 43.3234 91.9571 43.1343 92.0359 42.819C92.1147 42.5038 92.1541 42.228 92.1541 41.9915C92.1541 41.5029 91.9886 41.2034 91.6576 41.093C91.3266 40.9827 90.5621 40.9275 89.3642 40.9275H88.1347C88.1189 40.9591 87.8431 42.0467 87.3072 44.1904C86.7712 46.3341 86.5033 47.4375 86.5033 47.5005C86.5033 47.5636 86.59 47.5951 86.7633 47.5951C86.9367 47.5951 87.5672 47.6109 88.6549 47.6424C90.1365 47.6424 91.1138 47.6266 91.5867 47.5951C92.0596 47.5636 92.5324 47.4611 93.0053 47.2877C93.7777 47.0355 94.4161 46.5942 94.9205 45.9637C95.4249 45.3332 95.9844 44.3007 96.5992 42.8663C96.7568 42.5196 96.8593 42.3304 96.9065 42.2989C97.0169 42.2674 97.1351 42.2516 97.2612 42.2516C97.5765 42.2516 97.7341 42.354 97.7341 42.559C96.079 46.5626 95.2121 48.6039 95.1333 48.6827C95.086 48.7142 92.8319 48.73 88.3711 48.73H83.9025C82.2947 48.73 81.4908 48.6433 81.4908 48.4699C81.4908 48.4384 81.5144 48.3281 81.5617 48.1389C81.6248 47.8867 81.6878 47.7448 81.7509 47.7133C81.8139 47.6818 81.9952 47.6581 82.2947 47.6424C82.7203 47.6424 83.1931 47.6187 83.7133 47.5715C83.934 47.5242 84.0837 47.4296 84.1625 47.2877C84.1941 47.2089 84.7536 44.9943 85.8412 40.6438C86.9289 36.2934 87.4805 34.0866 87.4963 34.0235C87.4963 33.9132 87.4648 33.858 87.4017 33.858C87.2756 33.8108 86.8579 33.7713 86.1486 33.7398H85.4156C85.3211 33.6452 85.2738 33.5822 85.2738 33.5507C85.2738 33.5191 85.2896 33.3852 85.3211 33.1487C85.3841 32.8808 85.4629 32.7153 85.5575 32.6522H98.6562C98.7665 32.7153 98.8217 32.8019 98.8217 32.9123C98.8217 32.9911 98.7192 33.8738 98.5143 35.5604C98.3094 37.247 98.1991 38.1139 98.1833 38.1612C98.1518 38.2716 97.9942 38.3267 97.7104 38.3267H97.4267C97.3164 38.2479 97.2612 38.1455 97.2612 38.0194L97.3321 37.4755C97.3794 37.0972 97.4031 36.6874 97.4031 36.2461C97.4031 35.7732 97.3479 35.3791 97.2376 35.0639C97.1272 34.7486 96.9775 34.5043 96.7883 34.3309C96.5992 34.1575 96.3233 34.0314 95.9608 33.9526C95.5983 33.8738 95.2278 33.8186 94.8495 33.7871C94.4712 33.7556 93.9668 33.7398 93.3363 33.7398H92.2251C90.838 33.7556 90.105 33.7792 90.0262 33.8108C89.9631 33.8423 89.9159 33.9132 89.8843 34.0235C89.8686 34.0708 89.6242 35.0402 89.1514 36.9317C88.6785 38.8232 88.4342 39.7848 88.4184 39.8163C88.7809 39.832 89.1593 39.8399 89.5533 39.8399H90.1681C91.2084 39.8399 91.9256 39.7217 92.3196 39.4853C92.7137 39.2488 93.0684 38.6104 93.3836 37.5701C93.4467 37.3179 93.494 37.1761 93.5255 37.1445C93.557 37.113 93.691 37.0894 93.9274 37.0736C94.0062 37.0736 94.0693 37.0736 94.1166 37.0736C94.1639 37.0736 94.2033 37.0815 94.2348 37.0972C94.2663 37.113 94.2821 37.1209 94.2821 37.1209C94.2821 37.1209 94.2978 37.1524 94.3294 37.2155C94.3609 37.2785 94.3845 37.31 94.4003 37.31L93.6201 40.431C93.0999 42.5274 92.8162 43.5914 92.7689 43.6229C92.7216 43.6702 92.5955 43.6939 92.3906 43.6939Z" stroke="black"/>
<path d="M85 30.5V29.1567H99.5V30.5H85Z" stroke="black"/>
</svg>
