<svg width="129" height="30" viewBox="0 0 129 30" fill="none" xmlns="http://www.w3.org/2000/svg">
<g clip-path="url(#clip0_3_1392)">
<path d="M0 4.13428C0 1.85088 1.85088 0 4.13428 0H25.8657C28.149 0 30 1.85088 30 4.13428V25.8657C30 28.149 28.149 30 25.8657 30H4.13428C1.85088 30 0 28.149 0 25.8657V4.13428Z" fill="black"/>
<path d="M15.0459 25.8113C14.848 25.8707 14.5314 25.93 14.0961 25.9894C13.6806 26.0488 13.2452 26.0784 12.7901 26.0784C12.3547 26.0784 11.959 26.0488 11.6028 25.9894C11.2664 25.93 10.9795 25.8113 10.742 25.6332C10.5046 25.4551 10.3165 25.2177 10.1781 24.9208C10.0594 24.6042 10 24.1986 10 23.7039V14.7993C10 14.3442 10.0791 13.9583 10.2375 13.6417C10.4155 13.3053 10.6629 13.0085 10.9795 12.7512C11.296 12.494 11.6819 12.2665 12.1371 12.0686C12.612 11.8509 13.1166 11.6629 13.6509 11.5046C14.1952 11.3441 14.7508 11.2251 15.3131 11.1484C15.8816 11.0499 16.4576 11.0003 17.0346 11C17.9845 11 18.7364 11.188 19.2905 11.564C19.8445 11.9201 20.1216 12.5138 20.1216 13.3449C20.1216 13.6219 20.0819 13.899 20.0028 14.176C19.9236 14.4333 19.8247 14.6707 19.706 14.8883C19.2905 14.8883 18.8649 14.9082 18.4297 14.9477C17.9943 14.9872 17.5689 15.0466 17.1534 15.1258C16.7378 15.205 16.342 15.294 15.9661 15.3929C15.6099 15.4721 15.3031 15.571 15.0459 15.6898V25.8113Z" fill="white"/>
<path d="M12 6.90883C12 6.07774 12.2572 5.38519 12.7717 4.83109C13.2862 4.277 13.9887 4 14.8792 4C15.7696 4 16.472 4.277 16.9866 4.83109C17.501 5.38519 17.7583 6.07774 17.7583 6.90883C17.7583 7.73993 17.501 8.43247 16.9866 8.98657C16.472 9.54067 15.7696 9.81767 14.8792 9.81767C13.9887 9.81767 13.2862 9.54067 12.7717 8.98657C12.2572 8.43247 12 7.73993 12 6.90883Z" fill="white"/>
</g>
<path d="M41.184 13.684C42.7947 13.748 43.9733 14.1 44.72 14.74C45.4773 15.38 45.856 16.2493 45.856 17.348C45.856 17.8387 45.7707 18.292 45.6 18.708C45.44 19.124 45.1893 19.4813 44.848 19.78C44.5173 20.0787 44.096 20.3133 43.584 20.484C43.072 20.6547 42.464 20.74 41.76 20.74C41.4827 20.74 41.2 20.7187 40.912 20.676C40.624 20.6333 40.3573 20.58 40.112 20.516C39.8667 20.452 39.648 20.388 39.456 20.324C39.264 20.26 39.1253 20.2067 39.04 20.164L39.328 18.868C39.5093 18.9533 39.8027 19.0653 40.208 19.204C40.624 19.3427 41.1307 19.412 41.728 19.412C42.208 19.412 42.608 19.3587 42.928 19.252C43.2587 19.1453 43.5253 19.0013 43.728 18.82C43.9307 18.6387 44.0747 18.4307 44.16 18.196C44.256 17.9507 44.304 17.6947 44.304 17.428C44.304 17.0227 44.2347 16.6653 44.096 16.356C43.9573 16.036 43.712 15.7693 43.36 15.556C43.008 15.3427 42.5387 15.1827 41.952 15.076C41.3653 14.9587 40.624 14.9 39.728 14.9C39.792 14.3773 39.84 13.8867 39.872 13.428C39.9147 12.9693 39.952 12.5213 39.984 12.084C40.016 11.6467 40.0427 11.2147 40.064 10.788C40.0853 10.3507 40.1067 9.892 40.128 9.412H45.472V10.676H41.424C41.4133 10.836 41.3973 11.0547 41.376 11.332C41.3547 11.5987 41.3333 11.8813 41.312 12.18C41.2907 12.468 41.2693 12.7507 41.248 13.028C41.2267 13.3053 41.2053 13.524 41.184 13.684ZM47.8313 14.948C47.8313 13.092 48.1566 11.6627 48.8073 10.66C49.4686 9.65733 50.3806 9.156 51.5433 9.156C52.7059 9.156 53.6126 9.65733 54.2633 10.66C54.9246 11.6627 55.2552 13.092 55.2552 14.948C55.2552 16.804 54.9246 18.2333 54.2633 19.236C53.6126 20.2387 52.7059 20.74 51.5433 20.74C50.3806 20.74 49.4686 20.2387 48.8073 19.236C48.1566 18.2333 47.8313 16.804 47.8313 14.948ZM53.6873 14.948C53.6873 14.34 53.6499 13.764 53.5753 13.22C53.5113 12.676 53.3939 12.2013 53.2233 11.796C53.0633 11.3907 52.8446 11.0707 52.5673 10.836C52.2899 10.5907 51.9486 10.468 51.5433 10.468C51.1379 10.468 50.7966 10.5907 50.5193 10.836C50.2419 11.0707 50.0179 11.3907 49.8473 11.796C49.6873 12.2013 49.5699 12.676 49.4953 13.22C49.4313 13.764 49.3993 14.34 49.3993 14.948C49.3993 15.556 49.4313 16.132 49.4953 16.676C49.5699 17.22 49.6873 17.6947 49.8473 18.1C50.0179 18.5053 50.2419 18.8307 50.5193 19.076C50.7966 19.3107 51.1379 19.428 51.5433 19.428C51.9486 19.428 52.2899 19.3107 52.5673 19.076C52.8446 18.8307 53.0633 18.5053 53.2233 18.1C53.3939 17.6947 53.5113 17.22 53.5753 16.676C53.6499 16.132 53.6873 15.556 53.6873 14.948ZM57.5505 11.7C58.1585 11.4653 58.7505 11.1667 59.3265 10.804C59.9025 10.4307 60.4305 9.96667 60.9105 9.412H61.9665V20.5H60.4785V11.476C60.3505 11.5933 60.1905 11.716 59.9985 11.844C59.8172 11.972 59.6145 12.0947 59.3905 12.212C59.1772 12.3293 58.9478 12.4413 58.7025 12.548C58.4678 12.6547 58.2385 12.7453 58.0145 12.82L57.5505 11.7ZM66.3738 20.5V8.34L67.8618 8.084V12.34C68.1391 12.2333 68.4324 12.1533 68.7418 12.1C69.0618 12.036 69.3764 12.004 69.6858 12.004C70.3471 12.004 70.8964 12.1 71.3338 12.292C71.7711 12.4733 72.1178 12.7347 72.3738 13.076C72.6404 13.4067 72.8271 13.8067 72.9338 14.276C73.0404 14.7453 73.0938 15.2627 73.0938 15.828V20.5H71.6058V16.148C71.6058 15.636 71.5684 15.1987 71.4938 14.836C71.4298 14.4733 71.3178 14.18 71.1578 13.956C70.9978 13.732 70.7844 13.572 70.5178 13.476C70.2511 13.3693 69.9204 13.316 69.5258 13.316C69.3658 13.316 69.2004 13.3267 69.0298 13.348C68.8591 13.3693 68.6938 13.396 68.5338 13.428C68.3844 13.4493 68.2458 13.476 68.1178 13.508C68.0004 13.54 67.9151 13.5667 67.8618 13.588V20.5H66.3738ZM75.0504 16.356C75.0504 15.62 75.157 14.98 75.3704 14.436C75.5837 13.8813 75.8664 13.4227 76.2184 13.06C76.5704 12.6973 76.9757 12.4253 77.4344 12.244C77.893 12.0627 78.3624 11.972 78.8424 11.972C79.9624 11.972 80.821 12.324 81.4184 13.028C82.0157 13.7213 82.3144 14.7827 82.3144 16.212C82.3144 16.276 82.3144 16.3613 82.3144 16.468C82.3144 16.564 82.309 16.6547 82.2984 16.74H76.6024C76.6664 17.604 76.917 18.26 77.3544 18.708C77.7917 19.156 78.4744 19.38 79.4024 19.38C79.925 19.38 80.3624 19.3373 80.7144 19.252C81.077 19.156 81.349 19.0653 81.5304 18.98L81.7384 20.228C81.557 20.324 81.237 20.4253 80.7784 20.532C80.3304 20.6387 79.8184 20.692 79.2424 20.692C78.517 20.692 77.8877 20.5853 77.3544 20.372C76.8317 20.148 76.3997 19.844 76.0584 19.46C75.717 19.076 75.461 18.6227 75.2904 18.1C75.1304 17.5667 75.0504 16.9853 75.0504 16.356ZM80.7624 15.54C80.773 14.868 80.6024 14.3187 80.2504 13.892C79.909 13.4547 79.4344 13.236 78.8264 13.236C78.485 13.236 78.181 13.3053 77.9144 13.444C77.6584 13.572 77.4397 13.7427 77.2584 13.956C77.077 14.1693 76.933 14.4147 76.8264 14.692C76.7304 14.9693 76.6664 15.252 76.6344 15.54H80.7624ZM86.9479 20.66C86.0305 20.6387 85.3799 20.4413 84.9959 20.068C84.6119 19.6947 84.4199 19.1133 84.4199 18.324V8.34L85.9079 8.084V18.084C85.9079 18.3293 85.9292 18.532 85.9719 18.692C86.0145 18.852 86.0839 18.98 86.1799 19.076C86.2759 19.172 86.4039 19.2467 86.5639 19.3C86.7239 19.3427 86.9212 19.38 87.1559 19.412L86.9479 20.66ZM94.6029 16.356C94.6029 15.3853 94.3629 14.6387 93.8829 14.116C93.4029 13.5933 92.7629 13.332 91.9629 13.332C91.5149 13.332 91.1629 13.348 90.9069 13.38C90.6615 13.412 90.4642 13.4493 90.3149 13.492V18.74C90.4962 18.8893 90.7575 19.0333 91.0989 19.172C91.4402 19.3107 91.8135 19.38 92.2189 19.38C92.6455 19.38 93.0082 19.3053 93.3069 19.156C93.6162 18.996 93.8669 18.7827 94.0589 18.516C94.2509 18.2387 94.3895 17.9187 94.4749 17.556C94.5602 17.1827 94.6029 16.7827 94.6029 16.356ZM96.1549 16.356C96.1549 16.9853 96.0695 17.5667 95.8989 18.1C95.7389 18.6333 95.4989 19.092 95.1789 19.476C94.8589 19.86 94.4642 20.1587 93.9949 20.372C93.5362 20.5853 93.0082 20.692 92.4109 20.692C91.9309 20.692 91.5042 20.628 91.1309 20.5C90.7682 20.372 90.4962 20.2493 90.3149 20.132V23.46H88.8269V12.436C89.1789 12.3507 89.6162 12.26 90.1389 12.164C90.6722 12.0573 91.2855 12.004 91.9789 12.004C92.6189 12.004 93.1949 12.1053 93.7069 12.308C94.2189 12.5107 94.6562 12.7987 95.0189 13.172C95.3815 13.5453 95.6589 14.004 95.8509 14.548C96.0535 15.0813 96.1549 15.684 96.1549 16.356ZM97.7848 16.356C97.7848 15.62 97.8914 14.98 98.1048 14.436C98.3181 13.8813 98.6008 13.4227 98.9528 13.06C99.3048 12.6973 99.7101 12.4253 100.169 12.244C100.627 12.0627 101.097 11.972 101.577 11.972C102.697 11.972 103.555 12.324 104.153 13.028C104.75 13.7213 105.049 14.7827 105.049 16.212C105.049 16.276 105.049 16.3613 105.049 16.468C105.049 16.564 105.043 16.6547 105.033 16.74H99.3368C99.4008 17.604 99.6514 18.26 100.089 18.708C100.526 19.156 101.209 19.38 102.137 19.38C102.659 19.38 103.097 19.3373 103.449 19.252C103.811 19.156 104.083 19.0653 104.265 18.98L104.473 20.228C104.291 20.324 103.971 20.4253 103.513 20.532C103.065 20.6387 102.553 20.692 101.977 20.692C101.251 20.692 100.622 20.5853 100.089 20.372C99.5661 20.148 99.1341 19.844 98.7928 19.46C98.4514 19.076 98.1954 18.6227 98.0247 18.1C97.8648 17.5667 97.7848 16.9853 97.7848 16.356ZM103.497 15.54C103.507 14.868 103.337 14.3187 102.985 13.892C102.643 13.4547 102.169 13.236 101.561 13.236C101.219 13.236 100.915 13.3053 100.649 13.444C100.393 13.572 100.174 13.7427 99.9928 13.956C99.8114 14.1693 99.6674 14.4147 99.5608 14.692C99.4648 14.9693 99.4008 15.252 99.3688 15.54H103.497ZM110.258 12.004C110.386 12.004 110.53 12.0147 110.69 12.036C110.861 12.0467 111.026 12.068 111.186 12.1C111.346 12.1213 111.49 12.148 111.618 12.18C111.757 12.2013 111.858 12.2227 111.922 12.244L111.666 13.54C111.549 13.4973 111.352 13.4493 111.074 13.396C110.808 13.332 110.461 13.3 110.034 13.3C109.757 13.3 109.48 13.332 109.202 13.396C108.936 13.4493 108.76 13.4867 108.674 13.508V20.5H107.186V12.532C107.538 12.404 107.976 12.2867 108.498 12.18C109.021 12.0627 109.608 12.004 110.258 12.004ZM114.243 19.636C114.243 19.924 114.147 20.1747 113.955 20.388C113.763 20.6013 113.502 20.708 113.171 20.708C112.84 20.708 112.579 20.6013 112.387 20.388C112.195 20.1747 112.099 19.924 112.099 19.636C112.099 19.348 112.195 19.0973 112.387 18.884C112.579 18.6707 112.84 18.564 113.171 18.564C113.502 18.564 113.763 18.6707 113.955 18.884C114.147 19.0973 114.243 19.348 114.243 19.636ZM117.909 20.5H116.421V12.18H117.909V20.5ZM117.157 10.676C116.89 10.676 116.661 10.5907 116.469 10.42C116.287 10.2387 116.197 9.99867 116.197 9.7C116.197 9.40133 116.287 9.16667 116.469 8.996C116.661 8.81467 116.89 8.724 117.157 8.724C117.423 8.724 117.647 8.81467 117.829 8.996C118.021 9.16667 118.117 9.40133 118.117 9.7C118.117 9.99867 118.021 10.2387 117.829 10.42C117.647 10.5907 117.423 10.676 117.157 10.676ZM127.812 16.34C127.812 17.0013 127.716 17.5987 127.524 18.132C127.332 18.6653 127.06 19.124 126.708 19.508C126.366 19.892 125.956 20.1907 125.476 20.404C124.996 20.6067 124.473 20.708 123.908 20.708C123.342 20.708 122.82 20.6067 122.34 20.404C121.86 20.1907 121.444 19.892 121.092 19.508C120.75 19.124 120.484 18.6653 120.292 18.132C120.1 17.5987 120.004 17.0013 120.004 16.34C120.004 15.6893 120.1 15.0973 120.292 14.564C120.484 14.02 120.75 13.556 121.092 13.172C121.444 12.788 121.86 12.4947 122.34 12.292C122.82 12.0787 123.342 11.972 123.908 11.972C124.473 11.972 124.996 12.0787 125.476 12.292C125.956 12.4947 126.366 12.788 126.708 13.172C127.06 13.556 127.332 14.02 127.524 14.564C127.716 15.0973 127.812 15.6893 127.812 16.34ZM126.26 16.34C126.26 15.4013 126.046 14.66 125.62 14.116C125.204 13.5613 124.633 13.284 123.908 13.284C123.182 13.284 122.606 13.5613 122.18 14.116C121.764 14.66 121.556 15.4013 121.556 16.34C121.556 17.2787 121.764 18.0253 122.18 18.58C122.606 19.124 123.182 19.396 123.908 19.396C124.633 19.396 125.204 19.124 125.62 18.58C126.046 18.0253 126.26 17.2787 126.26 16.34Z" fill="white"/>
<defs>
<clipPath id="clip0_3_1392">
<rect width="30" height="30" fill="white"/>
</clipPath>
</defs>
</svg>
