<svg width="101" height="83" viewBox="0 0 101 83" fill="none" xmlns="http://www.w3.org/2000/svg">
<rect width="100.244" height="82.6669" fill="white"/>
<path d="M2.07851 46.4869C2.10086 46.4199 2.12321 46.3305 2.14556 46.2187C2.16791 46.107 2.22379 45.8611 2.31319 45.4812C2.40258 45.1012 2.51433 44.7548 2.64843 44.4419C2.78253 44.129 2.95015 43.7603 3.1513 43.3356C3.35244 42.911 3.57594 42.5757 3.82178 42.3299C4.06763 42.084 4.35818 41.8382 4.69342 41.5923C5.02866 41.3465 5.39743 41.2459 5.79973 41.2906C7.47595 41.2906 8.54873 42.0058 9.01807 43.4362L9.35331 43.1345C10.739 41.9052 12.0576 41.2906 13.3092 41.2906C14.7619 41.2906 15.9018 41.8158 16.7287 42.8663C17.5556 43.9167 17.9691 45.1906 17.9691 46.6881C17.9691 49.1018 17.1198 51.3256 15.4212 53.3594C13.7227 55.3932 11.8006 56.4213 9.65503 56.4437C9.16334 56.4437 8.72753 56.3766 8.34758 56.2425C8.10174 56.1308 7.84472 55.9631 7.57652 55.7396C7.30832 55.5162 7.096 55.3262 6.93956 55.1697L6.70488 54.9015C6.68253 54.9239 6.43669 55.8961 5.96735 57.8182C5.49801 59.7402 5.26333 60.7124 5.26333 60.7348C5.26333 60.8689 5.35273 60.9471 5.53153 60.9695C5.71033 60.9918 6.12379 61.0253 6.77193 61.07H7.61004C7.74414 61.2265 7.81119 61.3271 7.81119 61.3717C7.81119 61.4164 7.77767 61.6176 7.71062 61.9752C7.64357 62.2434 7.57652 62.411 7.50947 62.4781C7.44242 62.5451 7.29715 62.5898 7.07365 62.6122C7.02895 62.6122 6.90603 62.6122 6.70488 62.6122C6.50374 62.6122 6.12379 62.601 5.56505 62.5786C5.00631 62.5563 4.31348 62.5451 3.48654 62.5451C1.92207 62.5451 0.927509 62.5675 0.502866 62.6122H0.234671C0.0782237 62.4557 0 62.3328 0 62.2434C0.0446992 61.6399 0.189972 61.2488 0.435818 61.07H1.10631C1.86619 61.0477 2.30201 60.9136 2.41376 60.6677C2.48081 60.5336 3.16247 57.8629 4.45875 52.6554C5.75503 47.4479 6.43669 44.6878 6.50374 44.3749C6.52609 44.2631 6.53726 44.1067 6.53726 43.9055C6.53726 42.9892 6.25789 42.531 5.69915 42.531C5.20746 42.531 4.79399 42.8439 4.45875 43.4697C4.1235 44.0955 3.86648 44.7772 3.68769 45.5147C3.50889 46.2522 3.37479 46.6545 3.28539 46.7216C3.24069 46.7663 3.0619 46.7886 2.749 46.7886H2.27966C2.14556 46.6545 2.07851 46.554 2.07851 46.4869ZM7.2748 52.6889C7.76649 54.3875 8.59343 55.2368 9.75561 55.2368C10.4261 55.2368 11.0742 54.9798 11.7 54.4657C12.3258 53.9517 12.8399 53.3035 13.2421 52.5213C13.6444 51.7614 14.0467 50.5545 14.449 48.9007C14.8513 47.2468 15.0636 46.0176 15.086 45.213V45.0118C15.086 43.358 14.4043 42.531 13.041 42.531C12.7952 42.531 12.5493 42.5645 12.3035 42.6316C12.0576 42.6986 11.8118 42.7992 11.5659 42.9333C11.3201 43.0674 11.0966 43.2127 10.8954 43.3691C10.6943 43.5256 10.5043 43.6932 10.3255 43.872C10.1467 44.0508 9.9791 44.2184 9.82266 44.3749C9.66621 44.5313 9.54329 44.6878 9.45389 44.8442C9.36449 45.0007 9.27509 45.1124 9.18569 45.1795L9.08512 45.3135C9.08512 45.3359 9.05159 45.4923 8.98455 45.7829C8.9175 46.0734 8.79457 46.5651 8.61578 47.258C8.43698 47.9508 8.28053 48.5319 8.14643 49.0012C7.56534 51.3703 7.2748 52.5995 7.2748 52.6889Z" fill="black"/>
<path d="M29.3607 44.4754C29.3607 44.1849 29.5171 43.9614 29.83 43.805H51.1851C51.5203 43.9838 51.688 44.2072 51.688 44.4754C51.688 44.7213 51.5315 44.9336 51.2186 45.1124L40.5578 45.1459H29.8971C29.5395 45.0342 29.3607 44.8107 29.3607 44.4754ZM29.3607 50.9792C29.3607 50.6439 29.5395 50.4204 29.8971 50.3087H51.2186C51.5315 50.5322 51.688 50.7557 51.688 50.9792C51.688 51.2697 51.5203 51.4932 51.1851 51.6497H29.83C29.5171 51.4932 29.3607 51.2697 29.3607 50.9792Z" fill="black"/>
<path d="M71.863 33.4124C71.483 33.4124 71.293 33.3006 71.293 33.0771C71.293 33.0324 71.3266 32.876 71.3936 32.6078C71.483 32.2502 71.5724 32.0491 71.6618 32.0044C71.7512 31.9597 72.0082 31.9261 72.4329 31.9038C73.0363 31.9038 73.7068 31.8703 74.4443 31.8032C74.7572 31.7362 74.9696 31.6021 75.0813 31.4009C75.126 31.2892 75.9194 28.149 77.4615 21.9806C79.0037 15.8121 79.7859 12.6831 79.8083 12.5937C79.8083 12.4373 79.7635 12.359 79.6741 12.359C79.4954 12.292 78.9031 12.2361 77.8974 12.1914H76.8581C76.724 12.0573 76.657 11.9679 76.657 11.9232C76.657 11.8785 76.6793 11.6886 76.724 11.3533C76.8134 10.9734 76.9251 10.7387 77.0592 10.6493H95.1289C95.2854 10.7387 95.3636 10.8616 95.3636 11.0181C95.3636 11.1298 95.2183 12.3814 94.9278 14.7728C94.6372 17.1642 94.4808 18.3934 94.4584 18.4605C94.4137 18.6169 94.1902 18.6952 93.7879 18.6952H93.3856C93.2292 18.5834 93.151 18.4381 93.151 18.2593C93.151 18.237 93.1845 17.9688 93.2515 17.4548C93.3186 16.9407 93.3521 16.3485 93.3521 15.678C93.3521 15.0075 93.2739 14.4599 93.1174 14.0353C92.961 13.6106 92.7487 13.2642 92.4805 12.996C92.2123 12.7278 91.7988 12.549 91.2401 12.4596C90.6813 12.3702 90.1114 12.292 89.5303 12.2249C88.9492 12.1579 88.1447 12.1467 87.1166 12.1914H86.3455C84.5128 12.2138 83.5406 12.2473 83.4289 12.292C83.3171 12.3367 83.2389 12.4261 83.1942 12.5602C83.1719 12.5825 82.7919 14.0464 82.0544 16.9519L80.9816 21.2765H82.8254C82.8925 21.2765 83.1495 21.2765 83.5965 21.2765C84.0435 21.2765 84.3564 21.2654 84.5352 21.243C84.714 21.2207 84.9598 21.1871 85.2727 21.1424C85.5856 21.0977 85.8538 21.0195 86.0773 20.9078C86.3008 20.796 86.4908 20.6619 86.6472 20.5055C86.9378 20.2373 87.1836 19.8685 87.3848 19.3992C87.5859 18.9298 87.7312 18.5052 87.8206 18.1252C87.91 17.7453 87.9659 17.5442 87.9882 17.5218C88.0553 17.4101 88.2676 17.3542 88.6252 17.3542H89.0275C89.1839 17.4659 89.2621 17.5777 89.2621 17.6894C89.2621 17.7565 88.9157 19.2204 88.2229 22.0811C87.53 24.9419 87.1501 26.417 87.083 26.5064C87.0383 26.6628 86.8149 26.741 86.4126 26.741H86.0103C85.8538 26.6069 85.7756 26.4728 85.7756 26.3387C85.7756 26.2717 85.8315 26.0258 85.9432 25.6012C86.055 25.1766 86.1108 24.7296 86.1108 24.2602C86.1108 23.6121 85.8873 23.2098 85.4404 23.0533C84.9934 22.8969 83.9988 22.8187 82.4567 22.8187H80.6128L79.5401 27.0763C78.8249 29.8476 78.4673 31.3003 78.4673 31.4344C78.4673 31.7473 79.4618 31.9038 81.4509 31.9038H82.2891C82.4232 32.0379 82.4902 32.1161 82.4902 32.1385C82.4902 32.1608 82.4679 32.3843 82.4232 32.8089C82.3338 33.0995 82.222 33.3118 82.0879 33.4459H81.518C80.6017 33.4012 78.9143 33.3789 76.4558 33.3789C75.0031 33.3789 73.8968 33.3789 73.1369 33.3789C72.377 33.3789 71.9524 33.39 71.863 33.4124Z" fill="black"/>
<path d="M92.5241 2.67049C92.5241 2.49169 92.5799 2.33524 92.6917 2.20115C92.8034 2.06705 92.9711 2 93.1945 2C93.351 2 93.4851 2.05587 93.5968 2.16762C93.7086 2.25702 93.8203 2.46934 93.9321 2.80459C94.1556 3.63152 94.6137 4.26849 95.3066 4.71548C95.5524 4.87193 95.6754 5.07307 95.6754 5.31892C95.6754 5.52006 95.6418 5.65416 95.5748 5.72121C95.5077 5.78826 95.3513 5.88883 95.1054 6.02293C94.1444 6.51462 93.3063 7.21863 92.5911 8.13497C92.5464 8.17967 92.4905 8.24672 92.4235 8.33612C92.3564 8.42551 92.3006 8.49256 92.2559 8.53726C92.2112 8.58196 92.1553 8.60431 92.0882 8.60431C92.0212 8.60431 91.943 8.61549 91.8536 8.63784C91.6971 8.63784 91.5519 8.58196 91.4178 8.47021C91.2837 8.35846 91.2054 8.19084 91.1831 7.96735C91.1831 7.5427 91.7083 6.88339 92.7587 5.98941H87.0261L81.2934 5.95588C81.0028 5.75474 80.8576 5.54241 80.8576 5.31892C80.8576 5.16247 81.0028 4.93897 81.2934 4.64843H93.3286C92.7923 3.79914 92.5241 3.13983 92.5241 2.67049Z" fill="black"/>
<path d="M82.9662 78.3016C84.2849 78.3016 85.4917 77.7205 86.5869 76.5583C87.682 75.3961 88.2408 74.044 88.2631 72.5019C88.2631 71.0938 87.682 70.1216 86.5198 69.5852C84.1508 68.9818 82.631 68.5683 81.9605 68.3448C81.29 68.1213 80.8207 67.8978 80.5525 67.6743C79.2115 66.7356 78.541 65.3835 78.541 63.6179C78.541 62.2546 78.8986 61.0141 79.6138 59.8967C80.329 58.7792 81.0553 57.9411 81.7929 57.3823C82.441 56.8236 83.2233 56.3766 84.1396 56.0414C85.0559 55.7061 85.7711 55.5273 86.2852 55.505H86.8886C89.0342 55.505 90.5875 56.2202 91.5485 57.6505C91.5708 57.6505 91.7161 57.5053 91.9843 57.2147C92.2525 56.9242 92.5431 56.6001 92.8559 56.2425C93.1688 55.8849 93.3923 55.6391 93.5264 55.505C93.5488 55.505 93.5935 55.505 93.6605 55.505C93.7276 55.505 93.7835 55.4938 93.8282 55.4714C94.1187 55.4714 94.264 55.5497 94.264 55.7061C94.264 55.8626 93.9511 57.2147 93.3253 59.7626C92.6995 62.3104 92.3419 63.6291 92.2525 63.7185C92.1631 63.8079 91.9843 63.8414 91.7161 63.819C91.2691 63.819 91.0456 63.7185 91.0456 63.5173C91.0456 63.3832 91.0568 63.2715 91.0792 63.1821C91.0792 63.115 91.0903 62.9027 91.1127 62.5451C91.135 62.1875 91.1574 61.897 91.1797 61.6735C91.1797 60.9136 91.0792 60.2543 90.878 59.6955C90.6769 59.1368 90.4757 58.7233 90.2746 58.4551C90.0734 58.1869 89.794 57.9076 89.4365 57.617C88.6319 57.1477 87.7155 56.913 86.6875 56.913C85.4135 56.913 84.229 57.427 83.1339 58.4551C82.0387 59.4832 81.48 60.6677 81.4576 62.0087C81.4576 62.6792 81.6253 63.2603 81.9605 63.752C82.2958 64.2437 82.7539 64.5901 83.335 64.7912C83.4244 64.8359 84.2066 65.0483 85.6817 65.4282C87.1568 65.8081 87.9055 66.0093 87.9279 66.0316C88.6877 66.2775 89.4253 66.8139 90.1405 67.6408C90.8557 68.4677 91.2132 69.5852 91.2132 70.9933C91.2132 71.5743 91.1239 72.2001 90.9451 72.8706C90.8333 73.3623 90.6322 73.9099 90.3416 74.5133C90.0511 75.1168 89.6488 75.7761 89.1347 76.4913C88.6207 77.2064 87.8832 77.8769 86.9221 78.5027C85.9611 79.1285 84.9107 79.5532 83.7708 79.7766C83.5026 79.8213 83.1227 79.8437 82.631 79.8437C80.4184 79.8437 78.6975 79.2291 77.4682 77.9999L77.133 77.6311L76.1943 78.6703C75.6803 79.2738 75.3674 79.6202 75.2556 79.7096C75.1439 79.799 74.9986 79.8437 74.8198 79.8437C74.5293 79.8437 74.384 79.7543 74.384 79.5755C74.384 79.5085 75.0321 76.8824 76.3284 71.6973C76.3731 71.5632 76.5966 71.4961 76.9989 71.4961H77.4347C77.5688 71.6302 77.6359 71.7531 77.6359 71.8649C77.6359 71.9096 77.6247 72.0102 77.6023 72.1666C77.58 72.3231 77.5353 72.5577 77.4682 72.8706C77.4012 73.1835 77.3788 73.5523 77.4012 73.9769C77.4459 74.8486 77.647 75.5861 78.0046 76.1895C78.3622 76.793 78.8427 77.24 79.4462 77.5305C80.0496 77.8211 80.6307 78.0222 81.1894 78.134C81.7482 78.2457 82.3405 78.3016 82.9662 78.3016Z" fill="black"/>
<path d="M100 48.733H66.9013V46.7216H100V48.733Z" fill="black"/>
<path d="M2.07851 46.4869C2.10086 46.4199 2.12321 46.3305 2.14556 46.2187C2.16791 46.107 2.22379 45.8611 2.31319 45.4812C2.40258 45.1012 2.51433 44.7548 2.64843 44.4419C2.78253 44.129 2.95015 43.7603 3.1513 43.3356C3.35244 42.911 3.57594 42.5757 3.82178 42.3299C4.06763 42.084 4.35818 41.8382 4.69342 41.5923C5.02866 41.3465 5.39743 41.2459 5.79973 41.2906C7.47595 41.2906 8.54873 42.0058 9.01807 43.4362L9.35331 43.1345C10.739 41.9052 12.0576 41.2906 13.3092 41.2906C14.7619 41.2906 15.9018 41.8158 16.7287 42.8663C17.5556 43.9167 17.9691 45.1906 17.9691 46.6881C17.9691 49.1018 17.1198 51.3256 15.4212 53.3594C13.7227 55.3932 11.8006 56.4213 9.65503 56.4437C9.16334 56.4437 8.72753 56.3766 8.34758 56.2425C8.10174 56.1308 7.84472 55.9631 7.57652 55.7396C7.30832 55.5162 7.096 55.3262 6.93956 55.1697L6.70488 54.9015C6.68253 54.9239 6.43669 55.8961 5.96735 57.8182C5.49801 59.7402 5.26333 60.7124 5.26333 60.7348C5.26333 60.8689 5.35273 60.9471 5.53153 60.9695C5.71033 60.9918 6.12379 61.0253 6.77193 61.07H7.61004C7.74414 61.2265 7.81119 61.3271 7.81119 61.3717C7.81119 61.4164 7.77767 61.6176 7.71062 61.9752C7.64357 62.2434 7.57652 62.411 7.50947 62.4781C7.44242 62.5451 7.29715 62.5898 7.07365 62.6122C7.02895 62.6122 6.90603 62.6122 6.70488 62.6122C6.50374 62.6122 6.12379 62.601 5.56505 62.5786C5.00631 62.5563 4.31348 62.5451 3.48654 62.5451C1.92207 62.5451 0.927509 62.5675 0.502866 62.6122H0.234671C0.0782237 62.4557 0 62.3328 0 62.2434C0.0446992 61.6399 0.189972 61.2488 0.435818 61.07H1.10631C1.86619 61.0477 2.30201 60.9136 2.41376 60.6677C2.48081 60.5336 3.16247 57.8629 4.45875 52.6554C5.75503 47.4479 6.43669 44.6878 6.50374 44.3749C6.52609 44.2631 6.53726 44.1067 6.53726 43.9055C6.53726 42.9892 6.25789 42.531 5.69915 42.531C5.20746 42.531 4.79399 42.8439 4.45875 43.4697C4.1235 44.0955 3.86648 44.7772 3.68769 45.5147C3.50889 46.2522 3.37479 46.6545 3.28539 46.7216C3.24069 46.7663 3.0619 46.7886 2.749 46.7886H2.27966C2.14556 46.6545 2.07851 46.554 2.07851 46.4869ZM7.2748 52.6889C7.76649 54.3875 8.59343 55.2368 9.75561 55.2368C10.4261 55.2368 11.0742 54.9798 11.7 54.4657C12.3258 53.9517 12.8399 53.3035 13.2421 52.5213C13.6444 51.7614 14.0467 50.5545 14.449 48.9007C14.8513 47.2468 15.0636 46.0176 15.086 45.213V45.0118C15.086 43.358 14.4043 42.531 13.041 42.531C12.7952 42.531 12.5493 42.5645 12.3035 42.6316C12.0576 42.6986 11.8118 42.7992 11.5659 42.9333C11.3201 43.0674 11.0966 43.2127 10.8954 43.3691C10.6943 43.5256 10.5043 43.6932 10.3255 43.872C10.1467 44.0508 9.9791 44.2184 9.82266 44.3749C9.66621 44.5313 9.54329 44.6878 9.45389 44.8442C9.36449 45.0007 9.27509 45.1124 9.18569 45.1795L9.08512 45.3135C9.08512 45.3359 9.05159 45.4923 8.98455 45.7829C8.9175 46.0734 8.79457 46.5651 8.61578 47.258C8.43698 47.9508 8.28053 48.5319 8.14643 49.0012C7.56534 51.3703 7.2748 52.5995 7.2748 52.6889Z" stroke="black"/>
<path d="M29.3607 44.4754C29.3607 44.1849 29.5171 43.9614 29.83 43.805H51.1851C51.5203 43.9838 51.688 44.2072 51.688 44.4754C51.688 44.7213 51.5315 44.9336 51.2186 45.1124L40.5578 45.1459H29.8971C29.5395 45.0342 29.3607 44.8107 29.3607 44.4754ZM29.3607 50.9792C29.3607 50.6439 29.5395 50.4204 29.8971 50.3087H51.2186C51.5315 50.5322 51.688 50.7557 51.688 50.9792C51.688 51.2697 51.5203 51.4932 51.1851 51.6497H29.83C29.5171 51.4932 29.3607 51.2697 29.3607 50.9792Z" stroke="black"/>
<path d="M71.863 33.4124C71.483 33.4124 71.293 33.3006 71.293 33.0771C71.293 33.0324 71.3266 32.876 71.3936 32.6078C71.483 32.2502 71.5724 32.0491 71.6618 32.0044C71.7512 31.9597 72.0082 31.9261 72.4329 31.9038C73.0363 31.9038 73.7068 31.8703 74.4443 31.8032C74.7572 31.7362 74.9696 31.6021 75.0813 31.4009C75.126 31.2892 75.9194 28.149 77.4615 21.9806C79.0037 15.8121 79.7859 12.6831 79.8083 12.5937C79.8083 12.4373 79.7635 12.359 79.6741 12.359C79.4954 12.292 78.9031 12.2361 77.8974 12.1914H76.8581C76.724 12.0573 76.657 11.9679 76.657 11.9232C76.657 11.8785 76.6793 11.6886 76.724 11.3533C76.8134 10.9734 76.9251 10.7387 77.0592 10.6493H95.1289C95.2854 10.7387 95.3636 10.8616 95.3636 11.0181C95.3636 11.1298 95.2183 12.3814 94.9278 14.7728C94.6372 17.1642 94.4808 18.3934 94.4584 18.4605C94.4137 18.6169 94.1902 18.6952 93.7879 18.6952H93.3856C93.2292 18.5834 93.151 18.4381 93.151 18.2593C93.151 18.237 93.1845 17.9688 93.2515 17.4548C93.3186 16.9407 93.3521 16.3485 93.3521 15.678C93.3521 15.0075 93.2739 14.4599 93.1174 14.0353C92.961 13.6106 92.7487 13.2642 92.4805 12.996C92.2123 12.7278 91.7988 12.549 91.2401 12.4596C90.6813 12.3702 90.1114 12.292 89.5303 12.2249C88.9492 12.1579 88.1447 12.1467 87.1166 12.1914H86.3455C84.5128 12.2138 83.5406 12.2473 83.4289 12.292C83.3171 12.3367 83.2389 12.4261 83.1942 12.5602C83.1719 12.5825 82.7919 14.0464 82.0544 16.9519L80.9816 21.2765H82.8254C82.8925 21.2765 83.1495 21.2765 83.5965 21.2765C84.0435 21.2765 84.3564 21.2654 84.5352 21.243C84.714 21.2207 84.9598 21.1871 85.2727 21.1424C85.5856 21.0977 85.8538 21.0195 86.0773 20.9078C86.3008 20.796 86.4908 20.6619 86.6472 20.5055C86.9378 20.2373 87.1836 19.8685 87.3848 19.3992C87.5859 18.9298 87.7312 18.5052 87.8206 18.1252C87.91 17.7453 87.9659 17.5442 87.9882 17.5218C88.0553 17.4101 88.2676 17.3542 88.6252 17.3542H89.0275C89.1839 17.4659 89.2621 17.5777 89.2621 17.6894C89.2621 17.7565 88.9157 19.2204 88.2229 22.0811C87.53 24.9419 87.1501 26.417 87.083 26.5064C87.0383 26.6628 86.8149 26.741 86.4126 26.741H86.0103C85.8538 26.6069 85.7756 26.4728 85.7756 26.3387C85.7756 26.2717 85.8315 26.0258 85.9432 25.6012C86.055 25.1766 86.1108 24.7296 86.1108 24.2602C86.1108 23.6121 85.8873 23.2098 85.4404 23.0533C84.9934 22.8969 83.9988 22.8187 82.4567 22.8187H80.6128L79.5401 27.0763C78.8249 29.8476 78.4673 31.3003 78.4673 31.4344C78.4673 31.7473 79.4618 31.9038 81.4509 31.9038H82.2891C82.4232 32.0379 82.4902 32.1161 82.4902 32.1385C82.4902 32.1608 82.4679 32.3843 82.4232 32.8089C82.3338 33.0995 82.222 33.3118 82.0879 33.4459H81.518C80.6017 33.4012 78.9143 33.3789 76.4558 33.3789C75.0031 33.3789 73.8968 33.3789 73.1369 33.3789C72.377 33.3789 71.9524 33.39 71.863 33.4124Z" stroke="black"/>
<path d="M92.5241 2.67049C92.5241 2.49169 92.5799 2.33524 92.6917 2.20115C92.8034 2.06705 92.9711 2 93.1945 2C93.351 2 93.4851 2.05587 93.5968 2.16762C93.7086 2.25702 93.8203 2.46934 93.9321 2.80459C94.1556 3.63152 94.6137 4.26849 95.3066 4.71548C95.5524 4.87193 95.6754 5.07307 95.6754 5.31892C95.6754 5.52006 95.6418 5.65416 95.5748 5.72121C95.5077 5.78826 95.3513 5.88883 95.1054 6.02293C94.1444 6.51462 93.3063 7.21863 92.5911 8.13497C92.5464 8.17967 92.4905 8.24672 92.4235 8.33612C92.3564 8.42551 92.3006 8.49256 92.2559 8.53726C92.2112 8.58196 92.1553 8.60431 92.0882 8.60431C92.0212 8.60431 91.943 8.61549 91.8536 8.63784C91.6971 8.63784 91.5519 8.58196 91.4178 8.47021C91.2837 8.35846 91.2054 8.19084 91.1831 7.96735C91.1831 7.5427 91.7083 6.88339 92.7587 5.98941H87.0261L81.2934 5.95588C81.0028 5.75474 80.8576 5.54241 80.8576 5.31892C80.8576 5.16247 81.0028 4.93897 81.2934 4.64843H93.3286C92.7923 3.79914 92.5241 3.13983 92.5241 2.67049Z" stroke="black"/>
<path d="M82.9662 78.3016C84.2849 78.3016 85.4917 77.7205 86.5869 76.5583C87.682 75.3961 88.2408 74.044 88.2631 72.5019C88.2631 71.0938 87.682 70.1216 86.5198 69.5852C84.1508 68.9818 82.631 68.5683 81.9605 68.3448C81.29 68.1213 80.8207 67.8978 80.5525 67.6743C79.2115 66.7356 78.541 65.3835 78.541 63.6179C78.541 62.2546 78.8986 61.0141 79.6138 59.8967C80.329 58.7792 81.0553 57.9411 81.7929 57.3823C82.441 56.8236 83.2233 56.3766 84.1396 56.0414C85.0559 55.7061 85.7711 55.5273 86.2852 55.505H86.8886C89.0342 55.505 90.5875 56.2202 91.5485 57.6505C91.5708 57.6505 91.7161 57.5053 91.9843 57.2147C92.2525 56.9242 92.5431 56.6001 92.8559 56.2425C93.1688 55.8849 93.3923 55.6391 93.5264 55.505C93.5488 55.505 93.5935 55.505 93.6605 55.505C93.7276 55.505 93.7835 55.4938 93.8282 55.4714C94.1187 55.4714 94.264 55.5497 94.264 55.7061C94.264 55.8626 93.9511 57.2147 93.3253 59.7626C92.6995 62.3104 92.3419 63.6291 92.2525 63.7185C92.1631 63.8079 91.9843 63.8414 91.7161 63.819C91.2691 63.819 91.0456 63.7185 91.0456 63.5173C91.0456 63.3832 91.0568 63.2715 91.0792 63.1821C91.0792 63.115 91.0903 62.9027 91.1127 62.5451C91.135 62.1875 91.1574 61.897 91.1797 61.6735C91.1797 60.9136 91.0792 60.2543 90.878 59.6955C90.6769 59.1368 90.4757 58.7233 90.2746 58.4551C90.0734 58.1869 89.794 57.9076 89.4365 57.617C88.6319 57.1477 87.7155 56.913 86.6875 56.913C85.4135 56.913 84.229 57.427 83.1339 58.4551C82.0387 59.4832 81.48 60.6677 81.4576 62.0087C81.4576 62.6792 81.6253 63.2603 81.9605 63.752C82.2958 64.2437 82.7539 64.5901 83.335 64.7912C83.4244 64.8359 84.2066 65.0483 85.6817 65.4282C87.1568 65.8081 87.9055 66.0093 87.9279 66.0316C88.6877 66.2775 89.4253 66.8139 90.1405 67.6408C90.8557 68.4677 91.2132 69.5852 91.2132 70.9933C91.2132 71.5743 91.1239 72.2001 90.9451 72.8706C90.8333 73.3623 90.6322 73.9099 90.3416 74.5133C90.0511 75.1168 89.6488 75.7761 89.1347 76.4913C88.6207 77.2064 87.8832 77.8769 86.9221 78.5027C85.9611 79.1285 84.9107 79.5532 83.7708 79.7766C83.5026 79.8213 83.1227 79.8437 82.631 79.8437C80.4184 79.8437 78.6975 79.2291 77.4682 77.9999L77.133 77.6311L76.1943 78.6703C75.6803 79.2738 75.3674 79.6202 75.2556 79.7096C75.1439 79.799 74.9986 79.8437 74.8198 79.8437C74.5293 79.8437 74.384 79.7543 74.384 79.5755C74.384 79.5085 75.0321 76.8824 76.3284 71.6973C76.3731 71.5632 76.5966 71.4961 76.9989 71.4961H77.4347C77.5688 71.6302 77.6359 71.7531 77.6359 71.8649C77.6359 71.9096 77.6247 72.0102 77.6023 72.1666C77.58 72.3231 77.5353 72.5577 77.4682 72.8706C77.4012 73.1835 77.3788 73.5523 77.4012 73.9769C77.4459 74.8486 77.647 75.5861 78.0046 76.1895C78.3622 76.793 78.8427 77.24 79.4462 77.5305C80.0496 77.8211 80.6307 78.0222 81.1894 78.134C81.7482 78.2457 82.3405 78.3016 82.9662 78.3016Z" stroke="black"/>
<path d="M100 48.733H66.9013V46.7216H100V48.733Z" stroke="black"/>
</svg>
