<svg width="101" height="83" viewBox="0 0 101 83" fill="none" xmlns="http://www.w3.org/2000/svg">
<rect width="100.244" height="82.6669" fill="white"/>
<path d="M5.37901 44.5538C5.37901 43.964 5.15488 43.6691 4.70663 43.6691C4.14042 43.6691 3.55062 44.0111 2.93722 44.6953C2.32383 45.3795 1.8166 46.4293 1.41553 47.8449C1.39194 47.8685 1.36834 47.9039 1.34475 47.951C1.32116 47.9982 1.30936 48.0336 1.30936 48.0572C1.30936 48.0808 1.28577 48.1044 1.23859 48.128C1.1914 48.1516 1.15602 48.1634 1.13242 48.1634C1.10883 48.1634 1.06165 48.1634 0.99087 48.1634C0.920094 48.1634 0.825725 48.1634 0.707764 48.1634H0.212329C0.0707764 48.0218 0 47.9156 0 47.8449C0 47.6797 0.0943686 47.3376 0.283106 46.8186C0.471843 46.2996 0.754949 45.6862 1.13242 44.9784C1.5099 44.2707 2.02892 43.6691 2.6895 43.1736C3.35008 42.6782 4.09324 42.4187 4.91896 42.3951C5.90983 42.3951 6.67658 42.6782 7.2192 43.2444C7.76182 43.8106 8.04492 44.4712 8.06851 45.2261C8.06851 45.6272 8.03313 45.9339 7.96235 46.1462C7.96235 46.2878 7.78541 46.8068 7.43153 47.7033C7.07764 48.5998 6.71197 49.6497 6.33449 50.8529C5.95702 52.0561 5.74469 53.1059 5.6975 54.0024C5.6975 54.6394 5.75648 55.1584 5.87444 55.5595C6.18114 56.574 6.92429 57.0812 8.1039 57.0812C8.97681 57.0812 9.79074 56.6801 10.5457 55.878C11.3006 55.0759 11.8904 54.144 12.3151 53.0823C12.7398 52.0207 13.0818 51.0416 13.3414 50.1451C13.6009 49.2486 13.7306 48.5998 13.7306 48.1988C13.7306 47.6561 13.6363 47.1843 13.4475 46.7832C13.2588 46.3822 13.0465 46.0755 12.8105 45.8631C12.5746 45.6508 12.3623 45.4385 12.1735 45.2261C11.9848 45.0138 11.8904 44.7543 11.8904 44.4476C11.8904 43.9286 12.1146 43.4449 12.5628 42.9967C13.0111 42.5484 13.4947 42.3243 14.0137 42.3243C14.462 42.3243 14.8631 42.5366 15.2169 42.9613C15.5708 43.386 15.7596 44.0701 15.7831 45.0138C15.7831 45.6508 15.6416 46.6299 15.3585 47.951C15.0754 49.2722 14.6389 50.7467 14.0491 52.3746C13.4593 54.0024 12.6218 55.4062 11.5366 56.5858C10.4513 57.7654 9.20094 58.367 7.78541 58.3906C6.27551 58.3906 5.07231 58.0013 4.17581 57.2227C3.3029 56.4678 2.86645 55.3472 2.86645 53.8609C2.86645 53.1295 2.96081 52.3746 3.14955 51.596C3.33829 50.8175 3.82193 49.4373 4.60047 47.4556C5.1195 45.9457 5.37901 44.9784 5.37901 44.5538Z" fill="black"/>
<path d="M13.3166 33.9019C13.3166 33.7132 13.3756 33.548 13.4935 33.4065C13.6115 33.2649 13.7884 33.1941 14.0243 33.1941C14.1895 33.1941 14.331 33.2531 14.449 33.3711C14.567 33.4654 14.6849 33.6896 14.8029 34.0435C15.0388 34.9164 15.5224 35.5887 16.2538 36.0606C16.5133 36.2257 16.6431 36.4381 16.6431 36.6976C16.6431 36.9099 16.6077 37.0514 16.5369 37.1222C16.4661 37.193 16.301 37.2992 16.0415 37.4407C15.027 37.9597 14.1423 38.7029 13.3874 39.6702C13.3402 39.7174 13.2812 39.7881 13.2104 39.8825C13.1396 39.9769 13.0807 40.0477 13.0335 40.0948C12.9863 40.142 12.9273 40.1656 12.8565 40.1656C12.7858 40.1656 12.7032 40.1774 12.6088 40.201C12.4437 40.201 12.2903 40.142 12.1488 40.0241C12.0072 39.9061 11.9246 39.7292 11.9011 39.4932C11.9011 39.045 12.4555 38.349 13.5643 37.4053H7.51292L1.46153 37.3699C1.15483 37.1576 1.00148 36.9335 1.00148 36.6976C1.00148 36.5324 1.15483 36.2965 1.46153 35.9898H14.1659C13.5997 35.0933 13.3166 34.3973 13.3166 33.9019Z" fill="black"/>
<path d="M29.4819 45.7216C29.4819 45.4149 29.6471 45.179 29.9774 45.0138H52.5197C52.8735 45.2026 53.0505 45.4385 53.0505 45.7216C53.0505 45.9811 52.8853 46.2052 52.555 46.394L41.3016 46.4293H30.0481C29.6707 46.3114 29.4819 46.0755 29.4819 45.7216ZM29.4819 52.5869C29.4819 52.233 29.6707 51.9971 30.0481 51.8791H52.555C52.8853 52.1151 53.0505 52.351 53.0505 52.5869C53.0505 52.8936 52.8735 53.1295 52.5197 53.2947H29.9774C29.6471 53.1295 29.4819 52.8936 29.4819 52.5869Z" fill="black"/>
<path d="M83.548 33.2295C84.94 33.2295 86.214 32.6161 87.37 31.3894C88.526 30.1626 89.1158 28.7352 89.1394 27.1074C89.1394 25.6211 88.526 24.5948 87.2992 24.0286C84.7984 23.3916 83.1942 22.9552 82.4864 22.7192C81.7786 22.4833 81.2832 22.2474 81.0001 22.0115C79.5846 21.0206 78.8768 19.5933 78.8768 17.7295C78.8768 16.2904 79.2543 14.981 80.0092 13.8014C80.7642 12.6218 81.5309 11.7371 82.3095 11.1473C82.9936 10.5575 83.8194 10.0856 84.7866 9.73176C85.7539 9.37788 86.5089 9.18914 87.0515 9.16555H87.6885C89.9533 9.16555 91.593 9.9205 92.6074 11.4304C92.631 11.4304 92.7844 11.277 93.0675 10.9704C93.3506 10.6637 93.6573 10.3216 93.9876 9.94409C94.3179 9.56662 94.5538 9.3071 94.6953 9.16555C94.7189 9.16555 94.7661 9.16555 94.8369 9.16555C94.9077 9.16555 94.9666 9.15375 95.0138 9.13016C95.3205 9.13016 95.4739 9.21274 95.4739 9.37788C95.4739 9.54303 95.1436 10.9704 94.483 13.6599C93.8224 16.3494 93.445 17.7413 93.3506 17.8357C93.2562 17.93 93.0675 17.9654 92.7844 17.9418C92.3125 17.9418 92.0766 17.8357 92.0766 17.6233C92.0766 17.4818 92.0884 17.3638 92.112 17.2695C92.112 17.1987 92.1238 16.9746 92.1474 16.5971C92.171 16.2196 92.1946 15.9129 92.2182 15.677C92.2182 14.8749 92.112 14.1789 91.8997 13.5891C91.6873 12.9993 91.475 12.5628 91.2627 12.2797C91.0503 11.9966 90.7554 11.7017 90.378 11.395C89.5287 10.8996 88.5614 10.6519 87.4761 10.6519C86.1314 10.6519 84.881 11.1945 83.725 12.2797C82.569 13.365 81.9792 14.6153 81.9556 16.0309C81.9556 16.7386 82.1325 17.352 82.4864 17.8711C82.8403 18.3901 83.3239 18.7558 83.9373 18.9681C84.0317 19.0153 84.8574 19.2394 86.4145 19.6405C87.9716 20.0415 88.7619 20.2539 88.7855 20.2775C89.5876 20.537 90.3662 21.1032 91.1211 21.9761C91.8761 22.849 92.2535 24.0286 92.2535 25.5149C92.2535 26.1283 92.1592 26.7889 91.9704 27.4966C91.8525 28.0157 91.6402 28.5937 91.3335 29.2307C91.0268 29.8677 90.6021 30.5636 90.0595 31.3186C89.5169 32.0735 88.7383 32.7813 87.7239 33.4419C86.7094 34.1025 85.6006 34.5507 84.3974 34.7866C84.1143 34.8338 83.7132 34.8574 83.1942 34.8574C80.8585 34.8574 79.0419 34.2086 77.7444 32.911L77.3905 32.5218L76.3996 33.6188C75.857 34.2558 75.5267 34.6215 75.4088 34.7158C75.2908 34.8102 75.1374 34.8574 74.9487 34.8574C74.642 34.8574 74.4887 34.763 74.4887 34.5743C74.4887 34.5035 75.1728 31.7314 76.5412 26.2581C76.5884 26.1165 76.8243 26.0457 77.2489 26.0457H77.709C77.8505 26.1873 77.9213 26.317 77.9213 26.435C77.9213 26.4822 77.9095 26.5884 77.8859 26.7535C77.8623 26.9186 77.8151 27.1664 77.7444 27.4966C77.6736 27.8269 77.65 28.2162 77.6736 28.6645C77.7208 29.5846 77.9331 30.3631 78.3106 31.0001C78.6881 31.6371 79.1953 32.1089 79.8323 32.4156C80.4693 32.7223 81.0827 32.9346 81.6725 33.0526C82.2623 33.1706 82.8875 33.2295 83.548 33.2295Z" fill="black"/>
<path d="M92.3526 0.707764C92.3526 0.519027 92.4116 0.353882 92.5296 0.212329C92.6475 0.0707764 92.8245 0 93.0604 0C93.2255 0 93.3671 0.0589804 93.485 0.176941C93.603 0.27131 93.721 0.495435 93.8389 0.849317C94.0749 1.72223 94.5585 2.3946 95.2898 2.86645C95.5494 3.03159 95.6791 3.24392 95.6791 3.50343C95.6791 3.71576 95.6437 3.85732 95.573 3.92809C95.5022 3.99887 95.337 4.10503 95.0775 4.24659C94.0631 4.76561 93.1784 5.50877 92.4234 6.47604C92.3762 6.52323 92.3172 6.594 92.2465 6.68837C92.1757 6.78274 92.1167 6.85352 92.0695 6.9007C92.0223 6.94789 91.9634 6.97148 91.8926 6.97148C91.8218 6.97148 91.7392 6.98328 91.6449 7.00687C91.4797 7.00687 91.3264 6.94789 91.1848 6.82993C91.0433 6.71197 90.9607 6.53502 90.9371 6.2991C90.9371 5.85085 91.4915 5.15488 92.6003 4.2112H86.549L80.4976 4.17581C80.1909 3.96348 80.0375 3.73936 80.0375 3.50343C80.0375 3.33829 80.1909 3.10237 80.4976 2.79567H93.2019C92.6357 1.89917 92.3526 1.2032 92.3526 0.707764Z" fill="black"/>
<path d="M79.2095 68.6531C79.0443 68.488 78.9617 68.37 78.9617 68.2993C78.9617 68.2049 78.9971 68.0161 79.0679 67.733C79.1387 67.4499 79.1977 67.2848 79.2448 67.2376C79.292 67.1197 79.3982 67.0607 79.5633 67.0607C79.7285 67.0607 80.3301 67.0489 81.3681 67.0253H83.2437L83.9161 64.1942C83.9869 63.9347 84.0694 63.5926 84.1638 63.168C84.2582 62.7433 84.3407 62.4366 84.4115 62.2479C84.4823 62.0591 84.5531 61.8232 84.6239 61.5401C84.6946 61.257 84.789 61.0565 84.907 60.9385C85.0249 60.8205 85.1429 60.679 85.2608 60.5138C85.3788 60.3487 85.5439 60.2425 85.7563 60.1954C85.9686 60.1482 86.1809 60.1246 86.3933 60.1246C86.8179 60.1482 87.1128 60.2779 87.278 60.5138C87.4431 60.7498 87.5257 60.9739 87.5257 61.1862C87.5257 61.3514 87.4195 61.9058 87.2072 62.8495C86.9949 63.7932 86.7589 64.725 86.4994 65.6451L86.1455 66.9545C86.1455 67.0017 86.7353 67.0253 87.915 67.0253H89.7198C89.8849 67.1904 89.9675 67.3202 89.9675 67.4146C89.9675 67.9336 89.8141 68.3464 89.5074 68.6531H85.7209L84.4469 73.7844C83.5268 77.5592 83.0668 79.5881 83.0668 79.8712C83.0668 80.8621 83.3853 81.3575 84.0223 81.3575C84.848 81.3575 85.6501 80.9564 86.4286 80.1543C87.2072 79.3522 87.8324 78.3613 88.3042 77.1817C88.3514 77.0401 88.4104 76.9576 88.4812 76.934C88.5519 76.9104 88.7289 76.8868 89.012 76.8632H89.1535C89.5074 76.8632 89.6844 76.9576 89.6844 77.1463C89.6844 77.2171 89.649 77.3586 89.5782 77.571C89.4602 77.9484 89.2479 78.3967 88.9412 78.9157C88.6345 79.4348 88.2334 79.9892 87.738 80.579C87.2426 81.1688 86.641 81.6642 85.9332 82.0653C85.2255 82.4663 84.5059 82.6669 83.7745 82.6669C83.0668 82.6669 82.3944 82.4899 81.7574 82.1361C81.1204 81.7822 80.6604 81.1688 80.3773 80.2959C80.3301 80.1071 80.3065 79.7886 80.3065 79.3404V78.7034L81.5451 73.749C82.3708 70.4226 82.7955 68.7475 82.8191 68.7239C82.8191 68.6767 82.2174 68.6531 81.0143 68.6531H79.2095Z" fill="black"/>
<path d="M100.244 50.2159H69.1097V48.0926H100.244V50.2159Z" fill="black"/>
<path d="M5.37901 44.5538C5.37901 43.964 5.15488 43.6691 4.70663 43.6691C4.14042 43.6691 3.55062 44.0111 2.93722 44.6953C2.32383 45.3795 1.8166 46.4293 1.41553 47.8449C1.39194 47.8685 1.36834 47.9039 1.34475 47.951C1.32116 47.9982 1.30936 48.0336 1.30936 48.0572C1.30936 48.0808 1.28577 48.1044 1.23859 48.128C1.1914 48.1516 1.15602 48.1634 1.13242 48.1634C1.10883 48.1634 1.06165 48.1634 0.99087 48.1634C0.920094 48.1634 0.825725 48.1634 0.707764 48.1634H0.212329C0.0707764 48.0218 0 47.9156 0 47.8449C0 47.6797 0.0943686 47.3376 0.283106 46.8186C0.471843 46.2996 0.754949 45.6862 1.13242 44.9784C1.5099 44.2707 2.02892 43.6691 2.6895 43.1736C3.35008 42.6782 4.09324 42.4187 4.91896 42.3951C5.90983 42.3951 6.67658 42.6782 7.2192 43.2444C7.76182 43.8106 8.04492 44.4712 8.06851 45.2261C8.06851 45.6272 8.03313 45.9339 7.96235 46.1462C7.96235 46.2878 7.78541 46.8068 7.43153 47.7033C7.07764 48.5998 6.71197 49.6497 6.33449 50.8529C5.95702 52.0561 5.74469 53.1059 5.6975 54.0024C5.6975 54.6394 5.75648 55.1584 5.87444 55.5595C6.18114 56.574 6.92429 57.0812 8.1039 57.0812C8.97681 57.0812 9.79074 56.6801 10.5457 55.878C11.3006 55.0759 11.8904 54.144 12.3151 53.0823C12.7398 52.0207 13.0818 51.0416 13.3414 50.1451C13.6009 49.2486 13.7306 48.5998 13.7306 48.1988C13.7306 47.6561 13.6363 47.1843 13.4475 46.7832C13.2588 46.3822 13.0465 46.0755 12.8105 45.8631C12.5746 45.6508 12.3623 45.4385 12.1735 45.2261C11.9848 45.0138 11.8904 44.7543 11.8904 44.4476C11.8904 43.9286 12.1146 43.4449 12.5628 42.9967C13.0111 42.5484 13.4947 42.3243 14.0137 42.3243C14.462 42.3243 14.8631 42.5366 15.2169 42.9613C15.5708 43.386 15.7596 44.0701 15.7831 45.0138C15.7831 45.6508 15.6416 46.6299 15.3585 47.951C15.0754 49.2722 14.6389 50.7467 14.0491 52.3746C13.4593 54.0024 12.6218 55.4062 11.5366 56.5858C10.4513 57.7654 9.20094 58.367 7.78541 58.3906C6.27551 58.3906 5.07231 58.0013 4.17581 57.2227C3.3029 56.4678 2.86645 55.3472 2.86645 53.8609C2.86645 53.1295 2.96081 52.3746 3.14955 51.596C3.33829 50.8175 3.82193 49.4373 4.60047 47.4556C5.1195 45.9457 5.37901 44.9784 5.37901 44.5538Z" stroke="black"/>
<path d="M13.3166 33.9019C13.3166 33.7132 13.3756 33.548 13.4935 33.4065C13.6115 33.2649 13.7884 33.1941 14.0243 33.1941C14.1895 33.1941 14.331 33.2531 14.449 33.3711C14.567 33.4654 14.6849 33.6896 14.8029 34.0435C15.0388 34.9164 15.5224 35.5887 16.2538 36.0606C16.5133 36.2257 16.6431 36.4381 16.6431 36.6976C16.6431 36.9099 16.6077 37.0514 16.5369 37.1222C16.4661 37.193 16.301 37.2992 16.0415 37.4407C15.027 37.9597 14.1423 38.7029 13.3874 39.6702C13.3402 39.7174 13.2812 39.7881 13.2104 39.8825C13.1396 39.9769 13.0807 40.0477 13.0335 40.0948C12.9863 40.142 12.9273 40.1656 12.8565 40.1656C12.7858 40.1656 12.7032 40.1774 12.6088 40.201C12.4437 40.201 12.2903 40.142 12.1488 40.0241C12.0072 39.9061 11.9246 39.7292 11.9011 39.4932C11.9011 39.045 12.4555 38.349 13.5643 37.4053H7.51292L1.46153 37.3699C1.15483 37.1576 1.00148 36.9335 1.00148 36.6976C1.00148 36.5324 1.15483 36.2965 1.46153 35.9898H14.1659C13.5997 35.0933 13.3166 34.3973 13.3166 33.9019Z" stroke="black"/>
<path d="M29.4819 45.7216C29.4819 45.4149 29.6471 45.179 29.9774 45.0138H52.5197C52.8735 45.2026 53.0505 45.4385 53.0505 45.7216C53.0505 45.9811 52.8853 46.2052 52.555 46.394L41.3016 46.4293H30.0481C29.6707 46.3114 29.4819 46.0755 29.4819 45.7216ZM29.4819 52.5869C29.4819 52.233 29.6707 51.9971 30.0481 51.8791H52.555C52.8853 52.1151 53.0505 52.351 53.0505 52.5869C53.0505 52.8936 52.8735 53.1295 52.5197 53.2947H29.9774C29.6471 53.1295 29.4819 52.8936 29.4819 52.5869Z" stroke="black"/>
<path d="M83.548 33.2295C84.94 33.2295 86.214 32.6161 87.37 31.3894C88.526 30.1626 89.1158 28.7352 89.1394 27.1074C89.1394 25.6211 88.526 24.5948 87.2992 24.0286C84.7984 23.3916 83.1942 22.9552 82.4864 22.7192C81.7786 22.4833 81.2832 22.2474 81.0001 22.0115C79.5846 21.0206 78.8768 19.5933 78.8768 17.7295C78.8768 16.2904 79.2543 14.981 80.0092 13.8014C80.7642 12.6218 81.5309 11.7371 82.3095 11.1473C82.9936 10.5575 83.8194 10.0856 84.7866 9.73176C85.7539 9.37788 86.5089 9.18914 87.0515 9.16555H87.6885C89.9533 9.16555 91.593 9.9205 92.6074 11.4304C92.631 11.4304 92.7844 11.277 93.0675 10.9704C93.3506 10.6637 93.6573 10.3216 93.9876 9.94409C94.3179 9.56662 94.5538 9.3071 94.6953 9.16555C94.7189 9.16555 94.7661 9.16555 94.8369 9.16555C94.9077 9.16555 94.9666 9.15375 95.0138 9.13016C95.3205 9.13016 95.4739 9.21274 95.4739 9.37788C95.4739 9.54303 95.1436 10.9704 94.483 13.6599C93.8224 16.3494 93.445 17.7413 93.3506 17.8357C93.2562 17.93 93.0675 17.9654 92.7844 17.9418C92.3125 17.9418 92.0766 17.8357 92.0766 17.6233C92.0766 17.4818 92.0884 17.3638 92.112 17.2695C92.112 17.1987 92.1238 16.9746 92.1474 16.5971C92.171 16.2196 92.1946 15.9129 92.2182 15.677C92.2182 14.8749 92.112 14.1789 91.8997 13.5891C91.6873 12.9993 91.475 12.5628 91.2627 12.2797C91.0503 11.9966 90.7554 11.7017 90.378 11.395C89.5287 10.8996 88.5614 10.6519 87.4761 10.6519C86.1314 10.6519 84.881 11.1945 83.725 12.2797C82.569 13.365 81.9792 14.6153 81.9556 16.0309C81.9556 16.7386 82.1325 17.352 82.4864 17.8711C82.8403 18.3901 83.3239 18.7558 83.9373 18.9681C84.0317 19.0153 84.8574 19.2394 86.4145 19.6405C87.9716 20.0415 88.7619 20.2539 88.7855 20.2775C89.5876 20.537 90.3662 21.1032 91.1211 21.9761C91.8761 22.849 92.2535 24.0286 92.2535 25.5149C92.2535 26.1283 92.1592 26.7889 91.9704 27.4966C91.8525 28.0157 91.6402 28.5937 91.3335 29.2307C91.0268 29.8677 90.6021 30.5636 90.0595 31.3186C89.5169 32.0735 88.7383 32.7813 87.7239 33.4419C86.7094 34.1025 85.6006 34.5507 84.3974 34.7866C84.1143 34.8338 83.7132 34.8574 83.1942 34.8574C80.8585 34.8574 79.0419 34.2086 77.7444 32.911L77.3905 32.5218L76.3996 33.6188C75.857 34.2558 75.5267 34.6215 75.4088 34.7158C75.2908 34.8102 75.1374 34.8574 74.9487 34.8574C74.642 34.8574 74.4887 34.763 74.4887 34.5743C74.4887 34.5035 75.1728 31.7314 76.5412 26.2581C76.5884 26.1165 76.8243 26.0457 77.2489 26.0457H77.709C77.8505 26.1873 77.9213 26.317 77.9213 26.435C77.9213 26.4822 77.9095 26.5884 77.8859 26.7535C77.8623 26.9186 77.8151 27.1664 77.7444 27.4966C77.6736 27.8269 77.65 28.2162 77.6736 28.6645C77.7208 29.5846 77.9331 30.3631 78.3106 31.0001C78.6881 31.6371 79.1953 32.1089 79.8323 32.4156C80.4693 32.7223 81.0827 32.9346 81.6725 33.0526C82.2623 33.1706 82.8875 33.2295 83.548 33.2295Z" stroke="black"/>
<path d="M92.3526 0.707764C92.3526 0.519027 92.4116 0.353882 92.5296 0.212329C92.6475 0.0707764 92.8245 0 93.0604 0C93.2255 0 93.3671 0.0589804 93.485 0.176941C93.603 0.27131 93.721 0.495435 93.8389 0.849317C94.0749 1.72223 94.5585 2.3946 95.2898 2.86645C95.5494 3.03159 95.6791 3.24392 95.6791 3.50343C95.6791 3.71576 95.6437 3.85732 95.573 3.92809C95.5022 3.99887 95.337 4.10503 95.0775 4.24659C94.0631 4.76561 93.1784 5.50877 92.4234 6.47604C92.3762 6.52323 92.3172 6.594 92.2465 6.68837C92.1757 6.78274 92.1167 6.85352 92.0695 6.9007C92.0223 6.94789 91.9634 6.97148 91.8926 6.97148C91.8218 6.97148 91.7392 6.98328 91.6449 7.00687C91.4797 7.00687 91.3264 6.94789 91.1848 6.82993C91.0433 6.71197 90.9607 6.53502 90.9371 6.2991C90.9371 5.85085 91.4915 5.15488 92.6003 4.2112H86.549L80.4976 4.17581C80.1909 3.96348 80.0375 3.73936 80.0375 3.50343C80.0375 3.33829 80.1909 3.10237 80.4976 2.79567H93.2019C92.6357 1.89917 92.3526 1.2032 92.3526 0.707764Z" stroke="black"/>
<path d="M79.2095 68.6531C79.0443 68.488 78.9617 68.37 78.9617 68.2993C78.9617 68.2049 78.9971 68.0161 79.0679 67.733C79.1387 67.4499 79.1977 67.2848 79.2448 67.2376C79.292 67.1197 79.3982 67.0607 79.5633 67.0607C79.7285 67.0607 80.3301 67.0489 81.3681 67.0253H83.2437L83.9161 64.1942C83.9869 63.9347 84.0694 63.5926 84.1638 63.168C84.2582 62.7433 84.3407 62.4366 84.4115 62.2479C84.4823 62.0591 84.5531 61.8232 84.6239 61.5401C84.6946 61.257 84.789 61.0565 84.907 60.9385C85.0249 60.8205 85.1429 60.679 85.2608 60.5138C85.3788 60.3487 85.5439 60.2425 85.7563 60.1954C85.9686 60.1482 86.1809 60.1246 86.3933 60.1246C86.8179 60.1482 87.1128 60.2779 87.278 60.5138C87.4431 60.7498 87.5257 60.9739 87.5257 61.1862C87.5257 61.3514 87.4195 61.9058 87.2072 62.8495C86.9949 63.7932 86.7589 64.725 86.4994 65.6451L86.1455 66.9545C86.1455 67.0017 86.7353 67.0253 87.915 67.0253H89.7198C89.8849 67.1904 89.9675 67.3202 89.9675 67.4146C89.9675 67.9336 89.8141 68.3464 89.5074 68.6531H85.7209L84.4469 73.7844C83.5268 77.5592 83.0668 79.5881 83.0668 79.8712C83.0668 80.8621 83.3853 81.3575 84.0223 81.3575C84.848 81.3575 85.6501 80.9564 86.4286 80.1543C87.2072 79.3522 87.8324 78.3613 88.3042 77.1817C88.3514 77.0401 88.4104 76.9576 88.4812 76.934C88.5519 76.9104 88.7289 76.8868 89.012 76.8632H89.1535C89.5074 76.8632 89.6844 76.9576 89.6844 77.1463C89.6844 77.2171 89.649 77.3586 89.5782 77.571C89.4602 77.9484 89.2479 78.3967 88.9412 78.9157C88.6345 79.4348 88.2334 79.9892 87.738 80.579C87.2426 81.1688 86.641 81.6642 85.9332 82.0653C85.2255 82.4663 84.5059 82.6669 83.7745 82.6669C83.0668 82.6669 82.3944 82.4899 81.7574 82.1361C81.1204 81.7822 80.6604 81.1688 80.3773 80.2959C80.3301 80.1071 80.3065 79.7886 80.3065 79.3404V78.7034L81.5451 73.749C82.3708 70.4226 82.7955 68.7475 82.8191 68.7239C82.8191 68.6767 82.2174 68.6531 81.0143 68.6531H79.2095Z" stroke="black"/>
<path d="M100.244 50.2159H69.1097V48.0926H100.244V50.2159Z" stroke="black"/>
</svg>
