<svg width="101" height="83" viewBox="0 0 101 83" fill="none" xmlns="http://www.w3.org/2000/svg">
<rect width="100.244" height="82.6669" fill="white"/>
<path d="M0 39.8657C0 38.7613 0.321707 37.7002 0.965121 36.6822C1.60854 35.6643 2.42001 34.8576 3.39953 34.2622C4.37906 33.6668 5.35858 33.3643 6.33811 33.3547C7.2024 33.3547 7.88902 33.5996 8.39799 34.0894C8.48442 34.1854 8.55645 34.267 8.61407 34.3342C8.67168 34.4015 8.7101 34.4495 8.7293 34.4783L8.74371 34.5215C8.77252 34.5215 8.90216 34.3967 9.13264 34.147C9.19986 34.0894 9.27188 34.0221 9.34871 33.9453C9.42553 33.8685 9.50236 33.7917 9.57919 33.7148C9.65601 33.638 9.70403 33.5852 9.72323 33.5564L9.93931 33.3403H10.0257C10.1602 33.3403 10.2274 33.3739 10.2274 33.4411C10.2274 33.4796 10.0738 34.1374 9.76645 35.4146C9.42073 36.7494 9.24788 37.4217 9.24788 37.4313C9.22867 37.4793 9.20466 37.5081 9.17585 37.5177C9.14704 37.5273 9.06061 37.5369 8.91657 37.5465H8.68609C8.62847 37.4889 8.59966 37.4457 8.59966 37.4169C8.59966 37.4073 8.60446 37.3737 8.61407 37.316C8.62367 37.2584 8.63327 37.1624 8.64287 37.0279C8.65248 36.8935 8.65728 36.7398 8.65728 36.567C8.65728 35.8852 8.50363 35.2898 8.19633 34.7808C7.88902 34.2718 7.36565 34.0125 6.6262 34.0029C6.45335 34.0029 6.26608 34.0173 6.06442 34.0461C5.86275 34.075 5.60827 34.1374 5.30096 34.2334C4.99366 34.3294 4.70076 34.4639 4.42227 34.6367C4.14378 34.8096 3.84128 35.0401 3.51477 35.3282C3.18826 35.6163 2.90977 35.9572 2.67929 36.3509C2.44881 36.7446 2.22314 37.2344 2.00227 37.8202C1.78139 38.406 1.63254 39.0494 1.55572 39.7504C1.53651 39.9233 1.52691 40.1106 1.52691 40.3122C1.52691 40.7732 1.59413 41.1813 1.72857 41.5366C1.86302 41.892 2.03588 42.1656 2.24715 42.3577C2.45842 42.5498 2.6985 42.713 2.96739 42.8475C3.23628 42.9819 3.48596 43.0635 3.71644 43.0924C3.94691 43.1212 4.16298 43.1404 4.36465 43.15C4.88322 43.15 5.35858 43.0395 5.79073 42.8187C6.22287 42.5978 6.52057 42.3145 6.68382 41.9688C6.71263 41.892 6.78466 41.6279 6.8999 41.1765C7.01513 40.7252 7.07275 40.4707 7.07275 40.4131C7.07275 40.3362 7.01033 40.2882 6.88549 40.269C6.76065 40.2498 6.47255 40.2354 6.0212 40.2258H5.48823C5.43061 40.1682 5.4018 40.1298 5.4018 40.1106C5.4018 40.0914 5.4114 40.0001 5.43061 39.8369C5.46902 39.712 5.51704 39.6208 5.57465 39.5632H5.81954C6.20366 39.5824 6.87589 39.592 7.83621 39.592C8.22033 39.592 8.53244 39.592 8.77252 39.592C9.0126 39.592 9.18546 39.5872 9.29109 39.5776C9.39673 39.568 9.45434 39.568 9.46395 39.5776C9.59839 39.5776 9.66562 39.6208 9.66562 39.7072C9.66562 39.7264 9.65601 39.7937 9.63681 39.9089C9.58879 40.0914 9.54077 40.1922 9.49276 40.2114C9.46395 40.221 9.39192 40.2258 9.27669 40.2258C9.08462 40.2258 8.88776 40.2402 8.68609 40.269C8.61887 40.2978 8.57085 40.341 8.54204 40.3987C8.51323 40.4563 8.44601 40.7012 8.34037 41.1333C8.25395 41.4502 8.18192 41.7191 8.1243 41.94C7.88422 42.9195 7.74978 43.4237 7.72097 43.4525C7.70176 43.4717 7.67775 43.4813 7.64894 43.4813C7.55291 43.4813 7.41847 43.3853 7.24561 43.1932C7.07275 43.0011 6.96232 42.8523 6.9143 42.7466C6.9143 42.737 6.9047 42.737 6.88549 42.7466C6.86628 42.7562 6.83747 42.7803 6.79906 42.8187C6.08843 43.4813 5.12811 43.8126 3.9181 43.8126C2.75612 43.8126 1.815 43.4429 1.09476 42.7034C0.374525 41.964 0.00960319 41.0181 0 39.8657Z" fill="black"/>
<path d="M15.4102 38.4972C15.4102 38.3724 15.4775 38.2764 15.6119 38.2091H24.7878C24.9318 38.286 25.0038 38.382 25.0038 38.4972C25.0038 38.6029 24.9366 38.6941 24.8022 38.7709L20.2214 38.7853H15.6407C15.4871 38.7373 15.4102 38.6413 15.4102 38.4972ZM15.4102 41.2918C15.4102 41.1477 15.4871 41.0517 15.6407 41.0037H24.8022C24.9366 41.0997 25.0038 41.1957 25.0038 41.2918C25.0038 41.4166 24.9318 41.5126 24.7878 41.5799H15.6119C15.4775 41.5126 15.4102 41.4166 15.4102 41.2918Z" fill="black"/>
<path d="M30.4172 38.987C30.4172 37.4217 30.8061 36.1829 31.5839 35.2706C32.3618 34.3582 33.2261 33.9021 34.1768 33.9021C34.8394 33.9021 35.3148 34.075 35.6029 34.4207C35.891 34.7664 36.035 35.1505 36.035 35.5731C36.035 35.8131 35.9678 36.0052 35.8334 36.1492C35.6989 36.2933 35.5116 36.3653 35.2716 36.3653C35.0507 36.3653 34.8682 36.2981 34.7242 36.1636C34.5801 36.0292 34.5081 35.8419 34.5081 35.6019C34.5081 35.1793 34.7338 34.9248 35.1851 34.8384C34.9739 34.6271 34.6762 34.5071 34.292 34.4783C33.6102 34.4783 33.0484 34.7664 32.6067 35.3426C32.1553 35.9764 31.9297 36.9463 31.9297 38.2523L31.9441 38.31C31.9921 38.2523 32.0305 38.1899 32.0593 38.1227C32.453 37.5465 32.9668 37.2584 33.6006 37.2584H33.6582C34.1 37.2584 34.4889 37.3496 34.825 37.5321C35.0555 37.6665 35.286 37.8586 35.5165 38.1083C35.7469 38.358 35.9342 38.6317 36.0782 38.9294C36.2799 39.3999 36.3807 39.9137 36.3807 40.4707V40.73C36.3807 40.9508 36.3567 41.1573 36.3087 41.3494C36.2031 41.916 35.8958 42.4681 35.3868 43.0059C34.8778 43.5437 34.2344 43.8126 33.4566 43.8126C33.1877 43.8126 32.9284 43.7742 32.6787 43.6974C32.429 43.6205 32.1601 43.4765 31.872 43.2652C31.5839 43.0539 31.3391 42.7706 31.1374 42.4153C30.9357 42.06 30.7629 41.5943 30.6188 41.0181C30.4748 40.4419 30.4076 39.7648 30.4172 38.987ZM33.5142 37.777C33.2261 37.777 32.9764 37.8586 32.7651 38.0219C32.5539 38.1851 32.3906 38.4012 32.2754 38.6701C32.1601 38.939 32.0785 39.2127 32.0305 39.4912C31.9825 39.7696 31.9537 40.0673 31.9441 40.3843C31.9441 41.1813 32.0017 41.7527 32.1169 42.0984C32.2322 42.4441 32.4146 42.7226 32.6643 42.9339C32.8948 43.1068 33.1493 43.1932 33.4278 43.1932C33.9175 43.1932 34.292 43.0107 34.5513 42.6458C34.6762 42.4729 34.7626 42.2569 34.8106 41.9976C34.8586 41.7383 34.8826 41.2341 34.8826 40.4851C34.8826 39.7168 34.8586 39.2031 34.8106 38.9438C34.7626 38.6845 34.6762 38.4684 34.5513 38.2956C34.292 37.9498 33.9463 37.777 33.5142 37.777Z" fill="black"/>
<path d="M38.1381 42.9915C38.1381 42.9915 38.1381 42.8715 38.1381 42.6314C38.1381 42.3913 38.215 42.1849 38.3686 42.012C38.5223 41.8391 38.7287 41.7527 38.988 41.7527C39.2569 41.7527 39.497 41.8727 39.7082 42.1128C39.9195 42.3529 40.03 42.7754 40.0396 43.3804C40.0396 43.7166 39.9963 44.0431 39.9099 44.36C39.8235 44.6769 39.7227 44.9506 39.6074 45.181C39.4922 45.4115 39.3673 45.6084 39.2329 45.7716C39.0984 45.9349 38.9832 46.0645 38.8872 46.1606C38.7911 46.2566 38.7287 46.2998 38.6999 46.2902C38.6615 46.2902 38.5991 46.247 38.5127 46.1606C38.4262 46.0741 38.383 46.0117 38.383 45.9733C38.383 45.9349 38.4358 45.8581 38.5415 45.7428C38.6471 45.6276 38.7671 45.4835 38.9016 45.3107C39.036 45.1378 39.1609 44.8978 39.2761 44.5905C39.3913 44.2831 39.4682 43.9326 39.5066 43.5389V43.366L39.4922 43.3804C39.473 43.3901 39.449 43.3997 39.4202 43.4093C39.3913 43.4189 39.3625 43.4333 39.3337 43.4525C39.3049 43.4717 39.2617 43.4813 39.2041 43.4813C39.1465 43.4813 39.0888 43.4861 39.0312 43.4957C38.7719 43.4957 38.5607 43.4141 38.3974 43.2508L38.1381 42.9915Z" fill="black"/>
<path d="M44.0239 38.987C44.0239 37.4217 44.4129 36.1829 45.1907 35.2706C45.9686 34.3582 46.8329 33.9021 47.7836 33.9021C48.4462 33.9021 48.9216 34.075 49.2096 34.4207C49.4977 34.7664 49.6418 35.1505 49.6418 35.5731C49.6418 35.8131 49.5746 36.0052 49.4401 36.1492C49.3057 36.2933 49.1184 36.3653 48.8783 36.3653C48.6575 36.3653 48.475 36.2981 48.331 36.1636C48.1869 36.0292 48.1149 35.8419 48.1149 35.6019C48.1149 35.1793 48.3406 34.9248 48.7919 34.8384C48.5806 34.6271 48.2829 34.5071 47.8988 34.4783C47.217 34.4783 46.6552 34.7664 46.2135 35.3426C45.7621 35.9764 45.5364 36.9463 45.5364 38.2523L45.5508 38.31C45.5988 38.2523 45.6373 38.1899 45.6661 38.1227C46.0598 37.5465 46.5736 37.2584 47.2074 37.2584H47.265C47.7067 37.2584 48.0957 37.3496 48.4318 37.5321C48.6623 37.6665 48.8927 37.8586 49.1232 38.1083C49.3537 38.358 49.541 38.6317 49.685 38.9294C49.8867 39.3999 49.9875 39.9137 49.9875 40.4707V40.73C49.9875 40.9508 49.9635 41.1573 49.9155 41.3494C49.8098 41.916 49.5025 42.4681 48.9936 43.0059C48.4846 43.5437 47.8412 43.8126 47.0633 43.8126C46.7944 43.8126 46.5352 43.7742 46.2855 43.6974C46.0358 43.6205 45.7669 43.4765 45.4788 43.2652C45.1907 43.0539 44.9458 42.7706 44.7442 42.4153C44.5425 42.06 44.3696 41.5943 44.2256 41.0181C44.0815 40.4419 44.0143 39.7648 44.0239 38.987ZM47.121 37.777C46.8329 37.777 46.5832 37.8586 46.3719 38.0219C46.1606 38.1851 45.9974 38.4012 45.8821 38.6701C45.7669 38.939 45.6853 39.2127 45.6373 39.4912C45.5892 39.7696 45.5604 40.0673 45.5508 40.3843C45.5508 41.1813 45.6084 41.7527 45.7237 42.0984C45.8389 42.4441 46.0214 42.7226 46.2711 42.9339C46.5015 43.1068 46.756 43.1932 47.0345 43.1932C47.5243 43.1932 47.8988 43.0107 48.1581 42.6458C48.2829 42.4729 48.3694 42.2569 48.4174 41.9976C48.4654 41.7383 48.4894 41.2341 48.4894 40.4851C48.4894 39.7168 48.4654 39.2031 48.4174 38.9438C48.3694 38.6845 48.2829 38.4684 48.1581 38.2956C47.8988 37.9498 47.5531 37.777 47.121 37.777Z" fill="black"/>
<path d="M51.4136 36.8983C51.4232 36.8791 51.5048 36.3557 51.6585 35.3282L51.8889 33.7869C51.8889 33.7677 51.985 33.758 52.177 33.758H52.4651V33.8157C52.4651 33.9117 52.5372 33.9933 52.6812 34.0606C52.8253 34.1278 53.0749 34.171 53.4303 34.1902C53.7856 34.2094 54.597 34.219 55.8647 34.219H57.6076V34.7808L56.6281 36.1204C56.5417 36.2357 56.3976 36.4277 56.196 36.6966C55.9943 36.9655 55.8647 37.1432 55.807 37.2296C55.7494 37.316 55.6486 37.4697 55.5045 37.6906C55.3605 37.9114 55.2645 38.0843 55.2164 38.2091C55.1684 38.334 55.1012 38.5116 55.0148 38.7421C54.9284 38.9726 54.8659 39.1935 54.8275 39.4047C54.7891 39.616 54.7507 39.8753 54.7123 40.1826C54.6739 40.4899 54.6451 40.8164 54.6259 41.1621C54.6066 41.5078 54.5922 41.9016 54.5826 42.3433C54.5826 42.4777 54.5826 42.6122 54.5826 42.7466C54.5826 42.8811 54.5778 42.9963 54.5682 43.0924V43.222C54.5298 43.3853 54.4386 43.5245 54.2945 43.6397C54.1505 43.755 53.9872 43.8126 53.8048 43.8126C53.6991 43.8126 53.5983 43.7982 53.5023 43.7694C53.4062 43.7406 53.3054 43.6493 53.1998 43.4957C53.0941 43.342 53.0413 43.15 53.0413 42.9195C53.0413 41.4022 53.5071 39.8273 54.4386 38.1947C54.6307 37.8874 55.034 37.3064 55.6486 36.4517L56.3112 35.5442H54.9716C53.3006 35.5442 52.4219 35.5731 52.3355 35.6307C52.2779 35.6595 52.2251 35.7747 52.177 35.9764C52.129 36.1781 52.081 36.3845 52.033 36.5958L51.9898 36.8983V36.9415H51.4136V36.8983Z" fill="black"/>
<path d="M62.148 39.8945C62.148 39.664 62.2297 39.4623 62.3929 39.2895C62.5562 39.1166 62.7626 39.0302 63.0123 39.0302C63.2428 39.0302 63.4445 39.107 63.6173 39.2607C63.7902 39.4143 63.8814 39.6208 63.891 39.8801C63.891 40.1202 63.8094 40.3266 63.6461 40.4995C63.4829 40.6723 63.2764 40.7588 63.0267 40.7588C62.777 40.7588 62.5706 40.6772 62.4073 40.5139C62.2441 40.3506 62.1576 40.1442 62.148 39.8945Z" fill="black"/>
<path d="M71.2994 35.1697L71.1121 35.2417C70.9777 35.2898 70.7856 35.3378 70.5359 35.3858C70.2863 35.4338 70.0078 35.4674 69.7005 35.4866H69.4268V34.824H69.7005C70.1518 34.8048 70.5696 34.7328 70.9537 34.6079C71.3378 34.4831 71.6067 34.3679 71.7603 34.2622C71.914 34.1566 72.0484 34.0509 72.1637 33.9453C72.1829 33.9165 72.2405 33.9021 72.3365 33.9021C72.423 33.9021 72.5046 33.9309 72.5814 33.9885V38.2956L72.5958 42.617C72.663 42.6842 72.7207 42.7274 72.7687 42.7466C72.8167 42.7658 72.9319 42.7851 73.1144 42.8043C73.2969 42.8235 73.5946 42.8331 74.0075 42.8331H74.382V43.4957H74.2236C74.0219 43.4669 73.2584 43.4525 71.9332 43.4525C70.6272 43.4525 69.8733 43.4669 69.6717 43.4957H69.4988V42.8331H69.8733C70.0846 42.8331 70.267 42.8331 70.4207 42.8331C70.5744 42.8331 70.6944 42.8283 70.7808 42.8187C70.8673 42.8091 70.9441 42.7947 71.0113 42.7754C71.0785 42.7562 71.1169 42.7466 71.1265 42.7466C71.1361 42.7466 71.165 42.7226 71.213 42.6746C71.261 42.6266 71.2898 42.6074 71.2994 42.617V35.1697Z" fill="black"/>
<path d="M76.8164 35.0689C77.3542 34.291 78.0889 33.9021 79.0204 33.9021C79.4813 33.9021 79.9423 34.0269 80.4032 34.2766C80.8642 34.5263 81.2387 34.9681 81.5268 35.6019C81.8821 36.3989 82.0598 37.4937 82.0598 38.8862C82.0598 40.3746 81.8533 41.5126 81.4404 42.3001C81.2483 42.7034 80.9842 43.0251 80.6481 43.2652C80.312 43.5053 80.0191 43.6541 79.7694 43.7118C79.5197 43.7694 79.2748 43.803 79.0348 43.8126C78.7851 43.8126 78.5354 43.7838 78.2857 43.7262C78.036 43.6685 77.7431 43.5149 77.407 43.2652C77.0709 43.0155 76.8068 42.6938 76.6148 42.3001C76.2018 41.5126 75.9954 40.3746 75.9954 38.8862C75.9954 37.2152 76.269 35.9428 76.8164 35.0689ZM80.0575 34.896C79.7694 34.5887 79.4285 34.4351 79.0348 34.4351C78.6314 34.4351 78.2857 34.5887 77.9976 34.896C77.7575 35.1457 77.5991 35.4914 77.5223 35.9332C77.4454 36.3749 77.407 37.2968 77.407 38.6989C77.407 40.2162 77.4454 41.2149 77.5223 41.6951C77.5991 42.1752 77.772 42.5546 78.0408 42.8331C78.3097 43.1212 78.641 43.2652 79.0348 43.2652C79.4189 43.2652 79.7454 43.1212 80.0143 42.8331C80.2928 42.545 80.4656 42.1416 80.5329 41.6231C80.6001 41.1045 80.6385 40.1298 80.6481 38.6989C80.6481 37.3064 80.6097 36.3893 80.5329 35.9476C80.456 35.5058 80.2976 35.1553 80.0575 34.896Z" fill="black"/>
<path d="M83.4914 35.1329C83.4914 35.1329 83.4914 35.0887 83.4914 35.0005C83.4914 34.9122 83.539 34.8443 83.634 34.7968H89.551C89.6529 34.8511 89.7038 34.919 89.7038 35.0005C89.7038 35.0819 89.6529 35.1498 89.551 35.2041H83.634C83.539 35.1566 83.4914 35.0887 83.4914 35.0005V35.1329Z" fill="black"/>
<path d="M92.7285 31.66L92.5961 31.711C92.5011 31.7449 92.3653 31.7789 92.1887 31.8128C92.0122 31.8468 91.8153 31.8705 91.5981 31.8841H91.4046V31.4156H91.5981C91.9172 31.402 92.2125 31.3511 92.4841 31.2629C92.7557 31.1746 92.9458 31.0931 93.0544 31.0184C93.163 30.9438 93.2581 30.8691 93.3396 30.7944C93.3531 30.774 93.3939 30.7638 93.4618 30.7638C93.5229 30.7638 93.5806 30.7842 93.6349 30.8249V33.87L93.6451 36.9253C93.6926 36.9728 93.7333 37.0034 93.7673 37.0169C93.8012 37.0305 93.8827 37.0441 94.0117 37.0577C94.1407 37.0712 94.3512 37.078 94.6431 37.078H94.9079V37.5465H94.7959C94.6533 37.5261 94.1136 37.516 93.1766 37.516C92.2532 37.516 91.7203 37.5261 91.5777 37.5465H91.4555V37.078H91.7203C91.8696 37.078 91.9986 37.078 92.1073 37.078C92.2159 37.078 92.3008 37.0746 92.3619 37.0679C92.423 37.0611 92.4773 37.0509 92.5248 37.0373C92.5723 37.0237 92.5995 37.0169 92.6063 37.0169C92.6131 37.0169 92.6335 37 92.6674 36.966C92.7013 36.9321 92.7217 36.9185 92.7285 36.9253V31.66Z" fill="black"/>
<path d="M97.8206 31.66L97.6882 31.711C97.5931 31.7449 97.4574 31.7789 97.2808 31.8128C97.1043 31.8468 96.9074 31.8705 96.6901 31.8841H96.4966V31.4156H96.6901C97.0092 31.402 97.3046 31.3511 97.5762 31.2629C97.8477 31.1746 98.0378 31.0931 98.1465 31.0184C98.2551 30.9438 98.3502 30.8691 98.4316 30.7944C98.4452 30.774 98.486 30.7638 98.5539 30.7638C98.615 30.7638 98.6727 30.7842 98.727 30.8249V33.87L98.7372 36.9253C98.7847 36.9728 98.8254 37.0034 98.8594 37.0169C98.8933 37.0305 98.9748 37.0441 99.1038 37.0577C99.2328 37.0712 99.4433 37.078 99.7352 37.078H100V37.5465H99.888C99.7454 37.5261 99.2056 37.516 98.2687 37.516C97.3453 37.516 96.8124 37.5261 96.6698 37.5465H96.5476V37.078H96.8124C96.9617 37.078 97.0907 37.078 97.1994 37.078C97.308 37.078 97.3929 37.0746 97.454 37.0679C97.5151 37.0611 97.5694 37.0509 97.6169 37.0373C97.6644 37.0237 97.6916 37.0169 97.6984 37.0169C97.7052 37.0169 97.7255 37 97.7595 36.966C97.7934 36.9321 97.8138 36.9185 97.8206 36.9253V31.66Z" fill="black"/>
</svg>
