<svg width="101" height="83" viewBox="0 0 101 83" fill="none" xmlns="http://www.w3.org/2000/svg">
<rect width="100.244" height="82.6669" fill="white"/>
<path d="M0.263844 43.3369C0.087948 43.3369 0 43.2852 0 43.1817C0 43.161 0.0155202 43.0886 0.0465607 42.9644C0.087948 42.7989 0.129335 42.7058 0.170723 42.6851C0.21211 42.6644 0.331098 42.6489 0.527688 42.6385C0.807052 42.6385 1.11746 42.623 1.4589 42.5919C1.60376 42.5609 1.70205 42.4988 1.75379 42.4057C1.77448 42.354 2.14179 40.9002 2.85572 38.0445C3.56965 35.1888 3.93179 33.7402 3.94214 33.6989C3.94214 33.6264 3.92145 33.5902 3.88006 33.5902C3.79728 33.5592 3.52309 33.5333 3.05749 33.5126H2.57636C2.51428 33.4505 2.48324 33.4091 2.48324 33.3884C2.48324 33.3678 2.49358 33.2798 2.51428 33.1246C2.55567 32.9487 2.6074 32.8401 2.66948 32.7987H11.0349C11.1073 32.8401 11.1435 32.897 11.1435 32.9694C11.1435 33.0211 11.0763 33.6006 10.9418 34.7077C10.8073 35.8148 10.7348 36.3839 10.7245 36.4149C10.7038 36.4873 10.6003 36.5235 10.4141 36.5235H10.2278C10.1554 36.4718 10.1192 36.4045 10.1192 36.3218C10.1192 36.3114 10.1347 36.1873 10.1658 35.9493C10.1968 35.7113 10.2123 35.4371 10.2123 35.1267C10.2123 34.8163 10.1761 34.5628 10.1037 34.3662C10.0312 34.1696 9.93295 34.0093 9.80879 33.8851C9.68463 33.7609 9.49321 33.6782 9.23454 33.6368C8.97587 33.5954 8.71203 33.5592 8.44301 33.5281C8.17399 33.4971 7.80151 33.4919 7.32555 33.5126H6.96859C6.12015 33.523 5.67006 33.5385 5.61833 33.5592C5.56659 33.5799 5.53038 33.6213 5.50968 33.6833C5.49934 33.6937 5.32344 34.3714 4.982 35.7165L4.48535 37.7186H5.33896C5.37 37.7186 5.48899 37.7186 5.69593 37.7186C5.90286 37.7186 6.04772 37.7134 6.13049 37.7031C6.21327 37.6927 6.32708 37.6772 6.47194 37.6565C6.6168 37.6358 6.74096 37.5996 6.84443 37.5479C6.94789 37.4961 7.03584 37.4341 7.10827 37.3616C7.24278 37.2375 7.35659 37.0667 7.44971 36.8495C7.54284 36.6322 7.61009 36.4356 7.65148 36.2597C7.69286 36.0838 7.71873 35.9907 7.72908 35.9803C7.76012 35.9286 7.85841 35.9027 8.02396 35.9027H8.21021C8.28263 35.9545 8.31885 36.0062 8.31885 36.0579C8.31885 36.089 8.15847 36.7667 7.83772 38.0911C7.51697 39.4155 7.34107 40.0984 7.31003 40.1398C7.28934 40.2122 7.18587 40.2484 6.99963 40.2484H6.81338C6.74096 40.1863 6.70474 40.1242 6.70474 40.0622C6.70474 40.0311 6.73061 39.9173 6.78234 39.7207C6.83408 39.5241 6.85995 39.3172 6.85995 39.0999C6.85995 38.7998 6.75648 38.6136 6.54954 38.5412C6.3426 38.4687 5.88217 38.4325 5.16824 38.4325H4.31463L3.81798 40.4036C3.48688 41.6866 3.32133 42.3591 3.32133 42.4212C3.32133 42.5661 3.78176 42.6385 4.70263 42.6385H5.09064C5.15272 42.7006 5.18376 42.7368 5.18376 42.7472C5.18376 42.7575 5.17341 42.861 5.15272 43.0576C5.11133 43.1921 5.0596 43.2904 4.99752 43.3524H4.73367C4.30945 43.3317 3.52827 43.3214 2.39012 43.3214C1.71757 43.3214 1.20541 43.3214 0.853613 43.3214C0.501821 43.3214 0.305231 43.3266 0.263844 43.3369Z" fill="black"/>
<path d="M16.3242 37.9669C16.3242 37.8324 16.3966 37.7289 16.5415 37.6565H26.4279C26.5831 37.7393 26.6607 37.8428 26.6607 37.9669C26.6607 38.0807 26.5882 38.179 26.4434 38.2618L21.5079 38.2773H16.5725C16.407 38.2256 16.3242 38.1221 16.3242 37.9669ZM16.3242 40.9778C16.3242 40.8226 16.407 40.7192 16.5725 40.6674H26.4434C26.5882 40.7709 26.6607 40.8744 26.6607 40.9778C26.6607 41.1124 26.5831 41.2158 26.4279 41.2882H16.5415C16.3966 41.2158 16.3242 41.1124 16.3242 40.9778Z" fill="black"/>
<path d="M32.6173 39.4413C32.6173 38.2515 32.964 37.1081 33.6572 36.0114C34.3504 34.9146 35.2247 34.0455 36.2801 33.404C37.3355 32.7625 38.3909 32.4365 39.4462 32.4262C40.3774 32.4262 41.1172 32.69 41.6656 33.2177C41.7588 33.3212 41.8364 33.4091 41.8984 33.4816C41.9605 33.554 42.0019 33.6057 42.0226 33.6368L42.0381 33.6833C42.0692 33.6833 42.2088 33.5488 42.4572 33.2798C42.5296 33.2177 42.6072 33.1453 42.69 33.0625C42.7727 32.9797 42.8555 32.897 42.9383 32.8142C43.0211 32.7314 43.0728 32.6745 43.0935 32.6435L43.3263 32.4107H43.4194C43.5643 32.4107 43.6367 32.4469 43.6367 32.5193C43.6367 32.5607 43.4712 33.2695 43.1401 34.6456C42.7676 36.0838 42.5813 36.8081 42.5813 36.8184C42.5606 36.8702 42.5348 36.9012 42.5037 36.9115C42.4727 36.9219 42.3796 36.9322 42.2244 36.9426H41.976C41.914 36.8805 41.8829 36.8339 41.8829 36.8029C41.8829 36.7926 41.8881 36.7563 41.8984 36.6943C41.9088 36.6322 41.9191 36.5287 41.9295 36.3839C41.9398 36.239 41.945 36.0734 41.945 35.8872C41.945 35.1526 41.7794 34.5111 41.4483 33.9627C41.1173 33.4143 40.5533 33.135 39.7566 33.1246C39.5704 33.1246 39.3686 33.1401 39.1514 33.1712C38.9341 33.2022 38.6599 33.2695 38.3288 33.3729C37.9977 33.4764 37.6821 33.6213 37.382 33.8075C37.082 33.9937 36.7561 34.2421 36.4043 34.5525C36.0525 34.8629 35.7524 35.2302 35.5041 35.6544C35.2558 36.0786 35.0126 36.6063 34.7746 37.2375C34.5367 37.8686 34.3763 38.5619 34.2935 39.3172C34.2728 39.5034 34.2625 39.7052 34.2625 39.9225C34.2625 40.4191 34.3349 40.8589 34.4798 41.2417C34.6246 41.6245 34.8109 41.9194 35.0385 42.1263C35.2661 42.3333 35.5248 42.5092 35.8145 42.654C36.1042 42.7989 36.3732 42.8868 36.6216 42.9179C36.8699 42.9489 37.1027 42.9696 37.32 42.98C37.8787 42.98 38.3909 42.861 38.8565 42.623C39.3221 42.385 39.6428 42.0798 39.8187 41.7073C39.8498 41.6245 39.9274 41.34 40.0515 40.8537C40.1757 40.3674 40.2378 40.0932 40.2378 40.0311C40.2378 39.9483 40.1705 39.8966 40.036 39.8759C39.9015 39.8552 39.5911 39.8397 39.1048 39.8293H38.5305C38.4685 39.7673 38.4374 39.7259 38.4374 39.7052C38.4374 39.6845 38.4478 39.5862 38.4685 39.4103C38.5099 39.2758 38.5616 39.1775 38.6237 39.1154H38.8875C39.3014 39.1361 40.0257 39.1465 41.0603 39.1465C41.4742 39.1465 41.8105 39.1465 42.0692 39.1465C42.3278 39.1465 42.5141 39.1413 42.6279 39.1309C42.7417 39.1206 42.8038 39.1206 42.8141 39.1309C42.959 39.1309 43.0314 39.1775 43.0314 39.2706C43.0314 39.2913 43.0211 39.3637 43.0004 39.4879C42.9486 39.6845 42.8969 39.7931 42.8452 39.8138C42.8141 39.8242 42.7365 39.8293 42.6124 39.8293C42.4054 39.8293 42.1933 39.8449 41.976 39.8759C41.9036 39.9069 41.8519 39.9535 41.8208 40.0156C41.7898 40.0777 41.7174 40.3415 41.6035 40.8071C41.5104 41.1486 41.4328 41.4383 41.3707 41.6763C41.1121 42.7316 40.9672 43.2748 40.9362 43.3059C40.9155 43.3266 40.8896 43.3369 40.8586 43.3369C40.7551 43.3369 40.6103 43.2335 40.424 43.0265C40.2378 42.8196 40.1188 42.6592 40.067 42.5454C40.067 42.535 40.0567 42.535 40.036 42.5454C40.0153 42.5557 39.9843 42.5816 39.9429 42.623C39.1772 43.3369 38.1425 43.6939 36.8388 43.6939C35.5869 43.6939 34.5729 43.2955 33.7969 42.4988C33.0209 41.7021 32.6277 40.683 32.6173 39.4413Z" fill="black"/>
<path d="M47.7806 28.4065C47.791 28.3444 47.8065 28.2616 47.8272 28.1581C47.8479 28.0547 47.9099 27.8581 48.0134 27.5684C48.1169 27.2786 48.2203 27.0355 48.3238 26.8389C48.4273 26.6423 48.5928 26.4509 48.8205 26.2647C49.0481 26.0784 49.2757 25.9905 49.5034 26.0008C49.731 26.0112 49.9534 26.0474 50.1707 26.1095C50.388 26.1715 50.5432 26.2647 50.6363 26.3888C50.7295 26.513 50.8122 26.6268 50.8847 26.7303C50.9571 26.8337 50.9985 26.932 51.0088 27.0252L51.0399 27.1338C51.0399 27.1545 51.045 27.1648 51.0554 27.1648L51.2261 26.9941C51.8469 26.3319 52.5764 26.0008 53.4145 26.0008C53.5903 26.0008 53.7507 26.0112 53.8956 26.0319C54.0404 26.0526 54.1749 26.0888 54.2991 26.1405C54.4233 26.1922 54.5216 26.244 54.594 26.2957C54.6664 26.3474 54.744 26.4095 54.8268 26.4819C54.9096 26.5544 54.9613 26.6216 54.982 26.6837C55.0027 26.7458 55.0441 26.813 55.1062 26.8855C55.1682 26.9579 55.1889 27.02 55.1682 27.0717C55.1475 27.1234 55.1631 27.17 55.2148 27.2114C55.2665 27.2528 55.2769 27.289 55.2458 27.32L55.37 27.1648C56.0219 26.3888 56.7927 26.0008 57.6825 26.0008C58.2412 26.0008 58.6913 26.1405 59.0328 26.4199C59.3742 26.6992 59.5501 27.1079 59.5605 27.646C59.5605 28.1737 59.3639 28.991 58.9707 30.0982C58.5775 31.2053 58.3809 31.8675 58.3809 32.0847C58.3913 32.2296 58.4171 32.3279 58.4585 32.3796C58.4999 32.4314 58.5775 32.4572 58.6913 32.4572C58.981 32.4572 59.2501 32.302 59.4984 31.9916C59.7467 31.6812 59.9485 31.257 60.1037 30.719C60.1347 30.6052 60.1658 30.5379 60.1968 30.5172C60.2278 30.4965 60.3106 30.4862 60.4451 30.4862C60.6521 30.4862 60.7555 30.5276 60.7555 30.6103C60.7555 30.6207 60.7348 30.6983 60.6934 30.8431C60.6107 31.1432 60.4969 31.4381 60.352 31.7278C60.2071 32.0175 59.9692 32.3072 59.6381 32.5969C59.307 32.8866 58.95 33.0263 58.5672 33.016C58.0809 33.016 57.7291 32.8763 57.5118 32.5969C57.2945 32.3176 57.1859 32.0278 57.1859 31.7278C57.1859 31.5312 57.3721 30.9104 57.7446 29.8654C58.1171 28.8203 58.3085 28.034 58.3188 27.5063C58.3188 26.8958 58.0912 26.5906 57.636 26.5906H57.5584C56.6685 26.5906 55.9184 27.1131 55.3079 28.1581L55.1993 28.3444L54.6871 30.4241C54.3457 31.7795 54.1491 32.509 54.0973 32.6124C53.9628 32.8918 53.7404 33.0315 53.43 33.0315C53.2955 33.0315 53.1868 32.9953 53.104 32.9228C53.0213 32.8504 52.9644 32.7883 52.9333 32.7366C52.9023 32.6849 52.8868 32.6331 52.8868 32.5814C52.8868 32.4676 53.0627 31.7278 53.4145 30.362L53.9732 28.096C54.0042 27.9408 54.0197 27.7443 54.0197 27.5063C54.0197 26.8958 53.7921 26.5906 53.3368 26.5906H53.2593C52.3694 26.5906 51.6193 27.1131 51.0088 28.1581L50.9002 28.3444L50.388 30.4241C50.0466 31.7795 49.85 32.509 49.7982 32.6124C49.6637 32.8918 49.4413 33.0315 49.1309 33.0315C48.9964 33.0315 48.8877 33.0004 48.8049 32.9384C48.7222 32.8763 48.6653 32.8142 48.6342 32.7521C48.6032 32.69 48.5928 32.6383 48.6032 32.5969C48.6032 32.4624 48.7998 31.614 49.1929 30.0516C49.5965 28.4582 49.7982 27.6253 49.7982 27.5528C49.8293 27.3976 49.8448 27.258 49.8448 27.1338C49.8448 26.7613 49.7155 26.5751 49.4568 26.5751C49.2292 26.5751 49.0377 26.7199 48.8825 27.0096C48.7273 27.2993 48.6084 27.6149 48.5256 27.9564C48.4428 28.2978 48.3807 28.4841 48.3393 28.5151C48.3186 28.5358 48.2359 28.5461 48.091 28.5461H47.8737C47.8116 28.4841 47.7806 28.4375 47.7806 28.4065Z" fill="black"/>
<path d="M63.4187 28.8465L63.276 28.9014C63.1736 28.938 63.0273 28.9745 62.8371 29.0111C62.6469 29.0477 62.4348 29.0733 62.2007 29.0879H61.9922V28.5832H62.2007C62.5445 28.5685 62.8627 28.5137 63.1553 28.4186C63.4479 28.3235 63.6527 28.2357 63.7698 28.1552C63.8868 28.0748 63.9892 27.9943 64.077 27.9138C64.0917 27.8919 64.1355 27.8809 64.2087 27.8809C64.2745 27.8809 64.3367 27.9029 64.3952 27.9467V31.2276L64.4062 34.5195C64.4574 34.5707 64.5013 34.6036 64.5379 34.6182C64.5745 34.6328 64.6622 34.6475 64.8012 34.6621C64.9402 34.6767 65.167 34.684 65.4815 34.684H65.7668V35.1888H65.6461C65.4925 35.1669 64.911 35.1559 63.9015 35.1559C62.9066 35.1559 62.3323 35.1669 62.1787 35.1888H62.0471V34.684H62.3323C62.4933 34.684 62.6323 34.684 62.7493 34.684C62.8664 34.684 62.9578 34.6804 63.0236 34.6731C63.0895 34.6658 63.148 34.6548 63.1992 34.6402C63.2504 34.6255 63.2797 34.6182 63.287 34.6182C63.2943 34.6182 63.3162 34.5999 63.3528 34.5633C63.3894 34.5268 63.4113 34.5121 63.4187 34.5195V28.8465Z" fill="black"/>
<path d="M72.0046 28.9807C72.0046 28.7324 72.0925 28.5151 72.2684 28.3289C72.4443 28.1426 72.6668 28.0495 72.9358 28.0495C73.1841 28.0495 73.4014 28.1323 73.5877 28.2978C73.7739 28.4634 73.8722 28.6858 73.8825 28.9652C73.8825 29.2239 73.7946 29.4463 73.6187 29.6326C73.4428 29.8188 73.2203 29.9119 72.9513 29.9119C72.6823 29.9119 72.4599 29.824 72.284 29.6481C72.1081 29.4722 72.0149 29.2497 72.0046 28.9807Z" fill="black"/>
<path d="M78.8832 28.4065C78.8935 28.3444 78.909 28.2616 78.9297 28.1581C78.9504 28.0547 79.0125 27.8581 79.116 27.5684C79.2194 27.2786 79.3229 27.0355 79.4264 26.8389C79.5298 26.6423 79.6954 26.4509 79.923 26.2647C80.1506 26.0784 80.3783 25.9905 80.6059 26.0008C80.8335 26.0112 81.056 26.0474 81.2733 26.1095C81.4906 26.1715 81.6458 26.2647 81.7389 26.3888C81.832 26.513 81.9148 26.6268 81.9872 26.7303C82.0596 26.8337 82.101 26.932 82.1114 27.0252L82.1424 27.1338C82.1424 27.1545 82.1476 27.1648 82.1579 27.1648L82.3287 26.9941C82.9495 26.3319 83.6789 26.0008 84.517 26.0008C84.6929 26.0008 84.8533 26.0112 84.9981 26.0319C85.143 26.0526 85.2775 26.0888 85.4017 26.1405C85.5258 26.1922 85.6241 26.244 85.6965 26.2957C85.769 26.3474 85.8466 26.4095 85.9293 26.4819C86.0121 26.5544 86.0639 26.6216 86.0845 26.6837C86.1052 26.7458 86.1466 26.813 86.2087 26.8855C86.2708 26.9579 86.2915 27.02 86.2708 27.0717C86.2501 27.1234 86.2656 27.17 86.3174 27.2114C86.3691 27.2528 86.3794 27.289 86.3484 27.32L86.4726 27.1648C87.1244 26.3888 87.8952 26.0008 88.7851 26.0008C89.3438 26.0008 89.7939 26.1405 90.1353 26.4199C90.4768 26.6992 90.6527 27.1079 90.663 27.646C90.663 28.1737 90.4664 28.991 90.0732 30.0982C89.6801 31.2053 89.4835 31.8675 89.4835 32.0848C89.4938 32.2296 89.5197 32.3279 89.5611 32.3796C89.6025 32.4314 89.6801 32.4572 89.7939 32.4572C90.0836 32.4572 90.3526 32.302 90.6009 31.9916C90.8493 31.6812 91.051 31.257 91.2062 30.719C91.2373 30.6052 91.2683 30.5379 91.2993 30.5172C91.3304 30.4965 91.4132 30.4862 91.5477 30.4862C91.7546 30.4862 91.8581 30.5276 91.8581 30.6103C91.8581 30.6207 91.8374 30.6983 91.796 30.8431C91.7132 31.1432 91.5994 31.4381 91.4546 31.7278C91.3097 32.0175 91.0717 32.3072 90.7406 32.5969C90.4095 32.8866 90.0526 33.0263 89.6697 33.016C89.1834 33.016 88.8316 32.8763 88.6143 32.5969C88.3971 32.3176 88.2884 32.0278 88.2884 31.7278C88.2884 31.5312 88.4747 30.9104 88.8472 29.8654C89.2196 28.8203 89.4111 28.034 89.4214 27.5063C89.4214 26.8958 89.1938 26.5906 88.7385 26.5906H88.6609C87.7711 26.5906 87.0209 27.1131 86.4105 28.1581L86.3018 28.3444L85.7897 30.4241C85.4482 31.7795 85.2516 32.509 85.1999 32.6124C85.0654 32.8918 84.8429 33.0315 84.5325 33.0315C84.398 33.0315 84.2894 32.9953 84.2066 32.9228C84.1238 32.8504 84.0669 32.7883 84.0359 32.7366C84.0048 32.6849 83.9893 32.6331 83.9893 32.5814C83.9893 32.4676 84.1652 31.7278 84.517 30.362L85.0757 28.096C85.1068 27.9408 85.1223 27.7443 85.1223 27.5063C85.1223 26.8958 84.8947 26.5906 84.4394 26.5906H84.3618C83.472 26.5906 82.7218 27.1131 82.1114 28.1581L82.0027 28.3444L81.4906 30.4241C81.1491 31.7795 80.9525 32.509 80.9008 32.6124C80.7663 32.8918 80.5438 33.0315 80.2334 33.0315C80.0989 33.0315 79.9903 33.0004 79.9075 32.9384C79.8247 32.8763 79.7678 32.8142 79.7368 32.7521C79.7057 32.69 79.6954 32.6383 79.7057 32.5969C79.7057 32.4624 79.9023 31.614 80.2955 30.0516C80.699 28.4582 80.9008 27.6253 80.9008 27.5528C80.9318 27.3976 80.9473 27.258 80.9473 27.1338C80.9473 26.7613 80.818 26.5751 80.5593 26.5751C80.3317 26.5751 80.1403 26.7199 79.9851 27.0096C79.8299 27.2993 79.7109 27.6149 79.6281 27.9564C79.5454 28.2978 79.4833 28.4841 79.4419 28.5151C79.4212 28.5358 79.3384 28.5461 79.1936 28.5461H78.9763C78.9142 28.4841 78.8832 28.4375 78.8832 28.4065Z" fill="black"/>
<path d="M93.38 30.4815C93.1825 30.4815 93.0253 30.4156 92.9082 30.284C92.7912 30.1523 92.7327 29.9913 92.7327 29.8011C92.7327 29.2818 92.9265 28.8319 93.3142 28.4515C93.7019 28.0711 94.1847 27.8809 94.7626 27.8809C95.4283 27.8809 95.9843 28.0857 96.4305 28.4954C96.8767 28.905 97.1035 29.4354 97.1108 30.0864C97.1108 30.401 97.0376 30.7009 96.8913 30.9862C96.745 31.2715 96.5695 31.5202 96.3646 31.7324C96.1598 31.9445 95.8672 32.2152 95.4868 32.5444C95.2235 32.7711 94.8577 33.1076 94.3895 33.5538L93.7421 34.1683L94.5761 34.1793C95.7246 34.1793 96.3354 34.161 96.4085 34.1244C96.4597 34.1098 96.5475 33.7843 96.6719 33.1479V33.1149H97.1108V33.1479C97.1035 33.1698 97.0559 33.5026 96.9682 34.1464C96.8804 34.7901 96.8255 35.1266 96.8036 35.1559V35.1888H92.7327V34.8486C92.7327 34.7974 92.7546 34.7426 92.7985 34.684C92.8424 34.6255 92.9521 34.4975 93.1277 34.3C93.3398 34.0659 93.5227 33.8611 93.6763 33.6855C93.7421 33.6124 93.8665 33.477 94.0494 33.2795C94.2323 33.082 94.3566 32.9467 94.4225 32.8735C94.4883 32.8004 94.5944 32.6797 94.7407 32.5114C94.887 32.3432 94.9894 32.2188 95.0479 32.1384C95.1064 32.0579 95.1906 31.9482 95.3003 31.8092C95.41 31.6702 95.4868 31.5531 95.5307 31.458C95.5746 31.3629 95.6295 31.2569 95.6953 31.1398C95.7611 31.0228 95.8087 30.9057 95.838 30.7887C95.8672 30.6717 95.8928 30.5619 95.9148 30.4595C95.9367 30.3571 95.9477 30.2364 95.9477 30.0974C95.9477 29.6366 95.8233 29.2379 95.5746 28.9014C95.3259 28.5649 94.9711 28.3966 94.5102 28.3966C94.2688 28.3966 94.0567 28.4588 93.8738 28.5832C93.6909 28.7075 93.5629 28.8282 93.4898 28.9453C93.4166 29.0623 93.38 29.1318 93.38 29.1538C93.38 29.1611 93.3983 29.1647 93.4349 29.1647C93.5666 29.1647 93.7019 29.2159 93.8409 29.3183C93.9799 29.4208 94.0494 29.589 94.0494 29.8231C94.0494 30.006 93.9909 30.1596 93.8738 30.284C93.7568 30.4083 93.5922 30.4741 93.38 30.4815Z" fill="black"/>
<path d="M66.6455 51.2197C66.6558 51.1886 66.6662 51.1472 66.6765 51.0955C66.6868 51.0438 66.7127 50.9299 66.7541 50.754C66.7955 50.5781 66.8472 50.4178 66.9093 50.2729C66.9714 50.1281 67.049 49.9573 67.1421 49.7607C67.2352 49.5642 67.3387 49.409 67.4525 49.2951C67.5663 49.1813 67.7008 49.0675 67.856 48.9537C68.0112 48.8399 68.182 48.7933 68.3682 48.814C68.6683 48.814 68.9321 48.8761 69.1597 49.0003C69.3874 49.1244 69.5477 49.2382 69.6409 49.3417C69.734 49.4452 69.7909 49.5486 69.8116 49.6521C69.8323 49.7142 69.8478 49.7452 69.8581 49.7452C69.8685 49.7452 69.9099 49.709 69.9823 49.6366C70.479 49.0986 71.0532 48.8295 71.7051 48.8295H71.7516C72.2483 48.8295 72.6207 49.0416 72.8691 49.4659C72.9518 49.6625 72.9932 49.8539 72.9932 50.0401C72.9932 50.3505 72.926 50.5988 72.7915 50.7851C72.657 50.9713 72.5225 51.0903 72.3879 51.142C72.2534 51.1938 72.1241 51.2145 71.9999 51.2041C71.793 51.2041 71.6275 51.1472 71.5033 51.0334C71.3791 50.9196 71.317 50.7696 71.317 50.5833C71.317 50.0867 71.6068 49.7556 72.1862 49.59C71.9585 49.4555 71.7723 49.3883 71.6274 49.3883C71.048 49.3883 70.5152 49.7711 70.0289 50.5368C69.9254 50.7023 69.8478 50.873 69.7961 51.0489C69.7443 51.2248 69.5684 51.9129 69.2684 53.1131C68.9166 54.5617 68.7148 55.3325 68.6631 55.4256C68.5286 55.705 68.3061 55.8447 67.9957 55.8447C67.8612 55.8447 67.7526 55.8136 67.6698 55.7516C67.587 55.6895 67.5301 55.6274 67.4991 55.5653C67.468 55.5032 67.4577 55.4515 67.468 55.4101C67.468 55.2756 67.675 54.3858 68.0888 52.7406C68.5027 51.0955 68.7096 50.1798 68.7096 49.9936C68.7096 49.59 68.5751 49.3883 68.3061 49.3883C68.0888 49.3883 67.9026 49.5331 67.7474 49.8228C67.5922 50.1125 67.468 50.4281 67.3749 50.7696C67.2818 51.111 67.2249 51.2973 67.2042 51.3283C67.1835 51.349 67.1007 51.3593 66.9559 51.3593H66.7386C66.6765 51.2973 66.6455 51.2507 66.6455 51.2197Z" fill="black"/>
<path d="M74.5152 45.3328C74.3177 45.3328 74.1604 45.2669 74.0434 45.1353C73.9263 45.0036 73.8678 44.8427 73.8678 44.6525C73.8678 44.1331 74.0617 43.6832 74.4494 43.3028C74.8371 42.9224 75.3199 42.7322 75.8978 42.7322C76.5635 42.7322 77.1194 42.937 77.5656 43.3467C78.0119 43.7564 78.2386 44.2867 78.2459 44.9378C78.2459 45.2523 78.1728 45.5522 78.0265 45.8375C77.8802 46.1228 77.7046 46.3715 77.4998 46.5837C77.295 46.7958 77.0024 47.0665 76.622 47.3957C76.3586 47.6224 75.9929 47.9589 75.5247 48.4052L74.8773 49.0196L75.7112 49.0306C76.8597 49.0306 77.4705 49.0123 77.5437 48.9757C77.5949 48.9611 77.6827 48.6356 77.807 47.9992V47.9663H78.2459V47.9992C78.2386 48.0211 78.1911 48.354 78.1033 48.9977C78.0155 49.6414 77.9607 49.9779 77.9387 50.0072V50.0401H73.8678V49.7C73.8678 49.6487 73.8897 49.5939 73.9336 49.5354C73.9775 49.4768 74.0873 49.3488 74.2628 49.1513C74.475 48.9172 74.6578 48.7124 74.8115 48.5368C74.8773 48.4637 75.0017 48.3284 75.1845 48.1308C75.3674 47.9333 75.4918 47.798 75.5576 47.7248C75.6234 47.6517 75.7295 47.531 75.8758 47.3627C76.0221 47.1945 76.1245 47.0701 76.1831 46.9897C76.2416 46.9092 76.3257 46.7995 76.4354 46.6605C76.5452 46.5215 76.622 46.4045 76.6659 46.3094C76.7098 46.2143 76.7646 46.1082 76.8305 45.9911C76.8963 45.8741 76.9438 45.7571 76.9731 45.64C77.0024 45.523 77.028 45.4132 77.0499 45.3108C77.0719 45.2084 77.0828 45.0877 77.0828 44.9487C77.0828 44.4879 76.9585 44.0892 76.7098 43.7527C76.461 43.4162 76.1063 43.2479 75.6454 43.2479C75.404 43.2479 75.1919 43.3101 75.009 43.4345C74.8261 43.5588 74.6981 43.6795 74.6249 43.7966C74.5518 43.9136 74.5152 43.9831 74.5152 44.0051C74.5152 44.0124 74.5335 44.016 74.5701 44.016C74.7017 44.016 74.8371 44.0672 74.9761 44.1697C75.115 44.2721 75.1845 44.4403 75.1845 44.6744C75.1845 44.8573 75.126 45.0109 75.009 45.1353C74.8919 45.2596 74.7273 45.3255 74.5152 45.3328Z" fill="black"/>
<path d="M100 39.938H45.9027V39.0068H100V39.938Z" fill="black"/>
<path d="M0.263844 43.3369C0.087948 43.3369 0 43.2852 0 43.1817C0 43.161 0.0155202 43.0886 0.0465607 42.9644C0.087948 42.7989 0.129335 42.7058 0.170723 42.6851C0.21211 42.6644 0.331098 42.6489 0.527688 42.6385C0.807052 42.6385 1.11746 42.623 1.4589 42.5919C1.60376 42.5609 1.70205 42.4988 1.75379 42.4057C1.77448 42.354 2.14179 40.9002 2.85572 38.0445C3.56965 35.1888 3.93179 33.7402 3.94214 33.6989C3.94214 33.6264 3.92145 33.5902 3.88006 33.5902C3.79728 33.5592 3.52309 33.5333 3.05749 33.5126H2.57636C2.51428 33.4505 2.48324 33.4091 2.48324 33.3884C2.48324 33.3678 2.49358 33.2798 2.51428 33.1246C2.55567 32.9487 2.6074 32.8401 2.66948 32.7987H11.0349C11.1073 32.8401 11.1435 32.897 11.1435 32.9694C11.1435 33.0211 11.0763 33.6006 10.9418 34.7077C10.8073 35.8148 10.7348 36.3839 10.7245 36.4149C10.7038 36.4873 10.6003 36.5235 10.4141 36.5235H10.2278C10.1554 36.4718 10.1192 36.4045 10.1192 36.3218C10.1192 36.3114 10.1347 36.1873 10.1658 35.9493C10.1968 35.7113 10.2123 35.4371 10.2123 35.1267C10.2123 34.8163 10.1761 34.5628 10.1037 34.3662C10.0312 34.1696 9.93295 34.0093 9.80879 33.8851C9.68463 33.7609 9.49321 33.6782 9.23454 33.6368C8.97587 33.5954 8.71203 33.5592 8.44301 33.5281C8.17399 33.4971 7.80151 33.4919 7.32555 33.5126H6.96859C6.12015 33.523 5.67006 33.5385 5.61833 33.5592C5.56659 33.5799 5.53038 33.6213 5.50968 33.6833C5.49934 33.6937 5.32344 34.3714 4.982 35.7165L4.48535 37.7186H5.33896C5.37 37.7186 5.48899 37.7186 5.69593 37.7186C5.90286 37.7186 6.04772 37.7134 6.13049 37.7031C6.21327 37.6927 6.32708 37.6772 6.47194 37.6565C6.6168 37.6358 6.74096 37.5996 6.84443 37.5479C6.94789 37.4961 7.03584 37.4341 7.10827 37.3616C7.24278 37.2375 7.35659 37.0667 7.44971 36.8495C7.54284 36.6322 7.61009 36.4356 7.65148 36.2597C7.69286 36.0838 7.71873 35.9907 7.72908 35.9803C7.76012 35.9286 7.85841 35.9027 8.02396 35.9027H8.21021C8.28263 35.9545 8.31885 36.0062 8.31885 36.0579C8.31885 36.089 8.15847 36.7667 7.83772 38.0911C7.51697 39.4155 7.34107 40.0984 7.31003 40.1398C7.28934 40.2122 7.18587 40.2484 6.99963 40.2484H6.81338C6.74096 40.1863 6.70474 40.1242 6.70474 40.0622C6.70474 40.0311 6.73061 39.9173 6.78234 39.7207C6.83408 39.5241 6.85995 39.3172 6.85995 39.0999C6.85995 38.7998 6.75648 38.6136 6.54954 38.5412C6.3426 38.4687 5.88217 38.4325 5.16824 38.4325H4.31463L3.81798 40.4036C3.48688 41.6866 3.32133 42.3591 3.32133 42.4212C3.32133 42.5661 3.78176 42.6385 4.70263 42.6385H5.09064C5.15272 42.7006 5.18376 42.7368 5.18376 42.7472C5.18376 42.7575 5.17341 42.861 5.15272 43.0576C5.11133 43.1921 5.0596 43.2904 4.99752 43.3524H4.73367C4.30945 43.3317 3.52827 43.3214 2.39012 43.3214C1.71757 43.3214 1.20541 43.3214 0.853613 43.3214C0.501821 43.3214 0.305231 43.3266 0.263844 43.3369Z" stroke="black"/>
<path d="M16.3242 37.9669C16.3242 37.8324 16.3966 37.7289 16.5415 37.6565H26.4279C26.5831 37.7393 26.6607 37.8428 26.6607 37.9669C26.6607 38.0807 26.5882 38.179 26.4434 38.2618L21.5079 38.2773H16.5725C16.407 38.2256 16.3242 38.1221 16.3242 37.9669ZM16.3242 40.9778C16.3242 40.8226 16.407 40.7192 16.5725 40.6674H26.4434C26.5882 40.7709 26.6607 40.8744 26.6607 40.9778C26.6607 41.1124 26.5831 41.2158 26.4279 41.2882H16.5415C16.3966 41.2158 16.3242 41.1124 16.3242 40.9778Z" stroke="black"/>
<path d="M32.6173 39.4413C32.6173 38.2515 32.964 37.1081 33.6572 36.0114C34.3504 34.9146 35.2247 34.0455 36.2801 33.404C37.3355 32.7625 38.3909 32.4365 39.4462 32.4262C40.3774 32.4262 41.1172 32.69 41.6656 33.2177C41.7588 33.3212 41.8364 33.4091 41.8984 33.4816C41.9605 33.554 42.0019 33.6057 42.0226 33.6368L42.0381 33.6833C42.0692 33.6833 42.2088 33.5488 42.4572 33.2798C42.5296 33.2177 42.6072 33.1453 42.69 33.0625C42.7727 32.9797 42.8555 32.897 42.9383 32.8142C43.0211 32.7314 43.0728 32.6745 43.0935 32.6435L43.3263 32.4107H43.4194C43.5643 32.4107 43.6367 32.4469 43.6367 32.5193C43.6367 32.5607 43.4712 33.2695 43.1401 34.6456C42.7676 36.0838 42.5813 36.8081 42.5813 36.8184C42.5606 36.8702 42.5348 36.9012 42.5037 36.9115C42.4727 36.9219 42.3796 36.9322 42.2244 36.9426H41.976C41.914 36.8805 41.8829 36.8339 41.8829 36.8029C41.8829 36.7926 41.8881 36.7563 41.8984 36.6943C41.9088 36.6322 41.9191 36.5287 41.9295 36.3839C41.9398 36.239 41.945 36.0734 41.945 35.8872C41.945 35.1526 41.7794 34.5111 41.4483 33.9627C41.1173 33.4143 40.5533 33.135 39.7566 33.1246C39.5704 33.1246 39.3686 33.1401 39.1514 33.1712C38.9341 33.2022 38.6599 33.2695 38.3288 33.3729C37.9977 33.4764 37.6821 33.6213 37.382 33.8075C37.082 33.9937 36.7561 34.2421 36.4043 34.5525C36.0525 34.8629 35.7524 35.2302 35.5041 35.6544C35.2558 36.0786 35.0126 36.6063 34.7746 37.2375C34.5367 37.8686 34.3763 38.5619 34.2935 39.3172C34.2728 39.5034 34.2625 39.7052 34.2625 39.9225C34.2625 40.4191 34.3349 40.8589 34.4798 41.2417C34.6246 41.6245 34.8109 41.9194 35.0385 42.1263C35.2661 42.3333 35.5248 42.5092 35.8145 42.654C36.1042 42.7989 36.3732 42.8868 36.6216 42.9179C36.8699 42.9489 37.1027 42.9696 37.32 42.98C37.8787 42.98 38.3909 42.861 38.8565 42.623C39.3221 42.385 39.6428 42.0798 39.8187 41.7073C39.8498 41.6245 39.9274 41.34 40.0515 40.8537C40.1757 40.3674 40.2378 40.0932 40.2378 40.0311C40.2378 39.9483 40.1705 39.8966 40.036 39.8759C39.9015 39.8552 39.5911 39.8397 39.1048 39.8293H38.5305C38.4685 39.7673 38.4374 39.7259 38.4374 39.7052C38.4374 39.6845 38.4478 39.5862 38.4685 39.4103C38.5099 39.2758 38.5616 39.1775 38.6237 39.1154H38.8875C39.3014 39.1361 40.0257 39.1465 41.0603 39.1465C41.4742 39.1465 41.8105 39.1465 42.0692 39.1465C42.3278 39.1465 42.5141 39.1413 42.6279 39.1309C42.7417 39.1206 42.8038 39.1206 42.8141 39.1309C42.959 39.1309 43.0314 39.1775 43.0314 39.2706C43.0314 39.2913 43.0211 39.3637 43.0004 39.4879C42.9486 39.6845 42.8969 39.7931 42.8452 39.8138C42.8141 39.8242 42.7365 39.8293 42.6124 39.8293C42.4054 39.8293 42.1933 39.8449 41.976 39.8759C41.9036 39.9069 41.8519 39.9535 41.8208 40.0156C41.7898 40.0777 41.7174 40.3415 41.6035 40.8071C41.5104 41.1486 41.4328 41.4383 41.3707 41.6763C41.1121 42.7316 40.9672 43.2748 40.9362 43.3059C40.9155 43.3266 40.8896 43.3369 40.8586 43.3369C40.7551 43.3369 40.6103 43.2335 40.424 43.0265C40.2378 42.8196 40.1188 42.6592 40.067 42.5454C40.067 42.535 40.0567 42.535 40.036 42.5454C40.0153 42.5557 39.9843 42.5816 39.9429 42.623C39.1772 43.3369 38.1425 43.6939 36.8388 43.6939C35.5869 43.6939 34.5729 43.2955 33.7969 42.4988C33.0209 41.7021 32.6277 40.683 32.6173 39.4413Z" stroke="black"/>
<path d="M47.7806 28.4065C47.791 28.3444 47.8065 28.2616 47.8272 28.1581C47.8479 28.0547 47.9099 27.8581 48.0134 27.5684C48.1169 27.2786 48.2203 27.0355 48.3238 26.8389C48.4273 26.6423 48.5928 26.4509 48.8205 26.2647C49.0481 26.0784 49.2757 25.9905 49.5034 26.0008C49.731 26.0112 49.9534 26.0474 50.1707 26.1095C50.388 26.1715 50.5432 26.2647 50.6363 26.3888C50.7295 26.513 50.8122 26.6268 50.8847 26.7303C50.9571 26.8337 50.9985 26.932 51.0088 27.0252L51.0399 27.1338C51.0399 27.1545 51.045 27.1648 51.0554 27.1648L51.2261 26.9941C51.8469 26.3319 52.5764 26.0008 53.4145 26.0008C53.5903 26.0008 53.7507 26.0112 53.8956 26.0319C54.0404 26.0526 54.1749 26.0888 54.2991 26.1405C54.4233 26.1922 54.5216 26.244 54.594 26.2957C54.6664 26.3474 54.744 26.4095 54.8268 26.4819C54.9096 26.5544 54.9613 26.6216 54.982 26.6837C55.0027 26.7458 55.0441 26.813 55.1062 26.8855C55.1682 26.9579 55.1889 27.02 55.1682 27.0717C55.1475 27.1234 55.1631 27.17 55.2148 27.2114C55.2665 27.2528 55.2769 27.289 55.2458 27.32L55.37 27.1648C56.0219 26.3888 56.7927 26.0008 57.6825 26.0008C58.2412 26.0008 58.6913 26.1405 59.0328 26.4199C59.3742 26.6992 59.5501 27.1079 59.5605 27.646C59.5605 28.1737 59.3639 28.991 58.9707 30.0982C58.5775 31.2053 58.3809 31.8675 58.3809 32.0847C58.3913 32.2296 58.4171 32.3279 58.4585 32.3796C58.4999 32.4314 58.5775 32.4572 58.6913 32.4572C58.981 32.4572 59.2501 32.302 59.4984 31.9916C59.7467 31.6812 59.9485 31.257 60.1037 30.719C60.1347 30.6052 60.1658 30.5379 60.1968 30.5172C60.2278 30.4965 60.3106 30.4862 60.4451 30.4862C60.6521 30.4862 60.7555 30.5276 60.7555 30.6103C60.7555 30.6207 60.7348 30.6983 60.6934 30.8431C60.6107 31.1432 60.4969 31.4381 60.352 31.7278C60.2071 32.0175 59.9692 32.3072 59.6381 32.5969C59.307 32.8866 58.95 33.0263 58.5672 33.016C58.0809 33.016 57.7291 32.8763 57.5118 32.5969C57.2945 32.3176 57.1859 32.0278 57.1859 31.7278C57.1859 31.5312 57.3721 30.9104 57.7446 29.8654C58.1171 28.8203 58.3085 28.034 58.3188 27.5063C58.3188 26.8958 58.0912 26.5906 57.636 26.5906H57.5584C56.6685 26.5906 55.9184 27.1131 55.3079 28.1581L55.1993 28.3444L54.6871 30.4241C54.3457 31.7795 54.1491 32.509 54.0973 32.6124C53.9628 32.8918 53.7404 33.0315 53.43 33.0315C53.2955 33.0315 53.1868 32.9953 53.104 32.9228C53.0213 32.8504 52.9644 32.7883 52.9333 32.7366C52.9023 32.6849 52.8868 32.6331 52.8868 32.5814C52.8868 32.4676 53.0627 31.7278 53.4145 30.362L53.9732 28.096C54.0042 27.9408 54.0197 27.7443 54.0197 27.5063C54.0197 26.8958 53.7921 26.5906 53.3368 26.5906H53.2593C52.3694 26.5906 51.6193 27.1131 51.0088 28.1581L50.9002 28.3444L50.388 30.4241C50.0466 31.7795 49.85 32.509 49.7982 32.6124C49.6637 32.8918 49.4413 33.0315 49.1309 33.0315C48.9964 33.0315 48.8877 33.0004 48.8049 32.9384C48.7222 32.8763 48.6653 32.8142 48.6342 32.7521C48.6032 32.69 48.5928 32.6383 48.6032 32.5969C48.6032 32.4624 48.7998 31.614 49.1929 30.0516C49.5965 28.4582 49.7982 27.6253 49.7982 27.5528C49.8293 27.3976 49.8448 27.258 49.8448 27.1338C49.8448 26.7613 49.7155 26.5751 49.4568 26.5751C49.2292 26.5751 49.0377 26.7199 48.8825 27.0096C48.7273 27.2993 48.6084 27.6149 48.5256 27.9564C48.4428 28.2978 48.3807 28.4841 48.3393 28.5151C48.3186 28.5358 48.2359 28.5461 48.091 28.5461H47.8737C47.8116 28.4841 47.7806 28.4375 47.7806 28.4065Z" stroke="black"/>
<path d="M63.4187 28.8465L63.276 28.9014C63.1736 28.938 63.0273 28.9745 62.8371 29.0111C62.6469 29.0477 62.4348 29.0733 62.2007 29.0879H61.9922V28.5832H62.2007C62.5445 28.5685 62.8627 28.5137 63.1553 28.4186C63.4479 28.3235 63.6527 28.2357 63.7698 28.1552C63.8868 28.0748 63.9892 27.9943 64.077 27.9138C64.0917 27.8919 64.1355 27.8809 64.2087 27.8809C64.2745 27.8809 64.3367 27.9029 64.3952 27.9467V31.2276L64.4062 34.5195C64.4574 34.5707 64.5013 34.6036 64.5379 34.6182C64.5745 34.6328 64.6622 34.6475 64.8012 34.6621C64.9402 34.6767 65.167 34.684 65.4815 34.684H65.7668V35.1888H65.6461C65.4925 35.1669 64.911 35.1559 63.9015 35.1559C62.9066 35.1559 62.3323 35.1669 62.1787 35.1888H62.0471V34.684H62.3323C62.4933 34.684 62.6323 34.684 62.7493 34.684C62.8664 34.684 62.9578 34.6804 63.0236 34.6731C63.0895 34.6658 63.148 34.6548 63.1992 34.6402C63.2504 34.6255 63.2797 34.6182 63.287 34.6182C63.2943 34.6182 63.3162 34.5999 63.3528 34.5633C63.3894 34.5268 63.4113 34.5121 63.4187 34.5195V28.8465Z" stroke="black"/>
<path d="M72.0046 28.9807C72.0046 28.7324 72.0925 28.5151 72.2684 28.3289C72.4443 28.1426 72.6668 28.0495 72.9358 28.0495C73.1841 28.0495 73.4014 28.1323 73.5877 28.2978C73.7739 28.4634 73.8722 28.6858 73.8825 28.9652C73.8825 29.2239 73.7946 29.4463 73.6187 29.6326C73.4428 29.8188 73.2203 29.9119 72.9513 29.9119C72.6823 29.9119 72.4599 29.824 72.284 29.6481C72.1081 29.4722 72.0149 29.2497 72.0046 28.9807Z" stroke="black"/>
<path d="M78.8832 28.4065C78.8935 28.3444 78.909 28.2616 78.9297 28.1581C78.9504 28.0547 79.0125 27.8581 79.116 27.5684C79.2194 27.2786 79.3229 27.0355 79.4264 26.8389C79.5298 26.6423 79.6954 26.4509 79.923 26.2647C80.1506 26.0784 80.3783 25.9905 80.6059 26.0008C80.8335 26.0112 81.056 26.0474 81.2733 26.1095C81.4906 26.1715 81.6458 26.2647 81.7389 26.3888C81.832 26.513 81.9148 26.6268 81.9872 26.7303C82.0596 26.8337 82.101 26.932 82.1114 27.0252L82.1424 27.1338C82.1424 27.1545 82.1476 27.1648 82.1579 27.1648L82.3287 26.9941C82.9495 26.3319 83.6789 26.0008 84.517 26.0008C84.6929 26.0008 84.8533 26.0112 84.9981 26.0319C85.143 26.0526 85.2775 26.0888 85.4017 26.1405C85.5258 26.1922 85.6241 26.244 85.6965 26.2957C85.769 26.3474 85.8466 26.4095 85.9293 26.4819C86.0121 26.5544 86.0639 26.6216 86.0845 26.6837C86.1052 26.7458 86.1466 26.813 86.2087 26.8855C86.2708 26.9579 86.2915 27.02 86.2708 27.0717C86.2501 27.1234 86.2656 27.17 86.3174 27.2114C86.3691 27.2528 86.3794 27.289 86.3484 27.32L86.4726 27.1648C87.1244 26.3888 87.8952 26.0008 88.7851 26.0008C89.3438 26.0008 89.7939 26.1405 90.1353 26.4199C90.4768 26.6992 90.6527 27.1079 90.663 27.646C90.663 28.1737 90.4664 28.991 90.0732 30.0982C89.6801 31.2053 89.4835 31.8675 89.4835 32.0848C89.4938 32.2296 89.5197 32.3279 89.5611 32.3796C89.6025 32.4314 89.6801 32.4572 89.7939 32.4572C90.0836 32.4572 90.3526 32.302 90.6009 31.9916C90.8493 31.6812 91.051 31.257 91.2062 30.719C91.2373 30.6052 91.2683 30.5379 91.2993 30.5172C91.3304 30.4965 91.4132 30.4862 91.5477 30.4862C91.7546 30.4862 91.8581 30.5276 91.8581 30.6103C91.8581 30.6207 91.8374 30.6983 91.796 30.8431C91.7132 31.1432 91.5994 31.4381 91.4546 31.7278C91.3097 32.0175 91.0717 32.3072 90.7406 32.5969C90.4095 32.8866 90.0526 33.0263 89.6697 33.016C89.1834 33.016 88.8316 32.8763 88.6143 32.5969C88.3971 32.3176 88.2884 32.0278 88.2884 31.7278C88.2884 31.5312 88.4747 30.9104 88.8472 29.8654C89.2196 28.8203 89.4111 28.034 89.4214 27.5063C89.4214 26.8958 89.1938 26.5906 88.7385 26.5906H88.6609C87.7711 26.5906 87.0209 27.1131 86.4105 28.1581L86.3018 28.3444L85.7897 30.4241C85.4482 31.7795 85.2516 32.509 85.1999 32.6124C85.0654 32.8918 84.8429 33.0315 84.5325 33.0315C84.398 33.0315 84.2894 32.9953 84.2066 32.9228C84.1238 32.8504 84.0669 32.7883 84.0359 32.7366C84.0048 32.6849 83.9893 32.6331 83.9893 32.5814C83.9893 32.4676 84.1652 31.7278 84.517 30.362L85.0757 28.096C85.1068 27.9408 85.1223 27.7443 85.1223 27.5063C85.1223 26.8958 84.8947 26.5906 84.4394 26.5906H84.3618C83.472 26.5906 82.7218 27.1131 82.1114 28.1581L82.0027 28.3444L81.4906 30.4241C81.1491 31.7795 80.9525 32.509 80.9008 32.6124C80.7663 32.8918 80.5438 33.0315 80.2334 33.0315C80.0989 33.0315 79.9903 33.0004 79.9075 32.9384C79.8247 32.8763 79.7678 32.8142 79.7368 32.7521C79.7057 32.69 79.6954 32.6383 79.7057 32.5969C79.7057 32.4624 79.9023 31.614 80.2955 30.0516C80.699 28.4582 80.9008 27.6253 80.9008 27.5528C80.9318 27.3976 80.9473 27.258 80.9473 27.1338C80.9473 26.7613 80.818 26.5751 80.5593 26.5751C80.3317 26.5751 80.1403 26.7199 79.9851 27.0096C79.8299 27.2993 79.7109 27.6149 79.6281 27.9564C79.5454 28.2978 79.4833 28.4841 79.4419 28.5151C79.4212 28.5358 79.3384 28.5461 79.1936 28.5461H78.9763C78.9142 28.4841 78.8832 28.4375 78.8832 28.4065Z" stroke="black"/>
<path d="M93.38 30.4815C93.1825 30.4815 93.0253 30.4156 92.9082 30.284C92.7912 30.1523 92.7327 29.9913 92.7327 29.8011C92.7327 29.2818 92.9265 28.8319 93.3142 28.4515C93.7019 28.0711 94.1847 27.8809 94.7626 27.8809C95.4283 27.8809 95.9843 28.0857 96.4305 28.4954C96.8767 28.905 97.1035 29.4354 97.1108 30.0864C97.1108 30.401 97.0376 30.7009 96.8913 30.9862C96.745 31.2715 96.5695 31.5202 96.3646 31.7324C96.1598 31.9445 95.8672 32.2152 95.4868 32.5444C95.2235 32.7711 94.8577 33.1076 94.3895 33.5538L93.7421 34.1683L94.5761 34.1793C95.7246 34.1793 96.3354 34.161 96.4085 34.1244C96.4597 34.1098 96.5475 33.7843 96.6719 33.1479V33.1149H97.1108V33.1479C97.1035 33.1698 97.0559 33.5026 96.9682 34.1464C96.8804 34.7901 96.8255 35.1266 96.8036 35.1559V35.1888H92.7327V34.8486C92.7327 34.7974 92.7546 34.7426 92.7985 34.684C92.8424 34.6255 92.9521 34.4975 93.1277 34.3C93.3398 34.0659 93.5227 33.8611 93.6763 33.6855C93.7421 33.6124 93.8665 33.477 94.0494 33.2795C94.2323 33.082 94.3566 32.9467 94.4225 32.8735C94.4883 32.8004 94.5944 32.6797 94.7407 32.5114C94.887 32.3432 94.9894 32.2188 95.0479 32.1384C95.1064 32.0579 95.1906 31.9482 95.3003 31.8092C95.41 31.6702 95.4868 31.5531 95.5307 31.458C95.5746 31.3629 95.6295 31.2569 95.6953 31.1398C95.7611 31.0228 95.8087 30.9057 95.838 30.7887C95.8672 30.6717 95.8928 30.5619 95.9148 30.4595C95.9367 30.3571 95.9477 30.2364 95.9477 30.0974C95.9477 29.6366 95.8233 29.2379 95.5746 28.9014C95.3259 28.5649 94.9711 28.3966 94.5102 28.3966C94.2688 28.3966 94.0567 28.4588 93.8738 28.5832C93.6909 28.7075 93.5629 28.8282 93.4898 28.9453C93.4166 29.0623 93.38 29.1318 93.38 29.1538C93.38 29.1611 93.3983 29.1647 93.4349 29.1647C93.5666 29.1647 93.7019 29.2159 93.8409 29.3183C93.9799 29.4208 94.0494 29.589 94.0494 29.8231C94.0494 30.006 93.9909 30.1596 93.8738 30.284C93.7568 30.4083 93.5922 30.4741 93.38 30.4815Z" stroke="black"/>
<path d="M66.6455 51.2197C66.6558 51.1886 66.6662 51.1472 66.6765 51.0955C66.6868 51.0438 66.7127 50.9299 66.7541 50.754C66.7955 50.5781 66.8472 50.4178 66.9093 50.2729C66.9714 50.1281 67.049 49.9573 67.1421 49.7607C67.2352 49.5642 67.3387 49.409 67.4525 49.2951C67.5663 49.1813 67.7008 49.0675 67.856 48.9537C68.0112 48.8399 68.182 48.7933 68.3682 48.814C68.6683 48.814 68.9321 48.8761 69.1597 49.0003C69.3874 49.1244 69.5477 49.2382 69.6409 49.3417C69.734 49.4452 69.7909 49.5486 69.8116 49.6521C69.8323 49.7142 69.8478 49.7452 69.8581 49.7452C69.8685 49.7452 69.9099 49.709 69.9823 49.6366C70.479 49.0986 71.0532 48.8295 71.7051 48.8295H71.7516C72.2483 48.8295 72.6207 49.0416 72.8691 49.4659C72.9518 49.6625 72.9932 49.8539 72.9932 50.0401C72.9932 50.3505 72.926 50.5988 72.7915 50.7851C72.657 50.9713 72.5225 51.0903 72.3879 51.142C72.2534 51.1938 72.1241 51.2145 71.9999 51.2041C71.793 51.2041 71.6275 51.1472 71.5033 51.0334C71.3791 50.9196 71.317 50.7696 71.317 50.5833C71.317 50.0867 71.6068 49.7556 72.1862 49.59C71.9585 49.4555 71.7723 49.3883 71.6274 49.3883C71.048 49.3883 70.5152 49.7711 70.0289 50.5368C69.9254 50.7023 69.8478 50.873 69.7961 51.0489C69.7443 51.2248 69.5684 51.9129 69.2684 53.1131C68.9166 54.5617 68.7148 55.3325 68.6631 55.4256C68.5286 55.705 68.3061 55.8447 67.9957 55.8447C67.8612 55.8447 67.7526 55.8136 67.6698 55.7516C67.587 55.6895 67.5301 55.6274 67.4991 55.5653C67.468 55.5032 67.4577 55.4515 67.468 55.4101C67.468 55.2756 67.675 54.3858 68.0888 52.7406C68.5027 51.0955 68.7096 50.1798 68.7096 49.9936C68.7096 49.59 68.5751 49.3883 68.3061 49.3883C68.0888 49.3883 67.9026 49.5331 67.7474 49.8228C67.5922 50.1125 67.468 50.4281 67.3749 50.7696C67.2818 51.111 67.2249 51.2973 67.2042 51.3283C67.1835 51.349 67.1007 51.3593 66.9559 51.3593H66.7386C66.6765 51.2973 66.6455 51.2507 66.6455 51.2197Z" stroke="black"/>
<path d="M74.5152 45.3328C74.3177 45.3328 74.1604 45.2669 74.0434 45.1353C73.9263 45.0036 73.8678 44.8427 73.8678 44.6525C73.8678 44.1331 74.0617 43.6832 74.4494 43.3028C74.8371 42.9224 75.3199 42.7322 75.8978 42.7322C76.5635 42.7322 77.1194 42.937 77.5656 43.3467C78.0119 43.7564 78.2386 44.2867 78.2459 44.9378C78.2459 45.2523 78.1728 45.5522 78.0265 45.8375C77.8802 46.1228 77.7046 46.3715 77.4998 46.5837C77.295 46.7958 77.0024 47.0665 76.622 47.3957C76.3586 47.6224 75.9929 47.9589 75.5247 48.4052L74.8773 49.0196L75.7112 49.0306C76.8597 49.0306 77.4705 49.0123 77.5437 48.9757C77.5949 48.9611 77.6827 48.6356 77.807 47.9992V47.9663H78.2459V47.9992C78.2386 48.0211 78.1911 48.354 78.1033 48.9977C78.0155 49.6414 77.9607 49.9779 77.9387 50.0072V50.0401H73.8678V49.7C73.8678 49.6487 73.8897 49.5939 73.9336 49.5354C73.9775 49.4768 74.0873 49.3488 74.2628 49.1513C74.475 48.9172 74.6578 48.7124 74.8115 48.5368C74.8773 48.4637 75.0017 48.3284 75.1845 48.1308C75.3674 47.9333 75.4918 47.798 75.5576 47.7248C75.6234 47.6517 75.7295 47.531 75.8758 47.3627C76.0221 47.1945 76.1245 47.0701 76.1831 46.9897C76.2416 46.9092 76.3257 46.7995 76.4354 46.6605C76.5452 46.5215 76.622 46.4045 76.6659 46.3094C76.7098 46.2143 76.7646 46.1082 76.8305 45.9911C76.8963 45.8741 76.9438 45.7571 76.9731 45.64C77.0024 45.523 77.028 45.4132 77.0499 45.3108C77.0719 45.2084 77.0828 45.0877 77.0828 44.9487C77.0828 44.4879 76.9585 44.0892 76.7098 43.7527C76.461 43.4162 76.1063 43.2479 75.6454 43.2479C75.404 43.2479 75.1919 43.3101 75.009 43.4345C74.8261 43.5588 74.6981 43.6795 74.6249 43.7966C74.5518 43.9136 74.5152 43.9831 74.5152 44.0051C74.5152 44.0124 74.5335 44.016 74.5701 44.016C74.7017 44.016 74.8371 44.0672 74.9761 44.1697C75.115 44.2721 75.1845 44.4403 75.1845 44.6744C75.1845 44.8573 75.126 45.0109 75.009 45.1353C74.8919 45.2596 74.7273 45.3255 74.5152 45.3328Z" stroke="black"/>
<path d="M100 39.938H45.9027V39.0068H100V39.938Z" stroke="black"/>
</svg>
