<svg width="80" height="70" viewBox="0 0 80 70" fill="none" xmlns="http://www.w3.org/2000/svg">
<rect width="80" height="70" rx="10" fill="#E9E9E9"/>
<path d="M39.5268 49.4935C38.2775 49.4935 37.3405 49.1318 36.7158 48.4085C36.0911 47.6852 35.8774 46.7153 36.0747 45.4988C36.2719 44.2166 36.798 43.1974 37.6528 42.4412C38.5405 41.685 39.609 41.3069 40.8584 41.3069C42.1077 41.3069 43.0283 41.685 43.6201 42.4412C44.2448 43.1974 44.4585 44.2166 44.2613 45.4988C44.064 46.7153 43.5379 47.6852 42.6831 48.4085C41.8283 49.1318 40.7762 49.4935 39.5268 49.4935Z" fill="#242424"/>
<path d="M12.8271 57.8774L13.4683 53.8334H19.0411C20.4219 53.8334 21.4905 53.521 22.2467 52.8964C23.0029 52.2717 23.4796 51.3018 23.6769 49.9867L27.0304 28.6325H19.1397L19.7808 24.5885H27.6715L28.2633 20.8897C28.5263 19.2458 29.0853 17.8485 29.9401 16.6978C30.7949 15.5142 31.9128 14.61 33.2936 13.9854C34.6745 13.3278 36.2527 12.999 38.0281 12.999H46.6092L45.9681 17.043H37.3376C35.9568 17.043 34.8882 17.3553 34.132 17.98C33.3758 18.6047 32.8991 19.5746 32.7018 20.8897L32.11 24.5885H43.2063L42.5652 28.6325H31.4689L28.1154 49.9867C27.7537 52.4196 26.7016 54.343 24.9591 55.7567C23.2166 57.1705 21.0137 57.8774 18.3506 57.8774H12.8271Z" fill="#242424"/>
<path d="M56.6013 49.0003C54.2012 49.0003 52.3929 48.3099 51.1764 46.929C49.9928 45.5153 49.5818 43.6577 49.9435 41.3562L53.7902 17.043H45.6529L46.294 12.999H58.8698L54.382 41.3562C54.2176 42.4741 54.382 43.3618 54.8752 44.0193C55.4012 44.644 56.1903 44.9563 57.2424 44.9563H66.366L65.7249 49.0003H56.6013Z" fill="#242424"/>
</svg>
