<svg width="95" height="26" viewBox="0 0 95 26" fill="none" xmlns="http://www.w3.org/2000/svg">
<path d="M0 24.935C0 24.935 7.29127 21.6347 14.4435 24.2771C22.4354 27.2297 28.8871 24.8157 28.8871 24.8157V6.56177C28.8871 6.56177 22.4366 8.97153 14.4458 6.02125C7.29189 3.37994 0 6.6964 0 6.6964V24.935Z" fill="#62C58A"/>
<path d="M14.0459 21.8113C13.848 21.8707 13.5314 21.93 13.0961 21.9894C12.6806 22.0488 12.2452 22.0784 11.7901 22.0784C11.3547 22.0784 10.959 22.0488 10.6028 21.9894C10.2664 21.93 9.97951 21.8113 9.74205 21.6332C9.50459 21.4551 9.31654 21.2177 9.17809 20.9208C9.05936 20.6042 9 20.1986 9 19.7039V10.7993C9 10.3442 9.07908 9.95834 9.23746 9.6417C9.41555 9.30534 9.66286 9.00852 9.97951 8.75124C10.296 8.49396 10.6819 8.26647 11.1371 8.06855C11.612 7.85092 12.1166 7.66286 12.6509 7.50459C13.1952 7.34414 13.7508 7.22507 14.3131 7.14841C14.8816 7.04992 15.4576 7.00027 16.0346 7C16.9845 7 17.7364 7.18795 18.2905 7.56396C18.8445 7.92014 19.1216 8.51378 19.1216 9.34488C19.1216 9.62187 19.0819 9.89898 19.0028 10.176C18.9236 10.4333 18.706 10.8883 18.706 10.8883C18.706 10.8883 17.9265 10.9017 17.4297 10.9477C16.9286 10.9941 16.5689 11.0466 16.1534 11.1258C15.7378 11.205 15.342 11.294 14.9661 11.3929C14.6099 11.4721 14.3031 11.571 14.0459 11.6898V21.8113Z" fill="white"/>
<path d="M11 2.90883C11 2.07774 11.2572 1.38519 11.7717 0.831095C12.2862 0.276996 12.9887 0 13.8792 0C14.7696 0 15.472 0.276996 15.9866 0.831095C16.501 1.38519 16.7583 2.07774 16.7583 2.90883C16.7583 3.73993 16.501 4.43247 15.9866 4.98657C15.472 5.54067 14.7696 5.81767 13.8792 5.81767C12.9887 5.81767 12.2862 5.54067 11.7717 4.98657C11.2572 4.43247 11 3.73993 11 2.90883Z" fill="white"/>
<path d="M33.408 21V19.848H36.544V13.352H33.808V12.2H37.824V19.848H40.8V21H33.408ZM37.04 10.584C36.7093 10.584 36.4427 10.4987 36.24 10.328C36.048 10.1573 35.952 9.92267 35.952 9.624C35.952 9.31467 36.048 9.06933 36.24 8.888C36.4427 8.70667 36.7093 8.616 37.04 8.616C37.3707 8.616 37.632 8.70667 37.824 8.888C38.0267 9.06933 38.128 9.31467 38.128 9.624C38.128 9.912 38.0267 10.1467 37.824 10.328C37.632 10.4987 37.3707 10.584 37.04 10.584ZM42.3457 21V12.2H43.6098V13.832H43.9297L43.5777 14.296C43.5777 13.592 43.7911 13.0427 44.2178 12.648C44.6551 12.2427 45.2471 12.04 45.9938 12.04C46.8684 12.04 47.5671 12.3173 48.0898 12.872C48.6124 13.416 48.8737 14.1573 48.8737 15.096V21H47.6098V15.24C47.6098 14.568 47.4338 14.0507 47.0817 13.688C46.7297 13.3253 46.2497 13.144 45.6417 13.144C45.0124 13.144 44.5164 13.336 44.1537 13.72C43.7911 14.104 43.6098 14.648 43.6098 15.352V21H42.3457ZM55.3475 21C54.6115 21 54.0408 20.808 53.6355 20.424C53.2302 20.0293 53.0275 19.4747 53.0275 18.76V13.352H50.5315V12.2H53.0275V9.72H54.3075V12.2H57.8435V13.352H54.3075V18.76C54.3075 19.4853 54.6542 19.848 55.3475 19.848H57.6835V21H55.3475ZM63.1813 21.16C62.4986 21.16 61.9066 21.0267 61.4053 20.76C60.9039 20.4827 60.5146 20.0933 60.2373 19.592C59.9599 19.0907 59.8213 18.5093 59.8213 17.848V15.352C59.8213 14.68 59.9599 14.0987 60.2373 13.608C60.5146 13.1067 60.9039 12.7227 61.4053 12.456C61.9066 12.1787 62.4986 12.04 63.1813 12.04C63.8639 12.04 64.4559 12.1787 64.9573 12.456C65.4586 12.7227 65.8479 13.1067 66.1253 13.608C66.4026 14.0987 66.5413 14.68 66.5413 15.352V16.904H61.0693V17.848C61.0693 18.5627 61.2506 19.1173 61.6133 19.512C61.9866 19.896 62.5093 20.088 63.1813 20.088C63.7466 20.088 64.2053 19.976 64.5573 19.752C64.9199 19.528 65.1493 19.2027 65.2453 18.776H66.5093C66.3919 19.512 66.0346 20.0933 65.4373 20.52C64.8399 20.9467 64.0879 21.16 63.1813 21.16ZM65.2933 16.056V15.352C65.2933 14.6373 65.1119 14.088 64.7493 13.704C64.3866 13.3093 63.8639 13.112 63.1813 13.112C62.5093 13.112 61.9866 13.3093 61.6133 13.704C61.2506 14.088 61.0693 14.6373 61.0693 15.352V15.912H65.4213L65.2933 16.056ZM69.799 23.88V22.728H72.471C72.9723 22.728 73.3403 22.6107 73.575 22.376C73.8203 22.1413 73.943 21.784 73.943 21.304V20.28L73.975 18.616H73.687L73.991 18.248C73.991 18.9093 73.7723 19.4373 73.335 19.832C72.8977 20.2267 72.311 20.424 71.575 20.424C70.679 20.424 69.9697 20.1307 69.447 19.544C68.9243 18.9467 68.663 18.152 68.663 17.16V15.288C68.663 14.296 68.9243 13.5067 69.447 12.92C69.9697 12.3333 70.679 12.04 71.575 12.04C72.311 12.04 72.8977 12.2373 73.335 12.632C73.7723 13.016 73.991 13.5387 73.991 14.2L73.703 13.832H73.959V12.2H75.207V21.304C75.207 22.1147 74.967 22.744 74.487 23.192C74.0177 23.6507 73.3457 23.88 72.471 23.88H69.799ZM71.943 19.32C72.5723 19.32 73.063 19.128 73.415 18.744C73.7777 18.3493 73.959 17.8053 73.959 17.112V15.352C73.959 14.6587 73.7777 14.12 73.415 13.736C73.063 13.3413 72.5723 13.144 71.943 13.144C71.303 13.144 70.807 13.336 70.455 13.72C70.103 14.104 69.927 14.648 69.927 15.352V17.112C69.927 17.816 70.103 18.36 70.455 18.744C70.807 19.128 71.303 19.32 71.943 19.32ZM80.7688 21.16C80.0861 21.16 79.4941 21.0267 78.9928 20.76C78.4914 20.4827 78.1021 20.0933 77.8248 19.592C77.5474 19.0907 77.4088 18.5093 77.4088 17.848V15.352C77.4088 14.68 77.5474 14.0987 77.8248 13.608C78.1021 13.1067 78.4914 12.7227 78.9928 12.456C79.4941 12.1787 80.0861 12.04 80.7688 12.04C81.4514 12.04 82.0434 12.1787 82.5448 12.456C83.0461 12.7227 83.4354 13.1067 83.7128 13.608C83.9901 14.0987 84.1288 14.68 84.1288 15.352V16.904H78.6568V17.848C78.6568 18.5627 78.8381 19.1173 79.2008 19.512C79.5741 19.896 80.0968 20.088 80.7688 20.088C81.3341 20.088 81.7928 19.976 82.1448 19.752C82.5074 19.528 82.7368 19.2027 82.8328 18.776H84.0968C83.9794 19.512 83.6221 20.0933 83.0248 20.52C82.4274 20.9467 81.6754 21.16 80.7688 21.16ZM82.8808 16.056V15.352C82.8808 14.6373 82.6994 14.088 82.3368 13.704C81.9741 13.3093 81.4514 13.112 80.7688 13.112C80.0968 13.112 79.5741 13.3093 79.2008 13.704C78.8381 14.088 78.6568 14.6373 78.6568 15.352V15.912H83.0088L82.8808 16.056ZM86.6025 21V12.2H87.8505V13.832H88.1545L87.7065 14.84C87.7172 13.944 87.9358 13.256 88.3625 12.776C88.7892 12.2853 89.4025 12.04 90.2025 12.04C91.1305 12.04 91.8665 12.3333 92.4105 12.92C92.9652 13.496 93.2425 14.2747 93.2425 15.256V15.784H91.9465V15.352C91.9465 14.6373 91.7705 14.088 91.4185 13.704C91.0665 13.3093 90.5652 13.112 89.9145 13.112C89.2852 13.112 88.7892 13.3093 88.4265 13.704C88.0638 14.0987 87.8825 14.648 87.8825 15.352V21H86.6025Z" fill="white"/>
</svg>
