<svg width="187" height="58" viewBox="0 0 187 58" fill="none" xmlns="http://www.w3.org/2000/svg">
<rect width="187" height="58" rx="16" fill="#242424"/>
<path d="M72.1645 39.6483C71.221 39.6483 70.5133 39.3744 70.0415 38.8264C69.5697 38.2784 69.4083 37.5436 69.5573 36.622C69.7063 35.6506 70.1036 34.8784 70.7492 34.3055C71.4196 33.7326 72.2266 33.4462 73.1702 33.4462C74.1137 33.4462 74.809 33.7326 75.2559 34.3055C75.7277 34.8784 75.8891 35.6506 75.7401 36.622C75.5912 37.5436 75.1939 38.2784 74.5483 38.8264C73.9027 39.3744 73.1081 39.6483 72.1645 39.6483Z" fill="#D6FDDA"/>
<path d="M52 46L52.4842 42.9363H56.693C57.7359 42.9363 58.5428 42.6996 59.114 42.2264C59.6851 41.7531 60.0451 41.0183 60.1941 40.022L62.7268 23.844H56.7675L57.2517 20.7802H63.211L63.6579 17.978C63.8566 16.7326 64.2787 15.674 64.9243 14.8022C65.5699 13.9055 66.4141 13.2205 67.457 12.7473C68.4999 12.2491 69.6918 12 71.0326 12H77.5134L77.0292 15.0637H70.5112C69.4683 15.0637 68.6613 15.3004 68.0902 15.7736C67.5191 16.2469 67.1591 16.9817 67.0101 17.978L66.5631 20.7802H74.9434L74.4592 23.844H66.0789L63.5462 40.022C63.2731 41.8652 62.4785 43.3223 61.1625 44.3934C59.8465 45.4645 58.1828 46 56.1715 46H52Z" fill="#D6FDDA"/>
<path d="M85.0597 39.2747C83.2471 39.2747 81.8814 38.7516 80.9627 37.7055C80.0688 36.6344 79.7584 35.2271 80.0316 33.4835L82.9367 15.0637H76.7912L77.2754 12H86.7731L83.3837 33.4835C83.2595 34.3304 83.3837 35.0029 83.7561 35.5011C84.1534 35.9744 84.7494 36.211 85.5439 36.211H92.4344L91.9502 39.2747H85.0597Z" fill="#D6FDDA"/>
<path d="M94.0959 39.6483C92.4819 39.6483 91.1287 39.337 90.0361 38.7143C88.9684 38.0916 88.2111 37.1949 87.7641 36.0242C87.3172 34.8286 87.2179 33.4212 87.4662 31.8022L88.3228 26.1978C88.596 24.5538 89.1422 23.1465 89.9616 21.9758C90.7811 20.8051 91.8364 19.9084 93.1275 19.2857C94.4187 18.663 95.8713 18.3516 97.4853 18.3516C99.1241 18.3516 100.477 18.663 101.545 19.2857C102.613 19.9084 103.37 20.8051 103.817 21.9758C104.289 23.1465 104.401 24.5414 104.152 26.1604L103.258 31.8022C103.01 33.4212 102.464 34.8286 101.62 36.0242C100.8 37.1949 99.7449 38.0916 98.4537 38.7143C97.1873 39.337 95.7347 39.6483 94.0959 39.6483ZM94.5801 36.6593C96.0451 36.6593 97.237 36.2484 98.1557 35.4264C99.0745 34.6044 99.658 33.3963 99.9063 31.8022L100.763 26.1978C101.036 24.6037 100.837 23.3956 100.167 22.5736C99.5214 21.7516 98.4661 21.3407 97.0011 21.3407C95.5609 21.3407 94.3815 21.7516 93.4628 22.5736C92.544 23.3956 91.9481 24.6037 91.675 26.1978L90.8183 31.8022C90.57 33.3963 90.7686 34.6044 91.4142 35.4264C92.0847 36.2484 93.14 36.6593 94.5801 36.6593Z" fill="#D6FDDA"/>
<path d="M105.59 39.6483C103.554 39.6483 102.04 38.9634 101.046 37.5934C100.053 36.2234 99.7427 34.3678 100.115 32.0264L101.046 26.011C101.295 24.4168 101.779 23.0593 102.499 21.9385C103.244 20.7927 104.163 19.9084 105.255 19.2857C106.373 18.663 107.614 18.3516 108.98 18.3516C110.668 18.3516 111.947 18.8125 112.816 19.7341C113.685 20.6557 113.995 21.8886 113.747 23.433L113.188 22.6484H113.933L114.492 18.7253H117.844L114.604 39.2747H111.252L111.885 35.3516H111.214L111.997 34.567C111.748 36.1363 111.041 37.3817 109.874 38.3033C108.707 39.2 107.279 39.6483 105.59 39.6483ZM107.192 36.7341C108.582 36.7341 109.737 36.2982 110.656 35.4264C111.599 34.5546 112.195 33.3465 112.444 31.8022L113.3 26.1978C113.573 24.6535 113.375 23.4454 112.704 22.5736C112.034 21.7018 111.003 21.2659 109.613 21.2659C108.198 21.2659 107.031 21.6894 106.112 22.5363C105.218 23.3831 104.634 24.6037 104.361 26.1978L103.505 31.8022C103.256 33.3963 103.455 34.6168 104.101 35.4637C104.746 36.3106 105.777 36.7341 107.192 36.7341Z" fill="#D6FDDA"/>
<path d="M125.8 39.2747C124.037 39.2747 122.734 38.8015 121.889 37.8549C121.07 36.9084 120.797 35.5758 121.07 33.8571L122.97 21.789H117.196L117.681 18.7253H123.454L124.348 13.1209H127.7L126.806 18.7253H135L134.516 21.789H126.322L124.422 33.8571C124.174 35.4264 124.795 36.211 126.284 36.211H131.871L131.387 39.2747H125.8Z" fill="#D6FDDA"/>
</svg>
