<svg width="101" height="83" viewBox="0 0 101 83" fill="none" xmlns="http://www.w3.org/2000/svg">
<rect width="100.244" height="82.6669" fill="white"/>
<path d="M68.9862 40.4046C68.9035 40.7429 68.8133 41.1187 68.7156 41.5322C68.6254 41.9456 68.5164 42.359 68.3886 42.7724C68.2608 43.1859 68.1142 43.5805 67.9488 43.9563C67.7835 44.3247 67.5918 44.6366 67.3738 44.8922C67.1934 45.1102 67.013 45.253 66.8326 45.3207C66.6522 45.3958 66.4455 45.4334 66.2125 45.4334C66.1598 45.3507 66.1185 45.2492 66.0884 45.129C66.0509 45.0012 66.0358 44.8659 66.0433 44.7231C66.0433 44.5126 66.096 44.3247 66.2012 44.1593L67.0807 44.4525C67.2235 44.2721 67.3625 44.0278 67.4978 43.7196C67.6332 43.4039 67.7609 43.0581 67.8812 42.6822C68.009 42.2989 68.1217 41.9042 68.2195 41.4983C68.3247 41.0849 68.4186 40.694 68.5013 40.3257C68.351 40.2656 68.2119 40.2054 68.0842 40.1453C67.9564 40.0852 67.8624 40.0175 67.8023 39.9424V39.6605H69.7303L70.1588 43.043L70.1926 43.821H70.2264L70.6775 43.0092L72.7972 39.6605H73.812L72.8085 44.6667H73.6429V44.9598C73.4925 45.0801 73.3121 45.1778 73.1017 45.253C72.8912 45.3282 72.6807 45.3658 72.4702 45.3658C72.2523 45.3658 72.0944 45.3207 71.9967 45.2305C71.899 45.1402 71.8501 45.0425 71.8501 44.9373C71.8501 44.7945 71.8689 44.6366 71.9065 44.4637C71.9441 44.2908 71.9816 44.118 72.0192 43.9451L72.5717 41.4307C72.5867 41.363 72.6055 41.2841 72.6281 41.1939C72.6582 41.1037 72.6882 41.0097 72.7183 40.912C72.7484 40.8143 72.7784 40.7203 72.8085 40.6301C72.8461 40.5399 72.8761 40.4648 72.8987 40.4046H72.8649L69.8093 45.2981H69.5048L69.2793 43.0994L69.0877 41.2954L69.0313 40.4046H68.9862Z" fill="black"/>
<path d="M74.8046 43.2009C74.8046 42.8025 74.8647 42.3891 74.985 41.9606C75.1128 41.5246 75.3044 41.1263 75.56 40.7654C75.8156 40.4046 76.135 40.1077 76.5184 39.8747C76.9018 39.6417 77.349 39.5252 77.8602 39.5252C78.4465 39.5252 78.8862 39.7056 79.1794 40.0664C79.48 40.4272 79.6304 40.9609 79.6304 41.6675C79.6304 42.1636 79.559 42.6409 79.4161 43.0994C79.2733 43.5504 79.0741 43.9488 78.8186 44.2946C78.563 44.6404 78.2548 44.9185 77.894 45.129C77.5332 45.3319 77.1348 45.4334 76.6988 45.4334C76.12 45.4334 75.6577 45.2492 75.312 44.8809C74.9737 44.5051 74.8046 43.9451 74.8046 43.2009ZM77.6347 40.01C77.2663 40.0175 76.9657 40.1378 76.7326 40.3708C76.4996 40.6038 76.3155 40.8932 76.1801 41.239C76.0448 41.5848 75.9509 41.9569 75.8983 42.3553C75.8457 42.7537 75.8193 43.1182 75.8193 43.449C75.8193 43.8925 75.9171 44.2533 76.1125 44.5314C76.3079 44.8095 76.571 44.9486 76.9018 44.9486C77.1648 44.9486 77.3979 44.8509 77.6008 44.6554C77.8113 44.4525 77.9879 44.1894 78.1308 43.8661C78.2811 43.5354 78.3939 43.1633 78.469 42.7499C78.5517 42.3365 78.5931 41.9193 78.5931 41.4983C78.5931 41.0548 78.5141 40.6978 78.3563 40.4272C78.2059 40.1566 77.9654 40.0175 77.6347 40.01Z" fill="black"/>
<path d="M84.1431 40.1453H82.8239C82.7337 40.5512 82.6247 40.9797 82.4969 41.4307C82.3767 41.8742 82.2376 42.3102 82.0798 42.7386C81.9294 43.1671 81.7603 43.5692 81.5724 43.9451C81.392 44.3134 81.1928 44.6253 80.9748 44.8809C80.7944 45.0989 80.6027 45.2455 80.3997 45.3207C80.1968 45.4033 79.975 45.4409 79.7345 45.4334C79.6744 45.3582 79.6255 45.2605 79.5879 45.1402C79.5503 45.0125 79.5353 44.8772 79.5428 44.7343C79.5428 44.6141 79.5579 44.4976 79.5879 44.3848C79.618 44.2721 79.6706 44.1668 79.7458 44.0691L80.6704 44.4525C80.8132 44.2721 80.9598 44.024 81.1101 43.7083C81.2679 43.3926 81.4145 43.0468 81.5498 42.671C81.6926 42.2876 81.8242 41.893 81.9445 41.4871C82.0647 41.0812 82.1624 40.6978 82.2376 40.337C82.0798 40.2994 81.9144 40.2468 81.7415 40.1791C81.5686 40.104 81.4408 40.0288 81.3581 39.9536V39.6605H85.1353L84.1431 44.6667H84.9775V44.9598C84.8272 45.0801 84.6468 45.1778 84.4363 45.253C84.2258 45.3282 84.0116 45.3658 83.7936 45.3658C83.5756 45.3658 83.4178 45.3207 83.32 45.2305C83.2298 45.1402 83.1847 45.0425 83.1847 44.9373C83.1847 44.7945 83.1998 44.6404 83.2298 44.475C83.2599 44.3021 83.2937 44.1292 83.3313 43.9563L84.1431 40.1453Z" fill="black"/>
<path d="M87.4318 42.9867C87.3642 43.1896 87.3115 43.3813 87.274 43.5617C87.2439 43.7346 87.2289 43.9188 87.2289 44.1142C87.2289 44.3773 87.289 44.584 87.4093 44.7343C87.537 44.8772 87.7174 44.9486 87.9505 44.9486C88.1609 44.9486 88.3564 44.8884 88.5368 44.7682C88.7172 44.6479 88.875 44.4976 89.0103 44.3172C89.1456 44.1292 89.2509 43.9225 89.326 43.697C89.4012 43.464 89.4426 43.2347 89.4501 43.0092C89.4426 42.8739 89.4163 42.7649 89.3712 42.6822C89.3261 42.592 89.2697 42.5206 89.202 42.468C89.1344 42.4079 89.0592 42.3665 88.9765 42.344C88.8938 42.3214 88.8187 42.3102 88.751 42.3102C88.4879 42.3102 88.2324 42.3816 87.9843 42.5244C87.7362 42.6597 87.5521 42.8138 87.4318 42.9867ZM87.5333 42.5131C87.7362 42.2651 88.0031 42.0546 88.3338 41.8817C88.6646 41.7013 89.0103 41.6111 89.3712 41.6111C89.4839 41.6111 89.6004 41.6299 89.7207 41.6675C89.8485 41.7051 89.9612 41.7689 90.0589 41.8591C90.1642 41.9418 90.2506 42.0546 90.3183 42.1974C90.3859 42.3327 90.4198 42.5018 90.4198 42.7048C90.4198 43.043 90.3408 43.3775 90.183 43.7083C90.0251 44.0315 89.8146 44.3209 89.5516 44.5765C89.296 44.8321 88.9953 45.0388 88.6495 45.1966C88.3113 45.3545 87.958 45.4334 87.5897 45.4334C87.1837 45.4334 86.8605 45.3357 86.62 45.1402C86.3794 44.9373 86.2592 44.6216 86.2592 44.1931C86.2592 43.9526 86.2893 43.6782 86.3494 43.37C86.417 43.0543 86.4997 42.7273 86.5974 42.3891C86.7027 42.0433 86.8154 41.6938 86.9357 41.3405C87.056 40.9872 87.1725 40.6452 87.2852 40.3144L86.6087 40.213V39.9311C86.7215 39.8785 86.8493 39.8296 86.9921 39.7845C87.1424 39.7394 87.2928 39.6981 87.4431 39.6605C87.5934 39.6229 87.74 39.5928 87.8828 39.5703C88.0332 39.5477 88.1647 39.5327 88.2775 39.5252L88.5255 39.6605C88.3451 40.134 88.1685 40.5926 87.9956 41.0361C87.8302 41.4795 87.6611 41.9719 87.4882 42.5131H87.5333Z" fill="black"/>
<path d="M2.34718 37.8542C2.32405 37.8542 2.29322 37.8542 2.25468 37.8542C2.06197 37.8542 1.94635 37.8504 1.9078 37.8427C1.86926 37.835 1.84999 37.7926 1.84999 37.7155C1.84999 37.5074 1.89239 37.3802 1.97718 37.3339C1.99259 37.3262 2.36645 37.3224 3.09874 37.3224C3.69227 37.3224 4.03144 37.3224 4.11623 37.3224C4.20102 37.3224 4.25498 37.3455 4.27811 37.3917C5.90456 41.215 6.7332 43.1768 6.76403 43.277L7.3884 40.8142C7.79694 39.1878 8.00121 38.3206 8.00121 38.2127C8.00121 38.0045 7.75455 37.8851 7.26122 37.8542C7.07622 37.8542 6.98372 37.8118 6.98372 37.727C6.98372 37.7116 6.99143 37.6654 7.00684 37.5883C7.03768 37.465 7.0608 37.3917 7.07622 37.3686C7.09163 37.3455 7.13017 37.3301 7.19184 37.3224C7.21497 37.3224 7.33444 37.3262 7.55028 37.3339C7.76611 37.3416 8.086 37.3493 8.50996 37.357C8.89537 37.357 9.18829 37.3532 9.38871 37.3455C9.58912 37.3378 9.70475 37.3339 9.73558 37.3339C9.8512 37.3339 9.90902 37.3725 9.90902 37.4495C9.90902 37.6191 9.87818 37.7348 9.81652 37.7964C9.8011 37.835 9.71631 37.8542 9.56214 37.8542C9.01485 37.8851 8.67183 38.0392 8.53308 38.3167L6.81028 45.1386C6.79486 45.1925 6.71393 45.2195 6.56747 45.2195C6.45955 45.2195 6.39403 45.2118 6.37091 45.1964C6.34778 45.1733 5.8506 44.0055 4.87935 41.693L3.41092 38.2358L2.65936 41.242C2.15832 43.2154 1.9078 44.2367 1.9078 44.3061C1.94635 44.5604 2.22384 44.6876 2.7403 44.6876H2.85592C2.90217 44.7262 2.9253 44.757 2.9253 44.7801C2.9253 44.8033 2.91759 44.8765 2.90217 44.9998C2.87134 45.1 2.8328 45.1733 2.78655 45.2195H2.63624C2.39728 45.2041 1.98103 45.1964 1.38749 45.1964C1.17166 45.1964 0.9751 45.1964 0.797809 45.1964C0.620518 45.1964 0.477915 45.1964 0.369998 45.1964C0.262082 45.1964 0.196562 45.2002 0.173437 45.2079C0.0578123 45.2079 0 45.1733 0 45.1039C0 45.0731 0.0115624 45.0114 0.0346872 44.9189C0.0578121 44.8264 0.0770831 44.7724 0.0924996 44.757C0.107916 44.7108 0.196562 44.6876 0.358436 44.6876C0.8826 44.6645 1.22177 44.5142 1.37593 44.2367C1.40676 44.1905 1.68041 43.1229 2.19686 41.0339L2.98311 37.8889C2.96769 37.8812 2.75572 37.8696 2.34718 37.8542Z" fill="black"/>
<path d="M10.6265 46.3805C10.6265 46.5113 10.7519 46.5875 11.0026 46.6093C11.1007 46.6093 11.1497 46.6393 11.1497 46.6993C11.1497 46.7047 11.1443 46.7401 11.1334 46.8055C11.117 46.8818 11.1007 46.9309 11.0843 46.9527C11.068 46.9745 11.0326 46.9854 10.9781 46.9854C10.9672 46.9854 10.9345 46.9854 10.88 46.9854C10.8255 46.9854 10.7328 46.9827 10.602 46.9772C10.4712 46.9718 10.2968 46.969 10.0788 46.969C9.69191 46.969 9.44394 46.9745 9.33495 46.9854H9.26955C9.2314 46.9472 9.21233 46.9173 9.21233 46.8955C9.22323 46.7483 9.25865 46.6529 9.3186 46.6093H9.43305C9.81453 46.593 10.0925 46.4568 10.2669 46.2006C10.2996 46.1679 10.7928 45.3368 11.7465 43.7073C12.7002 42.0779 13.1852 41.2522 13.2016 41.2304C13.2397 41.165 13.3051 41.1323 13.3977 41.1323H13.6021C13.6348 41.1814 13.6512 41.2086 13.6512 41.2141L13.8801 43.8545C14.0326 45.6148 14.1144 46.5031 14.1253 46.5194C14.1525 46.5794 14.3297 46.6093 14.6566 46.6093C14.7929 46.6093 14.861 46.6366 14.861 46.6911C14.861 46.702 14.8528 46.7401 14.8365 46.8055C14.8201 46.8873 14.8065 46.9363 14.7956 46.9527C14.7847 46.969 14.7466 46.9799 14.6812 46.9854C14.6648 46.9854 14.6267 46.9854 14.5667 46.9854C14.5068 46.9854 14.4005 46.9827 14.2479 46.9772C14.0953 46.9718 13.8964 46.969 13.6512 46.969C13.1389 46.969 12.8037 46.9745 12.6457 46.9854H12.5476C12.5149 46.9527 12.4985 46.9282 12.4985 46.9118C12.4985 46.8955 12.504 46.8464 12.5149 46.7647C12.5367 46.6938 12.553 46.6502 12.5639 46.6339L12.5966 46.6093H12.7601C13.0544 46.593 13.2288 46.5467 13.2833 46.4704L13.1852 45.2442H11.2396L10.9617 45.7183C10.7383 46.0943 10.6265 46.3151 10.6265 46.3805ZM13.1443 44.86C13.1443 44.8 13.1116 44.3749 13.0462 43.5847C12.9808 42.7945 12.9427 42.3967 12.9318 42.3912L12.7111 42.7427C12.6239 42.8899 12.4522 43.1814 12.1961 43.6174L11.4604 44.86L12.3023 44.8681C12.8637 44.8681 13.1443 44.8654 13.1443 44.86Z" fill="black"/>
<path d="M18.6802 41.5322C18.6802 41.2161 18.7457 40.9309 18.8768 40.6766C19.0078 40.4222 19.1697 40.2256 19.3624 40.0869C19.5551 39.9481 19.744 39.8402 19.929 39.7631C20.114 39.686 20.2758 39.6475 20.4146 39.6475C20.43 39.6475 20.4608 39.6475 20.5071 39.6475C20.5533 39.6475 20.5919 39.6437 20.6227 39.6359C20.9233 39.6359 21.2047 39.6938 21.4668 39.8094C21.7289 39.925 22.1027 40.137 22.5883 40.4453L23.1665 40.8153C23.6212 41.0851 24.0452 41.22 24.4383 41.22C24.87 41.22 25.24 41.1082 25.5483 40.8847C25.8566 40.6611 26.0301 40.3567 26.0686 39.9713C26.0686 39.8865 26.084 39.8094 26.1149 39.74C26.1457 39.6706 26.1843 39.6359 26.2305 39.6359C26.3384 39.6359 26.3924 39.7554 26.3924 39.9944C26.3924 40.5031 26.2112 40.9425 25.8489 41.3125C25.4867 41.6825 25.0242 41.8713 24.4614 41.8791C24.1454 41.8791 23.8101 41.7981 23.4555 41.6362C23.1009 41.4744 22.7926 41.2932 22.5305 41.0928C22.2684 40.8924 21.9601 40.7113 21.6055 40.5494C21.2509 40.3875 20.9272 40.3027 20.6343 40.295C20.1718 40.295 19.7902 40.4222 19.4896 40.6766C19.189 40.9309 19.0271 41.22 19.004 41.5437C18.9886 41.7673 18.9346 41.8791 18.8421 41.8791C18.7342 41.8791 18.6802 41.7634 18.6802 41.5322ZM18.6802 44.2378C18.6802 43.9218 18.7457 43.6366 18.8768 43.3822C19.0078 43.1278 19.1697 42.9312 19.3624 42.7925C19.5551 42.6537 19.744 42.5458 19.929 42.4687C20.114 42.3917 20.2758 42.3531 20.4146 42.3531C20.43 42.3531 20.4608 42.3531 20.5071 42.3531C20.5533 42.3531 20.5919 42.3493 20.6227 42.3416C20.9233 42.3416 21.2047 42.3994 21.4668 42.515C21.7289 42.6306 22.1027 42.8426 22.5883 43.1509L23.1665 43.5209C23.6212 43.7907 24.0452 43.9256 24.4383 43.9256C24.87 43.9256 25.24 43.8138 25.5483 43.5903C25.8566 43.3668 26.0301 43.0623 26.0686 42.6769C26.0686 42.4533 26.1226 42.3416 26.2305 42.3416C26.3384 42.3416 26.3924 42.4649 26.3924 42.7116C26.3924 43.2049 26.2112 43.6404 25.8489 44.0181C25.4867 44.3958 25.0242 44.5847 24.4614 44.5847C24.1454 44.5847 23.8101 44.5037 23.4555 44.3419C23.1009 44.18 22.7926 43.9988 22.5305 43.7984C22.2684 43.598 21.9601 43.4169 21.6055 43.255C21.2509 43.0931 20.9272 43.0083 20.6343 43.0006C20.1718 43.0006 19.7902 43.1278 19.4896 43.3822C19.189 43.6366 19.0271 43.9256 19.004 44.2494C18.9808 44.4729 18.9269 44.5847 18.8421 44.5847C18.7342 44.5847 18.6802 44.469 18.6802 44.2378Z" fill="black"/>
<path d="M30.738 41.6002C30.738 40.3438 31.0502 39.3494 31.6746 38.6171C32.2989 37.8848 32.9927 37.5187 33.7558 37.5187C34.2877 37.5187 34.6692 37.6574 34.9005 37.9349C35.1317 38.2124 35.2474 38.5208 35.2474 38.8599C35.2474 39.0526 35.1934 39.2068 35.0855 39.3224C34.9776 39.4381 34.8273 39.4959 34.6345 39.4959C34.4573 39.4959 34.3108 39.4419 34.1952 39.334C34.0795 39.2261 34.0217 39.0758 34.0217 38.8831C34.0217 38.5439 34.2029 38.3396 34.5652 38.2702C34.3956 38.1007 34.1566 38.0043 33.8483 37.9812C33.301 37.9812 32.8501 38.2124 32.4955 38.6749C32.1332 39.1837 31.9521 39.9622 31.9521 41.0105L31.9636 41.0568C32.0022 41.0105 32.033 40.9604 32.0561 40.9065C32.3722 40.444 32.7845 40.2127 33.2933 40.2127H33.3395C33.6941 40.2127 34.0063 40.286 34.2761 40.4324C34.4611 40.5403 34.6461 40.6945 34.8311 40.8949C35.0161 41.0953 35.1664 41.315 35.282 41.554C35.4439 41.9317 35.5248 42.3441 35.5248 42.7912V42.9993C35.5248 43.1766 35.5056 43.3423 35.467 43.4965C35.3822 43.9513 35.1356 44.3945 34.727 44.8262C34.3185 45.2578 33.802 45.4737 33.1777 45.4737C32.9618 45.4737 32.7537 45.4428 32.5533 45.3812C32.3529 45.3195 32.1371 45.2039 31.9058 45.0343C31.6746 44.8647 31.478 44.6373 31.3161 44.3521C31.1542 44.0669 31.0155 43.693 30.8999 43.2305C30.7842 42.768 30.7303 42.2246 30.738 41.6002ZM33.2239 40.629C32.9927 40.629 32.7923 40.6945 32.6227 40.8256C32.4531 40.9566 32.3221 41.13 32.2296 41.3459C32.1371 41.5617 32.0715 41.7814 32.033 42.0049C31.9944 42.2285 31.9713 42.4674 31.9636 42.7218C31.9636 43.3616 32.0099 43.8202 32.1024 44.0977C32.1949 44.3752 32.3413 44.5988 32.5417 44.7683C32.7267 44.9071 32.931 44.9765 33.1545 44.9765C33.5477 44.9765 33.8483 44.83 34.0564 44.5371C34.1566 44.3983 34.226 44.2249 34.2645 44.0168C34.3031 43.8087 34.3224 43.404 34.3224 42.8027C34.3224 42.1861 34.3031 41.7737 34.2645 41.5655C34.226 41.3574 34.1566 41.184 34.0564 41.0452C33.8483 40.7677 33.5708 40.629 33.2239 40.629Z" fill="black"/>
<path d="M39.5045 42.3298C39.5045 42.1448 39.5701 41.9829 39.7011 41.8442C39.8321 41.7054 39.9979 41.636 40.1983 41.636C40.3833 41.636 40.5452 41.6977 40.6839 41.821C40.8226 41.9444 40.8959 42.1101 40.9036 42.3182C40.9036 42.5109 40.8381 42.6767 40.707 42.8154C40.576 42.9542 40.4103 43.0235 40.2098 43.0235C40.0094 43.0235 39.8437 42.958 39.7127 42.827C39.5816 42.6959 39.5122 42.5302 39.5045 42.3298Z" fill="black"/>
<path d="M46.849 38.5359L46.6987 38.5937C46.5908 38.6323 46.4366 38.6708 46.2362 38.7094C46.0358 38.7479 45.8122 38.7749 45.5656 38.7903H45.3459V38.2584H45.5656C45.9278 38.243 46.2632 38.1852 46.5715 38.085C46.8798 37.9848 47.0957 37.8923 47.219 37.8075C47.3423 37.7227 47.4502 37.6379 47.5427 37.5531C47.5582 37.53 47.6044 37.5184 47.6815 37.5184C47.7509 37.5184 47.8164 37.5415 47.878 37.5878V41.045L47.8896 44.5137C47.9436 44.5677 47.9898 44.6023 48.0284 44.6178C48.0669 44.6332 48.1594 44.6486 48.3059 44.664C48.4523 44.6794 48.6913 44.6871 49.0227 44.6871H49.3234V45.219H49.1962C49.0343 45.1959 48.4215 45.1843 47.3577 45.1843C46.3094 45.1843 45.7043 45.1959 45.5424 45.219H45.4037V44.6871H45.7043C45.8739 44.6871 46.0203 44.6871 46.1437 44.6871C46.267 44.6871 46.3634 44.6833 46.4327 44.6756C46.5021 44.6679 46.5638 44.6563 46.6177 44.6409C46.6717 44.6255 46.7025 44.6178 46.7102 44.6178C46.718 44.6178 46.7411 44.5985 46.7796 44.5599C46.8182 44.5214 46.8413 44.506 46.849 44.5137V38.5359Z" fill="black"/>
<path d="M51.2778 38.4552C51.7095 37.8309 52.2992 37.5187 53.0469 37.5187C53.4169 37.5187 53.7869 37.6189 54.1569 37.8193C54.5269 38.0197 54.8275 38.3743 55.0587 38.8831C55.3439 39.5228 55.4865 40.4016 55.4865 41.5193C55.4865 42.7141 55.3208 43.6275 54.9894 44.2596C54.8352 44.5833 54.6232 44.8416 54.3534 45.0343C54.0836 45.227 53.8485 45.3465 53.6481 45.3927C53.4477 45.439 53.2511 45.4659 53.0584 45.4737C52.858 45.4737 52.6576 45.4505 52.4572 45.4043C52.2568 45.358 52.0217 45.2347 51.7519 45.0343C51.4821 44.8339 51.2701 44.5756 51.1159 44.2596C50.7845 43.6275 50.6188 42.7141 50.6188 41.5193C50.6188 40.1781 50.8384 39.1567 51.2778 38.4552ZM53.8794 38.3165C53.6481 38.0698 53.3745 37.9465 53.0584 37.9465C52.7347 37.9465 52.4572 38.0698 52.2259 38.3165C52.0332 38.5169 51.9061 38.7944 51.8444 39.149C51.7827 39.5036 51.7519 40.2436 51.7519 41.369C51.7519 42.5869 51.7827 43.3886 51.8444 43.774C51.9061 44.1594 52.0448 44.4639 52.2606 44.6874C52.4765 44.9187 52.7424 45.0343 53.0584 45.0343C53.3668 45.0343 53.6289 44.9187 53.8447 44.6874C54.0682 44.4562 54.207 44.1324 54.2609 43.7162C54.3149 43.2999 54.3457 42.5175 54.3534 41.369C54.3534 40.2513 54.3226 39.5151 54.2609 39.1606C54.1993 38.806 54.0721 38.5246 53.8794 38.3165Z" fill="black"/>
<path d="M56.8396 36.9374C56.6925 36.9374 56.5753 36.8883 56.4881 36.7902C56.4009 36.6922 56.3573 36.5723 56.3573 36.4306C56.3573 36.0436 56.5017 35.7085 56.7906 35.4251C57.0794 35.1417 57.4391 35 57.8696 35C58.3655 35 58.7797 35.1526 59.1122 35.4578C59.4446 35.763 59.6135 36.1581 59.619 36.6431C59.619 36.8774 59.5645 37.1009 59.4555 37.3134C59.3465 37.526 59.2157 37.7113 59.0631 37.8693C58.9105 38.0273 58.6925 38.229 58.4091 38.4742C58.213 38.6432 57.9405 38.8939 57.5917 39.2263L57.1094 39.6841L57.7307 39.6922C58.5863 39.6922 59.0413 39.6786 59.0958 39.6514C59.134 39.6405 59.1994 39.398 59.292 38.9238V38.8993H59.619V38.9238C59.6135 38.9402 59.5781 39.1881 59.5127 39.6677C59.4473 40.1473 59.4065 40.398 59.3901 40.4198V40.4443H56.3573V40.1909C56.3573 40.1528 56.3737 40.1119 56.4064 40.0683C56.4391 40.0247 56.5208 39.9293 56.6516 39.7822C56.8096 39.6078 56.9459 39.4552 57.0603 39.3244C57.1094 39.2699 57.202 39.1691 57.3383 39.0219C57.4745 38.8748 57.5672 38.774 57.6162 38.7195C57.6653 38.665 57.7443 38.575 57.8533 38.4497C57.9623 38.3244 58.0386 38.2317 58.0822 38.1718C58.1258 38.1118 58.1884 38.0301 58.2702 37.9265C58.3519 37.823 58.4091 37.7358 58.4418 37.6649C58.4745 37.5941 58.5154 37.5151 58.5645 37.4279C58.6135 37.3407 58.6489 37.2535 58.6707 37.1663C58.6925 37.0791 58.7116 36.9973 58.728 36.921C58.7443 36.8447 58.7525 36.7548 58.7525 36.6513C58.7525 36.3079 58.6598 36.0109 58.4745 35.7602C58.2893 35.5096 58.0249 35.3842 57.6816 35.3842C57.5018 35.3842 57.3437 35.4305 57.2075 35.5232C57.0712 35.6158 56.9759 35.7057 56.9214 35.7929C56.8669 35.8801 56.8396 35.9319 56.8396 35.9483C56.8396 35.9537 56.8532 35.9564 56.8805 35.9564C56.9786 35.9564 57.0794 35.9946 57.1829 36.0709C57.2865 36.1472 57.3383 36.2725 57.3383 36.4469C57.3383 36.5832 57.2947 36.6976 57.2075 36.7902C57.1203 36.8829 56.9977 36.9319 56.8396 36.9374Z" fill="black"/>
<path d="M61.0743 36.6591C60.9272 36.6591 60.8127 36.6128 60.731 36.5201C60.6492 36.4275 60.6056 36.3076 60.6002 36.1605C60.6002 35.8607 60.731 35.5937 60.9926 35.3593C61.2541 35.125 61.5702 35.0078 61.9408 35.0078C62.1316 35.0078 62.2515 35.0106 62.3005 35.016C62.7038 35.0814 63.0117 35.2258 63.2242 35.4493C63.4368 35.6727 63.5458 35.9152 63.5512 36.1768C63.5512 36.4602 63.4586 36.7354 63.2733 37.0025C63.088 37.2695 62.8318 37.463 62.5049 37.5829L62.4803 37.5992C62.4803 37.6047 62.5049 37.6128 62.5539 37.6237C62.603 37.6346 62.682 37.6592 62.791 37.6973C62.9 37.7354 63.0035 37.7927 63.1016 37.869C63.5485 38.1578 63.7719 38.5393 63.7719 39.0134C63.7719 39.4439 63.603 39.82 63.2651 40.1415C62.9272 40.4631 62.4994 40.6238 61.9817 40.6238C61.5457 40.6238 61.1697 40.5067 60.8536 40.2723C60.5375 40.038 60.3795 39.741 60.3795 39.3813C60.3795 39.2287 60.4285 39.1061 60.5266 39.0134C60.6247 38.9208 60.7473 38.8717 60.8945 38.8663C61.047 38.8663 61.1724 38.9153 61.2705 39.0134C61.3686 39.1115 61.4176 39.2341 61.4176 39.3813C61.4176 39.4412 61.4095 39.4957 61.3931 39.5448C61.3768 39.5938 61.3577 39.6374 61.3359 39.6756C61.3141 39.7137 61.2841 39.7464 61.246 39.7737C61.2078 39.8009 61.1751 39.8227 61.1479 39.8391C61.1206 39.8554 61.0934 39.8663 61.0661 39.8718C61.0389 39.8772 61.0171 39.8854 61.0007 39.8963L60.968 39.9045C61.246 40.1497 61.5838 40.2723 61.9817 40.2723C62.2814 40.2723 62.5076 40.1279 62.6602 39.8391C62.7528 39.6592 62.7992 39.384 62.7992 39.0134V38.8499C62.7992 38.3322 62.6248 37.9861 62.276 37.8117C62.1942 37.779 62.028 37.76 61.7773 37.7545L61.434 37.7463L61.4095 37.73C61.3986 37.7136 61.3931 37.67 61.3931 37.5992C61.3931 37.5011 61.4149 37.4521 61.4585 37.4521C61.6111 37.4521 61.7691 37.4384 61.9326 37.4112C62.1179 37.3839 62.2869 37.2695 62.4395 37.0679C62.5921 36.8662 62.6684 36.561 62.6684 36.1523V36.0869C62.6684 35.7763 62.573 35.561 62.3822 35.4411C62.2623 35.3648 62.1343 35.3266 61.998 35.3266C61.8236 35.3266 61.6629 35.3566 61.5157 35.4166C61.3686 35.4765 61.265 35.5392 61.2051 35.6046C61.1451 35.67 61.1152 35.7027 61.1152 35.7027H61.1397C61.156 35.7081 61.1778 35.7136 61.2051 35.719C61.2323 35.7245 61.2596 35.7381 61.2868 35.7599C61.3141 35.7817 61.3468 35.8008 61.3849 35.8171C61.4231 35.8335 61.4503 35.8635 61.4667 35.907C61.483 35.9506 61.5048 35.9915 61.5321 36.0297C61.5593 36.0678 61.5675 36.1223 61.5566 36.1932C61.5566 36.3131 61.5185 36.4193 61.4422 36.512C61.3659 36.6046 61.2432 36.6537 61.0743 36.6591Z" fill="black"/>
<path d="M90.8361 38.5078C90.8361 38.5078 90.8361 38.4723 90.8361 38.4015C90.8361 38.3307 90.8742 38.2762 90.9505 38.238H95.7C95.7817 38.2816 95.8226 38.3361 95.8226 38.4015C95.8226 38.4669 95.7817 38.5214 95.7 38.565H90.9505C90.8742 38.5268 90.8361 38.4723 90.8361 38.4015V38.5078Z" fill="black"/>
<path d="M98.2506 35.7199L98.1444 35.7607C98.0681 35.788 97.9591 35.8152 97.8174 35.8425C97.6757 35.8697 97.5176 35.8888 97.3432 35.8997H97.1879V35.5237H97.3432C97.5994 35.5128 97.8364 35.4719 98.0544 35.4011C98.2724 35.3302 98.425 35.2648 98.5122 35.2049C98.5994 35.1449 98.6757 35.085 98.7411 35.025C98.752 35.0087 98.7847 35.0005 98.8392 35.0005C98.8882 35.0005 98.9346 35.0168 98.9782 35.0495V37.4938L98.9863 39.9462C99.0245 39.9843 99.0572 40.0088 99.0844 40.0197C99.1117 40.0306 99.1771 40.0415 99.2806 40.0524C99.3842 40.0633 99.5531 40.0688 99.7875 40.0688H100V40.4448H99.9101C99.7956 40.4285 99.3624 40.4203 98.6103 40.4203C97.8691 40.4203 97.4413 40.4285 97.3269 40.4448H97.2288V40.0688H97.4413C97.5612 40.0688 97.6648 40.0688 97.752 40.0688C97.8392 40.0688 97.9073 40.0661 97.9563 40.0606C98.0054 40.0552 98.049 40.047 98.0871 40.0361C98.1253 40.0252 98.1471 40.0197 98.1525 40.0197C98.158 40.0197 98.1743 40.0061 98.2016 39.9789C98.2288 39.9516 98.2452 39.9407 98.2506 39.9462V35.7199Z" fill="black"/>
</svg>
