<svg width="101" height="83" viewBox="0 0 101 83" fill="none" xmlns="http://www.w3.org/2000/svg">
<rect width="100.244" height="82.6669" fill="white"/>
<path d="M0 41.4941C0.0101039 41.4638 0.0202078 41.4234 0.0303116 41.3728C0.0404155 41.3223 0.0656752 41.2112 0.106091 41.0394C0.146506 40.8676 0.197026 40.711 0.257649 40.5696C0.318272 40.4281 0.394051 40.2614 0.484986 40.0694C0.575921 39.8775 0.67696 39.7259 0.788103 39.6148C0.899245 39.5036 1.0306 39.3925 1.18215 39.2813C1.33371 39.1702 1.50043 39.1247 1.6823 39.1449C1.92479 39.1449 2.14202 39.1803 2.334 39.251C2.52597 39.3217 2.67753 39.4127 2.78867 39.5238C2.89981 39.635 2.98065 39.7461 3.03116 39.8573C3.08168 39.9684 3.1221 40.0644 3.15241 40.1452L3.18272 40.2513C3.18272 40.2715 3.18777 40.2816 3.19788 40.2816L3.36459 40.1149C3.98093 39.4683 4.68315 39.1449 5.47125 39.1449C6.01686 39.1449 6.45638 39.2813 6.78981 39.5541C7.12324 39.8269 7.295 40.226 7.30511 40.7514V40.903C7.30511 41.1455 6.98178 42.5247 6.33513 45.0405C5.74911 47.415 5.43589 48.6375 5.39547 48.7083C5.26412 48.9811 5.03678 49.1175 4.71346 49.1175C4.58211 49.1175 4.47097 49.077 4.38003 48.9962C4.2891 48.9154 4.23353 48.8042 4.21332 48.6628C4.21332 48.5718 4.51138 47.3442 5.10751 44.9799L6.04717 41.191C6.07748 41.0394 6.09264 40.8474 6.09264 40.615C6.09264 40.0189 5.87035 39.7208 5.42578 39.7208H5.35001C4.48107 39.7208 3.74854 40.2311 3.15241 41.2516L3.04632 41.4335L2.54618 43.4643C2.21275 44.7879 2.02078 45.5003 1.97026 45.6013C1.83891 45.8741 1.62167 46.0105 1.31856 46.0105C1.18721 46.0105 1.08112 45.9802 1.00028 45.9196C0.919453 45.859 0.863882 45.7983 0.83357 45.7377C0.803259 45.6771 0.793155 45.6266 0.803259 45.5862C0.803259 45.4548 1.00534 44.5859 1.40949 42.9794C1.81365 41.3728 2.01572 40.4786 2.01572 40.2968C2.01572 39.9027 1.88437 39.7057 1.62167 39.7057C1.40949 39.7057 1.22762 39.8471 1.07606 40.1301C0.924505 40.413 0.803259 40.7211 0.712324 41.0546C0.621389 41.388 0.565817 41.5699 0.54561 41.6002C0.525402 41.6204 0.444571 41.6305 0.303116 41.6305H0.0909349C0.0303116 41.5699 0 41.5244 0 41.4941Z" fill="black"/>
<path d="M12.2732 40.5847C12.2732 40.4534 12.3439 40.3523 12.4854 40.2816H22.1396C22.2912 40.3624 22.367 40.4635 22.367 40.5847C22.367 40.6959 22.2962 40.7919 22.1548 40.8727L17.3352 40.8878H12.5157C12.354 40.8373 12.2732 40.7363 12.2732 40.5847ZM12.2732 43.525C12.2732 43.3734 12.354 43.2724 12.5157 43.2218H22.1548C22.2962 43.3229 22.367 43.4239 22.367 43.525C22.367 43.6563 22.2912 43.7574 22.1396 43.8281H12.4854C12.3439 43.7574 12.2732 43.6563 12.2732 43.525Z" fill="black"/>
<path d="M33.9127 34.4769C33.9127 34.7194 34.1451 34.8609 34.6098 34.9013C34.7917 34.9013 34.8826 34.9569 34.8826 35.068C34.8826 35.0781 34.8725 35.1438 34.8523 35.265C34.822 35.4065 34.7917 35.4974 34.7614 35.5378C34.7311 35.5783 34.6654 35.5985 34.5644 35.5985C34.5442 35.5985 34.4835 35.5985 34.3825 35.5985C34.2815 35.5985 34.1097 35.5934 33.8672 35.5833C33.6247 35.5732 33.3014 35.5682 32.8972 35.5682C32.1799 35.5682 31.7201 35.5783 31.518 35.5985H31.3968C31.3261 35.5277 31.2907 35.4722 31.2907 35.4318C31.3109 35.1589 31.3766 34.9821 31.4877 34.9013H31.6999C32.4072 34.871 32.9225 34.6184 33.2458 34.1435C33.3064 34.0829 34.2208 32.542 35.989 29.521C37.7572 26.4999 38.6564 24.9692 38.6868 24.9288C38.7575 24.8075 38.8787 24.7469 39.0505 24.7469H39.4294C39.49 24.8378 39.5203 24.8884 39.5203 24.8985L39.9447 29.7938C40.2276 33.0573 40.3792 34.7043 40.3994 34.7346C40.4499 34.8457 40.7783 34.9013 41.3845 34.9013C41.6371 34.9013 41.7634 34.9518 41.7634 35.0529C41.7634 35.0731 41.7482 35.1438 41.7179 35.265C41.6876 35.4166 41.6623 35.5075 41.6421 35.5378C41.6219 35.5682 41.5512 35.5884 41.43 35.5985C41.3996 35.5985 41.3289 35.5985 41.2178 35.5985C41.1066 35.5985 40.9096 35.5934 40.6267 35.5833C40.3438 35.5732 39.975 35.5682 39.5203 35.5682C38.5706 35.5682 37.9492 35.5783 37.6562 35.5985H37.4743C37.4137 35.5378 37.3834 35.4924 37.3834 35.4621C37.3834 35.4318 37.3935 35.3408 37.4137 35.1893C37.4541 35.0579 37.4844 34.9771 37.5046 34.9468L37.5652 34.9013H37.8683C38.4139 34.871 38.7373 34.7851 38.8383 34.6437L38.6564 32.3703H35.0494L34.5341 33.2493C34.1198 33.9465 33.9127 34.3557 33.9127 34.4769ZM38.5807 31.658C38.5807 31.5468 38.52 30.7587 38.3988 29.2936C38.2775 27.8286 38.2068 27.091 38.1866 27.0809L37.7774 27.7326C37.6157 28.0054 37.2975 28.546 36.8226 29.3543L35.4586 31.658L37.0196 31.6731C38.0603 31.6731 38.5807 31.6681 38.5807 31.658Z" fill="black"/>
<path d="M42.7272 33.3323C42.7272 33.3323 42.7272 33.2859 42.7272 33.193C42.7272 33.1002 42.7772 33.0287 42.8772 32.9787H46.081V31.3715L46.0917 29.7642C46.1632 29.6713 46.231 29.6249 46.2953 29.6249C46.3882 29.6249 46.4596 29.6785 46.5096 29.7856V32.9787H49.7027C49.8099 33.0359 49.8635 33.1073 49.8635 33.193C49.8635 33.2788 49.8099 33.3502 49.7027 33.4074H46.5096V36.6005C46.4525 36.7005 46.3882 36.7505 46.3168 36.7505H46.2739C46.1882 36.7505 46.1239 36.7005 46.081 36.6005V33.4074H42.8772C42.7772 33.3573 42.7272 33.2859 42.7272 33.193V33.3323Z" fill="black"/>
<path d="M33.9127 55.1192C33.9127 55.3617 34.1451 55.5031 34.6098 55.5435C34.7917 55.5435 34.8826 55.5991 34.8826 55.7102C34.8826 55.7203 34.8725 55.786 34.8523 55.9073C34.822 56.0487 34.7917 56.1397 34.7614 56.1801C34.7311 56.2205 34.6654 56.2407 34.5644 56.2407C34.5442 56.2407 34.4835 56.2407 34.3825 56.2407C34.2815 56.2407 34.1097 56.2356 33.8672 56.2255C33.6247 56.2154 33.3014 56.2104 32.8972 56.2104C32.1799 56.2104 31.7201 56.2205 31.518 56.2407H31.3968C31.3261 56.17 31.2907 56.1144 31.2907 56.074C31.3109 55.8012 31.3766 55.6244 31.4877 55.5435H31.6999C32.4072 55.5132 32.9225 55.2606 33.2458 54.7857C33.3064 54.7251 34.2208 53.1843 35.989 50.1632C37.7572 47.1422 38.6564 45.6114 38.6868 45.571C38.7575 45.4498 38.8787 45.3891 39.0505 45.3891H39.4294C39.49 45.4801 39.5203 45.5306 39.5203 45.5407L39.9447 50.436C40.2276 53.6996 40.3792 55.3465 40.3994 55.3768C40.4499 55.488 40.7783 55.5435 41.3845 55.5435C41.6371 55.5435 41.7634 55.594 41.7634 55.6951C41.7634 55.7153 41.7482 55.786 41.7179 55.9073C41.6876 56.0588 41.6623 56.1498 41.6421 56.1801C41.6219 56.2104 41.5512 56.2306 41.43 56.2407C41.3996 56.2407 41.3289 56.2407 41.2178 56.2407C41.1066 56.2407 40.9096 56.2356 40.6267 56.2255C40.3438 56.2154 39.975 56.2104 39.5203 56.2104C38.5706 56.2104 37.9492 56.2205 37.6562 56.2407H37.4743C37.4137 56.1801 37.3834 56.1346 37.3834 56.1043C37.3834 56.074 37.3935 55.983 37.4137 55.8315C37.4541 55.7001 37.4844 55.6193 37.5046 55.589L37.5652 55.5435H37.8683C38.4139 55.5132 38.7373 55.4273 38.8383 55.2859L38.6564 53.0125H35.0494L34.5341 53.8915C34.1198 54.5887 33.9127 54.9979 33.9127 55.1192ZM38.5807 52.3002C38.5807 52.189 38.52 51.4009 38.3988 49.9359C38.2775 48.4708 38.2068 47.7332 38.1866 47.7231L37.7774 48.3748C37.6157 48.6476 37.2975 49.1882 36.8226 49.9965L35.4586 52.3002L37.0196 52.3153C38.0603 52.3153 38.5807 52.3103 38.5807 52.3002Z" fill="black"/>
<path d="M43.0272 53.9746C43.0272 53.9746 43.0272 53.9281 43.0272 53.8353C43.0272 53.7424 43.0772 53.671 43.1772 53.621H49.4027C49.5099 53.6781 49.5634 53.7496 49.5634 53.8353C49.5634 53.921 49.5099 53.9924 49.4027 54.0496H43.1772C43.0772 53.9996 43.0272 53.9281 43.0272 53.8353V53.9746Z" fill="black"/>
<path d="M52.7377 42.5095H29.2447V41.6002H52.7377V42.5095Z" fill="black"/>
<path d="M59.1062 42.0548C59.1062 41.8124 59.1921 41.6002 59.3638 41.4183C59.5356 41.2364 59.7528 41.1455 60.0155 41.1455C60.258 41.1455 60.4702 41.2263 60.6521 41.388C60.834 41.5497 60.9299 41.7669 60.94 42.0397C60.94 42.2923 60.8542 42.5095 60.6824 42.6914C60.5106 42.8733 60.2934 42.9642 60.0307 42.9642C59.768 42.9642 59.5508 42.8783 59.379 42.7065C59.2072 42.5348 59.1163 42.3175 59.1062 42.0548Z" fill="black"/>
<path d="M68.7332 37.0837L68.5361 37.1595C68.3947 37.21 68.1926 37.2606 67.9299 37.3111C67.6672 37.3616 67.3742 37.397 67.0509 37.4172H66.7629V36.72H67.0509C67.5258 36.6998 67.9653 36.624 68.3694 36.4927C68.7736 36.3613 69.0565 36.2401 69.2182 36.1289C69.3798 36.0178 69.5213 35.9066 69.6425 35.7955C69.6627 35.7652 69.7233 35.75 69.8244 35.75C69.9153 35.75 70.0012 35.7803 70.082 35.841V40.3726L70.0972 44.9193C70.1679 44.99 70.2285 45.0355 70.2791 45.0557C70.3296 45.0759 70.4508 45.0961 70.6428 45.1163C70.8348 45.1365 71.148 45.1466 71.5825 45.1466H71.9765V45.8438H71.8098C71.5976 45.8135 70.7944 45.7983 69.4 45.7983C68.0259 45.7983 67.2327 45.8135 67.0206 45.8438H66.8387V45.1466H67.2327C67.455 45.1466 67.647 45.1466 67.8087 45.1466C67.9703 45.1466 68.0966 45.1416 68.1876 45.1315C68.2785 45.1214 68.3593 45.1062 68.4301 45.086C68.5008 45.0658 68.5412 45.0557 68.5513 45.0557C68.5614 45.0557 68.5917 45.0304 68.6422 44.9799C68.6928 44.9294 68.7231 44.9092 68.7332 44.9193V37.0837Z" fill="black"/>
<path d="M74.5379 36.9776C75.1037 36.1592 75.8766 35.75 76.8567 35.75C77.3417 35.75 77.8267 35.8814 78.3117 36.1441C78.7966 36.4068 79.1907 36.8716 79.4938 37.5384C79.8676 38.377 80.0546 39.5289 80.0546 40.9939C80.0546 42.56 79.8373 43.7574 79.4029 44.5859C79.2008 45.0102 78.9229 45.3487 78.5693 45.6013C78.2157 45.8539 77.9075 46.0105 77.6448 46.0711C77.3821 46.1318 77.1244 46.1671 76.8718 46.1772C76.6091 46.1772 76.3464 46.1469 76.0837 46.0863C75.821 46.0257 75.5129 45.864 75.1592 45.6013C74.8056 45.3386 74.5278 45.0001 74.3257 44.5859C73.8912 43.7574 73.674 42.56 73.674 40.9939C73.674 39.2359 73.9619 37.8971 74.5379 36.9776ZM77.9479 36.7958C77.6448 36.4725 77.2861 36.3108 76.8718 36.3108C76.4475 36.3108 76.0837 36.4725 75.7806 36.7958C75.528 37.0585 75.3613 37.4222 75.2805 37.887C75.1997 38.3518 75.1592 39.3217 75.1592 40.7969C75.1592 42.3933 75.1997 43.4441 75.2805 43.9493C75.3613 44.4545 75.5432 44.8536 75.8261 45.1466C76.109 45.4498 76.4576 45.6013 76.8718 45.6013C77.276 45.6013 77.6195 45.4498 77.9024 45.1466C78.1955 44.8435 78.3773 44.4192 78.4481 43.8735C78.5188 43.3279 78.5592 42.3024 78.5693 40.7969C78.5693 39.3319 78.5289 38.3669 78.4481 37.9022C78.3672 37.4374 78.2005 37.0686 77.9479 36.7958Z" fill="black"/>
<path d="M82.1158 36.9776C82.6816 36.1592 83.4545 35.75 84.4346 35.75C84.9196 35.75 85.4046 35.8814 85.8896 36.1441C86.3746 36.4068 86.7686 36.8716 87.0717 37.5384C87.4456 38.377 87.6325 39.5289 87.6325 40.9939C87.6325 42.56 87.4152 43.7574 86.9808 44.5859C86.7787 45.0102 86.5008 45.3487 86.1472 45.6013C85.7936 45.8539 85.4854 46.0105 85.2227 46.0711C84.96 46.1318 84.7024 46.1671 84.4498 46.1772C84.1871 46.1772 83.9244 46.1469 83.6617 46.0863C83.399 46.0257 83.0908 45.864 82.7372 45.6013C82.3835 45.3386 82.1057 45.0001 81.9036 44.5859C81.4691 43.7574 81.2519 42.56 81.2519 40.9939C81.2519 39.2359 81.5398 37.8971 82.1158 36.9776ZM85.5258 36.7958C85.2227 36.4725 84.864 36.3108 84.4498 36.3108C84.0254 36.3108 83.6617 36.4725 83.3585 36.7958C83.1059 37.0585 82.9392 37.4222 82.8584 37.887C82.7776 38.3518 82.7372 39.3217 82.7372 40.7969C82.7372 42.3933 82.7776 43.4441 82.8584 43.9493C82.9392 44.4545 83.1211 44.8536 83.404 45.1466C83.6869 45.4498 84.0355 45.6013 84.4498 45.6013C84.8539 45.6013 85.1974 45.4498 85.4804 45.1466C85.7734 44.8435 85.9552 44.4192 86.026 43.8735C86.0967 43.3279 86.1371 42.3024 86.1472 40.7969C86.1472 39.3319 86.1068 38.3669 86.026 37.9022C85.9451 37.4374 85.7784 37.0686 85.5258 36.7958Z" fill="black"/>
<path d="M95.2862 36.6745C94.9123 36.6745 94.5536 36.6291 94.2101 36.5381C93.8666 36.4472 93.5938 36.3563 93.3917 36.2653C93.1896 36.1744 93.0835 36.1289 93.0734 36.1289C93.2048 36.4623 93.2704 36.9322 93.2704 37.5384C93.2704 38.4478 93.0734 39.1803 92.6794 39.736C92.2853 40.2917 91.8256 40.5746 91.3002 40.5847C90.7243 40.5847 90.214 40.3069 89.7695 39.7512C89.3249 39.1954 89.0975 38.4579 89.0874 37.5384C89.0874 36.6392 89.3148 35.9066 89.7695 35.3408C90.2241 34.775 90.7344 34.487 91.3002 34.4769C91.6942 34.4769 92.0479 34.6335 92.3611 34.9468C93.2401 35.7248 94.2101 36.1138 95.271 36.1138C96.4431 36.1138 97.3827 35.6591 98.09 34.7497C98.2112 34.5881 98.3022 34.5022 98.3628 34.4921C98.383 34.482 98.4083 34.4769 98.4386 34.4769C98.5295 34.4769 98.6053 34.5123 98.6659 34.583C98.7265 34.6538 98.7518 34.7396 98.7417 34.8407C93.5382 42.651 90.896 46.5814 90.8152 46.6319C90.7748 46.6723 90.7243 46.6925 90.6636 46.6925C90.5323 46.6925 90.4414 46.637 90.3908 46.5258C90.3403 46.4349 90.3403 46.3439 90.3908 46.253C90.4009 46.2227 91.5174 44.5505 93.7403 41.2364C94.8113 39.64 95.6297 38.4174 96.1955 37.5687C96.7613 36.72 97.0443 36.2956 97.0443 36.2956C96.5087 36.5482 95.9227 36.6745 95.2862 36.6745ZM91.376 40.0088C91.6589 40.0088 91.9418 39.7966 92.2247 39.3723C92.5076 38.9479 92.6541 38.3366 92.6642 37.5384C92.6642 36.8412 92.5379 36.2552 92.2853 35.7803C92.0327 35.3055 91.6942 35.063 91.2699 35.0529C91.1992 35.0529 91.1284 35.068 91.0577 35.0983C90.987 35.1286 90.891 35.1842 90.7697 35.265C90.6485 35.3459 90.5475 35.4974 90.4666 35.7197C90.3858 35.942 90.3201 36.2098 90.2696 36.523C90.2494 36.725 90.2393 37.0635 90.2393 37.5384V37.8567C90.2393 38.7761 90.406 39.4026 90.7394 39.736C90.9213 39.9179 91.1133 40.0088 91.3153 40.0088H91.376ZM95.8166 43.6311C95.8166 42.7419 96.0389 42.0144 96.4835 41.4486C96.9281 40.8828 97.4484 40.5948 98.0445 40.5847C98.5699 40.5847 99.0246 40.8626 99.4086 41.4183C99.7925 41.974 99.9895 42.7116 99.9996 43.6311C100.01 44.5505 99.8127 45.2881 99.4086 45.8438C99.0044 46.3995 98.5447 46.6824 98.0294 46.6925C97.4636 46.6925 96.9533 46.4096 96.4986 45.8438C96.044 45.278 95.8166 44.5404 95.8166 43.6311ZM98.1052 46.1166C98.3881 46.1166 98.671 45.9044 98.9539 45.4801C99.2368 45.0557 99.3833 44.4394 99.3934 43.6311C99.3934 42.9339 99.2671 42.3479 99.0145 41.873C98.7619 41.3981 98.4234 41.1607 97.9991 41.1607C97.9283 41.1607 97.8576 41.1758 97.7869 41.2061C97.7162 41.2364 97.6202 41.292 97.4989 41.3728C97.3777 41.4537 97.2766 41.6052 97.1958 41.8275C97.115 42.0498 97.0493 42.3175 96.9988 42.6308C96.9887 42.752 96.9836 43.0854 96.9836 43.6311V43.9645C96.9836 45.3992 97.3373 46.1166 98.0445 46.1166H98.1052Z" fill="black"/>
</svg>
