<svg width="101" height="83" viewBox="0 0 101 83" fill="none" xmlns="http://www.w3.org/2000/svg">
<rect width="100.244" height="82.6669" fill="white"/>
<path d="M2.44758 41.5775C2.44758 41.8038 2.66452 41.9359 3.09838 41.9736C3.26816 41.9736 3.35305 42.0255 3.35305 42.1292C3.35305 42.1387 3.34361 42.2 3.32475 42.3131C3.29645 42.4452 3.26816 42.5301 3.23986 42.5678C3.21157 42.6055 3.15026 42.6244 3.05594 42.6244C3.03708 42.6244 2.98049 42.6244 2.88617 42.6244C2.79185 42.6244 2.6315 42.6197 2.40514 42.6103C2.17877 42.6008 1.87695 42.5961 1.49967 42.5961C0.830009 42.5961 0.400856 42.6055 0.212218 42.6244H0.0990351C0.0330117 42.5584 0 42.5065 0 42.4688C0.0188638 42.2141 0.0801713 42.0491 0.183922 41.9736H0.381993C1.04223 41.9453 1.52325 41.7095 1.82508 41.2662C1.88167 41.2096 2.73526 39.7712 4.38584 36.9511C6.03643 34.131 6.87587 32.702 6.90416 32.6643C6.97019 32.5511 7.08337 32.4945 7.24371 32.4945H7.59741C7.654 32.5794 7.68229 32.6266 7.68229 32.636L8.07844 37.2058C8.34253 40.2523 8.48401 41.7897 8.50287 41.818C8.55003 41.9217 8.85657 41.9736 9.42248 41.9736C9.65828 41.9736 9.77618 42.0208 9.77618 42.1151C9.77618 42.1339 9.76203 42.2 9.73374 42.3131C9.70544 42.4546 9.68186 42.5395 9.663 42.5678C9.64413 42.5961 9.57811 42.615 9.46493 42.6244C9.43663 42.6244 9.37061 42.6244 9.26686 42.6244C9.16311 42.6244 8.97918 42.6197 8.71509 42.6103C8.451 42.6008 8.10673 42.5961 7.68229 42.5961C6.79569 42.5961 6.21563 42.6055 5.94211 42.6244H5.77233C5.71574 42.5678 5.68745 42.5254 5.68745 42.4971C5.68745 42.4688 5.69688 42.3839 5.71574 42.2424C5.75347 42.1198 5.78176 42.0443 5.80063 42.016L5.85722 41.9736H6.14018C6.6495 41.9453 6.95132 41.8651 7.04564 41.7331L6.87587 39.6109H3.50867L3.02764 40.4315C2.64094 41.0823 2.44758 41.4643 2.44758 41.5775ZM6.80513 38.946C6.80513 38.8422 6.74854 38.1065 6.63535 36.7389C6.52217 35.3713 6.45615 34.6827 6.43728 34.6733L6.05529 35.2817C5.90438 35.5363 5.60727 36.0409 5.16397 36.7955L3.89067 38.946L5.3479 38.9601C6.31938 38.9601 6.80513 38.9554 6.80513 38.946Z" fill="black"/>
<path d="M14.8383 37.7151C14.8383 37.5925 14.9043 37.4982 15.0364 37.4321H24.0486C24.19 37.5076 24.2608 37.6019 24.2608 37.7151C24.2608 37.8188 24.1948 37.9084 24.0627 37.9839L19.5637 37.998H15.0647C14.9137 37.9509 14.8383 37.8566 14.8383 37.7151ZM14.8383 40.4598C14.8383 40.3183 14.9137 40.224 15.0647 40.1768H24.0627C24.1948 40.2711 24.2608 40.3655 24.2608 40.4598C24.2608 40.5824 24.19 40.6767 24.0486 40.7427H15.0364C14.9043 40.6767 14.8383 40.5824 14.8383 40.4598Z" fill="black"/>
<path d="M29.6624 42.6103C29.5021 42.6103 29.4219 42.5631 29.4219 42.4688C29.4219 42.4499 29.4361 42.3839 29.4644 42.2707C29.5021 42.1198 29.5398 42.0349 29.5775 42.016C29.6153 41.9972 29.7237 41.983 29.9029 41.9736C30.1576 41.9736 30.4406 41.9595 30.7518 41.9312C30.8839 41.9029 30.9735 41.8463 31.0206 41.7614C31.0395 41.7142 31.3743 40.389 32.0251 37.7858C32.6759 35.1826 33.006 33.8622 33.0155 33.8244C33.0155 33.7584 32.9966 33.7254 32.9589 33.7254C32.8834 33.6971 32.6335 33.6735 32.209 33.6547H31.7705C31.7139 33.5981 31.6856 33.5603 31.6856 33.5415C31.6856 33.5226 31.695 33.4424 31.7139 33.301C31.7516 33.1406 31.7988 33.0416 31.8554 33.0038H39.4811C39.5471 33.0416 39.5801 33.0935 39.5801 33.1595C39.5801 33.2066 39.5188 33.7348 39.3962 34.744C39.2736 35.7533 39.2075 36.272 39.1981 36.3003C39.1792 36.3663 39.0849 36.3993 38.9151 36.3993H38.7454C38.6793 36.3522 38.6463 36.2909 38.6463 36.2154C38.6463 36.206 38.6605 36.0928 38.6888 35.8759C38.7171 35.6589 38.7312 35.409 38.7312 35.126C38.7312 34.8431 38.6982 34.612 38.6322 34.4328C38.5662 34.2536 38.4766 34.1074 38.3634 33.9942C38.2502 33.881 38.0757 33.8056 37.8399 33.7678C37.6041 33.7301 37.3636 33.6971 37.1184 33.6688C36.8731 33.6405 36.5336 33.6358 36.0997 33.6547H35.7743C35.0009 33.6641 34.5906 33.6782 34.5434 33.6971C34.4963 33.716 34.4633 33.7537 34.4444 33.8103C34.435 33.8197 34.2746 34.4375 33.9634 35.6636L33.5107 37.4887H34.2888C34.3171 37.4887 34.4256 37.4887 34.6142 37.4887C34.8028 37.4887 34.9349 37.484 35.0103 37.4746C35.0858 37.4651 35.1895 37.451 35.3216 37.4321C35.4536 37.4133 35.5668 37.3803 35.6611 37.3331C35.7554 37.2859 35.8356 37.2293 35.9016 37.1633C36.0243 37.0501 36.128 36.8945 36.2129 36.6964C36.2978 36.4984 36.3591 36.3192 36.3968 36.1588C36.4345 35.9985 36.4581 35.9136 36.4676 35.9042C36.4959 35.857 36.5855 35.8334 36.7364 35.8334H36.9061C36.9722 35.8806 37.0052 35.9277 37.0052 35.9749C37.0052 36.0032 36.859 36.621 36.5666 37.8283C36.2742 39.0356 36.1139 39.6581 36.0856 39.6958C36.0667 39.7618 35.9724 39.7948 35.8026 39.7948H35.6328C35.5668 39.7382 35.5338 39.6816 35.5338 39.6251C35.5338 39.5968 35.5574 39.493 35.6045 39.3138C35.6517 39.1346 35.6753 38.946 35.6753 38.7479C35.6753 38.4744 35.581 38.3046 35.3923 38.2386C35.2037 38.1725 34.784 38.1395 34.1332 38.1395H33.355L32.9023 39.9363C32.6005 41.1059 32.4496 41.7189 32.4496 41.7755C32.4496 41.9076 32.8693 41.9736 33.7087 41.9736H34.0624C34.119 42.0302 34.1473 42.0632 34.1473 42.0726C34.1473 42.0821 34.1379 42.1764 34.119 42.3556C34.0813 42.4782 34.0341 42.5678 33.9775 42.6244H33.737C33.3503 42.6055 32.6382 42.5961 31.6007 42.5961C30.9876 42.5961 30.5207 42.5961 30.2001 42.5961C29.8794 42.5961 29.7002 42.6008 29.6624 42.6103Z" fill="black"/>
<path d="M38.3818 29.6367C38.3818 29.5612 38.4053 29.4952 38.4525 29.4386C38.4997 29.382 38.5704 29.3537 38.6647 29.3537C38.7307 29.3537 38.7873 29.3773 38.8345 29.4244C38.8817 29.4622 38.9288 29.5518 38.976 29.6932C39.0703 30.0422 39.2636 30.311 39.556 30.4997C39.6598 30.5657 39.7117 30.6506 39.7117 30.7543C39.7117 30.8392 39.6975 30.8958 39.6692 30.9241C39.6409 30.9524 39.5749 30.9949 39.4712 31.0514C39.0656 31.2589 38.7119 31.556 38.4101 31.9428C38.3912 31.9616 38.3676 31.9899 38.3393 32.0276C38.311 32.0654 38.2874 32.0937 38.2686 32.1125C38.2497 32.1314 38.2261 32.1408 38.1978 32.1408C38.1695 32.1408 38.1365 32.1455 38.0988 32.155C38.0328 32.155 37.9715 32.1314 37.9149 32.0842C37.8583 32.0371 37.8253 31.9663 37.8158 31.872C37.8158 31.6928 38.0375 31.4146 38.4808 31.0373H36.0615L33.6422 31.0231C33.5196 30.9383 33.4583 30.8487 33.4583 30.7543C33.4583 30.6883 33.5196 30.594 33.6422 30.4714H38.7213C38.4949 30.113 38.3818 29.8347 38.3818 29.6367Z" fill="black"/>
<path d="M44.3691 39.0874C44.3691 38.8611 44.4493 38.663 44.6097 38.4932C44.77 38.3234 44.9728 38.2386 45.218 38.2386C45.4444 38.2386 45.6425 38.314 45.8122 38.4649C45.982 38.6158 46.0716 38.8186 46.081 39.0733C46.081 39.3091 46.0009 39.5119 45.8405 39.6816C45.6802 39.8514 45.4774 39.9363 45.2322 39.9363C44.9869 39.9363 44.7842 39.8561 44.6238 39.6958C44.4635 39.5354 44.3786 39.3327 44.3691 39.0874Z" fill="black"/>
<path d="M54.6999 42.2849C55.2564 42.2849 55.7657 42.0396 56.2279 41.5492C56.6901 41.0587 56.9259 40.4881 56.9353 39.8373C56.9353 39.2431 56.6901 38.8328 56.1996 38.6064C55.1998 38.3517 54.5584 38.1773 54.2755 38.0829C53.9925 37.9886 53.7945 37.8943 53.6813 37.8C53.1154 37.4038 52.8324 36.8332 52.8324 36.0881C52.8324 35.5127 52.9833 34.9893 53.2851 34.5177C53.587 34.0461 53.8935 33.6924 54.2048 33.4566C54.4783 33.2208 54.8084 33.0321 55.1951 32.8907C55.5818 32.7492 55.8836 32.6737 56.1006 32.6643H56.3552C57.2607 32.6643 57.9162 32.9661 58.3218 33.5698C58.3312 33.5698 58.3925 33.5085 58.5057 33.3858C58.6189 33.2632 58.7415 33.1265 58.8736 32.9756C59.0056 32.8246 59.0999 32.7209 59.1565 32.6643C59.1659 32.6643 59.1848 32.6643 59.2131 32.6643C59.2414 32.6643 59.265 32.6596 59.2838 32.6502C59.4065 32.6502 59.4678 32.6832 59.4678 32.7492C59.4678 32.8152 59.3357 33.3858 59.0716 34.4611C58.8075 35.5363 58.6566 36.0928 58.6189 36.1305C58.5812 36.1683 58.5057 36.1824 58.3925 36.173C58.2039 36.173 58.1096 36.1305 58.1096 36.0456C58.1096 35.989 58.1143 35.9419 58.1237 35.9042C58.1237 35.8759 58.1284 35.7863 58.1379 35.6354C58.1473 35.4844 58.1567 35.3618 58.1662 35.2675C58.1662 34.9468 58.1237 34.6686 58.0388 34.4328C57.9539 34.197 57.8691 34.0225 57.7842 33.9093C57.6993 33.7961 57.5814 33.6782 57.4305 33.5556C57.0909 33.3575 56.7042 33.2585 56.2703 33.2585C55.7327 33.2585 55.2328 33.4754 54.7707 33.9093C54.3085 34.3432 54.0727 34.8431 54.0633 35.409C54.0633 35.6919 54.134 35.9372 54.2755 36.1447C54.417 36.3522 54.6103 36.4984 54.8556 36.5833C54.8933 36.6021 55.2234 36.6917 55.8459 36.8521C56.4684 37.0124 56.7844 37.0973 56.7938 37.1067C57.1145 37.2105 57.4258 37.4368 57.7276 37.7858C58.0294 38.1348 58.1803 38.6064 58.1803 39.2006C58.1803 39.4458 58.1426 39.7099 58.0671 39.9929C58.02 40.2004 57.9351 40.4315 57.8125 40.6861C57.6898 40.9408 57.5201 41.219 57.3031 41.5209C57.0862 41.8227 56.7749 42.1056 56.3694 42.3697C55.9638 42.6338 55.5205 42.813 55.0395 42.9074C54.9263 42.9262 54.766 42.9357 54.5584 42.9357C53.6247 42.9357 52.8984 42.6763 52.3797 42.1575L52.2382 42.0019L51.8421 42.4405C51.6251 42.6951 51.4931 42.8413 51.4459 42.8791C51.3988 42.9168 51.3374 42.9357 51.262 42.9357C51.1394 42.9357 51.0781 42.8979 51.0781 42.8225C51.0781 42.7942 51.3516 41.6859 51.8986 39.4977C51.9175 39.4411 52.0118 39.4128 52.1816 39.4128H52.3655C52.4221 39.4694 52.4504 39.5213 52.4504 39.5685C52.4504 39.5873 52.4457 39.6298 52.4363 39.6958C52.4268 39.7618 52.408 39.8609 52.3797 39.9929C52.3514 40.1249 52.3419 40.2806 52.3514 40.4598C52.3702 40.8276 52.4551 41.1389 52.606 41.3935C52.757 41.6482 52.9597 41.8368 53.2144 41.9595C53.4691 42.0821 53.7143 42.167 53.9501 42.2141C54.1859 42.2613 54.4358 42.2849 54.6999 42.2849Z" fill="black"/>
<path d="M58.2199 29.283C58.2199 29.2075 58.2435 29.1415 58.2907 29.0849C58.3378 29.0283 58.4086 29 58.5029 29C58.5689 29 58.6255 29.0236 58.6726 29.0707C58.7198 29.1085 58.767 29.1981 58.8141 29.3395C58.9084 29.6885 59.1018 29.9573 59.3942 30.146C59.4979 30.212 59.5498 30.2969 59.5498 30.4006C59.5498 30.4855 59.5357 30.5421 59.5074 30.5704C59.4791 30.5987 59.4131 30.6412 59.3093 30.6977C58.9037 30.9052 58.55 31.2024 58.2482 31.5891C58.2294 31.6079 58.2058 31.6362 58.1775 31.6739C58.1492 31.7117 58.1256 31.74 58.1067 31.7588C58.0879 31.7777 58.0643 31.7871 58.036 31.7871C58.0077 31.7871 57.9747 31.7918 57.937 31.8013C57.8709 31.8013 57.8096 31.7777 57.753 31.7305C57.6964 31.6834 57.6634 31.6126 57.654 31.5183C57.654 31.3391 57.8757 31.0609 58.319 30.6836H55.8997L53.4804 30.6694C53.3578 30.5846 53.2965 30.495 53.2965 30.4006C53.2965 30.3346 53.3578 30.2403 53.4804 30.1177H58.5595C58.3331 29.7593 58.2199 29.481 58.2199 29.283Z" fill="black"/>
<path d="M64.2073 39.0874C64.2073 38.8611 64.2875 38.663 64.4478 38.4932C64.6081 38.3234 64.8109 38.2386 65.0562 38.2386C65.2825 38.2386 65.4806 38.314 65.6504 38.4649C65.8201 38.6158 65.9097 38.8186 65.9192 39.0733C65.9192 39.3091 65.839 39.5119 65.6787 39.6816C65.5183 39.8514 65.3155 39.9363 65.0703 39.9363C64.8251 39.9363 64.6223 39.8561 64.462 39.6958C64.3016 39.5354 64.2167 39.3327 64.2073 39.0874Z" fill="black"/>
<path d="M75.4152 38.3093C75.4152 38.3093 75.3162 38.3093 75.1181 38.3093C74.9201 38.3093 74.7503 38.2386 74.6088 38.0971C74.4673 37.9556 74.3919 37.7764 74.3824 37.5595C74.3824 37.3425 74.4532 37.1633 74.5947 37.0218C74.6418 36.9747 74.6654 36.9464 74.6654 36.937C74.6654 36.9275 74.6182 36.9181 74.5239 36.9087C74.2787 36.8709 74.0476 36.8521 73.8307 36.8521C73.3685 36.8521 72.9912 37.003 72.6988 37.3048C72.2555 37.7481 72.0339 38.4885 72.0339 39.526C72.0339 40.2994 72.1801 40.9078 72.4725 41.3511C72.8592 41.9264 73.3779 42.2141 74.0287 42.2141C74.4154 42.2141 74.7267 42.0915 74.9625 41.8463C75.1983 41.601 75.3681 41.3086 75.4718 40.9691C75.4907 40.8936 75.5143 40.8465 75.5426 40.8276C75.5709 40.8088 75.6463 40.7993 75.7689 40.7993H75.967C76.0236 40.8559 76.0519 40.8984 76.0519 40.9267C76.0519 40.9644 76.033 41.0398 75.9953 41.153C75.9576 41.2662 75.8821 41.4218 75.7689 41.6199C75.6557 41.818 75.519 41.9972 75.3586 42.1575C75.1983 42.3179 74.9719 42.4641 74.6795 42.5961C74.3872 42.7282 74.0618 42.7895 73.7033 42.78C72.8922 42.78 72.1848 42.4782 71.5812 41.8746C70.9775 41.2709 70.671 40.5117 70.6615 39.5968C70.6615 38.6158 70.9681 37.8188 71.5812 37.2058C72.1942 36.5927 72.9063 36.2862 73.7175 36.2862C74.5286 36.2862 75.0945 36.4135 75.4152 36.6681C75.7359 36.9228 75.8963 37.2246 75.8963 37.5736C75.8963 37.7905 75.8161 37.965 75.6557 38.0971L75.4152 38.3093Z" fill="black"/>
<path d="M76.8583 39.5968C76.8583 38.7007 77.1648 37.9273 77.7779 37.2765C78.391 36.6257 79.1314 36.2956 79.9991 36.2862C80.848 36.2862 81.579 36.6068 82.1921 37.2482C82.8051 37.8896 83.1164 38.6677 83.1258 39.5826C83.1258 40.4786 82.824 41.2332 82.2204 41.8463C81.6167 42.4593 80.8763 42.7659 79.9991 42.7659C79.0842 42.7659 78.3344 42.4499 77.7496 41.818C77.1648 41.186 76.8677 40.4456 76.8583 39.5968ZM79.9991 42.2C81.1498 42.2 81.7252 41.4313 81.7252 39.8939V39.0874C81.7252 38.8799 81.7205 38.7007 81.711 38.5498C81.7016 38.3989 81.6686 38.2197 81.612 38.0122C81.5554 37.8047 81.4799 37.6349 81.3856 37.5029C81.2913 37.3708 81.1451 37.2388 80.947 37.1067C80.749 36.9747 80.5179 36.8804 80.2538 36.8238C80.2066 36.8143 80.1312 36.8096 80.0274 36.8096C79.7445 36.8096 79.4757 36.8662 79.221 36.9794C78.8154 37.1869 78.5513 37.4746 78.4287 37.8424C78.3061 38.2103 78.2448 38.6441 78.2448 39.144V39.427C78.2448 40.3324 78.3344 40.9691 78.5136 41.3369C78.8154 41.9123 79.3106 42.2 79.9991 42.2Z" fill="black"/>
<path d="M87.7097 38.1537C87.7097 37.7764 87.5824 37.451 87.3277 37.1775C87.0731 36.9039 86.7052 36.7672 86.2242 36.7672C85.8847 36.7672 85.5923 36.8285 85.347 36.9511C85.0641 37.1303 84.9226 37.3755 84.9226 37.6868C84.9132 37.734 84.9132 37.7953 84.9226 37.8707C84.932 37.9462 85.0075 38.0594 85.149 38.2103C85.2905 38.3612 85.4932 38.4791 85.7573 38.564C85.9271 38.6111 86.1346 38.6536 86.3798 38.6913C86.6251 38.729 86.8326 38.7715 87.0023 38.8186C87.1721 38.8658 87.323 38.9271 87.4551 39.0025C87.6154 39.078 87.771 39.1723 87.922 39.2855C88.0729 39.3987 88.2238 39.592 88.3747 39.8656C88.5256 40.1391 88.6058 40.4315 88.6152 40.7427C88.6152 41.3275 88.436 41.8085 88.0776 42.1858C87.7192 42.5631 87.1391 42.7564 86.3374 42.7659H86.2242C85.7337 42.7659 85.281 42.5961 84.866 42.2566L84.7528 42.3556L84.6255 42.4829C84.5689 42.5395 84.5123 42.5914 84.4557 42.6385L84.3001 42.78H84.1303C84.102 42.78 84.0596 42.7517 84.003 42.6951V40.7569C84.003 40.5588 84.0124 40.4409 84.0313 40.4032C84.0502 40.3655 84.0973 40.3419 84.1728 40.3324H84.3001C84.4133 40.3324 84.4887 40.3513 84.5265 40.389C84.5642 40.4268 84.5878 40.4834 84.5972 40.5588C84.6066 40.6343 84.6396 40.7616 84.6962 40.9408C84.7528 41.12 84.8424 41.3181 84.965 41.535C85.2952 42.016 85.7526 42.2566 86.3374 42.2566C87.2523 42.2566 87.7097 41.8887 87.7097 41.153C87.7097 40.8795 87.6248 40.6578 87.4551 40.4881C87.2664 40.2617 86.875 40.0919 86.2808 39.9787C85.6866 39.8656 85.2952 39.7571 85.1065 39.6533C84.767 39.493 84.4982 39.2761 84.3001 39.0025C84.102 38.729 84.003 38.4366 84.003 38.1254C84.003 37.7575 84.0832 37.4463 84.2435 37.1916C84.4038 36.937 84.6066 36.7483 84.8519 36.6257C85.0971 36.5031 85.3329 36.4182 85.5593 36.371C85.7856 36.3239 85.9931 36.3003 86.1818 36.3003H86.3374C86.7147 36.3003 87.0448 36.371 87.3277 36.5125L87.54 36.6257L87.6673 36.5267C87.7616 36.4418 87.8654 36.3616 87.9785 36.2862H88.1483C88.1766 36.2862 88.2191 36.3144 88.2757 36.371V38.2386L88.1908 38.3234H87.7946C87.738 38.2669 87.7097 38.2103 87.7097 38.1537Z" fill="black"/>
<path d="M91.9499 40.4173C91.9499 39.3421 92.3554 38.3989 93.1666 37.5878C93.9777 36.7766 94.869 36.371 95.8405 36.371C96.5008 36.371 97.0289 36.5597 97.4251 36.937C97.8212 37.3142 98.09 37.7764 98.2315 38.3234C98.2881 38.597 98.3211 38.9129 98.3306 39.2714V39.6816C98.7927 38.9837 99.1464 38.2008 99.3916 37.3331C99.4294 37.201 99.4577 37.1256 99.4765 37.1067C99.4954 37.0879 99.5708 37.0737 99.7029 37.0643C99.901 37.0643 100 37.102 100 37.1775C100 37.2624 99.9576 37.4463 99.8727 37.7292C99.7878 38.0122 99.618 38.4131 99.3633 38.9318C99.1087 39.4506 98.821 39.9222 98.5003 40.3466L98.3447 40.5447L98.3588 40.8842C98.3777 41.4124 98.4154 41.7708 98.472 41.9595C98.5286 42.1481 98.6182 42.2471 98.7408 42.2566C98.8729 42.2377 98.9955 42.1858 99.1087 42.1009C99.2219 42.016 99.302 41.9076 99.3492 41.7755C99.3681 41.7095 99.3916 41.6718 99.4199 41.6623C99.4482 41.6529 99.519 41.6435 99.6322 41.634C99.8208 41.634 99.9151 41.6718 99.9151 41.7472C99.9151 41.8038 99.8868 41.8934 99.8302 42.016C99.717 42.2424 99.552 42.4216 99.3351 42.5537C99.1181 42.6857 98.9106 42.7564 98.7125 42.7659H98.6135C97.9816 42.7659 97.5524 42.4263 97.326 41.7472L97.2836 41.6482L97.128 41.7614C97.0337 41.8368 96.8922 41.9312 96.7035 42.0443C96.5149 42.1575 96.3027 42.266 96.0669 42.3697C95.8311 42.4735 95.5576 42.5678 95.2463 42.6527C94.9351 42.7376 94.6332 42.78 94.3409 42.78C93.5957 42.78 93.011 42.5442 92.5865 42.0726C92.1621 41.601 91.9499 41.0493 91.9499 40.4173ZM94.4116 42.2566C94.8738 42.2566 95.3359 42.1575 95.7981 41.9595C96.2602 41.7614 96.6045 41.5586 96.8309 41.3511L97.1704 41.0398C97.1516 39.6911 97.1185 38.8516 97.0714 38.5215C96.9393 37.4368 96.5055 36.8945 95.7698 36.8945C95.119 36.8945 94.5484 37.2388 94.0579 37.9273C93.8032 38.3046 93.5957 38.8139 93.4354 39.4553C93.275 40.0966 93.1902 40.5871 93.1807 40.9267C93.1807 41.3888 93.2986 41.7237 93.5344 41.9312C93.7702 42.1387 94.0626 42.2471 94.4116 42.2566Z" fill="black"/>
<path d="M2.44758 41.5775C2.44758 41.8038 2.66452 41.9359 3.09838 41.9736C3.26816 41.9736 3.35305 42.0255 3.35305 42.1292C3.35305 42.1387 3.34361 42.2 3.32475 42.3131C3.29645 42.4452 3.26816 42.5301 3.23986 42.5678C3.21157 42.6055 3.15026 42.6244 3.05594 42.6244C3.03708 42.6244 2.98049 42.6244 2.88617 42.6244C2.79185 42.6244 2.6315 42.6197 2.40514 42.6103C2.17877 42.6008 1.87695 42.5961 1.49967 42.5961C0.830009 42.5961 0.400856 42.6055 0.212218 42.6244H0.0990351C0.0330117 42.5584 0 42.5065 0 42.4688C0.0188638 42.2141 0.0801713 42.0491 0.183922 41.9736H0.381993C1.04223 41.9453 1.52325 41.7095 1.82508 41.2662C1.88167 41.2096 2.73526 39.7712 4.38584 36.9511C6.03643 34.131 6.87587 32.702 6.90416 32.6643C6.97019 32.5511 7.08337 32.4945 7.24371 32.4945H7.59741C7.654 32.5794 7.68229 32.6266 7.68229 32.636L8.07844 37.2058C8.34253 40.2523 8.48401 41.7897 8.50287 41.818C8.55003 41.9217 8.85657 41.9736 9.42248 41.9736C9.65828 41.9736 9.77618 42.0208 9.77618 42.1151C9.77618 42.1339 9.76203 42.2 9.73374 42.3131C9.70544 42.4546 9.68186 42.5395 9.663 42.5678C9.64413 42.5961 9.57811 42.615 9.46493 42.6244C9.43663 42.6244 9.37061 42.6244 9.26686 42.6244C9.16311 42.6244 8.97918 42.6197 8.71509 42.6103C8.451 42.6008 8.10673 42.5961 7.68229 42.5961C6.79569 42.5961 6.21563 42.6055 5.94211 42.6244H5.77233C5.71574 42.5678 5.68745 42.5254 5.68745 42.4971C5.68745 42.4688 5.69688 42.3839 5.71574 42.2424C5.75347 42.1198 5.78176 42.0443 5.80063 42.016L5.85722 41.9736H6.14018C6.6495 41.9453 6.95132 41.8651 7.04564 41.7331L6.87587 39.6109H3.50867L3.02764 40.4315C2.64094 41.0823 2.44758 41.4643 2.44758 41.5775ZM6.80513 38.946C6.80513 38.8422 6.74854 38.1065 6.63535 36.7389C6.52217 35.3713 6.45615 34.6827 6.43728 34.6733L6.05529 35.2817C5.90438 35.5363 5.60727 36.0409 5.16397 36.7955L3.89067 38.946L5.3479 38.9601C6.31938 38.9601 6.80513 38.9554 6.80513 38.946Z" stroke="black"/>
<path d="M14.8383 37.7151C14.8383 37.5925 14.9043 37.4982 15.0364 37.4321H24.0486C24.19 37.5076 24.2608 37.6019 24.2608 37.7151C24.2608 37.8188 24.1948 37.9084 24.0627 37.9839L19.5637 37.998H15.0647C14.9137 37.9509 14.8383 37.8566 14.8383 37.7151ZM14.8383 40.4598C14.8383 40.3183 14.9137 40.224 15.0647 40.1768H24.0627C24.1948 40.2711 24.2608 40.3655 24.2608 40.4598C24.2608 40.5824 24.19 40.6767 24.0486 40.7427H15.0364C14.9043 40.6767 14.8383 40.5824 14.8383 40.4598Z" stroke="black"/>
<path d="M29.6624 42.6103C29.5021 42.6103 29.4219 42.5631 29.4219 42.4688C29.4219 42.4499 29.4361 42.3839 29.4644 42.2707C29.5021 42.1198 29.5398 42.0349 29.5775 42.016C29.6153 41.9972 29.7237 41.983 29.9029 41.9736C30.1576 41.9736 30.4406 41.9595 30.7518 41.9312C30.8839 41.9029 30.9735 41.8463 31.0206 41.7614C31.0395 41.7142 31.3743 40.389 32.0251 37.7858C32.6759 35.1826 33.006 33.8622 33.0155 33.8244C33.0155 33.7584 32.9966 33.7254 32.9589 33.7254C32.8834 33.6971 32.6335 33.6735 32.209 33.6547H31.7705C31.7139 33.5981 31.6856 33.5603 31.6856 33.5415C31.6856 33.5226 31.695 33.4424 31.7139 33.301C31.7516 33.1406 31.7988 33.0416 31.8554 33.0038H39.4811C39.5471 33.0416 39.5801 33.0935 39.5801 33.1595C39.5801 33.2066 39.5188 33.7348 39.3962 34.744C39.2736 35.7533 39.2075 36.272 39.1981 36.3003C39.1792 36.3663 39.0849 36.3993 38.9151 36.3993H38.7454C38.6793 36.3522 38.6463 36.2909 38.6463 36.2154C38.6463 36.206 38.6605 36.0928 38.6888 35.8759C38.7171 35.6589 38.7312 35.409 38.7312 35.126C38.7312 34.8431 38.6982 34.612 38.6322 34.4328C38.5662 34.2536 38.4766 34.1074 38.3634 33.9942C38.2502 33.881 38.0757 33.8056 37.8399 33.7678C37.6041 33.7301 37.3636 33.6971 37.1184 33.6688C36.8731 33.6405 36.5336 33.6358 36.0997 33.6547H35.7743C35.0009 33.6641 34.5906 33.6782 34.5434 33.6971C34.4963 33.716 34.4633 33.7537 34.4444 33.8103C34.435 33.8197 34.2746 34.4375 33.9634 35.6636L33.5107 37.4887H34.2888C34.3171 37.4887 34.4256 37.4887 34.6142 37.4887C34.8028 37.4887 34.9349 37.484 35.0103 37.4746C35.0858 37.4651 35.1895 37.451 35.3216 37.4321C35.4536 37.4133 35.5668 37.3803 35.6611 37.3331C35.7554 37.2859 35.8356 37.2293 35.9016 37.1633C36.0243 37.0501 36.128 36.8945 36.2129 36.6964C36.2978 36.4984 36.3591 36.3192 36.3968 36.1588C36.4345 35.9985 36.4581 35.9136 36.4676 35.9042C36.4959 35.857 36.5855 35.8334 36.7364 35.8334H36.9061C36.9722 35.8806 37.0052 35.9277 37.0052 35.9749C37.0052 36.0032 36.859 36.621 36.5666 37.8283C36.2742 39.0356 36.1139 39.6581 36.0856 39.6958C36.0667 39.7618 35.9724 39.7948 35.8026 39.7948H35.6328C35.5668 39.7382 35.5338 39.6816 35.5338 39.6251C35.5338 39.5968 35.5574 39.493 35.6045 39.3138C35.6517 39.1346 35.6753 38.946 35.6753 38.7479C35.6753 38.4744 35.581 38.3046 35.3923 38.2386C35.2037 38.1725 34.784 38.1395 34.1332 38.1395H33.355L32.9023 39.9363C32.6005 41.1059 32.4496 41.7189 32.4496 41.7755C32.4496 41.9076 32.8693 41.9736 33.7087 41.9736H34.0624C34.119 42.0302 34.1473 42.0632 34.1473 42.0726C34.1473 42.0821 34.1379 42.1764 34.119 42.3556C34.0813 42.4782 34.0341 42.5678 33.9775 42.6244H33.737C33.3503 42.6055 32.6382 42.5961 31.6007 42.5961C30.9876 42.5961 30.5207 42.5961 30.2001 42.5961C29.8794 42.5961 29.7002 42.6008 29.6624 42.6103Z" stroke="black"/>
<path d="M38.3818 29.6367C38.3818 29.5612 38.4053 29.4952 38.4525 29.4386C38.4997 29.382 38.5704 29.3537 38.6647 29.3537C38.7307 29.3537 38.7873 29.3773 38.8345 29.4244C38.8817 29.4622 38.9288 29.5518 38.976 29.6932C39.0703 30.0422 39.2636 30.311 39.556 30.4997C39.6598 30.5657 39.7117 30.6506 39.7117 30.7543C39.7117 30.8392 39.6975 30.8958 39.6692 30.9241C39.6409 30.9524 39.5749 30.9949 39.4712 31.0514C39.0656 31.2589 38.7119 31.556 38.4101 31.9428C38.3912 31.9616 38.3676 31.9899 38.3393 32.0276C38.311 32.0654 38.2874 32.0937 38.2686 32.1125C38.2497 32.1314 38.2261 32.1408 38.1978 32.1408C38.1695 32.1408 38.1365 32.1455 38.0988 32.155C38.0328 32.155 37.9715 32.1314 37.9149 32.0842C37.8583 32.0371 37.8253 31.9663 37.8158 31.872C37.8158 31.6928 38.0375 31.4146 38.4808 31.0373H36.0615L33.6422 31.0231C33.5196 30.9383 33.4583 30.8487 33.4583 30.7543C33.4583 30.6883 33.5196 30.594 33.6422 30.4714H38.7213C38.4949 30.113 38.3818 29.8347 38.3818 29.6367Z" stroke="black"/>
<path d="M44.3691 39.0874C44.3691 38.8611 44.4493 38.663 44.6097 38.4932C44.77 38.3234 44.9728 38.2386 45.218 38.2386C45.4444 38.2386 45.6425 38.314 45.8122 38.4649C45.982 38.6158 46.0716 38.8186 46.081 39.0733C46.081 39.3091 46.0009 39.5119 45.8405 39.6816C45.6802 39.8514 45.4774 39.9363 45.2322 39.9363C44.9869 39.9363 44.7842 39.8561 44.6238 39.6958C44.4635 39.5354 44.3786 39.3327 44.3691 39.0874Z" stroke="black"/>
<path d="M54.6999 42.2849C55.2564 42.2849 55.7657 42.0396 56.2279 41.5492C56.6901 41.0587 56.9259 40.4881 56.9353 39.8373C56.9353 39.2431 56.6901 38.8328 56.1996 38.6064C55.1998 38.3517 54.5584 38.1773 54.2755 38.0829C53.9925 37.9886 53.7945 37.8943 53.6813 37.8C53.1154 37.4038 52.8324 36.8332 52.8324 36.0881C52.8324 35.5127 52.9833 34.9893 53.2851 34.5177C53.587 34.0461 53.8935 33.6924 54.2048 33.4566C54.4783 33.2208 54.8084 33.0321 55.1951 32.8907C55.5818 32.7492 55.8836 32.6737 56.1006 32.6643H56.3552C57.2607 32.6643 57.9162 32.9661 58.3218 33.5698C58.3312 33.5698 58.3925 33.5085 58.5057 33.3858C58.6189 33.2632 58.7415 33.1265 58.8736 32.9756C59.0056 32.8246 59.0999 32.7209 59.1565 32.6643C59.1659 32.6643 59.1848 32.6643 59.2131 32.6643C59.2414 32.6643 59.265 32.6596 59.2838 32.6502C59.4065 32.6502 59.4678 32.6832 59.4678 32.7492C59.4678 32.8152 59.3357 33.3858 59.0716 34.4611C58.8075 35.5363 58.6566 36.0928 58.6189 36.1305C58.5812 36.1683 58.5057 36.1824 58.3925 36.173C58.2039 36.173 58.1096 36.1305 58.1096 36.0456C58.1096 35.989 58.1143 35.9419 58.1237 35.9042C58.1237 35.8759 58.1284 35.7863 58.1379 35.6354C58.1473 35.4844 58.1567 35.3618 58.1662 35.2675C58.1662 34.9468 58.1237 34.6686 58.0388 34.4328C57.9539 34.197 57.8691 34.0225 57.7842 33.9093C57.6993 33.7961 57.5814 33.6782 57.4305 33.5556C57.0909 33.3575 56.7042 33.2585 56.2703 33.2585C55.7327 33.2585 55.2328 33.4754 54.7707 33.9093C54.3085 34.3432 54.0727 34.8431 54.0633 35.409C54.0633 35.6919 54.134 35.9372 54.2755 36.1447C54.417 36.3522 54.6103 36.4984 54.8556 36.5833C54.8933 36.6021 55.2234 36.6917 55.8459 36.8521C56.4684 37.0124 56.7844 37.0973 56.7938 37.1067C57.1145 37.2105 57.4258 37.4368 57.7276 37.7858C58.0294 38.1348 58.1803 38.6064 58.1803 39.2006C58.1803 39.4458 58.1426 39.7099 58.0671 39.9929C58.02 40.2004 57.9351 40.4315 57.8125 40.6861C57.6898 40.9408 57.5201 41.219 57.3031 41.5209C57.0862 41.8227 56.7749 42.1056 56.3694 42.3697C55.9638 42.6338 55.5205 42.813 55.0395 42.9074C54.9263 42.9262 54.766 42.9357 54.5584 42.9357C53.6247 42.9357 52.8984 42.6763 52.3797 42.1575L52.2382 42.0019L51.8421 42.4405C51.6251 42.6951 51.4931 42.8413 51.4459 42.8791C51.3988 42.9168 51.3374 42.9357 51.262 42.9357C51.1394 42.9357 51.0781 42.8979 51.0781 42.8225C51.0781 42.7942 51.3516 41.6859 51.8986 39.4977C51.9175 39.4411 52.0118 39.4128 52.1816 39.4128H52.3655C52.4221 39.4694 52.4504 39.5213 52.4504 39.5685C52.4504 39.5873 52.4457 39.6298 52.4363 39.6958C52.4268 39.7618 52.408 39.8609 52.3797 39.9929C52.3514 40.1249 52.3419 40.2806 52.3514 40.4598C52.3702 40.8276 52.4551 41.1389 52.606 41.3935C52.757 41.6482 52.9597 41.8368 53.2144 41.9595C53.4691 42.0821 53.7143 42.167 53.9501 42.2141C54.1859 42.2613 54.4358 42.2849 54.6999 42.2849Z" stroke="black"/>
<path d="M58.2199 29.283C58.2199 29.2075 58.2435 29.1415 58.2907 29.0849C58.3378 29.0283 58.4086 29 58.5029 29C58.5689 29 58.6255 29.0236 58.6726 29.0707C58.7198 29.1085 58.767 29.1981 58.8141 29.3395C58.9084 29.6885 59.1018 29.9573 59.3942 30.146C59.4979 30.212 59.5498 30.2969 59.5498 30.4006C59.5498 30.4855 59.5357 30.5421 59.5074 30.5704C59.4791 30.5987 59.4131 30.6412 59.3093 30.6977C58.9037 30.9052 58.55 31.2024 58.2482 31.5891C58.2294 31.6079 58.2058 31.6362 58.1775 31.6739C58.1492 31.7117 58.1256 31.74 58.1067 31.7588C58.0879 31.7777 58.0643 31.7871 58.036 31.7871C58.0077 31.7871 57.9747 31.7918 57.937 31.8013C57.8709 31.8013 57.8096 31.7777 57.753 31.7305C57.6964 31.6834 57.6634 31.6126 57.654 31.5183C57.654 31.3391 57.8757 31.0609 58.319 30.6836H55.8997L53.4804 30.6694C53.3578 30.5846 53.2965 30.495 53.2965 30.4006C53.2965 30.3346 53.3578 30.2403 53.4804 30.1177H58.5595C58.3331 29.7593 58.2199 29.481 58.2199 29.283Z" stroke="black"/>
<path d="M64.2073 39.0874C64.2073 38.8611 64.2875 38.663 64.4478 38.4932C64.6081 38.3234 64.8109 38.2386 65.0562 38.2386C65.2825 38.2386 65.4806 38.314 65.6504 38.4649C65.8201 38.6158 65.9097 38.8186 65.9192 39.0733C65.9192 39.3091 65.839 39.5119 65.6787 39.6816C65.5183 39.8514 65.3155 39.9363 65.0703 39.9363C64.8251 39.9363 64.6223 39.8561 64.462 39.6958C64.3016 39.5354 64.2167 39.3327 64.2073 39.0874Z" stroke="black"/>
<path d="M75.4152 38.3093C75.4152 38.3093 75.3162 38.3093 75.1181 38.3093C74.9201 38.3093 74.7503 38.2386 74.6088 38.0971C74.4673 37.9556 74.3919 37.7764 74.3824 37.5595C74.3824 37.3425 74.4532 37.1633 74.5947 37.0218C74.6418 36.9747 74.6654 36.9464 74.6654 36.937C74.6654 36.9275 74.6182 36.9181 74.5239 36.9087C74.2787 36.8709 74.0476 36.8521 73.8307 36.8521C73.3685 36.8521 72.9912 37.003 72.6988 37.3048C72.2555 37.7481 72.0339 38.4885 72.0339 39.526C72.0339 40.2994 72.1801 40.9078 72.4725 41.3511C72.8592 41.9264 73.3779 42.2141 74.0287 42.2141C74.4154 42.2141 74.7267 42.0915 74.9625 41.8463C75.1983 41.601 75.3681 41.3086 75.4718 40.9691C75.4907 40.8936 75.5143 40.8465 75.5426 40.8276C75.5709 40.8088 75.6463 40.7993 75.7689 40.7993H75.967C76.0236 40.8559 76.0519 40.8984 76.0519 40.9267C76.0519 40.9644 76.033 41.0398 75.9953 41.153C75.9576 41.2662 75.8821 41.4218 75.7689 41.6199C75.6557 41.818 75.519 41.9972 75.3586 42.1575C75.1983 42.3179 74.9719 42.4641 74.6795 42.5961C74.3872 42.7282 74.0618 42.7895 73.7033 42.78C72.8922 42.78 72.1848 42.4782 71.5812 41.8746C70.9775 41.2709 70.671 40.5117 70.6615 39.5968C70.6615 38.6158 70.9681 37.8188 71.5812 37.2058C72.1942 36.5927 72.9063 36.2862 73.7175 36.2862C74.5286 36.2862 75.0945 36.4135 75.4152 36.6681C75.7359 36.9228 75.8963 37.2246 75.8963 37.5736C75.8963 37.7905 75.8161 37.965 75.6557 38.0971L75.4152 38.3093Z" stroke="black"/>
<path d="M76.8583 39.5968C76.8583 38.7007 77.1648 37.9273 77.7779 37.2765C78.391 36.6257 79.1314 36.2956 79.9991 36.2862C80.848 36.2862 81.579 36.6068 82.1921 37.2482C82.8051 37.8896 83.1164 38.6677 83.1258 39.5826C83.1258 40.4786 82.824 41.2332 82.2204 41.8463C81.6167 42.4593 80.8763 42.7659 79.9991 42.7659C79.0842 42.7659 78.3344 42.4499 77.7496 41.818C77.1648 41.186 76.8677 40.4456 76.8583 39.5968ZM79.9991 42.2C81.1498 42.2 81.7252 41.4313 81.7252 39.8939V39.0874C81.7252 38.8799 81.7205 38.7007 81.711 38.5498C81.7016 38.3989 81.6686 38.2197 81.612 38.0122C81.5554 37.8047 81.4799 37.6349 81.3856 37.5029C81.2913 37.3708 81.1451 37.2388 80.947 37.1067C80.749 36.9747 80.5179 36.8804 80.2538 36.8238C80.2066 36.8143 80.1312 36.8096 80.0274 36.8096C79.7445 36.8096 79.4757 36.8662 79.221 36.9794C78.8154 37.1869 78.5513 37.4746 78.4287 37.8424C78.3061 38.2103 78.2448 38.6441 78.2448 39.144V39.427C78.2448 40.3324 78.3344 40.9691 78.5136 41.3369C78.8154 41.9123 79.3106 42.2 79.9991 42.2Z" stroke="black"/>
<path d="M87.7097 38.1537C87.7097 37.7764 87.5824 37.451 87.3277 37.1775C87.0731 36.9039 86.7052 36.7672 86.2242 36.7672C85.8847 36.7672 85.5923 36.8285 85.347 36.9511C85.0641 37.1303 84.9226 37.3755 84.9226 37.6868C84.9132 37.734 84.9132 37.7953 84.9226 37.8707C84.932 37.9462 85.0075 38.0594 85.149 38.2103C85.2905 38.3612 85.4932 38.4791 85.7573 38.564C85.9271 38.6111 86.1346 38.6536 86.3798 38.6913C86.6251 38.729 86.8326 38.7715 87.0023 38.8186C87.1721 38.8658 87.323 38.9271 87.4551 39.0025C87.6154 39.078 87.771 39.1723 87.922 39.2855C88.0729 39.3987 88.2238 39.592 88.3747 39.8656C88.5256 40.1391 88.6058 40.4315 88.6152 40.7427C88.6152 41.3275 88.436 41.8085 88.0776 42.1858C87.7192 42.5631 87.1391 42.7564 86.3374 42.7659H86.2242C85.7337 42.7659 85.281 42.5961 84.866 42.2566L84.7528 42.3556L84.6255 42.4829C84.5689 42.5395 84.5123 42.5914 84.4557 42.6385L84.3001 42.78H84.1303C84.102 42.78 84.0596 42.7517 84.003 42.6951V40.7569C84.003 40.5588 84.0124 40.4409 84.0313 40.4032C84.0502 40.3655 84.0973 40.3419 84.1728 40.3324H84.3001C84.4133 40.3324 84.4887 40.3513 84.5265 40.389C84.5642 40.4268 84.5878 40.4834 84.5972 40.5588C84.6066 40.6343 84.6396 40.7616 84.6962 40.9408C84.7528 41.12 84.8424 41.3181 84.965 41.535C85.2952 42.016 85.7526 42.2566 86.3374 42.2566C87.2523 42.2566 87.7097 41.8887 87.7097 41.153C87.7097 40.8795 87.6248 40.6578 87.4551 40.4881C87.2664 40.2617 86.875 40.0919 86.2808 39.9787C85.6866 39.8656 85.2952 39.7571 85.1065 39.6533C84.767 39.493 84.4982 39.2761 84.3001 39.0025C84.102 38.729 84.003 38.4366 84.003 38.1254C84.003 37.7575 84.0832 37.4463 84.2435 37.1916C84.4038 36.937 84.6066 36.7483 84.8519 36.6257C85.0971 36.5031 85.3329 36.4182 85.5593 36.371C85.7856 36.3239 85.9931 36.3003 86.1818 36.3003H86.3374C86.7147 36.3003 87.0448 36.371 87.3277 36.5125L87.54 36.6257L87.6673 36.5267C87.7616 36.4418 87.8654 36.3616 87.9785 36.2862H88.1483C88.1766 36.2862 88.2191 36.3144 88.2757 36.371V38.2386L88.1908 38.3234H87.7946C87.738 38.2669 87.7097 38.2103 87.7097 38.1537Z" stroke="black"/>
<path d="M91.9499 40.4173C91.9499 39.3421 92.3554 38.3989 93.1666 37.5878C93.9777 36.7766 94.869 36.371 95.8405 36.371C96.5008 36.371 97.0289 36.5597 97.4251 36.937C97.8212 37.3142 98.09 37.7764 98.2315 38.3234C98.2881 38.597 98.3211 38.9129 98.3306 39.2714V39.6816C98.7927 38.9837 99.1464 38.2008 99.3916 37.3331C99.4294 37.201 99.4577 37.1256 99.4765 37.1067C99.4954 37.0879 99.5708 37.0737 99.7029 37.0643C99.901 37.0643 100 37.102 100 37.1775C100 37.2624 99.9576 37.4463 99.8727 37.7292C99.7878 38.0122 99.618 38.4131 99.3633 38.9318C99.1087 39.4506 98.821 39.9222 98.5003 40.3466L98.3447 40.5447L98.3588 40.8842C98.3777 41.4124 98.4154 41.7708 98.472 41.9595C98.5286 42.1481 98.6182 42.2471 98.7408 42.2566C98.8729 42.2377 98.9955 42.1858 99.1087 42.1009C99.2219 42.016 99.302 41.9076 99.3492 41.7755C99.3681 41.7095 99.3916 41.6718 99.4199 41.6623C99.4482 41.6529 99.519 41.6435 99.6322 41.634C99.8208 41.634 99.9151 41.6718 99.9151 41.7472C99.9151 41.8038 99.8868 41.8934 99.8302 42.016C99.717 42.2424 99.552 42.4216 99.3351 42.5537C99.1181 42.6857 98.9106 42.7564 98.7125 42.7659H98.6135C97.9816 42.7659 97.5524 42.4263 97.326 41.7472L97.2836 41.6482L97.128 41.7614C97.0337 41.8368 96.8922 41.9312 96.7035 42.0443C96.5149 42.1575 96.3027 42.266 96.0669 42.3697C95.8311 42.4735 95.5576 42.5678 95.2463 42.6527C94.9351 42.7376 94.6332 42.78 94.3409 42.78C93.5957 42.78 93.011 42.5442 92.5865 42.0726C92.1621 41.601 91.9499 41.0493 91.9499 40.4173ZM94.4116 42.2566C94.8738 42.2566 95.3359 42.1575 95.7981 41.9595C96.2602 41.7614 96.6045 41.5586 96.8309 41.3511L97.1704 41.0398C97.1516 39.6911 97.1185 38.8516 97.0714 38.5215C96.9393 37.4368 96.5055 36.8945 95.7698 36.8945C95.119 36.8945 94.5484 37.2388 94.0579 37.9273C93.8032 38.3046 93.5957 38.8139 93.4354 39.4553C93.275 40.0966 93.1902 40.5871 93.1807 40.9267C93.1807 41.3888 93.2986 41.7237 93.5344 41.9312C93.7702 42.1387 94.0626 42.2471 94.4116 42.2566Z" stroke="black"/>
</svg>
