<svg width="101" height="83" viewBox="0 0 101 83" fill="none" xmlns="http://www.w3.org/2000/svg">
<rect width="100.244" height="82.6669" fill="white"/>
<path d="M6.22585 32.1552C6.16451 32.1552 6.08272 32.1552 5.98049 32.1552C5.46934 32.1552 5.16265 32.145 5.06042 32.1246C4.95819 32.1041 4.90707 31.9917 4.90707 31.7872C4.90707 31.2352 5.01953 30.8978 5.24443 30.7751C5.28533 30.7547 6.27696 30.7445 8.21935 30.7445C9.7937 30.7445 10.6933 30.7445 10.9182 30.7445C11.1431 30.7445 11.2863 30.8058 11.3476 30.9285C15.6617 41.0698 17.8597 46.2733 17.9415 46.5391L19.5976 40.0066C20.6813 35.6924 21.2231 33.3922 21.2231 33.106C21.2231 32.5539 20.5688 32.237 19.2603 32.1552C18.7696 32.1552 18.5242 32.0428 18.5242 31.8179C18.5242 31.777 18.5446 31.6543 18.5855 31.4499C18.6673 31.1227 18.7287 30.9285 18.7696 30.8671C18.8104 30.8058 18.9127 30.7649 19.0762 30.7445C19.1376 30.7445 19.4545 30.7547 20.027 30.7751C20.5995 30.7956 21.448 30.816 22.5725 30.8365C23.5948 30.8365 24.3718 30.8262 24.9034 30.8058C25.435 30.7854 25.7417 30.7751 25.8235 30.7751C26.1302 30.7751 26.2835 30.8774 26.2835 31.0818C26.2835 31.5316 26.2017 31.8383 26.0382 32.0019C25.9973 32.1041 25.7724 32.1552 25.3634 32.1552C23.9118 32.237 23.0019 32.646 22.6339 33.382L18.0642 51.4768C18.0233 51.62 17.8086 51.6915 17.4201 51.6915C17.1339 51.6915 16.9601 51.6711 16.8987 51.6302C16.8374 51.5689 15.5186 48.4713 12.9424 42.3374L9.04741 33.1673L7.05392 41.1413C5.72492 46.3755 5.06042 49.0846 5.06042 49.2687C5.16265 49.9434 5.89871 50.2807 7.2686 50.2807H7.57529C7.69797 50.383 7.75931 50.4648 7.75931 50.5261C7.75931 50.5874 7.73886 50.7817 7.69797 51.1088C7.61618 51.3746 7.51395 51.5689 7.39128 51.6915H6.99258C6.35875 51.6506 5.25466 51.6302 3.6803 51.6302C3.10781 51.6302 2.58644 51.6302 2.11617 51.6302C1.64591 51.6302 1.26766 51.6302 0.981414 51.6302C0.695169 51.6302 0.521376 51.6404 0.460038 51.6609C0.153346 51.6609 0 51.5689 0 51.3848C0 51.3031 0.0306692 51.1395 0.0920076 50.8941C0.153346 50.6488 0.204461 50.5057 0.245354 50.4648C0.286246 50.3421 0.521376 50.2807 0.950745 50.2807C2.34108 50.2194 3.24071 49.8207 3.64963 49.0846C3.73142 48.962 4.45726 46.1302 5.82715 40.5893L7.91265 32.2473C7.87176 32.2268 7.30949 32.1961 6.22585 32.1552Z" fill="black"/>
<path d="M36.5209 41.0493C36.5209 40.7835 36.664 40.5791 36.9502 40.4359H56.4865C56.7932 40.5995 56.9466 40.804 56.9466 41.0493C56.9466 41.2742 56.8034 41.4685 56.5172 41.632L46.7644 41.6627H37.0116C36.6844 41.5605 36.5209 41.356 36.5209 41.0493ZM36.5209 46.9991C36.5209 46.6924 36.6844 46.488 37.0116 46.3858H56.5172C56.8034 46.5902 56.9466 46.7947 56.9466 46.9991C56.9466 47.2649 56.7932 47.4694 56.4865 47.6125H36.9502C36.664 47.4694 36.5209 47.2649 36.5209 46.9991Z" fill="black"/>
<path d="M80.3104 28.6896C80.3104 29.1803 80.7806 29.4666 81.7212 29.5484C82.0892 29.5484 82.2732 29.6608 82.2732 29.8857C82.2732 29.9062 82.2528 30.0391 82.2119 30.2844C82.1505 30.5707 82.0892 30.7547 82.0279 30.8365C81.9665 30.9183 81.8336 30.9591 81.6292 30.9591C81.5883 30.9591 81.4656 30.9591 81.2611 30.9591C81.0567 30.9591 80.7091 30.9489 80.2184 30.9285C79.7277 30.908 79.0734 30.8978 78.2555 30.8978C76.8039 30.8978 75.8736 30.9183 75.4646 30.9591H75.2193C75.0762 30.816 75.0046 30.7036 75.0046 30.6218C75.0455 30.0697 75.1784 29.7119 75.4033 29.5484H75.8327C77.2639 29.487 78.3067 28.9759 78.9609 28.0149C79.0836 27.8922 80.934 24.7742 84.5121 18.6608C88.0901 12.5474 89.9098 9.44981 89.9712 9.36803C90.1143 9.12268 90.3597 9 90.7072 9H91.474C91.5966 9.18402 91.658 9.28625 91.658 9.30669L92.5167 19.2128C93.0892 25.8169 93.3959 29.1497 93.4368 29.211C93.539 29.4359 94.2035 29.5484 95.4303 29.5484C95.9415 29.5484 96.197 29.6506 96.197 29.8551C96.197 29.8959 96.1664 30.0391 96.105 30.2844C96.0437 30.5911 95.9926 30.7751 95.9517 30.8365C95.9108 30.8978 95.7677 30.9387 95.5223 30.9591C95.461 30.9591 95.3178 30.9591 95.0929 30.9591C94.868 30.9591 94.4693 30.9489 93.8968 30.9285C93.3243 30.908 92.5781 30.8978 91.658 30.8978C89.736 30.8978 88.4786 30.9183 87.8857 30.9591H87.5176C87.395 30.8365 87.3336 30.7445 87.3336 30.6831C87.3336 30.6218 87.3541 30.4378 87.395 30.1311C87.4768 29.8653 87.5381 29.7017 87.579 29.6404L87.7017 29.5484H88.315C89.4191 29.487 90.0734 29.3132 90.2779 29.027L89.9098 24.4266H82.6106L81.5678 26.2054C80.7295 27.6162 80.3104 28.4443 80.3104 28.6896ZM89.7565 22.9852C89.7565 22.7602 89.6338 21.1654 89.3885 18.2008C89.1431 15.2361 89 13.7435 88.9591 13.7231L88.131 15.0418C87.8039 15.5939 87.1598 16.6877 86.1989 18.3234L83.4386 22.9852L86.5976 23.0158C88.7035 23.0158 89.7565 23.0056 89.7565 22.9852Z" fill="black"/>
<path d="M80.6937 60.923C80.5506 60.7798 80.479 60.6776 80.479 60.6163C80.479 60.5345 80.5097 60.3709 80.571 60.1256C80.6324 59.8802 80.6835 59.7371 80.7244 59.6962C80.7653 59.594 80.8573 59.5428 81.0004 59.5428C81.1435 59.5428 81.6649 59.5326 82.5645 59.5122H84.19L84.7727 57.0586C84.8341 56.8337 84.9056 56.5373 84.9874 56.1692C85.0692 55.8012 85.1407 55.5354 85.2021 55.3718C85.2634 55.2083 85.3248 55.0038 85.3861 54.7584C85.4474 54.5131 85.5292 54.3393 85.6315 54.2371C85.7337 54.1348 85.8359 54.0122 85.9381 53.869C86.0404 53.7259 86.1835 53.6339 86.3675 53.593C86.5515 53.5521 86.7355 53.5317 86.9196 53.5317C87.2876 53.5521 87.5432 53.6646 87.6863 53.869C87.8294 54.0735 87.901 54.2677 87.901 54.4518C87.901 54.5949 87.809 55.0754 87.625 55.8932C87.4409 56.7111 87.2365 57.5187 87.0116 58.3161L86.7049 59.4508C86.7049 59.4917 87.216 59.5122 88.2383 59.5122H89.8025C89.9456 59.6553 90.0172 59.7678 90.0172 59.8495C90.0172 60.2994 89.8843 60.6572 89.6185 60.923H86.3369L85.2328 65.37C84.4354 68.6414 84.0367 70.3997 84.0367 70.6451C84.0367 71.5038 84.3127 71.9332 84.8647 71.9332C85.5803 71.9332 86.2755 71.5856 86.9502 70.8904C87.625 70.1953 88.1668 69.3365 88.5757 68.3142C88.6166 68.1916 88.6677 68.12 88.729 68.0996C88.7904 68.0791 88.9437 68.0587 89.1891 68.0382H89.3118C89.6185 68.0382 89.7718 68.12 89.7718 68.2836C89.7718 68.3449 89.7411 68.4676 89.6798 68.6516C89.5776 68.9787 89.3935 69.3672 89.1277 69.817C88.8619 70.2668 88.5144 70.7473 88.085 71.2585C87.6556 71.7696 87.1343 72.199 86.5209 72.5466C85.9075 72.8942 85.2839 73.068 84.65 73.068C84.0367 73.068 83.4539 72.9146 82.9019 72.6079C82.3499 72.3012 81.9512 71.7696 81.7058 71.0131C81.6649 70.8496 81.6445 70.5735 81.6445 70.1851V69.633L82.7179 65.3393C83.4335 62.4564 83.8015 61.0047 83.822 60.9843C83.822 60.9434 83.3006 60.923 82.2579 60.923H80.6937Z" fill="black"/>
<path d="M100 44.9443H70.8643V43.1042H100V44.9443Z" fill="black"/>
<path d="M6.22585 32.1552C6.16451 32.1552 6.08272 32.1552 5.98049 32.1552C5.46934 32.1552 5.16265 32.145 5.06042 32.1246C4.95819 32.1041 4.90707 31.9917 4.90707 31.7872C4.90707 31.2352 5.01953 30.8978 5.24443 30.7751C5.28533 30.7547 6.27696 30.7445 8.21935 30.7445C9.7937 30.7445 10.6933 30.7445 10.9182 30.7445C11.1431 30.7445 11.2863 30.8058 11.3476 30.9285C15.6617 41.0698 17.8597 46.2733 17.9415 46.5391L19.5976 40.0066C20.6813 35.6924 21.2231 33.3922 21.2231 33.106C21.2231 32.5539 20.5688 32.237 19.2603 32.1552C18.7696 32.1552 18.5242 32.0428 18.5242 31.8179C18.5242 31.777 18.5446 31.6543 18.5855 31.4499C18.6673 31.1227 18.7287 30.9285 18.7696 30.8671C18.8104 30.8058 18.9127 30.7649 19.0762 30.7445C19.1376 30.7445 19.4545 30.7547 20.027 30.7751C20.5995 30.7956 21.448 30.816 22.5725 30.8365C23.5948 30.8365 24.3718 30.8262 24.9034 30.8058C25.435 30.7854 25.7417 30.7751 25.8235 30.7751C26.1302 30.7751 26.2835 30.8774 26.2835 31.0818C26.2835 31.5316 26.2017 31.8383 26.0382 32.0019C25.9973 32.1041 25.7724 32.1552 25.3634 32.1552C23.9118 32.237 23.0019 32.646 22.6339 33.382L18.0642 51.4768C18.0233 51.62 17.8086 51.6915 17.4201 51.6915C17.1339 51.6915 16.9601 51.6711 16.8987 51.6302C16.8374 51.5689 15.5186 48.4713 12.9424 42.3374L9.04741 33.1673L7.05392 41.1413C5.72492 46.3755 5.06042 49.0846 5.06042 49.2687C5.16265 49.9434 5.89871 50.2807 7.2686 50.2807H7.57529C7.69797 50.383 7.75931 50.4648 7.75931 50.5261C7.75931 50.5874 7.73886 50.7817 7.69797 51.1088C7.61618 51.3746 7.51395 51.5689 7.39128 51.6915H6.99258C6.35875 51.6506 5.25466 51.6302 3.6803 51.6302C3.10781 51.6302 2.58644 51.6302 2.11617 51.6302C1.64591 51.6302 1.26766 51.6302 0.981414 51.6302C0.695169 51.6302 0.521376 51.6404 0.460038 51.6609C0.153346 51.6609 0 51.5689 0 51.3848C0 51.3031 0.0306692 51.1395 0.0920076 50.8941C0.153346 50.6488 0.204461 50.5057 0.245354 50.4648C0.286246 50.3421 0.521376 50.2807 0.950745 50.2807C2.34108 50.2194 3.24071 49.8207 3.64963 49.0846C3.73142 48.962 4.45726 46.1302 5.82715 40.5893L7.91265 32.2473C7.87176 32.2268 7.30949 32.1961 6.22585 32.1552Z" stroke="black"/>
<path d="M36.5209 41.0493C36.5209 40.7835 36.664 40.5791 36.9502 40.4359H56.4865C56.7932 40.5995 56.9466 40.804 56.9466 41.0493C56.9466 41.2742 56.8034 41.4685 56.5172 41.632L46.7644 41.6627H37.0116C36.6844 41.5605 36.5209 41.356 36.5209 41.0493ZM36.5209 46.9991C36.5209 46.6924 36.6844 46.488 37.0116 46.3858H56.5172C56.8034 46.5902 56.9466 46.7947 56.9466 46.9991C56.9466 47.2649 56.7932 47.4694 56.4865 47.6125H36.9502C36.664 47.4694 36.5209 47.2649 36.5209 46.9991Z" stroke="black"/>
<path d="M80.3104 28.6896C80.3104 29.1803 80.7806 29.4666 81.7212 29.5484C82.0892 29.5484 82.2732 29.6608 82.2732 29.8857C82.2732 29.9062 82.2528 30.0391 82.2119 30.2844C82.1505 30.5707 82.0892 30.7547 82.0279 30.8365C81.9665 30.9183 81.8336 30.9591 81.6292 30.9591C81.5883 30.9591 81.4656 30.9591 81.2611 30.9591C81.0567 30.9591 80.7091 30.9489 80.2184 30.9285C79.7277 30.908 79.0734 30.8978 78.2555 30.8978C76.8039 30.8978 75.8736 30.9183 75.4646 30.9591H75.2193C75.0762 30.816 75.0046 30.7036 75.0046 30.6218C75.0455 30.0697 75.1784 29.7119 75.4033 29.5484H75.8327C77.2639 29.487 78.3067 28.9759 78.9609 28.0149C79.0836 27.8922 80.934 24.7742 84.5121 18.6608C88.0901 12.5474 89.9098 9.44981 89.9712 9.36803C90.1143 9.12268 90.3597 9 90.7072 9H91.474C91.5966 9.18402 91.658 9.28625 91.658 9.30669L92.5167 19.2128C93.0892 25.8169 93.3959 29.1497 93.4368 29.211C93.539 29.4359 94.2035 29.5484 95.4303 29.5484C95.9415 29.5484 96.197 29.6506 96.197 29.8551C96.197 29.8959 96.1664 30.0391 96.105 30.2844C96.0437 30.5911 95.9926 30.7751 95.9517 30.8365C95.9108 30.8978 95.7677 30.9387 95.5223 30.9591C95.461 30.9591 95.3178 30.9591 95.0929 30.9591C94.868 30.9591 94.4693 30.9489 93.8968 30.9285C93.3243 30.908 92.5781 30.8978 91.658 30.8978C89.736 30.8978 88.4786 30.9183 87.8857 30.9591H87.5176C87.395 30.8365 87.3336 30.7445 87.3336 30.6831C87.3336 30.6218 87.3541 30.4378 87.395 30.1311C87.4768 29.8653 87.5381 29.7017 87.579 29.6404L87.7017 29.5484H88.315C89.4191 29.487 90.0734 29.3132 90.2779 29.027L89.9098 24.4266H82.6106L81.5678 26.2054C80.7295 27.6162 80.3104 28.4443 80.3104 28.6896ZM89.7565 22.9852C89.7565 22.7602 89.6338 21.1654 89.3885 18.2008C89.1431 15.2361 89 13.7435 88.9591 13.7231L88.131 15.0418C87.8039 15.5939 87.1598 16.6877 86.1989 18.3234L83.4386 22.9852L86.5976 23.0158C88.7035 23.0158 89.7565 23.0056 89.7565 22.9852Z" stroke="black"/>
<path d="M80.6937 60.923C80.5506 60.7798 80.479 60.6776 80.479 60.6163C80.479 60.5345 80.5097 60.3709 80.571 60.1256C80.6324 59.8802 80.6835 59.7371 80.7244 59.6962C80.7653 59.594 80.8573 59.5428 81.0004 59.5428C81.1435 59.5428 81.6649 59.5326 82.5645 59.5122H84.19L84.7727 57.0586C84.8341 56.8337 84.9056 56.5373 84.9874 56.1692C85.0692 55.8012 85.1407 55.5354 85.2021 55.3718C85.2634 55.2083 85.3248 55.0038 85.3861 54.7584C85.4474 54.5131 85.5292 54.3393 85.6315 54.2371C85.7337 54.1348 85.8359 54.0122 85.9381 53.869C86.0404 53.7259 86.1835 53.6339 86.3675 53.593C86.5515 53.5521 86.7355 53.5317 86.9196 53.5317C87.2876 53.5521 87.5432 53.6646 87.6863 53.869C87.8294 54.0735 87.901 54.2677 87.901 54.4518C87.901 54.5949 87.809 55.0754 87.625 55.8932C87.4409 56.7111 87.2365 57.5187 87.0116 58.3161L86.7049 59.4508C86.7049 59.4917 87.216 59.5122 88.2383 59.5122H89.8025C89.9456 59.6553 90.0172 59.7678 90.0172 59.8495C90.0172 60.2994 89.8843 60.6572 89.6185 60.923H86.3369L85.2328 65.37C84.4354 68.6414 84.0367 70.3997 84.0367 70.6451C84.0367 71.5038 84.3127 71.9332 84.8647 71.9332C85.5803 71.9332 86.2755 71.5856 86.9502 70.8904C87.625 70.1953 88.1668 69.3365 88.5757 68.3142C88.6166 68.1916 88.6677 68.12 88.729 68.0996C88.7904 68.0791 88.9437 68.0587 89.1891 68.0382H89.3118C89.6185 68.0382 89.7718 68.12 89.7718 68.2836C89.7718 68.3449 89.7411 68.4676 89.6798 68.6516C89.5776 68.9787 89.3935 69.3672 89.1277 69.817C88.8619 70.2668 88.5144 70.7473 88.085 71.2585C87.6556 71.7696 87.1343 72.199 86.5209 72.5466C85.9075 72.8942 85.2839 73.068 84.65 73.068C84.0367 73.068 83.4539 72.9146 82.9019 72.6079C82.3499 72.3012 81.9512 71.7696 81.7058 71.0131C81.6649 70.8496 81.6445 70.5735 81.6445 70.1851V69.633L82.7179 65.3393C83.4335 62.4564 83.8015 61.0047 83.822 60.9843C83.822 60.9434 83.3006 60.923 82.2579 60.923H80.6937Z" stroke="black"/>
<path d="M100 44.9443H70.8643V43.1042H100V44.9443Z" stroke="black"/>
</svg>
