<svg width="101" height="83" viewBox="0 0 101 83" fill="none" xmlns="http://www.w3.org/2000/svg">
<rect width="100.244" height="82.6669" fill="white"/>
<path d="M0.660553 53.8081C0.220184 53.8081 0 53.6785 0 53.4195C0 53.3677 0.0388561 53.1864 0.116568 52.8755C0.220184 52.461 0.323801 52.2279 0.427417 52.1761C0.531033 52.1243 0.82893 52.0854 1.32111 52.0595C2.02052 52.0595 2.79764 52.0207 3.65247 51.943C4.01513 51.8652 4.26122 51.7098 4.39074 51.4767C4.44255 51.3472 5.36214 47.7076 7.14952 40.5581C8.9369 33.4086 9.84354 29.782 9.86944 29.6784C9.86944 29.4971 9.81764 29.4064 9.71402 29.4064C9.50679 29.3287 8.82033 29.264 7.65465 29.2122H6.45011C6.29468 29.0567 6.21697 28.9531 6.21697 28.9013C6.21697 28.8495 6.24288 28.6293 6.29468 28.2408C6.3983 27.8004 6.52782 27.5284 6.68325 27.4248H27.6267C27.808 27.5284 27.8987 27.6709 27.8987 27.8522C27.8987 27.9817 27.7303 29.4323 27.3935 32.2041C27.0568 34.9758 26.8755 36.4005 26.8495 36.4782C26.7977 36.6596 26.5387 36.7502 26.0724 36.7502H25.6062C25.4248 36.6207 25.3342 36.4523 25.3342 36.2451C25.3342 36.2192 25.373 35.9084 25.4507 35.3126C25.5284 34.7168 25.5673 34.0303 25.5673 33.2532C25.5673 32.4761 25.4766 31.8414 25.2953 31.3492C25.114 30.8571 24.8679 30.4555 24.557 30.1447C24.2462 29.8339 23.767 29.6266 23.1194 29.523C22.4718 29.4194 21.8112 29.3287 21.1377 29.251C20.4642 29.1733 19.5317 29.1603 18.3401 29.2122H17.4464C15.3222 29.2381 14.1954 29.2769 14.0659 29.3287C13.9364 29.3805 13.8457 29.4841 13.7939 29.6396C13.768 29.6655 13.3276 31.3622 12.4728 34.7297L11.2294 39.7422H13.3665C13.4442 39.7422 13.7421 39.7422 14.2602 39.7422C14.7783 39.7422 15.1409 39.7292 15.3482 39.7033C15.5554 39.6774 15.8403 39.6385 16.203 39.5867C16.5656 39.5349 16.8765 39.4443 17.1355 39.3147C17.3946 39.1852 17.6148 39.0298 17.7961 38.8485C18.1328 38.5376 18.4178 38.1102 18.6509 37.5662C18.8841 37.0222 19.0524 36.53 19.156 36.0897C19.2597 35.6493 19.3244 35.4162 19.3503 35.3903C19.428 35.2608 19.6741 35.196 20.0886 35.196H20.5549C20.7362 35.3255 20.8269 35.455 20.8269 35.5846C20.8269 35.6623 20.4253 37.359 19.6223 40.6747C18.8193 43.9904 18.3789 45.7001 18.3012 45.8037C18.2494 45.985 17.9904 46.0757 17.5241 46.0757H17.0578C16.8765 45.9203 16.7858 45.7648 16.7858 45.6094C16.7858 45.5317 16.8506 45.2468 16.9801 44.7546C17.1096 44.2624 17.1744 43.7443 17.1744 43.2003C17.1744 42.4491 16.9153 41.9829 16.3973 41.8015C15.8792 41.6202 14.7265 41.5295 12.9391 41.5295H10.802L9.5586 46.4643C8.72967 49.6764 8.3152 51.3601 8.3152 51.5155C8.3152 51.8782 9.46793 52.0595 11.7734 52.0595H12.7448C12.9002 52.215 12.9779 52.3056 12.9779 52.3315C12.9779 52.3574 12.952 52.6165 12.9002 53.1086C12.7966 53.4454 12.6671 53.6915 12.5117 53.8469H11.8511C10.789 53.7951 8.83328 53.7692 5.98384 53.7692C4.30007 53.7692 3.01782 53.7692 2.13708 53.7692C1.25635 53.7692 0.76417 53.7821 0.660553 53.8081Z" fill="black"/>
<path d="M40.83 47.3968C40.83 45.454 41.4258 43.6666 42.6174 42.0347C43.8089 40.4027 45.3761 39.5867 47.3189 39.5867C48.3033 39.5867 49.2617 39.8199 50.1943 40.2861C51.1268 40.7524 51.9817 41.3353 52.7588 42.0347C53.5359 42.7341 54.3001 43.4076 55.0513 44.0552C55.8025 44.7028 56.6185 45.2727 57.4992 45.7648C58.38 46.257 59.2866 46.5031 60.2192 46.5031C61.8252 46.5031 63.1334 45.8944 64.1436 44.6769C65.1539 43.4594 65.659 42.1383 65.659 40.7136C65.659 40.4027 65.7108 40.1437 65.8144 39.9364C65.918 39.7292 66.0476 39.6126 66.203 39.5867C66.5657 39.5867 66.747 40.0141 66.747 40.869C66.747 42.7859 66.1641 44.5603 64.9985 46.1923C63.8328 47.8242 62.3433 48.6402 60.53 48.6402H60.2192C59.2607 48.6402 58.3152 48.4071 57.3827 47.9408C56.4501 47.4745 55.5823 46.9046 54.7793 46.2311C53.9763 45.5576 53.2121 44.8841 52.4868 44.2106C51.7615 43.5371 50.9455 42.9543 50.0389 42.4621C49.1322 41.9699 48.2385 41.7368 47.3578 41.7627C46.218 41.7627 45.2078 42.0865 44.327 42.7341C43.3945 43.4853 42.7598 44.366 42.4231 45.3763C42.0863 46.3865 41.8791 47.1896 41.8014 47.7854C41.7237 48.3812 41.5812 48.6791 41.374 48.6791C41.0113 48.6791 40.83 48.2516 40.83 47.3968Z" fill="black"/>
<path d="M81.7377 42.6175C81.919 41.5295 82.6184 40.2732 83.8359 38.8485C85.0534 37.4237 86.5558 36.6984 88.3432 36.6725C89.2498 36.6725 90.0788 36.9057 90.83 37.3719C91.5812 37.8382 92.1381 38.421 92.5008 39.1205C93.5888 37.4885 94.8969 36.6725 96.4253 36.6725C97.3837 36.6725 98.2126 36.9575 98.912 37.5274C99.6114 38.0972 99.9741 38.8614 100 39.8199C100 40.5711 99.8187 41.1798 99.456 41.6461C99.0934 42.1124 98.7437 42.3973 98.4069 42.5009C98.0702 42.6046 97.7723 42.6564 97.5132 42.6564C97.021 42.6564 96.6195 42.5139 96.3087 42.2289C95.9978 41.944 95.8424 41.5684 95.8424 41.1021C95.8424 39.9105 96.49 39.0946 97.7852 38.6542C97.5003 38.3174 96.9822 38.1491 96.231 38.1491C95.8942 38.1491 95.6481 38.175 95.4927 38.2268C94.5083 38.6412 93.783 39.4961 93.3168 40.7913C91.7625 46.5161 90.9854 49.8577 90.9854 50.8161C90.9854 51.5414 91.1926 52.0595 91.6071 52.3704C92.0216 52.6812 92.4749 52.8367 92.9671 52.8367C93.9255 52.8367 94.871 52.4092 95.8036 51.5544C96.7361 50.6996 97.3707 49.6505 97.7075 48.4071C97.7852 48.148 97.8629 48.0055 97.9406 47.9796C98.0183 47.9537 98.2256 47.9278 98.5623 47.9019H98.7178C99.1063 47.9019 99.3006 48.0055 99.3006 48.2128C99.3006 48.2387 99.2747 48.3812 99.2229 48.6402C98.8084 50.1167 98.0054 51.4249 96.8138 52.5647C95.6222 53.7044 94.2364 54.2743 92.6562 54.2743C90.8429 54.2743 89.47 53.4583 88.5375 51.8264C87.4754 53.4324 86.2579 54.2355 84.885 54.2355H84.6519C83.3826 54.2355 82.4759 53.8987 81.9319 53.2252C81.3879 52.5517 81.103 51.8393 81.0771 51.0881C81.0771 50.2592 81.3232 49.5857 81.8154 49.0676C82.3075 48.5495 82.8904 48.2905 83.5639 48.2905C84.6778 48.2905 85.2347 48.8345 85.2347 49.9224C85.2347 50.4405 85.0793 50.8938 84.7684 51.2824C84.4576 51.671 84.1597 51.93 83.8747 52.0595C83.5898 52.1891 83.4214 52.2538 83.3696 52.2538L83.253 52.2927C83.253 52.3186 83.3307 52.3704 83.4862 52.4481C83.6416 52.5258 83.8488 52.6165 84.1079 52.7201C84.3669 52.8237 84.613 52.8626 84.8461 52.8367C85.7787 52.8367 86.5817 52.2538 87.2552 51.0881C87.4884 50.6737 87.7862 49.7929 88.1489 48.4459C88.5116 47.0989 88.8742 45.7001 89.2369 44.2495C89.5995 42.7988 89.8068 41.944 89.8586 41.685C89.9881 40.9855 90.0529 40.4804 90.0529 40.1696C90.0529 39.4443 89.8586 38.9262 89.47 38.6153C89.0815 38.3045 88.6411 38.1491 88.1489 38.1491C87.1127 38.1491 86.1413 38.5635 85.2347 39.3924C84.3281 40.2214 83.6934 41.2834 83.3308 42.5786C83.2789 42.8118 83.2142 42.9413 83.1365 42.9672C83.0588 42.9931 82.8515 43.019 82.5148 43.0449H81.9708C81.8154 42.8895 81.7377 42.747 81.7377 42.6175Z" fill="black"/>
<path d="M0.660553 53.8081C0.220184 53.8081 0 53.6785 0 53.4195C0 53.3677 0.0388561 53.1864 0.116568 52.8755C0.220184 52.461 0.323801 52.2279 0.427417 52.1761C0.531033 52.1243 0.82893 52.0854 1.32111 52.0595C2.02052 52.0595 2.79764 52.0207 3.65247 51.943C4.01513 51.8652 4.26122 51.7098 4.39074 51.4767C4.44255 51.3472 5.36214 47.7076 7.14952 40.5581C8.9369 33.4086 9.84354 29.782 9.86944 29.6784C9.86944 29.4971 9.81764 29.4064 9.71402 29.4064C9.50679 29.3287 8.82033 29.264 7.65465 29.2122H6.45011C6.29468 29.0567 6.21697 28.9531 6.21697 28.9013C6.21697 28.8495 6.24288 28.6293 6.29468 28.2408C6.3983 27.8004 6.52782 27.5284 6.68325 27.4248H27.6267C27.808 27.5284 27.8987 27.6709 27.8987 27.8522C27.8987 27.9817 27.7303 29.4323 27.3935 32.2041C27.0568 34.9758 26.8755 36.4005 26.8495 36.4782C26.7977 36.6596 26.5387 36.7502 26.0724 36.7502H25.6062C25.4248 36.6207 25.3342 36.4523 25.3342 36.2451C25.3342 36.2192 25.373 35.9084 25.4507 35.3126C25.5284 34.7168 25.5673 34.0303 25.5673 33.2532C25.5673 32.4761 25.4766 31.8414 25.2953 31.3492C25.114 30.8571 24.8679 30.4555 24.557 30.1447C24.2462 29.8339 23.767 29.6266 23.1194 29.523C22.4718 29.4194 21.8112 29.3287 21.1377 29.251C20.4642 29.1733 19.5317 29.1603 18.3401 29.2122H17.4464C15.3222 29.2381 14.1954 29.2769 14.0659 29.3287C13.9364 29.3805 13.8457 29.4841 13.7939 29.6396C13.768 29.6655 13.3276 31.3622 12.4728 34.7297L11.2294 39.7422H13.3665C13.4442 39.7422 13.7421 39.7422 14.2602 39.7422C14.7783 39.7422 15.1409 39.7292 15.3482 39.7033C15.5554 39.6774 15.8403 39.6385 16.203 39.5867C16.5656 39.5349 16.8765 39.4443 17.1355 39.3147C17.3946 39.1852 17.6148 39.0298 17.7961 38.8485C18.1328 38.5376 18.4178 38.1102 18.6509 37.5662C18.8841 37.0222 19.0524 36.53 19.156 36.0897C19.2597 35.6493 19.3244 35.4162 19.3503 35.3903C19.428 35.2608 19.6741 35.196 20.0886 35.196H20.5549C20.7362 35.3255 20.8269 35.455 20.8269 35.5846C20.8269 35.6623 20.4253 37.359 19.6223 40.6747C18.8193 43.9904 18.3789 45.7001 18.3012 45.8037C18.2494 45.985 17.9904 46.0757 17.5241 46.0757H17.0578C16.8765 45.9203 16.7858 45.7648 16.7858 45.6094C16.7858 45.5317 16.8506 45.2468 16.9801 44.7546C17.1096 44.2624 17.1744 43.7443 17.1744 43.2003C17.1744 42.4491 16.9153 41.9829 16.3973 41.8015C15.8792 41.6202 14.7265 41.5295 12.9391 41.5295H10.802L9.5586 46.4643C8.72967 49.6764 8.3152 51.3601 8.3152 51.5155C8.3152 51.8782 9.46793 52.0595 11.7734 52.0595H12.7448C12.9002 52.215 12.9779 52.3056 12.9779 52.3315C12.9779 52.3574 12.952 52.6165 12.9002 53.1086C12.7966 53.4454 12.6671 53.6915 12.5117 53.8469H11.8511C10.789 53.7951 8.83328 53.7692 5.98384 53.7692C4.30007 53.7692 3.01782 53.7692 2.13708 53.7692C1.25635 53.7692 0.76417 53.7821 0.660553 53.8081Z" stroke="black"/>
<path d="M40.83 47.3968C40.83 45.454 41.4258 43.6666 42.6174 42.0347C43.8089 40.4027 45.3761 39.5867 47.3189 39.5867C48.3033 39.5867 49.2617 39.8199 50.1943 40.2861C51.1268 40.7524 51.9817 41.3353 52.7588 42.0347C53.5359 42.7341 54.3001 43.4076 55.0513 44.0552C55.8025 44.7028 56.6185 45.2727 57.4992 45.7648C58.38 46.257 59.2866 46.5031 60.2192 46.5031C61.8252 46.5031 63.1334 45.8944 64.1436 44.6769C65.1539 43.4594 65.659 42.1383 65.659 40.7136C65.659 40.4027 65.7108 40.1437 65.8144 39.9364C65.918 39.7292 66.0476 39.6126 66.203 39.5867C66.5657 39.5867 66.747 40.0141 66.747 40.869C66.747 42.7859 66.1641 44.5603 64.9985 46.1923C63.8328 47.8242 62.3433 48.6402 60.53 48.6402H60.2192C59.2607 48.6402 58.3152 48.4071 57.3827 47.9408C56.4501 47.4745 55.5823 46.9046 54.7793 46.2311C53.9763 45.5576 53.2121 44.8841 52.4868 44.2106C51.7615 43.5371 50.9455 42.9543 50.0389 42.4621C49.1322 41.9699 48.2385 41.7368 47.3578 41.7627C46.218 41.7627 45.2078 42.0865 44.327 42.7341C43.3945 43.4853 42.7598 44.366 42.4231 45.3763C42.0863 46.3865 41.8791 47.1896 41.8014 47.7854C41.7237 48.3812 41.5812 48.6791 41.374 48.6791C41.0113 48.6791 40.83 48.2516 40.83 47.3968Z" stroke="black"/>
<path d="M81.7377 42.6175C81.919 41.5295 82.6184 40.2732 83.8359 38.8485C85.0534 37.4237 86.5558 36.6984 88.3432 36.6725C89.2498 36.6725 90.0788 36.9057 90.83 37.3719C91.5812 37.8382 92.1381 38.421 92.5008 39.1205C93.5888 37.4885 94.8969 36.6725 96.4253 36.6725C97.3837 36.6725 98.2126 36.9575 98.912 37.5274C99.6114 38.0972 99.9741 38.8614 100 39.8199C100 40.5711 99.8187 41.1798 99.456 41.6461C99.0934 42.1124 98.7437 42.3973 98.4069 42.5009C98.0702 42.6046 97.7723 42.6564 97.5132 42.6564C97.021 42.6564 96.6195 42.5139 96.3087 42.2289C95.9978 41.944 95.8424 41.5684 95.8424 41.1021C95.8424 39.9105 96.49 39.0946 97.7852 38.6542C97.5003 38.3174 96.9822 38.1491 96.231 38.1491C95.8942 38.1491 95.6481 38.175 95.4927 38.2268C94.5083 38.6412 93.783 39.4961 93.3168 40.7913C91.7625 46.5161 90.9854 49.8577 90.9854 50.8161C90.9854 51.5414 91.1926 52.0595 91.6071 52.3704C92.0216 52.6812 92.4749 52.8367 92.9671 52.8367C93.9255 52.8367 94.871 52.4092 95.8036 51.5544C96.7361 50.6996 97.3707 49.6505 97.7075 48.4071C97.7852 48.148 97.8629 48.0055 97.9406 47.9796C98.0183 47.9537 98.2256 47.9278 98.5623 47.9019H98.7178C99.1063 47.9019 99.3006 48.0055 99.3006 48.2128C99.3006 48.2387 99.2747 48.3812 99.2229 48.6402C98.8084 50.1167 98.0054 51.4249 96.8138 52.5647C95.6222 53.7044 94.2364 54.2743 92.6562 54.2743C90.8429 54.2743 89.47 53.4583 88.5375 51.8264C87.4754 53.4324 86.2579 54.2355 84.885 54.2355H84.6519C83.3826 54.2355 82.4759 53.8987 81.9319 53.2252C81.3879 52.5517 81.103 51.8393 81.0771 51.0881C81.0771 50.2592 81.3232 49.5857 81.8154 49.0676C82.3075 48.5495 82.8904 48.2905 83.5639 48.2905C84.6778 48.2905 85.2347 48.8345 85.2347 49.9224C85.2347 50.4405 85.0793 50.8938 84.7684 51.2824C84.4576 51.671 84.1597 51.93 83.8747 52.0595C83.5898 52.1891 83.4214 52.2538 83.3696 52.2538L83.253 52.2927C83.253 52.3186 83.3307 52.3704 83.4862 52.4481C83.6416 52.5258 83.8488 52.6165 84.1079 52.7201C84.3669 52.8237 84.613 52.8626 84.8461 52.8367C85.7787 52.8367 86.5817 52.2538 87.2552 51.0881C87.4884 50.6737 87.7862 49.7929 88.1489 48.4459C88.5116 47.0989 88.8742 45.7001 89.2369 44.2495C89.5995 42.7988 89.8068 41.944 89.8586 41.685C89.9881 40.9855 90.0529 40.4804 90.0529 40.1696C90.0529 39.4443 89.8586 38.9262 89.47 38.6153C89.0815 38.3045 88.6411 38.1491 88.1489 38.1491C87.1127 38.1491 86.1413 38.5635 85.2347 39.3924C84.3281 40.2214 83.6934 41.2834 83.3308 42.5786C83.2789 42.8118 83.2142 42.9413 83.1365 42.9672C83.0588 42.9931 82.8515 43.019 82.5148 43.0449H81.9708C81.8154 42.8895 81.7377 42.747 81.7377 42.6175Z" stroke="black"/>
</svg>
