<svg width="101" height="83" viewBox="0 0 101 83" fill="none" xmlns="http://www.w3.org/2000/svg">
<rect width="100.244" height="82.6669" fill="white"/>
<path d="M1.85952 37.8383C1.87951 37.7783 1.89951 37.6983 1.9195 37.5983C1.9395 37.4984 1.98948 37.2784 2.06946 36.9385C2.14944 36.5986 2.24942 36.2887 2.36938 36.0088C2.48935 35.7288 2.63931 35.3989 2.81927 35.019C2.99922 34.6391 3.19917 34.3392 3.41911 34.1192C3.63905 33.8993 3.89899 33.6794 4.19891 33.4594C4.49883 33.2395 4.82874 33.1495 5.18865 33.1895C6.68826 33.1895 7.64801 33.8293 8.0679 35.109L8.36782 34.8391C9.6075 33.7393 10.7872 33.1895 11.9069 33.1895C13.2066 33.1895 14.2263 33.6594 14.9661 34.5991C15.7059 35.5389 16.0758 36.6786 16.0758 38.0182C16.0758 40.1777 15.316 42.1672 13.7964 43.9867C12.2768 45.8062 10.5573 46.726 8.63775 46.746C8.19787 46.746 7.80797 46.686 7.46806 46.566C7.24812 46.466 7.01818 46.3161 6.77824 46.1161C6.5383 45.9162 6.34835 45.7462 6.20839 45.6063L5.99844 45.3663C5.97845 45.3863 5.7585 46.2561 5.33861 47.9756C4.91872 49.6952 4.70878 50.565 4.70878 50.585C4.70878 50.7049 4.78875 50.7749 4.94871 50.7949C5.10867 50.8149 5.47858 50.8449 6.05842 50.8849H6.80823C6.9282 51.0249 6.98818 51.1148 6.98818 51.1548C6.98818 51.1948 6.95819 51.3748 6.89821 51.6947C6.83822 51.9346 6.77824 52.0846 6.71825 52.1446C6.65827 52.2045 6.5283 52.2445 6.32835 52.2645C6.28836 52.2645 6.17839 52.2645 5.99844 52.2645C5.81849 52.2645 5.47858 52.2545 4.97871 52.2345C4.47884 52.2145 3.859 52.2045 3.11919 52.2045C1.71955 52.2045 0.829784 52.2245 0.449883 52.2645H0.209945C0.0699818 52.1246 0 52.0146 0 51.9346C0.0399896 51.3948 0.169956 51.0448 0.389899 50.8849H0.989743C1.66957 50.8649 2.05946 50.7449 2.15944 50.525C2.21942 50.405 2.82926 48.0156 3.98896 43.3568C5.14866 38.6981 5.7585 36.2287 5.81849 35.9488C5.83848 35.8488 5.84848 35.7088 5.84848 35.5289C5.84848 34.7091 5.59854 34.2992 5.09867 34.2992C4.65879 34.2992 4.28888 34.5791 3.98896 35.139C3.68904 35.6988 3.4591 36.3087 3.29914 36.9685C3.13918 37.6283 3.01921 37.9882 2.93924 38.0482C2.89925 38.0882 2.73929 38.1082 2.45936 38.1082H2.03947C1.9195 37.9882 1.85952 37.8983 1.85952 37.8383ZM6.50831 43.3868C6.94819 44.9064 7.688 45.6662 8.72773 45.6662C9.32757 45.6662 9.90742 45.4363 10.4673 44.9764C11.0271 44.5165 11.487 43.9367 11.8469 43.2369C12.2068 42.5571 12.5667 41.4773 12.9266 39.9977C13.2865 38.5181 13.4765 37.4184 13.4965 36.6986V36.5186C13.4965 35.039 12.8866 34.2992 11.667 34.2992C11.447 34.2992 11.2271 34.3292 11.0071 34.3892C10.7872 34.4492 10.5673 34.5391 10.3473 34.6591C10.1274 34.7791 9.92742 34.909 9.74747 35.049C9.56751 35.189 9.39756 35.3389 9.2376 35.4989C9.07764 35.6588 8.92768 35.8088 8.78771 35.9488C8.64775 36.0887 8.53778 36.2287 8.4578 36.3687C8.37782 36.5086 8.29784 36.6086 8.21786 36.6686L8.12789 36.7886C8.12789 36.8085 8.09789 36.9485 8.03791 37.2084C7.97793 37.4684 7.86795 37.9083 7.708 38.5281C7.54804 39.1479 7.40807 39.6678 7.2881 40.0877C6.76824 42.2071 6.50831 43.3069 6.50831 43.3868Z" fill="black"/>
<path d="M15.0201 26.0513C15.0201 25.8914 15.0701 25.7514 15.1701 25.6315C15.27 25.5115 15.42 25.4515 15.6199 25.4515C15.7599 25.4515 15.8799 25.5015 15.9798 25.6015C16.0798 25.6814 16.1798 25.8714 16.2798 26.1713C16.4797 26.9111 16.8896 27.481 17.5094 27.8809C17.7294 28.0208 17.8394 28.2008 17.8394 28.4207C17.8394 28.6007 17.8094 28.7207 17.7494 28.7806C17.6894 28.8406 17.5494 28.9306 17.3295 29.0506C16.4697 29.4905 15.7199 30.1203 15.0801 30.9401C15.0401 30.9801 14.9901 31.0401 14.9301 31.12C14.8701 31.2 14.8201 31.26 14.7802 31.3C14.7402 31.34 14.6902 31.36 14.6302 31.36C14.5702 31.36 14.5002 31.37 14.4203 31.39C14.2803 31.39 14.1503 31.34 14.0304 31.24C13.9104 31.14 13.8404 30.9901 13.8204 30.7901C13.8204 30.4102 14.2903 29.8204 15.23 29.0206H10.1014L4.97271 28.9906C4.71278 28.8106 4.58281 28.6207 4.58281 28.4207C4.58281 28.2808 4.71278 28.0808 4.97271 27.8209H15.7399C15.26 27.0611 15.0201 26.4712 15.0201 26.0513Z" fill="black"/>
<path d="M28.7205 36.0388C28.7205 35.7788 28.8605 35.5789 29.1404 35.4389H48.2455C48.5454 35.5989 48.6953 35.7988 48.6953 36.0388C48.6953 36.2587 48.5554 36.4486 48.2754 36.6086L38.7379 36.6386H29.2004C28.8805 36.5386 28.7205 36.3387 28.7205 36.0388ZM28.7205 41.8572C28.7205 41.5573 28.8805 41.3574 29.2004 41.2574H48.2754C48.5554 41.4573 48.6953 41.6573 48.6953 41.8572C48.6953 42.1172 48.5454 42.3171 48.2455 42.4571H29.1404C28.8605 42.3171 28.7205 42.1172 28.7205 41.8572Z" fill="black"/>
<path d="M59.3366 37.8383C59.3566 37.7183 59.3866 37.5584 59.4265 37.3584C59.4665 37.1585 59.5865 36.7786 59.7864 36.2187C59.9864 35.6589 60.1863 35.189 60.3863 34.8091C60.5862 34.4292 60.9062 34.0593 61.346 33.6994C61.7859 33.3395 62.2258 33.1695 62.6657 33.1895C63.1056 33.2095 63.5355 33.2795 63.9554 33.3994C64.3753 33.5194 64.6752 33.6994 64.8551 33.9393C65.0351 34.1792 65.195 34.3992 65.335 34.5991C65.475 34.7991 65.555 34.989 65.5749 35.169L65.6349 35.3789C65.6349 35.4189 65.6449 35.4389 65.6649 35.4389L65.9948 35.109C67.1945 33.8293 68.6042 33.1895 70.2237 33.1895C70.5636 33.1895 70.8736 33.2095 71.1535 33.2495C71.4334 33.2895 71.6934 33.3594 71.9333 33.4594C72.1732 33.5594 72.3632 33.6594 72.5031 33.7593C72.6431 33.8593 72.7931 33.9793 72.953 34.1193C73.113 34.2592 73.213 34.3892 73.2529 34.5091C73.2929 34.6291 73.3729 34.7591 73.4929 34.899C73.6129 35.039 73.6528 35.159 73.6129 35.259C73.5729 35.3589 73.6029 35.4489 73.7028 35.5289C73.8028 35.6089 73.8228 35.6788 73.7628 35.7388L74.0028 35.4389C75.2624 33.9393 76.752 33.1895 78.4716 33.1895C79.5513 33.1895 80.4211 33.4594 81.0809 33.9993C81.7407 34.5391 82.0807 35.3289 82.1006 36.3687C82.1006 37.3884 81.7208 38.968 80.9609 41.1074C80.2011 43.2469 79.8212 44.5265 79.8212 44.9464C79.8412 45.2264 79.8912 45.4163 79.9712 45.5163C80.0512 45.6163 80.2011 45.6662 80.4211 45.6662C80.9809 45.6662 81.5008 45.3663 81.9807 44.7665C82.4606 44.1666 82.8505 43.3469 83.1504 42.3071C83.2104 42.0872 83.2703 41.9572 83.3303 41.9172C83.3903 41.8772 83.5503 41.8572 83.8102 41.8572C84.2101 41.8572 84.4101 41.9372 84.4101 42.0972C84.4101 42.1172 84.3701 42.2671 84.2901 42.5471C84.1301 43.1269 83.9102 43.6968 83.6303 44.2566C83.3503 44.8165 82.8904 45.3763 82.2506 45.9362C81.6108 46.496 80.921 46.766 80.1811 46.746C79.2414 46.746 78.5616 46.476 78.1417 45.9362C77.7218 45.3963 77.5118 44.8365 77.5118 44.2566C77.5118 43.8767 77.8718 42.677 78.5916 40.6576C79.3114 38.6381 79.6813 37.1185 79.7013 36.0987C79.7013 34.919 79.2614 34.3292 78.3816 34.3292H78.2317C76.5121 34.3292 75.0625 35.3389 73.8828 37.3584L73.6728 37.7183L72.6831 41.7373C72.0233 44.3566 71.6434 45.7662 71.5434 45.9662C71.2835 46.506 70.8536 46.776 70.2537 46.776C69.9938 46.776 69.7838 46.706 69.6239 46.566C69.4639 46.4261 69.354 46.3061 69.294 46.2061C69.234 46.1061 69.204 46.0062 69.204 45.9062C69.204 45.6862 69.5439 44.2566 70.2237 41.6173L71.3035 37.2384C71.3634 36.9385 71.3934 36.5586 71.3934 36.0987C71.3934 34.919 70.9535 34.3292 70.0738 34.3292H69.9238C68.2043 34.3292 66.7546 35.3389 65.5749 37.3584L65.365 37.7183L64.3753 41.7373C63.7154 44.3566 63.3355 45.7662 63.2356 45.9662C62.9756 46.506 62.5457 46.776 61.9459 46.776C61.686 46.776 61.476 46.716 61.3161 46.596C61.1561 46.476 61.0461 46.3561 60.9861 46.2361C60.9262 46.1161 60.9062 46.0162 60.9262 45.9362C60.9262 45.6762 61.3061 44.0367 62.0659 41.0175C62.8457 37.9383 63.2356 36.3287 63.2356 36.1887C63.2955 35.8888 63.3255 35.6189 63.3255 35.3789C63.3255 34.6591 63.0756 34.2992 62.5757 34.2992C62.1358 34.2992 61.7659 34.5791 61.466 35.139C61.1661 35.6988 60.9362 36.3087 60.7762 36.9685C60.6162 37.6283 60.4963 37.9882 60.4163 38.0482C60.3763 38.0882 60.2163 38.1082 59.9364 38.1082H59.5165C59.3966 37.9882 59.3366 37.8983 59.3366 37.8383Z" fill="black"/>
<path d="M90.4535 35.049C90.4535 34.5491 90.2635 34.2992 89.8836 34.2992C89.4037 34.2992 88.9039 34.5891 88.384 35.169C87.8641 35.7488 87.4343 36.6386 87.0944 37.8383C87.0744 37.8583 87.0544 37.8883 87.0344 37.9283C87.0144 37.9683 87.0044 37.9982 87.0044 38.0182C87.0044 38.0382 86.9844 38.0582 86.9444 38.0782C86.9044 38.0982 86.8744 38.1082 86.8544 38.1082C86.8344 38.1082 86.7944 38.1082 86.7344 38.1082C86.6745 38.1082 86.5945 38.1082 86.4945 38.1082H86.0746C85.9546 37.9882 85.8947 37.8983 85.8947 37.8383C85.8947 37.6983 85.9746 37.4084 86.1346 36.9685C86.2946 36.5286 86.5345 36.0088 86.8544 35.4089C87.1743 34.8091 87.6142 34.2992 88.1741 33.8793C88.7339 33.4594 89.3638 33.2395 90.0636 33.2195C90.9034 33.2195 91.5532 33.4594 92.0131 33.9393C92.473 34.4192 92.7129 34.979 92.7329 35.6189C92.7329 35.9588 92.7029 36.2187 92.6429 36.3987C92.6429 36.5186 92.4929 36.9585 92.193 37.7183C91.8931 38.4781 91.5832 39.3679 91.2633 40.3876C90.9434 41.4074 90.7634 42.2971 90.7234 43.0569C90.7234 43.5968 90.7734 44.0367 90.8734 44.3766C91.1333 45.2364 91.7631 45.6662 92.7629 45.6662C93.5027 45.6662 94.1925 45.3263 94.8323 44.6465C95.4722 43.9667 95.972 43.1769 96.3319 42.2771C96.6919 41.3774 96.9818 40.5476 97.2017 39.7878C97.4217 39.028 97.5316 38.4781 97.5316 38.1382C97.5316 37.6783 97.4517 37.2784 97.2917 36.9385C97.1317 36.5986 96.9518 36.3387 96.7518 36.1587C96.5519 35.9788 96.3719 35.7988 96.212 35.6189C96.052 35.4389 95.972 35.219 95.972 34.959C95.972 34.5191 96.162 34.1093 96.5419 33.7294C96.9218 33.3495 97.3317 33.1595 97.7716 33.1595C98.1515 33.1595 98.4914 33.3395 98.7913 33.6994C99.0912 34.0593 99.2512 34.6391 99.2712 35.4389C99.2712 35.9788 99.1512 36.8086 98.9113 37.9283C98.6713 39.048 98.3014 40.2976 97.8016 41.6773C97.3017 43.0569 96.5919 44.2466 95.6721 45.2464C94.7524 46.2461 93.6926 46.756 92.4929 46.776C91.2133 46.776 90.1935 46.446 89.4337 45.7862C88.6939 45.1464 88.324 44.1966 88.324 42.937C88.324 42.3171 88.404 41.6773 88.564 41.0175C88.7239 40.3576 89.1338 39.1879 89.7937 37.5084C90.2335 36.2287 90.4535 35.4089 90.4535 35.049Z" fill="black"/>
<path d="M97.1807 26.0214C97.1807 25.8614 97.2307 25.7214 97.3307 25.6015C97.4307 25.4815 97.5806 25.4215 97.7806 25.4215C97.9205 25.4215 98.0405 25.4715 98.1405 25.5715C98.2405 25.6515 98.3404 25.8414 98.4404 26.1413C98.6404 26.8811 99.0502 27.451 99.6701 27.8509C99.89 27.9908 100 28.1708 100 28.3907C100 28.5707 99.97 28.6907 99.91 28.7506C99.85 28.8106 99.7101 28.9006 99.4901 29.0206C98.6304 29.4605 97.8806 30.0903 97.2407 30.9101C97.2007 30.9501 97.1507 31.0101 97.0908 31.09C97.0308 31.17 96.9808 31.23 96.9408 31.27C96.9008 31.31 96.8508 31.33 96.7908 31.33C96.7308 31.33 96.6609 31.34 96.5809 31.36C96.4409 31.36 96.311 31.31 96.191 31.21C96.071 31.11 96.001 30.9601 95.981 30.7601C95.981 30.3802 96.4509 29.7904 97.3907 28.9906H92.262L87.1333 28.9606C86.8734 28.7806 86.7434 28.5907 86.7434 28.3907C86.7434 28.2508 86.8734 28.0508 87.1333 27.7909H97.9005C97.4207 27.0311 97.1807 26.4412 97.1807 26.0214Z" fill="black"/>
<path d="M1.85952 37.8383C1.87951 37.7783 1.89951 37.6983 1.9195 37.5983C1.9395 37.4984 1.98948 37.2784 2.06946 36.9385C2.14944 36.5986 2.24942 36.2887 2.36938 36.0088C2.48935 35.7288 2.63931 35.3989 2.81927 35.019C2.99922 34.6391 3.19917 34.3392 3.41911 34.1192C3.63905 33.8993 3.89899 33.6794 4.19891 33.4594C4.49883 33.2395 4.82874 33.1495 5.18865 33.1895C6.68826 33.1895 7.64801 33.8293 8.0679 35.109L8.36782 34.8391C9.6075 33.7393 10.7872 33.1895 11.9069 33.1895C13.2066 33.1895 14.2263 33.6594 14.9661 34.5991C15.7059 35.5389 16.0758 36.6786 16.0758 38.0182C16.0758 40.1777 15.316 42.1672 13.7964 43.9867C12.2768 45.8062 10.5573 46.726 8.63775 46.746C8.19787 46.746 7.80797 46.686 7.46806 46.566C7.24812 46.466 7.01818 46.3161 6.77824 46.1161C6.5383 45.9162 6.34835 45.7462 6.20839 45.6063L5.99844 45.3663C5.97845 45.3863 5.7585 46.2561 5.33861 47.9756C4.91872 49.6952 4.70878 50.565 4.70878 50.585C4.70878 50.7049 4.78875 50.7749 4.94871 50.7949C5.10867 50.8149 5.47858 50.8449 6.05842 50.8849H6.80823C6.9282 51.0249 6.98818 51.1148 6.98818 51.1548C6.98818 51.1948 6.95819 51.3748 6.89821 51.6947C6.83822 51.9346 6.77824 52.0846 6.71825 52.1446C6.65827 52.2045 6.5283 52.2445 6.32835 52.2645C6.28836 52.2645 6.17839 52.2645 5.99844 52.2645C5.81849 52.2645 5.47858 52.2545 4.97871 52.2345C4.47884 52.2145 3.859 52.2045 3.11919 52.2045C1.71955 52.2045 0.829784 52.2245 0.449883 52.2645H0.209945C0.0699818 52.1246 0 52.0146 0 51.9346C0.0399896 51.3948 0.169956 51.0448 0.389899 50.8849H0.989743C1.66957 50.8649 2.05946 50.7449 2.15944 50.525C2.21942 50.405 2.82926 48.0156 3.98896 43.3568C5.14866 38.6981 5.7585 36.2287 5.81849 35.9488C5.83848 35.8488 5.84848 35.7088 5.84848 35.5289C5.84848 34.7091 5.59854 34.2992 5.09867 34.2992C4.65879 34.2992 4.28888 34.5791 3.98896 35.139C3.68904 35.6988 3.4591 36.3087 3.29914 36.9685C3.13918 37.6283 3.01921 37.9882 2.93924 38.0482C2.89925 38.0882 2.73929 38.1082 2.45936 38.1082H2.03947C1.9195 37.9882 1.85952 37.8983 1.85952 37.8383ZM6.50831 43.3868C6.94819 44.9064 7.688 45.6662 8.72773 45.6662C9.32757 45.6662 9.90742 45.4363 10.4673 44.9764C11.0271 44.5165 11.487 43.9367 11.8469 43.2369C12.2068 42.5571 12.5667 41.4773 12.9266 39.9977C13.2865 38.5181 13.4765 37.4184 13.4965 36.6986V36.5186C13.4965 35.039 12.8866 34.2992 11.667 34.2992C11.447 34.2992 11.2271 34.3292 11.0071 34.3892C10.7872 34.4492 10.5673 34.5391 10.3473 34.6591C10.1274 34.7791 9.92742 34.909 9.74747 35.049C9.56751 35.189 9.39756 35.3389 9.2376 35.4989C9.07764 35.6588 8.92768 35.8088 8.78771 35.9488C8.64775 36.0887 8.53778 36.2287 8.4578 36.3687C8.37782 36.5086 8.29784 36.6086 8.21786 36.6686L8.12789 36.7886C8.12789 36.8085 8.09789 36.9485 8.03791 37.2084C7.97793 37.4684 7.86795 37.9083 7.708 38.5281C7.54804 39.1479 7.40807 39.6678 7.2881 40.0877C6.76824 42.2071 6.50831 43.3069 6.50831 43.3868Z" stroke="black"/>
<path d="M15.0201 26.0513C15.0201 25.8914 15.0701 25.7514 15.1701 25.6315C15.27 25.5115 15.42 25.4515 15.6199 25.4515C15.7599 25.4515 15.8799 25.5015 15.9798 25.6015C16.0798 25.6814 16.1798 25.8714 16.2798 26.1713C16.4797 26.9111 16.8896 27.481 17.5094 27.8809C17.7294 28.0208 17.8394 28.2008 17.8394 28.4207C17.8394 28.6007 17.8094 28.7207 17.7494 28.7806C17.6894 28.8406 17.5494 28.9306 17.3295 29.0506C16.4697 29.4905 15.7199 30.1203 15.0801 30.9401C15.0401 30.9801 14.9901 31.0401 14.9301 31.12C14.8701 31.2 14.8201 31.26 14.7802 31.3C14.7402 31.34 14.6902 31.36 14.6302 31.36C14.5702 31.36 14.5002 31.37 14.4203 31.39C14.2803 31.39 14.1503 31.34 14.0304 31.24C13.9104 31.14 13.8404 30.9901 13.8204 30.7901C13.8204 30.4102 14.2903 29.8204 15.23 29.0206H10.1014L4.97271 28.9906C4.71278 28.8106 4.58281 28.6207 4.58281 28.4207C4.58281 28.2808 4.71278 28.0808 4.97271 27.8209H15.7399C15.26 27.0611 15.0201 26.4712 15.0201 26.0513Z" stroke="black"/>
<path d="M28.7205 36.0388C28.7205 35.7788 28.8605 35.5789 29.1404 35.4389H48.2455C48.5454 35.5989 48.6953 35.7988 48.6953 36.0388C48.6953 36.2587 48.5554 36.4486 48.2754 36.6086L38.7379 36.6386H29.2004C28.8805 36.5386 28.7205 36.3387 28.7205 36.0388ZM28.7205 41.8572C28.7205 41.5573 28.8805 41.3574 29.2004 41.2574H48.2754C48.5554 41.4573 48.6953 41.6573 48.6953 41.8572C48.6953 42.1172 48.5454 42.3171 48.2455 42.4571H29.1404C28.8605 42.3171 28.7205 42.1172 28.7205 41.8572Z" stroke="black"/>
<path d="M59.3366 37.8383C59.3566 37.7183 59.3866 37.5584 59.4265 37.3584C59.4665 37.1585 59.5865 36.7786 59.7864 36.2187C59.9864 35.6589 60.1863 35.189 60.3863 34.8091C60.5862 34.4292 60.9062 34.0593 61.346 33.6994C61.7859 33.3395 62.2258 33.1695 62.6657 33.1895C63.1056 33.2095 63.5355 33.2795 63.9554 33.3994C64.3753 33.5194 64.6752 33.6994 64.8551 33.9393C65.0351 34.1792 65.195 34.3992 65.335 34.5991C65.475 34.7991 65.555 34.989 65.5749 35.169L65.6349 35.3789C65.6349 35.4189 65.6449 35.4389 65.6649 35.4389L65.9948 35.109C67.1945 33.8293 68.6042 33.1895 70.2237 33.1895C70.5636 33.1895 70.8736 33.2095 71.1535 33.2495C71.4334 33.2895 71.6934 33.3594 71.9333 33.4594C72.1732 33.5594 72.3632 33.6594 72.5031 33.7593C72.6431 33.8593 72.7931 33.9793 72.953 34.1193C73.113 34.2592 73.213 34.3892 73.2529 34.5091C73.2929 34.6291 73.3729 34.7591 73.4929 34.899C73.6129 35.039 73.6528 35.159 73.6129 35.259C73.5729 35.3589 73.6029 35.4489 73.7028 35.5289C73.8028 35.6089 73.8228 35.6788 73.7628 35.7388L74.0028 35.4389C75.2624 33.9393 76.752 33.1895 78.4716 33.1895C79.5513 33.1895 80.4211 33.4594 81.0809 33.9993C81.7407 34.5391 82.0807 35.3289 82.1006 36.3687C82.1006 37.3884 81.7208 38.968 80.9609 41.1074C80.2011 43.2469 79.8212 44.5265 79.8212 44.9464C79.8412 45.2264 79.8912 45.4163 79.9712 45.5163C80.0512 45.6163 80.2011 45.6662 80.4211 45.6662C80.9809 45.6662 81.5008 45.3663 81.9807 44.7665C82.4606 44.1666 82.8505 43.3469 83.1504 42.3071C83.2104 42.0872 83.2703 41.9572 83.3303 41.9172C83.3903 41.8772 83.5503 41.8572 83.8102 41.8572C84.2101 41.8572 84.4101 41.9372 84.4101 42.0972C84.4101 42.1172 84.3701 42.2671 84.2901 42.5471C84.1301 43.1269 83.9102 43.6968 83.6303 44.2566C83.3503 44.8165 82.8904 45.3763 82.2506 45.9362C81.6108 46.496 80.921 46.766 80.1811 46.746C79.2414 46.746 78.5616 46.476 78.1417 45.9362C77.7218 45.3963 77.5118 44.8365 77.5118 44.2566C77.5118 43.8767 77.8718 42.677 78.5916 40.6576C79.3114 38.6381 79.6813 37.1185 79.7013 36.0987C79.7013 34.919 79.2614 34.3292 78.3816 34.3292H78.2317C76.5121 34.3292 75.0625 35.3389 73.8828 37.3584L73.6728 37.7183L72.6831 41.7373C72.0233 44.3566 71.6434 45.7662 71.5434 45.9662C71.2835 46.506 70.8536 46.776 70.2537 46.776C69.9938 46.776 69.7838 46.706 69.6239 46.566C69.4639 46.4261 69.354 46.3061 69.294 46.2061C69.234 46.1061 69.204 46.0062 69.204 45.9062C69.204 45.6862 69.5439 44.2566 70.2237 41.6173L71.3035 37.2384C71.3634 36.9385 71.3934 36.5586 71.3934 36.0987C71.3934 34.919 70.9535 34.3292 70.0738 34.3292H69.9238C68.2043 34.3292 66.7546 35.3389 65.5749 37.3584L65.365 37.7183L64.3753 41.7373C63.7154 44.3566 63.3355 45.7662 63.2356 45.9662C62.9756 46.506 62.5457 46.776 61.9459 46.776C61.686 46.776 61.476 46.716 61.3161 46.596C61.1561 46.476 61.0461 46.3561 60.9861 46.2361C60.9262 46.1161 60.9062 46.0162 60.9262 45.9362C60.9262 45.6762 61.3061 44.0367 62.0659 41.0175C62.8457 37.9383 63.2356 36.3287 63.2356 36.1887C63.2955 35.8888 63.3255 35.6189 63.3255 35.3789C63.3255 34.6591 63.0756 34.2992 62.5757 34.2992C62.1358 34.2992 61.7659 34.5791 61.466 35.139C61.1661 35.6988 60.9362 36.3087 60.7762 36.9685C60.6162 37.6283 60.4963 37.9882 60.4163 38.0482C60.3763 38.0882 60.2163 38.1082 59.9364 38.1082H59.5165C59.3966 37.9882 59.3366 37.8983 59.3366 37.8383Z" stroke="black"/>
<path d="M90.4535 35.049C90.4535 34.5491 90.2635 34.2992 89.8836 34.2992C89.4037 34.2992 88.9039 34.5891 88.384 35.169C87.8641 35.7488 87.4343 36.6386 87.0944 37.8383C87.0744 37.8583 87.0544 37.8883 87.0344 37.9283C87.0144 37.9683 87.0044 37.9982 87.0044 38.0182C87.0044 38.0382 86.9844 38.0582 86.9444 38.0782C86.9044 38.0982 86.8744 38.1082 86.8544 38.1082C86.8344 38.1082 86.7944 38.1082 86.7344 38.1082C86.6745 38.1082 86.5945 38.1082 86.4945 38.1082H86.0746C85.9546 37.9882 85.8947 37.8983 85.8947 37.8383C85.8947 37.6983 85.9746 37.4084 86.1346 36.9685C86.2946 36.5286 86.5345 36.0088 86.8544 35.4089C87.1743 34.8091 87.6142 34.2992 88.1741 33.8793C88.7339 33.4594 89.3638 33.2395 90.0636 33.2195C90.9034 33.2195 91.5532 33.4594 92.0131 33.9393C92.473 34.4192 92.7129 34.979 92.7329 35.6189C92.7329 35.9588 92.7029 36.2187 92.6429 36.3987C92.6429 36.5186 92.4929 36.9585 92.193 37.7183C91.8931 38.4781 91.5832 39.3679 91.2633 40.3876C90.9434 41.4074 90.7634 42.2971 90.7234 43.0569C90.7234 43.5968 90.7734 44.0367 90.8734 44.3766C91.1333 45.2364 91.7631 45.6662 92.7629 45.6662C93.5027 45.6662 94.1925 45.3263 94.8323 44.6465C95.4722 43.9667 95.972 43.1769 96.3319 42.2771C96.6919 41.3774 96.9818 40.5476 97.2017 39.7878C97.4217 39.028 97.5316 38.4781 97.5316 38.1382C97.5316 37.6783 97.4517 37.2784 97.2917 36.9385C97.1317 36.5986 96.9518 36.3387 96.7518 36.1587C96.5519 35.9788 96.3719 35.7988 96.212 35.6189C96.052 35.4389 95.972 35.219 95.972 34.959C95.972 34.5191 96.162 34.1093 96.5419 33.7294C96.9218 33.3495 97.3317 33.1595 97.7716 33.1595C98.1515 33.1595 98.4914 33.3395 98.7913 33.6994C99.0912 34.0593 99.2512 34.6391 99.2712 35.4389C99.2712 35.9788 99.1512 36.8086 98.9113 37.9283C98.6713 39.048 98.3014 40.2976 97.8016 41.6773C97.3017 43.0569 96.5919 44.2466 95.6721 45.2464C94.7524 46.2461 93.6926 46.756 92.4929 46.776C91.2133 46.776 90.1935 46.446 89.4337 45.7862C88.6939 45.1464 88.324 44.1966 88.324 42.937C88.324 42.3171 88.404 41.6773 88.564 41.0175C88.7239 40.3576 89.1338 39.1879 89.7937 37.5084C90.2335 36.2287 90.4535 35.4089 90.4535 35.049Z" stroke="black"/>
<path d="M97.1807 26.0214C97.1807 25.8614 97.2307 25.7214 97.3307 25.6015C97.4307 25.4815 97.5806 25.4215 97.7806 25.4215C97.9205 25.4215 98.0405 25.4715 98.1405 25.5715C98.2405 25.6515 98.3404 25.8414 98.4404 26.1413C98.6404 26.8811 99.0502 27.451 99.6701 27.8509C99.89 27.9908 100 28.1708 100 28.3907C100 28.5707 99.97 28.6907 99.91 28.7506C99.85 28.8106 99.7101 28.9006 99.4901 29.0206C98.6304 29.4605 97.8806 30.0903 97.2407 30.9101C97.2007 30.9501 97.1507 31.0101 97.0908 31.09C97.0308 31.17 96.9808 31.23 96.9408 31.27C96.9008 31.31 96.8508 31.33 96.7908 31.33C96.7308 31.33 96.6609 31.34 96.5809 31.36C96.4409 31.36 96.311 31.31 96.191 31.21C96.071 31.11 96.001 30.9601 95.981 30.7601C95.981 30.3802 96.4509 29.7904 97.3907 28.9906H92.262L87.1333 28.9606C86.8734 28.7806 86.7434 28.5907 86.7434 28.3907C86.7434 28.2508 86.8734 28.0508 87.1333 27.7909H97.9005C97.4207 27.0311 97.1807 26.4412 97.1807 26.0214Z" stroke="black"/>
</svg>
