<svg width="296" height="237" viewBox="0 0 296 237" fill="none" xmlns="http://www.w3.org/2000/svg">
<rect width="295.77" height="236.35" fill="white"/>
<g clip-path="url(#clip0_212_27)">
<path d="M228.64 39.52C228.64 39.52 105.49 21 42.38 136" stroke="#00A8EC" stroke-miterlimit="10" stroke-dasharray="5.67 2.83"/>
<path d="M258 109.49C258 109.49 134.85 91 71.74 205.94" stroke="#00A8EC" stroke-miterlimit="10" stroke-dasharray="5.67 2.83"/>
<path d="M237.524 25.12H234.247L243.725 -0.690912H246.951L256.429 25.12H253.152L245.439 3.39245H245.237L237.524 25.12ZM238.734 15.0376H251.942V17.8103H238.734V15.0376Z" fill="#4E4E3F"/>
<path d="M275.796 122.94V97.1291H284.819C286.617 97.1291 288.1 97.44 289.268 98.0617C290.436 98.6751 291.306 99.5027 291.877 100.545C292.448 101.578 292.734 102.725 292.734 103.985C292.734 105.094 292.537 106.01 292.142 106.733C291.755 107.455 291.243 108.026 290.604 108.447C289.974 108.867 289.289 109.178 288.55 109.379V109.631C289.34 109.682 290.134 109.959 290.932 110.463C291.73 110.967 292.398 111.69 292.936 112.631C293.473 113.572 293.742 114.723 293.742 116.084C293.742 117.378 293.448 118.542 292.86 119.575C292.272 120.608 291.343 121.428 290.075 122.033C288.806 122.638 287.155 122.94 285.122 122.94H275.796ZM278.921 120.167H285.122C287.163 120.167 288.613 119.772 289.47 118.983C290.335 118.184 290.768 117.218 290.768 116.084C290.768 115.21 290.545 114.404 290.1 113.664C289.655 112.916 289.02 112.32 288.197 111.875C287.373 111.421 286.399 111.194 285.273 111.194H278.921V120.167ZM278.921 108.472H284.718C285.659 108.472 286.508 108.287 287.264 107.917C288.029 107.548 288.634 107.027 289.079 106.354C289.533 105.682 289.76 104.893 289.76 103.985C289.76 102.851 289.365 101.889 288.575 101.099C287.785 100.301 286.533 99.9017 284.819 99.9017H278.921V108.472Z" fill="#4E4E3F"/>
<path d="M4.18419 129.2H0.907415L10.3849 103.389H13.6112L23.0887 129.2H19.8119L12.0989 107.472H11.8972L4.18419 129.2ZM5.39408 119.118H18.602V121.89H5.39408V119.118Z" fill="#4E4E3F"/>
<path d="M28.8926 142.13C27.7912 142.13 26.8531 141.831 26.0783 141.231C25.3035 140.627 24.7114 139.752 24.3021 138.607C23.8927 137.457 23.688 136.068 23.688 134.441C23.688 132.823 23.8927 131.441 24.3021 130.296C24.7163 129.146 25.3108 128.269 26.0856 127.665C26.8653 127.055 27.801 126.751 28.8926 126.751C29.9841 126.751 30.9174 127.055 31.6922 127.665C32.4719 128.269 33.0664 129.146 33.4758 130.296C33.89 131.441 34.0971 132.823 34.0971 134.441C34.0971 136.068 33.8924 137.457 33.4831 138.607C33.0737 139.752 32.4816 140.627 31.7068 141.231C30.932 141.831 29.9939 142.13 28.8926 142.13ZM28.8926 140.522C29.9841 140.522 30.8321 139.996 31.4363 138.943C32.0406 137.891 32.3428 136.39 32.3428 134.441C32.3428 133.144 32.2039 132.041 31.9261 131.129C31.6532 130.218 31.2585 129.524 30.7419 129.046C30.2302 128.568 29.6138 128.33 28.8926 128.33C27.8107 128.33 26.9652 128.863 26.3561 129.931C25.7469 130.993 25.4424 132.496 25.4424 134.441C25.4424 135.737 25.5788 136.838 25.8517 137.745C26.1246 138.651 26.5169 139.341 27.0286 139.813C27.5451 140.286 28.1665 140.522 28.8926 140.522Z" fill="#4E4E3F"/>
<path d="M84.8355 221.81V195.999H93.8593C95.6573 195.999 97.1402 196.31 98.3081 196.932C99.476 197.545 100.346 198.373 100.917 199.414C101.488 200.448 101.774 201.595 101.774 202.855C101.774 203.964 101.576 204.88 101.182 205.603C100.795 206.325 100.283 206.896 99.644 207.317C99.0139 207.737 98.3291 208.048 97.5898 208.249V208.501C98.3795 208.552 99.1735 208.829 99.9717 209.333C100.77 209.837 101.438 210.56 101.976 211.501C102.513 212.442 102.782 213.593 102.782 214.954C102.782 216.248 102.488 217.412 101.9 218.445C101.312 219.478 100.383 220.298 99.1147 220.903C97.846 221.508 96.195 221.81 94.1617 221.81H84.8355ZM87.9611 219.037H94.1617C96.2034 219.037 97.6528 218.642 98.5098 217.853C99.3752 217.054 99.8079 216.088 99.8079 214.954C99.8079 214.08 99.5852 213.274 99.1399 212.534C98.6946 211.786 98.0603 211.19 97.2369 210.745C96.4135 210.291 95.4388 210.064 94.313 210.064H87.9611V219.037ZM87.9611 207.342H93.7584C94.6995 207.342 95.5481 207.157 96.3042 206.787C97.0688 206.418 97.6738 205.897 98.1191 205.224C98.5728 204.552 98.7996 203.763 98.7996 202.855C98.7996 201.721 98.4047 200.759 97.615 199.969C96.8252 199.171 95.5733 198.772 93.8593 198.772H87.9611V207.342Z" fill="#4E4E3F"/>
<path d="M111.143 234.74C110.041 234.74 109.103 234.441 108.328 233.841C107.553 233.237 106.961 232.362 106.552 231.217C106.143 230.067 105.938 228.678 105.938 227.051C105.938 225.433 106.143 224.051 106.552 222.906C106.966 221.756 107.561 220.879 108.336 220.275C109.115 219.665 110.051 219.361 111.143 219.361C112.234 219.361 113.167 219.665 113.942 220.275C114.722 220.879 115.316 221.756 115.726 222.906C116.14 224.051 116.347 225.433 116.347 227.051C116.347 228.678 116.142 230.067 115.733 231.217C115.324 232.362 114.732 233.237 113.957 233.841C113.182 234.441 112.244 234.74 111.143 234.74ZM111.143 233.132C112.234 233.132 113.082 232.606 113.686 231.553C114.291 230.501 114.593 229 114.593 227.051C114.593 225.754 114.454 224.651 114.176 223.739C113.903 222.828 113.508 222.134 112.992 221.656C112.48 221.178 111.864 220.94 111.143 220.94C110.061 220.94 109.215 221.473 108.606 222.541C107.997 223.603 107.692 225.106 107.692 227.051C107.692 228.347 107.829 229.448 108.102 230.355C108.375 231.261 108.767 231.951 109.279 232.423C109.795 232.896 110.416 233.132 111.143 233.132Z" fill="#4E4E3F"/>
<path d="M230.8 90.98V39.33" stroke="#4E4E3F" stroke-miterlimit="10" stroke-dasharray="5.67 2.83"/>
<path d="M262.69 59.09H211.04L230.99 39.52H282.64L262.69 59.09Z" stroke="#4E4E3F" stroke-miterlimit="10"/>
<path d="M262.69 110.74H211.04L230.99 91.17H282.64L262.69 110.74Z" stroke="#4E4E3F" stroke-miterlimit="10" stroke-dasharray="5.67 2.83"/>
<path d="M219.81 11.94L270.73 128.87" stroke="#76A900" stroke-miterlimit="10"/>
<path d="M282.64 91.17L262.69 110.74V59.09L282.64 39.52V91.17Z" stroke="#4E4E3F" stroke-miterlimit="10"/>
<path d="M262.69 59.09H211.04V110.74H262.69V59.09Z" stroke="#4E4E3F" stroke-miterlimit="10"/>
<path d="M230.99 41.87C232.288 41.87 233.34 40.8179 233.34 39.52C233.34 38.2221 232.288 37.17 230.99 37.17C229.692 37.17 228.64 38.2221 228.64 39.52C228.64 40.8179 229.692 41.87 230.99 41.87Z" fill="#C3DA90" stroke="#4E4E3F" stroke-miterlimit="10"/>
<path d="M262.69 113.09C263.988 113.09 265.04 112.038 265.04 110.74C265.04 109.442 263.988 108.39 262.69 108.39C261.392 108.39 260.34 109.442 260.34 110.74C260.34 112.038 261.392 113.09 262.69 113.09Z" fill="#C3DA90" stroke="#4E4E3F" stroke-miterlimit="10"/>
<path d="M39.84 187.43V135.78" stroke="#4E4E3F" stroke-miterlimit="10" stroke-dasharray="5.67 2.83"/>
<path d="M71.74 155.53H20.09L40.03 135.97H91.69L71.74 155.53Z" stroke="#4E4E3F" stroke-miterlimit="10"/>
<path d="M71.74 207.19H20.09L40.03 187.62H91.69L71.74 207.19Z" stroke="#4E4E3F" stroke-miterlimit="10" stroke-dasharray="5.67 2.83"/>
<path d="M28.86 108.39L79.77 225.32" stroke="#76A900" stroke-miterlimit="10"/>
<path d="M91.69 187.62L71.74 207.19V155.53L91.69 135.97V187.62Z" stroke="#4E4E3F" stroke-miterlimit="10"/>
<path d="M71.74 155.53H20.09V207.18H71.74V155.53Z" stroke="#4E4E3F" stroke-miterlimit="10"/>
<path d="M40.03 138.32C41.3279 138.32 42.38 137.268 42.38 135.97C42.38 134.672 41.3279 133.62 40.03 133.62C38.7321 133.62 37.68 134.672 37.68 135.97C37.68 137.268 38.7321 138.32 40.03 138.32Z" fill="#C3DA90" stroke="#4E4E3F" stroke-miterlimit="10"/>
<path d="M71.74 209.54C73.0379 209.54 74.09 208.488 74.09 207.19C74.09 205.892 73.0379 204.84 71.74 204.84C70.4421 204.84 69.39 205.892 69.39 207.19C69.39 208.488 70.4421 209.54 71.74 209.54Z" fill="#C3DA90" stroke="#4E4E3F" stroke-miterlimit="10"/>
</g>
<defs>
<clipPath id="clip0_212_27">
<rect width="295.77" height="236.35" fill="white"/>
</clipPath>
</defs>
</svg>
