<svg width="198" height="198" viewBox="0 0 198 198" fill="none" xmlns="http://www.w3.org/2000/svg">
<rect width="198" height="198" rx="15" fill="#242424"/>
<path d="M40.1866 134L56.4841 109.235C51.9317 107.778 48.5326 105.442 46.2868 102.225C44.041 99.0076 42.9181 95.1836 42.9181 90.7526C42.9181 86.6252 43.8285 83.044 45.6495 80.0091C47.4704 76.9135 50.1715 74.5159 53.7527 72.8164C57.3338 71.1168 61.7648 70.2671 67.0455 70.2671H92.9939V134H79.3369V110.692H69.3217L55.1184 134H40.1866ZM56.5751 90.7526C56.5751 93.7875 57.5159 96.0941 59.3976 97.6722C61.2792 99.1897 64.739 99.9484 69.7769 99.9484H79.3369V81.5569H69.7769C64.739 81.5569 61.2792 82.346 59.3976 83.9241C57.5159 85.4416 56.5751 87.7177 56.5751 90.7526ZM107.681 134V70.2671H132.173C137.939 70.2671 142.704 71.1472 146.467 72.9074C150.23 74.607 153.022 77.0349 154.843 80.1912C156.664 83.2868 157.575 86.959 157.575 91.2079C157.575 95.4567 156.664 99.1593 154.843 102.316C153.022 105.411 150.23 107.839 146.467 109.599C142.704 111.299 137.939 112.149 132.173 112.149H121.247V134H107.681ZM121.247 100.859H130.807C135.663 100.859 139.062 100.039 141.004 98.4006C143.007 96.7618 144.009 94.3642 144.009 91.2079C144.009 88.1123 143.007 85.7451 141.004 84.1062C139.062 82.4067 135.663 81.5569 130.807 81.5569H121.247V100.859Z" fill="white"/>
</svg>
