<svg width="198" height="198" viewBox="0 0 198 198" fill="none" xmlns="http://www.w3.org/2000/svg">
<rect width="198" height="198" rx="15" fill="#242424"/>
<path d="M27.3748 134V70.2671H40.9408V95.5781H48.953C49.5599 89.4476 51.1077 84.4704 53.5964 80.6464C56.085 76.7617 59.2716 73.8786 63.1563 71.9969C67.041 70.1153 71.3202 69.1745 75.9939 69.1745C81.3354 69.1745 86.1002 70.2671 90.2883 72.4522C94.4765 74.5766 97.7542 77.9454 100.121 82.5584C102.489 87.1715 103.672 93.2413 103.672 100.768V102.589C103.672 110.237 102.458 116.458 100.03 121.253C97.6024 126.049 94.2944 129.569 90.1062 131.815C85.9181 134 81.214 135.093 75.9939 135.093C71.1381 135.093 66.7375 134.152 62.7921 132.27C58.9074 130.328 55.7208 127.293 53.2322 123.165C50.8043 119.038 49.3475 113.605 48.8619 106.868H40.9408V134H27.3748ZM75.9939 123.621C78.604 123.621 80.9105 122.983 82.9135 121.709C84.9166 120.373 86.5251 118.188 87.739 115.153C88.953 112.058 89.56 107.869 89.56 102.589V100.768C89.56 95.7906 88.953 91.8452 87.739 88.9317C86.5251 85.9575 84.9166 83.8331 82.9135 82.5584C80.9105 81.2838 78.604 80.6464 75.9939 80.6464C73.4446 80.6464 71.1381 81.2838 69.0744 82.5584C67.0713 83.8331 65.4628 85.9575 64.2489 88.9317C63.0349 91.8452 62.4279 95.7906 62.4279 100.768V102.589C62.4279 107.869 63.0349 112.058 64.2489 115.153C65.4628 118.188 67.0713 120.373 69.0744 121.709C71.1381 122.983 73.4446 123.621 75.9939 123.621ZM115.666 134V70.2671H129.232V95.5781H156.546V70.2671H170.112V134H156.546V106.868H129.232V134H115.666Z" fill="white"/>
</svg>
